<svg width="449" height="295" viewBox="0 0 449 295" fill="none" xmlns="http://www.w3.org/2000/svg">
<mask id="mask0_536_6750" style="mask-type:alpha" maskUnits="userSpaceOnUse" x="-69" y="0" width="542" height="295">
<rect x="-69" width="542" height="295" fill="url(#paint0_radial_536_6750)"/>
</mask>
<g mask="url(#mask0_536_6750)">
<g clip-path="url(#clip0_536_6750)">
<g filter="url(#filter0_ddddd_536_6750)">
<rect y="20" width="267" height="285.69" rx="8.75973" fill="#131018"/>
<rect x="0.286562" y="20.2866" width="266.427" height="285.117" rx="8.47317" stroke="#EADEFF" stroke-opacity="0.12" stroke-width="0.573125"/>
<rect width="267" height="32.36" transform="translate(0 20)" fill="#222028"/>
<path d="M14.48 40.6797H13.4654V34.3429H10.8933V33.4707H17.0521V34.3429H14.48V40.6797ZM19.4181 40.7865C18.8604 40.7865 18.3768 40.6738 17.9674 40.4483C17.558 40.2169 17.2406 39.8906 17.0151 39.4693C16.7956 39.048 16.6858 38.5556 16.6858 37.9919C16.6858 37.4282 16.7956 36.9417 17.0151 36.5323C17.2406 36.117 17.555 35.7966 17.9585 35.5711C18.362 35.3456 18.8337 35.2329 19.3736 35.2329C19.8898 35.2329 20.3348 35.3367 20.7086 35.5444C21.0883 35.7521 21.382 36.0458 21.5897 36.4255C21.7974 36.8052 21.9012 37.2562 21.9012 37.7783V38.1788H17.647C17.6767 38.7365 17.8458 39.1726 18.1543 39.4871C18.4688 39.7956 18.8871 39.9499 19.4092 39.9499C19.7711 39.9499 20.0767 39.8757 20.3259 39.7274C20.5751 39.5731 20.7472 39.3477 20.8421 39.051H21.8567C21.7262 39.6028 21.4443 40.03 21.0112 40.3326C20.584 40.6352 20.053 40.7865 19.4181 40.7865ZM17.6826 37.449H20.94C20.8925 37.0099 20.7294 36.6688 20.4505 36.4255C20.1776 36.1822 19.8156 36.0606 19.3647 36.0606C18.9197 36.0606 18.5489 36.1822 18.2522 36.4255C17.9555 36.6688 17.7657 37.0099 17.6826 37.449ZM25.0045 40.7865C24.2628 40.7865 23.6784 40.6322 23.2512 40.3237C22.824 40.0152 22.5896 39.585 22.5481 39.0332H23.536C23.5775 39.3595 23.7199 39.5998 23.9632 39.7541C24.2065 39.9084 24.5654 39.9855 25.0401 39.9855C25.8708 39.9855 26.2861 39.7244 26.2861 39.2023C26.2861 38.9887 26.2208 38.8255 26.0903 38.7128C25.9657 38.5941 25.7521 38.5081 25.4495 38.4547L24.2836 38.2411C23.2927 38.0572 22.7973 37.5855 22.7973 36.826C22.7973 36.3335 22.9842 35.9449 23.358 35.6601C23.7318 35.3753 24.2421 35.2329 24.8888 35.2329C25.5593 35.2329 26.0903 35.3783 26.4819 35.669C26.8794 35.9597 27.1049 36.3691 27.1583 36.8972H26.1882C26.1289 36.6005 25.9894 36.381 25.7699 36.2386C25.5563 36.0962 25.2537 36.025 24.8621 36.025C24.5002 36.025 24.2183 36.0873 24.0166 36.2119C23.8208 36.3365 23.7229 36.5175 23.7229 36.7548C23.7229 36.9387 23.7852 37.0841 23.9098 37.1909C24.0403 37.2918 24.248 37.3689 24.5328 37.4223L25.6987 37.6448C26.2208 37.7397 26.6035 37.9088 26.8468 38.1521C27.0901 38.3954 27.2117 38.7217 27.2117 39.1311C27.2117 39.6532 27.0218 40.0597 26.6421 40.3504C26.2624 40.6411 25.7165 40.7865 25.0045 40.7865ZM29.4782 40.6797C29.1934 40.6797 28.9709 40.6085 28.8107 40.4661C28.6564 40.3178 28.5793 40.0982 28.5793 39.8075V36.1051H27.5825V35.3397H28.5882V33.7377H29.5672V35.3397H30.9645V36.1051H29.5761V39.8965H31.1069V40.6797H29.4782ZM34.6292 40.6797V33.4707H38.0913C38.8211 33.4707 39.3966 33.6428 39.8179 33.9869C40.2391 34.331 40.4498 34.8176 40.4498 35.4465C40.4498 35.7728 40.3756 36.0665 40.2273 36.3276C40.0849 36.5827 39.8624 36.7934 39.5598 36.9595V36.9951C39.8446 36.9951 40.0641 37.0722 40.2184 37.2265C40.3726 37.3748 40.4498 37.5884 40.4498 37.8673V40.6797H39.4352V37.7249H35.6527V40.6797H34.6292ZM35.6527 36.8794H37.9934C38.4502 36.8794 38.8062 36.7696 39.0614 36.5501C39.3165 36.3246 39.4441 36.0102 39.4441 35.6067C39.4441 35.1973 39.3165 34.8828 39.0614 34.6633C38.8062 34.4438 38.4502 34.334 37.9934 34.334H35.6527V36.8794ZM43.9701 40.7776C43.2819 40.7776 42.7419 40.5877 42.3503 40.208C41.9587 39.8223 41.7629 39.3061 41.7629 38.6594V35.3397H42.7597V38.4458C42.7597 38.9264 42.8843 39.2913 43.1335 39.5405C43.3827 39.7838 43.7447 39.9054 44.2193 39.9054C44.7237 39.9054 45.1123 39.7778 45.3852 39.5227C45.6641 39.2616 45.8035 38.8997 45.8035 38.4369V35.3397H46.8003V39.6473H47.3165V40.6797H46.2485V39.8609H45.8747C45.6849 40.1576 45.4297 40.386 45.1093 40.5462C44.7889 40.7005 44.4092 40.7776 43.9701 40.7776ZM48.4208 40.6797V36.3721H47.9046V35.3397H48.9726V36.1585H49.3464C49.5304 35.8618 49.7825 35.6364 50.1029 35.4821C50.4233 35.3219 50.8001 35.2418 51.2332 35.2418C51.9215 35.2418 52.4644 35.4406 52.8619 35.8381C53.2595 36.2297 53.4582 36.7548 53.4582 37.4134V40.6797H52.4614V37.5825C52.4614 37.1019 52.3309 36.737 52.0698 36.4878C51.8147 36.2386 51.4379 36.114 50.9395 36.114C50.4471 36.114 50.0703 36.2386 49.8092 36.4878C49.5482 36.737 49.4176 37.1019 49.4176 37.5825V40.6797H48.4208ZM57.4497 40.6797V33.4707H60.9118C61.6416 33.4707 62.2172 33.6428 62.6384 33.9869C63.0597 34.331 63.2703 34.8176 63.2703 35.4465C63.2703 35.7728 63.1962 36.0665 63.0478 36.3276C62.9054 36.5827 62.6829 36.7934 62.3803 36.9595V36.9951C62.6651 36.9951 62.8847 37.0722 63.0389 37.2265C63.1932 37.3748 63.2703 37.5884 63.2703 37.8673V40.6797H62.2557V37.7249H58.4732V40.6797H57.4497ZM58.4732 36.8794H60.8139C61.2708 36.8794 61.6268 36.7696 61.8819 36.5501C62.1371 36.3246 62.2646 36.0102 62.2646 35.6067C62.2646 35.1973 62.1371 34.8828 61.8819 34.6633C61.6268 34.4438 61.2708 34.334 60.8139 34.334H58.4732V36.8794ZM67.0488 40.7865C66.4911 40.7865 66.0075 40.6738 65.5981 40.4483C65.1887 40.2169 64.8713 39.8906 64.6458 39.4693C64.4263 39.048 64.3165 38.5556 64.3165 37.9919C64.3165 37.4282 64.4263 36.9417 64.6458 36.5323C64.8713 36.117 65.1857 35.7966 65.5892 35.5711C65.9927 35.3456 66.4644 35.2329 67.0043 35.2329C67.5205 35.2329 67.9655 35.3367 68.3393 35.5444C68.719 35.7521 69.0127 36.0458 69.2204 36.4255C69.4281 36.8052 69.5319 37.2562 69.5319 37.7783V38.1788H65.2777C65.3074 38.7365 65.4765 39.1726 65.785 39.4871C66.0995 39.7956 66.5178 39.9499 67.0399 39.9499C67.4018 39.9499 67.7074 39.8757 67.9566 39.7274C68.2058 39.5731 68.3779 39.3477 68.4728 39.051H69.4874C69.3569 39.6028 69.075 40.03 68.6419 40.3326C68.2147 40.6352 67.6837 40.7865 67.0488 40.7865ZM65.3133 37.449H68.5707C68.5232 37.0099 68.3601 36.6688 68.0812 36.4255C67.8083 36.1822 67.4463 36.0606 66.9954 36.0606C66.5504 36.0606 66.1796 36.1822 65.8829 36.4255C65.5862 36.6688 65.3964 37.0099 65.3133 37.449ZM70.7929 42.8157V36.3721H70.2767V35.3397H71.3447V36.1585H71.7185C71.8965 35.8559 72.1398 35.6275 72.4483 35.4732C72.7569 35.313 73.1247 35.2329 73.5519 35.2329C74.0919 35.2329 74.5487 35.3456 74.9225 35.5711C75.2963 35.7966 75.5811 36.117 75.7769 36.5323C75.9787 36.9476 76.0795 37.4401 76.0795 38.0097C76.0795 38.5793 75.9816 39.0718 75.7858 39.4871C75.59 39.9024 75.3082 40.2228 74.9403 40.4483C74.5784 40.6738 74.1453 40.7865 73.6409 40.7865C73.2197 40.7865 72.8518 40.7034 72.5373 40.5373C72.2229 40.3652 71.9855 40.1249 71.8253 39.8164H71.7897V42.8157H70.7929ZM73.4006 39.9321C73.9346 39.9321 74.347 39.763 74.6377 39.4248C74.9344 39.0866 75.0827 38.6149 75.0827 38.0097C75.0827 37.4045 74.9344 36.9328 74.6377 36.5946C74.347 36.2564 73.9346 36.0873 73.4006 36.0873C72.9141 36.0873 72.5225 36.2267 72.2258 36.5056C71.9351 36.7845 71.7897 37.1553 71.7897 37.6181V38.4013C71.7897 38.8641 71.9351 39.2349 72.2258 39.5138C72.5225 39.7927 72.9141 39.9321 73.4006 39.9321ZM79.5475 40.7865C78.9957 40.7865 78.5121 40.6738 78.0968 40.4483C77.6874 40.2169 77.3699 39.8935 77.1445 39.4782C76.919 39.0629 76.8063 38.5734 76.8063 38.0097C76.8063 37.446 76.919 36.9565 77.1445 36.5412C77.3699 36.1259 77.6874 35.8055 78.0968 35.58C78.5121 35.3486 78.9957 35.2329 79.5475 35.2329C80.1171 35.2329 80.6036 35.3456 81.0071 35.5711C81.4165 35.7966 81.7309 36.117 81.9505 36.5323C82.1759 36.9476 82.2887 37.4401 82.2887 38.0097C82.2887 38.5734 82.1759 39.0658 81.9505 39.4871C81.7309 39.9024 81.4165 40.2228 81.0071 40.4483C80.5977 40.6738 80.1111 40.7865 79.5475 40.7865ZM79.5475 39.9143C80.0993 39.9143 80.5265 39.7482 80.8291 39.4159C81.1376 39.0777 81.2919 38.609 81.2919 38.0097C81.2919 37.4045 81.1376 36.9358 80.8291 36.6035C80.5265 36.2712 80.0993 36.1051 79.5475 36.1051C79.0016 36.1051 78.5744 36.2742 78.2659 36.6124C77.9573 36.9447 77.8031 37.4104 77.8031 38.0097C77.8031 38.609 77.9573 39.0777 78.2659 39.4159C78.5744 39.7482 79.0016 39.9143 79.5475 39.9143ZM83.6518 40.6797V36.3721H83.1356V35.3397H84.2036V36.3365H84.5774C84.7257 36.0102 84.9541 35.755 85.2627 35.5711C85.5771 35.3872 85.945 35.2952 86.3663 35.2952H86.8024V36.1496H86.3129C85.7789 36.1496 85.3665 36.3068 85.0758 36.6213C84.785 36.9358 84.6397 37.36 84.6397 37.894V40.6797H83.6518ZM88.9624 40.6797C88.6776 40.6797 88.4551 40.6085 88.2949 40.4661C88.1407 40.3178 88.0635 40.0982 88.0635 39.8075V36.1051H87.0667V35.3397H88.0724V33.7377H89.0514V35.3397H90.4487V36.1051H89.0603V39.8965H90.5911V40.6797H88.9624ZM91.4747 40.6797V35.3397H92.4715V40.6797H91.4747ZM91.9731 34.6099C91.807 34.6099 91.6646 34.5506 91.5459 34.4319C91.4273 34.3132 91.3679 34.1708 91.3679 34.0047C91.3679 33.8386 91.4273 33.6962 91.5459 33.5775C91.6646 33.4588 91.807 33.3995 91.9731 33.3995C92.1393 33.3995 92.2817 33.4588 92.4003 33.5775C92.519 33.6962 92.5783 33.8386 92.5783 34.0047C92.5783 34.1708 92.519 34.3132 92.4003 34.4319C92.2817 34.5506 92.1393 34.6099 91.9731 34.6099ZM94.0908 40.6797V36.3721H93.5746V35.3397H94.6426V36.1585H95.0164C95.2003 35.8618 95.4525 35.6364 95.7729 35.4821C96.0933 35.3219 96.47 35.2418 96.9032 35.2418C97.5914 35.2418 98.1343 35.4406 98.5319 35.8381C98.9294 36.2297 99.1282 36.7548 99.1282 37.4134V40.6797H98.1314V37.5825C98.1314 37.1019 98.0008 36.737 97.7398 36.4878C97.4846 36.2386 97.1079 36.114 96.6095 36.114C96.117 36.114 95.7402 36.2386 95.4792 36.4878C95.2181 36.737 95.0876 37.1019 95.0876 37.5825V40.6797H94.0908ZM102.733 42.9225C101.991 42.9225 101.389 42.7682 100.926 42.4597C100.463 42.1512 100.19 41.724 100.107 41.1781H101.157C101.318 41.7833 101.837 42.0859 102.715 42.0859C103.273 42.0859 103.7 41.9524 103.996 41.6854C104.293 41.4243 104.441 41.0505 104.441 40.564V39.7007H104.397C104.255 40.0152 104.029 40.2584 103.721 40.4305C103.412 40.5966 103.047 40.6797 102.626 40.6797C102.122 40.6797 101.682 40.5699 101.309 40.3504C100.935 40.1249 100.647 39.8105 100.445 39.407C100.244 38.9976 100.143 38.514 100.143 37.9563C100.143 37.1197 100.368 36.4581 100.819 35.9716C101.27 35.4791 101.887 35.2329 102.67 35.2329C103.098 35.2329 103.465 35.313 103.774 35.4732C104.083 35.6275 104.326 35.8559 104.504 36.1585H104.878V35.3397H105.946V36.3721H105.429V40.6085C105.429 41.3383 105.192 41.9049 104.717 42.3084C104.249 42.7178 103.587 42.9225 102.733 42.9225ZM102.866 39.8075C103.335 39.8075 103.712 39.671 103.996 39.3981C104.287 39.1252 104.433 38.7632 104.433 38.3123V37.6003C104.433 37.1494 104.287 36.7874 103.996 36.5145C103.712 36.2416 103.335 36.1051 102.866 36.1051C102.326 36.1051 101.902 36.2683 101.593 36.5946C101.291 36.915 101.14 37.3689 101.14 37.9563C101.14 38.5437 101.291 39.0006 101.593 39.3269C101.902 39.6473 102.326 39.8075 102.866 39.8075Z" fill="#918B9C"/>
<rect x="10.9297" y="63.29" width="197.5" height="37.5" rx="1.53" stroke="#312C3F" stroke-width="0.5"/>
<path d="M18.2866 75.4805V71.498H18.852V74.9986H21.0202V75.4805H18.2866ZM23.4261 75.5395C23.0229 75.5395 22.6706 75.4559 22.369 75.2887C22.0707 75.1183 21.8396 74.879 21.6758 74.5709C21.5119 74.2628 21.4299 73.9022 21.4299 73.4892C21.4299 73.0729 21.5119 72.7124 21.6758 72.4076C21.8396 72.0994 22.0707 71.8618 22.369 71.6946C22.6706 71.5242 23.0229 71.439 23.4261 71.439C23.8325 71.439 24.1849 71.5242 24.4832 71.6946C24.7847 71.8618 25.0158 72.0994 25.1764 72.4076C25.3403 72.7124 25.4223 73.0729 25.4223 73.4892C25.4223 73.9022 25.3403 74.2628 25.1764 74.5709C25.0125 74.879 24.7798 75.1183 24.4783 75.2887C24.18 75.4559 23.8293 75.5395 23.4261 75.5395ZM23.4261 75.0478C23.8719 75.0478 24.2209 74.9085 24.4733 74.6299C24.7257 74.3513 24.8519 73.9711 24.8519 73.4892C24.8519 73.0041 24.7257 72.6239 24.4733 72.3486C24.2209 72.0699 23.8719 71.9306 23.4261 71.9306C22.9836 71.9306 22.6345 72.0699 22.3788 72.3486C22.1264 72.6239 22.0003 73.0041 22.0003 73.4892C22.0003 73.9743 22.1264 74.3562 22.3788 74.6348C22.6345 74.9101 22.9836 75.0478 23.4261 75.0478ZM28.1162 75.5395C27.736 75.5395 27.4 75.4542 27.1083 75.2838C26.8166 75.1134 26.5904 74.8741 26.4298 74.566C26.2692 74.2579 26.1889 73.8989 26.1889 73.4892C26.1889 73.0795 26.2725 72.7206 26.4396 72.4125C26.6101 72.1044 26.8461 71.8651 27.1476 71.6946C27.4525 71.5242 27.8048 71.439 28.2047 71.439C28.5161 71.439 28.7914 71.4898 29.0307 71.5914C29.27 71.6897 29.465 71.8339 29.6158 72.0241C29.7666 72.2142 29.8665 72.4469 29.9157 72.7222H29.3306C29.2815 72.4666 29.1602 72.2715 28.9668 72.1371C28.7734 71.9995 28.5194 71.9306 28.2047 71.9306C27.913 71.9306 27.6573 71.9946 27.4377 72.1224C27.2214 72.2502 27.0542 72.4305 26.9362 72.6632C26.8182 72.8959 26.7592 73.1729 26.7592 73.4941C26.7592 73.8088 26.8182 74.0858 26.9362 74.3251C27.0575 74.5611 27.2246 74.7462 27.4377 74.8806C27.654 75.0117 27.8999 75.0773 28.1752 75.0773C28.4014 75.0773 28.603 75.038 28.78 74.9593C28.9602 74.8774 29.1028 74.7692 29.2077 74.6348C29.3126 74.5004 29.365 74.348 29.365 74.1776V73.9268H28.1162V73.4696H29.4093C29.5699 73.4696 29.6945 73.5105 29.783 73.5925C29.8715 73.6744 29.9157 73.7924 29.9157 73.9465V75.4805H29.3798V74.9003H29.3552C29.27 75.0937 29.1143 75.2494 28.8881 75.3674C28.6652 75.4821 28.4079 75.5395 28.1162 75.5395ZM30.9756 75.4805V71.498H31.5361V75.4805H30.9756ZM36.3737 75.4805H35.7394L33.3155 72.2404H33.2958V75.4805H32.7648V71.498H33.3991L35.823 74.7528H35.8427V71.498H36.3737V75.4805ZM39.8405 75.4805H39.2751V71.498H42.0039V71.9798H39.8405V73.2336H41.876V73.7154H39.8405V75.4805ZM42.8241 75.4805V71.498H43.3895V74.9986H45.5578V75.4805H42.8241ZM47.9636 75.5395C47.5605 75.5395 47.2081 75.4559 46.9065 75.2887C46.6083 75.1183 46.3772 74.879 46.2133 74.5709C46.0494 74.2628 45.9675 73.9022 45.9675 73.4892C45.9675 73.0729 46.0494 72.7124 46.2133 72.4076C46.3772 72.0994 46.6083 71.8618 46.9065 71.6946C47.2081 71.5242 47.5605 71.439 47.9636 71.439C48.3701 71.439 48.7224 71.5242 49.0207 71.6946C49.3223 71.8618 49.5534 72.0994 49.714 72.4076C49.8779 72.7124 49.9598 73.0729 49.9598 73.4892C49.9598 73.9022 49.8779 74.2628 49.714 74.5709C49.5501 74.879 49.3174 75.1183 49.0158 75.2887C48.7175 75.4559 48.3668 75.5395 47.9636 75.5395ZM47.9636 75.0478C48.4094 75.0478 48.7585 74.9085 49.0109 74.6299C49.2633 74.3513 49.3895 73.9711 49.3895 73.4892C49.3895 73.0041 49.2633 72.6239 49.0109 72.3486C48.7585 72.0699 48.4094 71.9306 47.9636 71.9306C47.5211 71.9306 47.172 72.0699 46.9164 72.3486C46.664 72.6239 46.5378 73.0041 46.5378 73.4892C46.5378 73.9743 46.664 74.3562 46.9164 74.6348C47.172 74.9101 47.5211 75.0478 47.9636 75.0478ZM51.5554 75.4805L50.3803 71.498H50.9605L51.8602 74.7381H51.8848L52.8337 71.498H53.3795L54.3776 74.7381H54.3972L55.2921 71.498H55.8772L54.7021 75.4805H54.1072L53.1091 72.206H53.0894L52.1503 75.4805H51.5554Z" fill="#918B9C" fill-opacity="0.3"/>
<path d="M19.0221 92.6006V91.2953H21.5141V84.7805L18.8559 86.5961H18.8085V84.9822L21.7514 82.9886H23.1279V91.2953H25.2521V92.6006H19.0221ZM26.4534 92.6006V91.4851L30.4169 87.6403C30.8994 87.1815 31.2238 86.8136 31.3899 86.5367C31.564 86.2519 31.651 85.9553 31.651 85.6467C31.651 85.1958 31.5007 84.8437 31.2001 84.5906C30.8994 84.3295 30.4841 84.199 29.9541 84.199C28.7911 84.199 28.1424 84.7884 28.0079 85.9671H26.4534C26.5167 84.9861 26.8569 84.2227 27.4739 83.6769C28.0989 83.1231 28.9296 82.8462 29.9659 82.8462C30.6384 82.8462 31.2198 82.9609 31.7103 83.1903C32.2008 83.4197 32.5805 83.7401 32.8495 84.1515C33.1185 84.5629 33.253 85.0494 33.253 85.6111C33.253 86.0779 33.1225 86.5328 32.8614 86.9758C32.6003 87.4188 32.185 87.9133 31.6154 88.4591L28.7437 91.1647L28.7555 91.2122H33.3954V92.6006H26.4534ZM37.9906 92.743C36.8197 92.743 35.9297 92.3237 35.3206 91.4851C34.7193 90.6386 34.4187 89.4085 34.4187 87.7946C34.4187 86.1807 34.7193 84.9545 35.3206 84.1159C35.9297 83.2694 36.8197 82.8462 37.9906 82.8462C39.1614 82.8462 40.0475 83.2694 40.6487 84.1159C41.2579 84.9545 41.5624 86.1807 41.5624 87.7946C41.5624 89.4085 41.2579 90.6386 40.6487 91.4851C40.0475 92.3237 39.1614 92.743 37.9906 92.743ZM37.9906 91.3665C38.663 91.3665 39.1614 91.0737 39.4858 90.4883C39.8101 89.895 39.9723 88.9971 39.9723 87.7946C39.9723 86.5842 39.8101 85.6863 39.4858 85.1009C39.1614 84.5154 38.663 84.2227 37.9906 84.2227C37.326 84.2227 36.8276 84.5154 36.4954 85.1009C36.171 85.6784 36.0088 86.5763 36.0088 87.7946C36.0088 89.0129 36.171 89.9148 36.4954 90.5002C36.8276 91.0777 37.326 91.3665 37.9906 91.3665Z" fill="#918B9C"/>
<line x1="75.1143" y1="63.04" x2="75.1143" y2="101.04" stroke="#312C3F" stroke-width="0.5"/>
<path d="M87.9164 75.4805V71.498H89.7012C90.1437 71.498 90.4846 71.6078 90.7239 71.8274C90.9631 72.0437 91.0828 72.342 91.0828 72.7222C91.0828 73.0992 90.9615 73.3974 90.7189 73.6171C90.4797 73.8367 90.1404 73.9465 89.7012 73.9465H88.4819V75.4805H87.9164ZM88.4819 73.4696H89.6717C89.9503 73.4696 90.1617 73.4024 90.3059 73.268C90.4502 73.1336 90.5223 72.9517 90.5223 72.7222C90.5223 72.4895 90.4502 72.3076 90.3059 72.1765C90.1617 72.0421 89.9503 71.9749 89.6717 71.9749H88.4819V73.4696ZM91.1061 75.4805L92.8122 71.498H93.4366L95.1378 75.4805H94.5724L94.061 74.2906H92.1681L91.6617 75.4805H91.1061ZM92.35 73.8088H93.889L93.1367 72.029H93.1121L92.35 73.8088ZM97.2789 75.5395C96.7676 75.5395 96.3595 75.428 96.0547 75.2051C95.7531 74.9822 95.5876 74.6725 95.5581 74.2759H96.153C96.1661 74.5283 96.271 74.7233 96.4677 74.861C96.6643 74.9954 96.9397 75.0626 97.2937 75.0626C97.6083 75.0626 97.8493 75.0068 98.0164 74.8954C98.1836 74.7839 98.2672 74.6184 98.2672 74.3988C98.2672 74.2284 98.2082 74.0891 98.0902 73.9809C97.9755 73.8727 97.8034 73.7973 97.5739 73.7547L96.8118 73.6023C96.4677 73.5335 96.2055 73.4106 96.0252 73.2336C95.8449 73.0533 95.7548 72.8287 95.7548 72.56C95.7548 72.2158 95.8842 71.9437 96.1432 71.7438C96.4021 71.5406 96.7545 71.439 97.2003 71.439C97.6493 71.439 98.0148 71.5455 98.2967 71.7586C98.5818 71.9683 98.7457 72.2617 98.7883 72.6386H98.1934C98.0951 72.1535 97.7526 71.911 97.1658 71.911C96.8971 71.911 96.6856 71.9634 96.5316 72.0683C96.3808 72.1732 96.3054 72.3223 96.3054 72.5157C96.3054 72.8271 96.5267 73.0271 96.9692 73.1156L97.7657 73.2729C98.1131 73.3417 98.3753 73.4679 98.5523 73.6515C98.7293 73.8317 98.8178 74.0661 98.8178 74.3546C98.8178 74.7282 98.6818 75.0199 98.4098 75.2297C98.1377 75.4362 97.7608 75.5395 97.2789 75.5395ZM101.272 75.5395C100.76 75.5395 100.352 75.428 100.047 75.2051C99.7458 74.9822 99.5802 74.6725 99.5507 74.2759H100.146C100.159 74.5283 100.264 74.7233 100.46 74.861C100.657 74.9954 100.932 75.0626 101.286 75.0626C101.601 75.0626 101.842 75.0068 102.009 74.8954C102.176 74.7839 102.26 74.6184 102.26 74.3988C102.26 74.2284 102.201 74.0891 102.083 73.9809C101.968 73.8727 101.796 73.7973 101.567 73.7547L100.804 73.6023C100.46 73.5335 100.198 73.4106 100.018 73.2336C99.8375 73.0533 99.7474 72.8287 99.7474 72.56C99.7474 72.2158 99.8769 71.9437 100.136 71.7438C100.395 71.5406 100.747 71.439 101.193 71.439C101.642 71.439 102.007 71.5455 102.289 71.7586C102.574 71.9683 102.738 72.2617 102.781 72.6386H102.186C102.088 72.1535 101.745 71.911 101.158 71.911C100.89 71.911 100.678 71.9634 100.524 72.0683C100.373 72.1732 100.298 72.3223 100.298 72.5157C100.298 72.8271 100.519 73.0271 100.962 73.1156L101.758 73.2729C102.106 73.3417 102.368 73.4679 102.545 73.6515C102.722 73.8317 102.81 74.0661 102.81 74.3546C102.81 74.7282 102.674 75.0199 102.402 75.2297C102.13 75.4362 101.753 75.5395 101.272 75.5395ZM106.602 75.4805H103.824V71.498H106.602V71.9798H104.389V73.1795H106.484V73.6515H104.389V74.9986H106.602V75.4805ZM107.569 75.4805V71.498H109.009C109.442 71.498 109.814 71.5783 110.125 71.7389C110.44 71.8962 110.681 72.124 110.848 72.4223C111.018 72.7206 111.104 73.0762 111.104 73.4892C111.104 73.8989 111.018 74.2529 110.848 74.5512C110.677 74.8495 110.435 75.0789 110.12 75.2396C109.809 75.4002 109.438 75.4805 109.009 75.4805H107.569ZM108.134 74.9986H109.009C109.491 74.9986 109.865 74.8659 110.13 74.6004C110.399 74.3349 110.533 73.9645 110.533 73.4892C110.533 73.0107 110.401 72.6403 110.135 72.3781C109.87 72.1126 109.494 71.9798 109.009 71.9798H108.134V74.9986Z" fill="#918B9C" fill-opacity="0.3"/>
<path d="M91.2982 92.743C90.3568 92.743 89.6013 92.5254 89.0317 92.0903C88.4621 91.6552 88.0982 91.0184 87.94 90.1798H89.5657C89.6923 90.607 89.894 90.9234 90.1709 91.1291C90.4478 91.3269 90.8236 91.4258 91.2982 91.4258C92.0181 91.4258 92.5442 91.1449 92.8765 90.5833C93.2167 90.0216 93.3907 89.1237 93.3986 87.8895H93.3512C93.1059 88.293 92.7816 88.6015 92.3781 88.8151C91.9825 89.0287 91.5237 89.1355 91.0016 89.1355C90.3687 89.1355 89.8188 89.0089 89.3521 88.7558C88.8853 88.5026 88.5214 88.1506 88.2604 87.6997C88.0072 87.2487 87.8806 86.7226 87.8806 86.1214C87.8806 85.4648 88.0191 84.8952 88.296 84.4126C88.5808 83.9221 88.9763 83.5424 89.4826 83.2734C89.9889 82.9965 90.5823 82.8581 91.2626 82.8581C92.473 82.8581 93.3986 83.2694 94.0394 84.0922C94.6881 84.9149 95.0125 86.1095 95.0125 87.6759C95.0125 89.3452 94.7 90.607 94.075 91.4614C93.45 92.3158 92.5244 92.743 91.2982 92.743ZM91.4288 87.8302C91.9904 87.8302 92.4453 87.6759 92.7934 87.3674C93.1415 87.0589 93.3076 86.6593 93.2918 86.1689C93.2839 85.5676 93.094 85.085 92.7222 84.7211C92.3583 84.3493 91.8876 84.1634 91.3101 84.1634C90.7405 84.1634 90.2856 84.3335 89.9454 84.6737C89.6052 85.0138 89.4352 85.4687 89.4352 86.0383C89.4352 86.5842 89.6132 87.0193 89.9692 87.3437C90.3252 87.668 90.8117 87.8302 91.4288 87.8302ZM99.4771 92.743C98.4329 92.743 97.5982 92.5017 96.9733 92.0191C96.3562 91.5365 96.0121 90.8681 95.9409 90.0137H97.5429C97.5824 90.4488 97.7762 90.7889 98.1243 91.0342C98.4803 91.2715 98.9431 91.3902 99.5127 91.3902C100.169 91.3902 100.668 91.2201 101.008 90.8799C101.348 90.5397 101.518 90.0769 101.518 89.4915C101.518 88.8824 101.336 88.4156 100.972 88.0913C100.616 87.759 100.134 87.5929 99.5246 87.5929C99.137 87.5929 98.781 87.6601 98.4566 87.7946C98.1322 87.9291 97.8751 88.1189 97.6853 88.3642H96.285L96.9614 82.9886H102.551V84.377H98.2667L97.9582 86.8453H98.0175C98.4843 86.4734 99.1014 86.2875 99.8687 86.2875C100.85 86.2875 101.633 86.5644 102.218 87.1182C102.804 87.672 103.096 88.4393 103.096 89.4203C103.096 90.4329 102.78 91.2399 102.147 91.8411C101.522 92.4424 100.632 92.743 99.4771 92.743Z" fill="#918B9C"/>
<line x1="144.745" y1="63.04" x2="144.745" y2="101.04" stroke="#312C3F" stroke-width="0.5"/>
<path d="M158.112 75.4805H157.546V71.498H160.275V71.9798H158.112V73.2336H160.147V73.7154H158.112V75.4805ZM160.194 75.4805L161.9 71.498H162.525L164.226 75.4805H163.661L163.149 74.2906H161.256L160.75 75.4805H160.194ZM161.438 73.8088H162.977L162.225 72.029H162.2L161.438 73.8088ZM164.998 75.4805V71.498H165.559V75.4805H164.998ZM166.787 75.4805V71.498H167.353V74.9986H169.521V75.4805H166.787ZM173.126 75.4805H170.348V71.498H173.126V71.9798H170.913V73.1795H173.008V73.6515H170.913V74.9986H173.126V75.4805ZM174.093 75.4805V71.498H175.533C175.966 71.498 176.338 71.5783 176.649 71.7389C176.964 71.8962 177.205 72.124 177.372 72.4223C177.543 72.7206 177.628 73.0762 177.628 73.4892C177.628 73.8989 177.543 74.2529 177.372 74.5512C177.202 74.8495 176.959 75.0789 176.645 75.2396C176.333 75.4002 175.963 75.4805 175.533 75.4805H174.093ZM174.658 74.9986H175.533C176.015 74.9986 176.389 74.8659 176.654 74.6004C176.923 74.3349 177.058 73.9645 177.058 73.4892C177.058 73.0107 176.925 72.6403 176.659 72.3781C176.394 72.1126 176.019 71.9798 175.533 71.9798H174.658V74.9986Z" fill="#918B9C" fill-opacity="0.3"/>
<path d="M157.665 92.6006V91.4851L161.628 87.6403C162.111 87.1815 162.435 86.8136 162.601 86.5367C162.775 86.2519 162.862 85.9553 162.862 85.6467C162.862 85.1958 162.712 84.8437 162.411 84.5906C162.111 84.3295 161.695 84.199 161.165 84.199C160.003 84.199 159.354 84.7884 159.219 85.9671H157.665C157.728 84.9861 158.068 84.2227 158.685 83.6769C159.31 83.1231 160.141 82.8462 161.177 82.8462C161.85 82.8462 162.431 82.9609 162.922 83.1903C163.412 83.4197 163.792 83.7401 164.061 84.1515C164.33 84.5629 164.464 85.0494 164.464 85.6111C164.464 86.0779 164.334 86.5328 164.073 86.9758C163.812 87.4188 163.396 87.9133 162.827 88.4591L159.955 91.1647L159.967 91.2122H164.607V92.6006H157.665ZM169.107 92.743C168.063 92.743 167.228 92.5017 166.603 92.0191C165.986 91.5365 165.642 90.8681 165.571 90.0137H167.173C167.212 90.4488 167.406 90.7889 167.754 91.0342C168.11 91.2715 168.573 91.3902 169.143 91.3902C169.799 91.3902 170.298 91.2201 170.638 90.8799C170.978 90.5397 171.148 90.0769 171.148 89.4915C171.148 88.8824 170.966 88.4156 170.602 88.0913C170.246 87.759 169.764 87.5929 169.154 87.5929C168.767 87.5929 168.411 87.6601 168.086 87.7946C167.762 87.9291 167.505 88.1189 167.315 88.3642H165.915L166.591 82.9886H172.18V84.377H167.897L167.588 86.8453H167.647C168.114 86.4734 168.731 86.2875 169.499 86.2875C170.48 86.2875 171.263 86.5644 171.848 87.1182C172.434 87.672 172.726 88.4393 172.726 89.4203C172.726 90.4329 172.41 91.2399 171.777 91.8411C171.152 92.4424 170.262 92.743 169.107 92.743Z" fill="#918B9C"/>
<rect x="216.05" y="63.29" width="37.77" height="37.77" rx="1.53" stroke="#312C3F" stroke-width="0.5"/>
<path d="M249.174 82.1755C249.174 90.0401 242.799 96.4155 234.934 96.4155C227.07 96.4155 220.694 90.0401 220.694 82.1755C220.694 74.311 227.07 67.9355 234.934 67.9355C242.799 67.9355 249.174 74.311 249.174 82.1755ZM224.481 82.1755C224.481 87.949 229.161 92.6293 234.934 92.6293C240.708 92.6293 245.388 87.949 245.388 82.1755C245.388 76.4021 240.708 71.7217 234.934 71.7217C229.161 71.7217 224.481 76.4021 224.481 82.1755Z" fill="#918B9C"/>
<path d="M249.174 82.1755C249.174 84.4093 248.649 86.6118 247.64 88.605C246.632 90.5981 245.168 92.326 243.369 93.6491C241.569 94.9721 239.483 95.8532 237.28 96.2211C235.076 96.589 232.817 96.4334 230.685 95.7668L231.814 92.156C233.38 92.6454 235.039 92.7597 236.657 92.4895C238.274 92.2194 239.806 91.5724 241.128 90.6008C242.449 89.6293 243.524 88.3604 244.265 86.8968C245.005 85.4332 245.391 83.8159 245.391 82.1755H249.174Z" fill="#A36BFF"/>
<g clip-path="url(#clip1_536_6750)">
<line x1="10.6797" y1="123.311" x2="254.54" y2="123.311" stroke="#2B2738" stroke-width="0.5"/>
<line x1="10.6797" y1="123.311" x2="254.54" y2="123.311" stroke="#2B2738" stroke-width="0.5"/>
<line x1="10.6797" y1="138.44" x2="254.54" y2="138.44" stroke="#2B2738" stroke-width="0.5"/>
<line x1="10.6797" y1="153.57" x2="254.54" y2="153.57" stroke="#2B2738" stroke-width="0.5"/>
<path d="M34.9674 137.612L11.5693 153.821V168.506H253.649V127.707L199.204 115.551L164.107 131.759L127.66 127.707L101.112 151.57L78.6138 125.456L63.765 148.868L34.9674 137.612Z" stroke="url(#paint1_linear_536_6750)" stroke-width="0.89"/>
<path opacity="0.2" d="M34.9674 137.612L11.5693 153.821V168.506H253.649V127.707L199.204 115.551L164.107 131.759L127.66 127.707L101.112 151.57L78.6138 125.456L63.765 148.868L34.9674 137.612Z" fill="url(#paint2_linear_536_6750)"/>
</g>
<rect x="10.9297" y="108.681" width="243.36" height="60.02" rx="1.53" stroke="#312C3F" stroke-width="0.5"/>
</g>
<g filter="url(#filter1_ddddd_536_6750)">
<rect x="149" y="98" width="300" height="209" rx="9.84239" fill="#131018"/>
<rect x="149.322" y="98.322" width="299.356" height="208.356" rx="9.52041" stroke="#EADEFF" stroke-opacity="0.12" stroke-width="0.64396"/>
<rect width="300" height="36" transform="translate(149 98)" fill="#222028"/>
<path d="M161.99 121V112.9H164.92C165.8 112.9 166.557 113.063 167.19 113.39C167.83 113.71 168.32 114.173 168.66 114.78C169.007 115.387 169.18 116.11 169.18 116.95C169.18 117.783 169.007 118.503 168.66 119.11C168.313 119.717 167.82 120.183 167.18 120.51C166.547 120.837 165.793 121 164.92 121H161.99ZM163.14 120.02H164.92C165.9 120.02 166.66 119.75 167.2 119.21C167.747 118.67 168.02 117.917 168.02 116.95C168.02 115.977 167.75 115.223 167.21 114.69C166.67 114.15 165.907 113.88 164.92 113.88H163.14V120.02ZM173.139 121.12C172.512 121.12 171.969 120.993 171.509 120.74C171.049 120.48 170.692 120.113 170.439 119.64C170.192 119.167 170.069 118.613 170.069 117.98C170.069 117.347 170.192 116.8 170.439 116.34C170.692 115.873 171.045 115.513 171.499 115.26C171.952 115.007 172.482 114.88 173.089 114.88C173.669 114.88 174.169 114.997 174.589 115.23C175.015 115.463 175.345 115.793 175.579 116.22C175.812 116.647 175.929 117.153 175.929 117.74V118.19H171.149C171.182 118.817 171.372 119.307 171.719 119.66C172.072 120.007 172.542 120.18 173.129 120.18C173.535 120.18 173.879 120.097 174.159 119.93C174.439 119.757 174.632 119.503 174.739 119.17H175.879C175.732 119.79 175.415 120.27 174.929 120.61C174.449 120.95 173.852 121.12 173.139 121.12ZM171.189 117.37H174.849C174.795 116.877 174.612 116.493 174.299 116.22C173.992 115.947 173.585 115.81 173.079 115.81C172.579 115.81 172.162 115.947 171.829 116.22C171.495 116.493 171.282 116.877 171.189 117.37ZM178.586 121C178.266 121 178.016 120.92 177.836 120.76C177.662 120.593 177.576 120.347 177.576 120.02V115.86H176.456V115H177.586V113.2H178.686V115H180.256V115.86H178.696V120.12H180.416V121H178.586ZM183.128 121.11C182.448 121.11 181.912 120.943 181.518 120.61C181.132 120.27 180.938 119.827 180.938 119.28C180.938 118.707 181.132 118.263 181.518 117.95C181.905 117.63 182.462 117.47 183.188 117.47H185.238V117.2C185.238 116.273 184.728 115.81 183.708 115.81C182.875 115.81 182.372 116.123 182.198 116.75H181.068C181.168 116.157 181.452 115.697 181.918 115.37C182.392 115.043 182.995 114.88 183.728 114.88C184.562 114.88 185.198 115.077 185.638 115.47C186.085 115.863 186.308 116.43 186.308 117.17V119.84H186.848V121H185.648V120.08H185.228C185.022 120.4 184.738 120.653 184.378 120.84C184.018 121.02 183.602 121.11 183.128 121.11ZM183.278 120.21C183.638 120.21 183.968 120.137 184.268 119.99C184.568 119.843 184.805 119.643 184.978 119.39C185.152 119.137 185.238 118.86 185.238 118.56V118.29H183.258C182.418 118.29 181.998 118.603 181.998 119.23C181.998 119.53 182.112 119.77 182.338 119.95C182.565 120.123 182.878 120.21 183.278 120.21ZM188.109 121V115H189.229V121H188.109ZM188.669 114.18C188.482 114.18 188.322 114.113 188.189 113.98C188.055 113.847 187.989 113.687 187.989 113.5C187.989 113.313 188.055 113.153 188.189 113.02C188.322 112.887 188.482 112.82 188.669 112.82C188.855 112.82 189.015 112.887 189.149 113.02C189.282 113.153 189.349 113.313 189.349 113.5C189.349 113.687 189.282 113.847 189.149 113.98C189.015 114.113 188.855 114.18 188.669 114.18ZM190.848 121V112.6H191.968V121H190.848ZM196.258 121.12C195.631 121.12 195.088 120.993 194.628 120.74C194.168 120.48 193.811 120.113 193.558 119.64C193.311 119.167 193.188 118.613 193.188 117.98C193.188 117.347 193.311 116.8 193.558 116.34C193.811 115.873 194.164 115.513 194.618 115.26C195.071 115.007 195.601 114.88 196.208 114.88C196.788 114.88 197.288 114.997 197.708 115.23C198.134 115.463 198.464 115.793 198.698 116.22C198.931 116.647 199.048 117.153 199.048 117.74V118.19H194.268C194.301 118.817 194.491 119.307 194.838 119.66C195.191 120.007 195.661 120.18 196.248 120.18C196.654 120.18 196.998 120.097 197.278 119.93C197.558 119.757 197.751 119.503 197.858 119.17H198.998C198.851 119.79 198.534 120.27 198.048 120.61C197.568 120.95 196.971 121.12 196.258 121.12ZM194.308 117.37H197.968C197.914 116.877 197.731 116.493 197.418 116.22C197.111 115.947 196.704 115.81 196.198 115.81C195.698 115.81 195.281 115.947 194.948 116.22C194.614 116.493 194.401 116.877 194.308 117.37ZM202.704 121.12C202.104 121.12 201.591 120.993 201.164 120.74C200.744 120.487 200.421 120.127 200.194 119.66C199.974 119.193 199.864 118.64 199.864 118C199.864 117.36 199.974 116.807 200.194 116.34C200.414 115.873 200.728 115.513 201.134 115.26C201.548 115.007 202.038 114.88 202.604 114.88C203.084 114.88 203.498 114.973 203.844 115.16C204.198 115.347 204.464 115.617 204.644 115.97H204.684V112.6H205.804V119.84H206.384V121H205.184V120.08H204.764C204.564 120.42 204.291 120.68 203.944 120.86C203.598 121.033 203.184 121.12 202.704 121.12ZM202.874 120.16C203.421 120.16 203.858 120.003 204.184 119.69C204.518 119.377 204.684 118.96 204.684 118.44V117.56C204.684 117.04 204.518 116.623 204.184 116.31C203.858 115.997 203.421 115.84 202.874 115.84C202.274 115.84 201.808 116.03 201.474 116.41C201.148 116.79 200.984 117.32 200.984 118C200.984 118.68 201.148 119.21 201.474 119.59C201.808 119.97 202.274 120.16 202.874 120.16ZM213.516 121.12C212.476 121.12 211.646 120.893 211.026 120.44C210.412 119.987 210.076 119.357 210.016 118.55H211.226C211.252 119.063 211.466 119.46 211.866 119.74C212.266 120.013 212.826 120.15 213.546 120.15C214.186 120.15 214.676 120.037 215.016 119.81C215.356 119.583 215.526 119.247 215.526 118.8C215.526 118.453 215.406 118.17 215.166 117.95C214.932 117.73 214.582 117.577 214.116 117.49L212.566 117.18C211.866 117.04 211.332 116.79 210.966 116.43C210.599 116.063 210.416 115.607 210.416 115.06C210.416 114.36 210.679 113.807 211.206 113.4C211.732 112.987 212.449 112.78 213.356 112.78C214.269 112.78 215.012 112.997 215.586 113.43C216.166 113.857 216.499 114.453 216.586 115.22H215.376C215.176 114.233 214.479 113.74 213.286 113.74C212.739 113.74 212.309 113.847 211.996 114.06C211.689 114.273 211.536 114.577 211.536 114.97C211.536 115.603 211.986 116.01 212.886 116.19L214.506 116.51C215.212 116.65 215.746 116.907 216.106 117.28C216.466 117.647 216.646 118.123 216.646 118.71C216.646 119.47 216.369 120.063 215.816 120.49C215.262 120.91 214.496 121.12 213.516 121.12ZM220.366 121.11C219.593 121.11 218.986 120.897 218.546 120.47C218.106 120.037 217.886 119.457 217.886 118.73V115H219.006V118.49C219.006 119.03 219.146 119.44 219.426 119.72C219.706 119.993 220.113 120.13 220.646 120.13C221.213 120.13 221.65 119.987 221.956 119.7C222.27 119.407 222.426 119 222.426 118.48V115H223.546V119.84H224.126V121H222.926V120.08H222.506C222.293 120.413 222.006 120.67 221.646 120.85C221.286 121.023 220.86 121.11 220.366 121.11ZM225.367 121V116.16H224.787V115H225.987V115.92H226.467C226.641 115.587 226.891 115.333 227.217 115.16C227.551 114.98 227.951 114.89 228.417 114.89C228.891 114.89 229.291 114.983 229.617 115.17C229.951 115.357 230.217 115.643 230.417 116.03H230.447C230.867 115.27 231.557 114.89 232.517 114.89C233.257 114.89 233.834 115.103 234.247 115.53C234.661 115.957 234.867 116.543 234.867 117.29V121H233.747V117.45C233.747 116.397 233.234 115.87 232.207 115.87C231.187 115.87 230.677 116.397 230.677 117.45V121H229.557V117.45C229.557 116.397 229.044 115.87 228.017 115.87C227.517 115.87 227.137 116.007 226.877 116.28C226.617 116.547 226.487 116.937 226.487 117.45V121H225.367ZM236.591 121V116.16H236.011V115H237.211V115.92H237.691C237.864 115.587 238.114 115.333 238.441 115.16C238.774 114.98 239.174 114.89 239.641 114.89C240.114 114.89 240.514 114.983 240.841 115.17C241.174 115.357 241.441 115.643 241.641 116.03H241.671C242.091 115.27 242.781 114.89 243.741 114.89C244.481 114.89 245.058 115.103 245.471 115.53C245.884 115.957 246.091 116.543 246.091 117.29V121H244.971V117.45C244.971 116.397 244.458 115.87 243.431 115.87C242.411 115.87 241.901 116.397 241.901 117.45V121H240.781V117.45C240.781 116.397 240.268 115.87 239.241 115.87C238.741 115.87 238.361 116.007 238.101 116.28C237.841 116.547 237.711 116.937 237.711 117.45V121H236.591ZM249.335 121.11C248.655 121.11 248.118 120.943 247.725 120.61C247.338 120.27 247.145 119.827 247.145 119.28C247.145 118.707 247.338 118.263 247.725 117.95C248.111 117.63 248.668 117.47 249.395 117.47H251.445V117.2C251.445 116.273 250.935 115.81 249.915 115.81C249.081 115.81 248.578 116.123 248.405 116.75H247.275C247.375 116.157 247.658 115.697 248.125 115.37C248.598 115.043 249.201 114.88 249.935 114.88C250.768 114.88 251.405 115.077 251.845 115.47C252.291 115.863 252.515 116.43 252.515 117.17V119.84H253.055V121H251.855V120.08H251.435C251.228 120.4 250.945 120.653 250.585 120.84C250.225 121.02 249.808 121.11 249.335 121.11ZM249.485 120.21C249.845 120.21 250.175 120.137 250.475 119.99C250.775 119.843 251.011 119.643 251.185 119.39C251.358 119.137 251.445 118.86 251.445 118.56V118.29H249.465C248.625 118.29 248.205 118.603 248.205 119.23C248.205 119.53 248.318 119.77 248.545 119.95C248.771 120.123 249.085 120.21 249.485 120.21ZM254.402 121V116.16H253.822V115H255.022V116.12H255.442C255.609 115.753 255.866 115.467 256.212 115.26C256.566 115.053 256.979 114.95 257.452 114.95H257.942V115.91H257.392C256.792 115.91 256.329 116.087 256.002 116.44C255.676 116.793 255.512 117.27 255.512 117.87V121H254.402ZM258.929 121V115H260.049V121H258.929ZM259.489 114.18C259.303 114.18 259.143 114.113 259.009 113.98C258.876 113.847 258.809 113.687 258.809 113.5C258.809 113.313 258.876 113.153 259.009 113.02C259.143 112.887 259.303 112.82 259.489 112.82C259.676 112.82 259.836 112.887 259.969 113.02C260.103 113.153 260.169 113.313 260.169 113.5C260.169 113.687 260.103 113.847 259.969 113.98C259.836 114.113 259.676 114.18 259.489 114.18ZM264.339 121.12C263.712 121.12 263.169 120.993 262.709 120.74C262.249 120.48 261.892 120.113 261.639 119.64C261.392 119.167 261.269 118.613 261.269 117.98C261.269 117.347 261.392 116.8 261.639 116.34C261.892 115.873 262.245 115.513 262.699 115.26C263.152 115.007 263.682 114.88 264.289 114.88C264.869 114.88 265.369 114.997 265.789 115.23C266.215 115.463 266.545 115.793 266.779 116.22C267.012 116.647 267.129 117.153 267.129 117.74V118.19H262.349C262.382 118.817 262.572 119.307 262.919 119.66C263.272 120.007 263.742 120.18 264.329 120.18C264.735 120.18 265.079 120.097 265.359 119.93C265.639 119.757 265.832 119.503 265.939 119.17H267.079C266.932 119.79 266.615 120.27 266.129 120.61C265.649 120.95 265.052 121.12 264.339 121.12ZM262.389 117.37H266.049C265.995 116.877 265.812 116.493 265.499 116.22C265.192 115.947 264.785 115.81 264.279 115.81C263.779 115.81 263.362 115.947 263.029 116.22C262.695 116.493 262.482 116.877 262.389 117.37ZM270.616 121.12C269.782 121.12 269.126 120.947 268.646 120.6C268.166 120.253 267.902 119.77 267.856 119.15H268.966C269.012 119.517 269.172 119.787 269.446 119.96C269.719 120.133 270.122 120.22 270.656 120.22C271.589 120.22 272.056 119.927 272.056 119.34C272.056 119.1 271.982 118.917 271.836 118.79C271.696 118.657 271.456 118.56 271.116 118.5L269.806 118.26C268.692 118.053 268.136 117.523 268.136 116.67C268.136 116.117 268.346 115.68 268.766 115.36C269.186 115.04 269.759 114.88 270.486 114.88C271.239 114.88 271.836 115.043 272.276 115.37C272.722 115.697 272.976 116.157 273.036 116.75H271.946C271.879 116.417 271.722 116.17 271.476 116.01C271.236 115.85 270.896 115.77 270.456 115.77C270.049 115.77 269.732 115.84 269.506 115.98C269.286 116.12 269.176 116.323 269.176 116.59C269.176 116.797 269.246 116.96 269.386 117.08C269.532 117.193 269.766 117.28 270.086 117.34L271.396 117.59C271.982 117.697 272.412 117.887 272.686 118.16C272.959 118.433 273.096 118.8 273.096 119.26C273.096 119.847 272.882 120.303 272.456 120.63C272.029 120.957 271.416 121.12 270.616 121.12Z" fill="#918B9C"/>
<rect x="161.25" y="146.25" width="275.5" height="114.5" rx="1.75" stroke="#312C3F" stroke-width="0.5"/>
<path d="M170.526 154.324V153.727H175.799V154.324H173.494V161H172.83V154.324H170.526ZM178.477 161.114C177.968 161.114 177.528 160.995 177.156 160.759C176.784 160.519 176.497 160.189 176.293 159.768C176.092 159.344 175.991 158.856 175.991 158.305C175.991 157.755 176.092 157.268 176.293 156.842C176.497 156.413 176.777 156.078 177.135 155.837C177.494 155.593 177.91 155.471 178.381 155.471C178.677 155.471 178.962 155.525 179.237 155.634C179.511 155.741 179.758 155.905 179.975 156.128C180.196 156.348 180.37 156.626 180.497 156.962C180.625 157.296 180.689 157.692 180.689 158.148V158.461H176.428V157.903H180.043C180.043 157.553 179.972 157.238 179.83 156.959C179.69 156.677 179.495 156.455 179.244 156.291C178.995 156.128 178.708 156.046 178.381 156.046C178.035 156.046 177.731 156.138 177.468 156.323C177.206 156.508 177 156.752 176.85 157.055C176.704 157.358 176.629 157.689 176.627 158.049V158.383C176.627 158.816 176.701 159.195 176.85 159.519C177.002 159.841 177.216 160.091 177.493 160.268C177.77 160.446 178.098 160.535 178.477 160.535C178.735 160.535 178.961 160.495 179.155 160.414C179.352 160.334 179.516 160.226 179.649 160.091C179.784 159.954 179.885 159.803 179.954 159.64L180.554 159.835C180.471 160.065 180.335 160.277 180.146 160.471C179.959 160.665 179.725 160.821 179.443 160.94C179.163 161.056 178.841 161.114 178.477 161.114ZM185.647 156.742L185.068 156.906C185.011 156.742 184.931 156.594 184.827 156.462C184.722 156.329 184.586 156.224 184.418 156.146C184.253 156.067 184.047 156.028 183.8 156.028C183.431 156.028 183.128 156.116 182.891 156.291C182.655 156.466 182.536 156.692 182.536 156.969C182.536 157.204 182.617 157.394 182.778 157.541C182.941 157.686 183.192 157.8 183.53 157.886L184.354 158.088C184.811 158.199 185.153 158.376 185.381 158.617C185.61 158.859 185.725 159.162 185.725 159.526C185.725 159.834 185.64 160.107 185.469 160.347C185.299 160.586 185.061 160.774 184.756 160.911C184.453 161.046 184.101 161.114 183.701 161.114C183.168 161.114 182.729 160.994 182.383 160.755C182.038 160.513 181.816 160.165 181.719 159.711L182.327 159.562C182.405 159.886 182.557 160.131 182.785 160.297C183.014 160.463 183.316 160.545 183.69 160.545C184.109 160.545 184.444 160.452 184.695 160.265C184.946 160.076 185.072 159.839 185.072 159.555C185.072 159.335 184.998 159.15 184.851 159.001C184.705 158.849 184.482 158.738 184.184 158.667L183.293 158.454C182.819 158.34 182.469 158.16 182.241 157.914C182.014 157.668 181.9 157.362 181.9 156.998C181.9 156.697 181.982 156.433 182.146 156.206C182.309 155.976 182.534 155.796 182.82 155.666C183.107 155.536 183.433 155.471 183.8 155.471C184.3 155.471 184.699 155.585 184.997 155.812C185.298 156.037 185.514 156.347 185.647 156.742ZM189.158 155.545V156.096H186.555V155.545H189.158ZM187.368 154.239H188.003V159.576C188.003 159.803 188.043 159.982 188.121 160.112C188.199 160.24 188.301 160.331 188.426 160.386C188.552 160.438 188.685 160.464 188.827 160.464C188.91 160.464 188.981 160.459 189.04 160.45C189.1 160.438 189.152 160.426 189.197 160.414L189.332 160.986C189.27 161.009 189.194 161.031 189.104 161.05C189.014 161.071 188.903 161.082 188.77 161.082C188.538 161.082 188.315 161.031 188.099 160.929C187.886 160.827 187.711 160.676 187.574 160.474C187.436 160.273 187.368 160.023 187.368 159.725V154.239ZM195.425 153.727V161H194.761V154.423H194.718L193.014 155.556V154.867L194.733 153.727H195.425Z" fill="#918B9C"/>
<line x1="206.25" y1="146" x2="206.25" y2="169" stroke="#312C3F" stroke-width="0.5"/>
<rect x="214" y="150" width="51" height="15" rx="3" fill="#A36BFF"/>
<path d="M228.495 159.5V155.45H230.31C230.76 155.45 231.107 155.562 231.35 155.785C231.593 156.005 231.715 156.308 231.715 156.695C231.715 157.078 231.592 157.382 231.345 157.605C231.102 157.828 230.757 157.94 230.31 157.94H229.07V159.5H228.495ZM229.07 157.455H230.28C230.563 157.455 230.778 157.387 230.925 157.25C231.072 157.113 231.145 156.928 231.145 156.695C231.145 156.458 231.072 156.273 230.925 156.14C230.778 156.003 230.563 155.935 230.28 155.935H229.07V157.455ZM231.439 159.5L233.174 155.45H233.809L235.539 159.5H234.964L234.444 158.29H232.519L232.004 159.5H231.439ZM232.704 157.8H234.269L233.504 155.99H233.479L232.704 157.8ZM237.416 159.56C236.896 159.56 236.481 159.447 236.171 159.22C235.865 158.993 235.696 158.678 235.666 158.275H236.271C236.285 158.532 236.391 158.73 236.591 158.87C236.791 159.007 237.071 159.075 237.431 159.075C237.751 159.075 237.996 159.018 238.166 158.905C238.336 158.792 238.421 158.623 238.421 158.4C238.421 158.227 238.361 158.085 238.241 157.975C238.125 157.865 237.95 157.788 237.716 157.745L236.941 157.59C236.591 157.52 236.325 157.395 236.141 157.215C235.958 157.032 235.866 156.803 235.866 156.53C235.866 156.18 235.998 155.903 236.261 155.7C236.525 155.493 236.883 155.39 237.336 155.39C237.793 155.39 238.165 155.498 238.451 155.715C238.741 155.928 238.908 156.227 238.951 156.61H238.346C238.246 156.117 237.898 155.87 237.301 155.87C237.028 155.87 236.813 155.923 236.656 156.03C236.503 156.137 236.426 156.288 236.426 156.485C236.426 156.802 236.651 157.005 237.101 157.095L237.911 157.255C238.265 157.325 238.531 157.453 238.711 157.64C238.891 157.823 238.981 158.062 238.981 158.355C238.981 158.735 238.843 159.032 238.566 159.245C238.29 159.455 237.906 159.56 237.416 159.56ZM241.176 159.56C240.656 159.56 240.241 159.447 239.931 159.22C239.625 158.993 239.456 158.678 239.426 158.275H240.031C240.045 158.532 240.151 158.73 240.351 158.87C240.551 159.007 240.831 159.075 241.191 159.075C241.511 159.075 241.756 159.018 241.926 158.905C242.096 158.792 242.181 158.623 242.181 158.4C242.181 158.227 242.121 158.085 242.001 157.975C241.885 157.865 241.71 157.788 241.476 157.745L240.701 157.59C240.351 157.52 240.085 157.395 239.901 157.215C239.718 157.032 239.626 156.803 239.626 156.53C239.626 156.18 239.758 155.903 240.021 155.7C240.285 155.493 240.643 155.39 241.096 155.39C241.553 155.39 241.925 155.498 242.211 155.715C242.501 155.928 242.668 156.227 242.711 156.61H242.106C242.006 156.117 241.658 155.87 241.061 155.87C240.788 155.87 240.573 155.923 240.416 156.03C240.263 156.137 240.186 156.288 240.186 156.485C240.186 156.802 240.411 157.005 240.861 157.095L241.671 157.255C242.025 157.325 242.291 157.453 242.471 157.64C242.651 157.823 242.741 158.062 242.741 158.355C242.741 158.735 242.603 159.032 242.326 159.245C242.05 159.455 241.666 159.56 241.176 159.56ZM246.297 159.5H243.472V155.45H246.297V155.94H244.047V157.16H246.177V157.64H244.047V159.01H246.297V159.5ZM246.98 159.5V155.45H248.445C248.885 155.45 249.263 155.532 249.58 155.695C249.9 155.855 250.145 156.087 250.315 156.39C250.488 156.693 250.575 157.055 250.575 157.475C250.575 157.892 250.488 158.252 250.315 158.555C250.142 158.858 249.895 159.092 249.575 159.255C249.258 159.418 248.882 159.5 248.445 159.5H246.98ZM247.555 159.01H248.445C248.935 159.01 249.315 158.875 249.585 158.605C249.858 158.335 249.995 157.958 249.995 157.475C249.995 156.988 249.86 156.612 249.59 156.345C249.32 156.075 248.938 155.94 248.445 155.94H247.555V159.01Z" fill="#EBE3FA"/>
<line x1="273.25" y1="146" x2="273.25" y2="169" stroke="#312C3F" stroke-width="0.5"/>
<rect x="281" y="156" width="148" height="3" rx="1.5" fill="#312C3F"/>
<line x1="161" y1="168.75" x2="437" y2="168.75" stroke="#312C3F" stroke-width="0.5"/>
<path d="M172.483 184H171.683V177.933H169.2V177.25H174.967V177.933H172.483V184ZM177.182 184.1C176.671 184.1 176.226 183.994 175.849 183.783C175.471 183.567 175.179 183.261 174.974 182.867C174.768 182.472 174.665 182.011 174.665 181.483C174.665 180.956 174.768 180.5 174.974 180.117C175.179 179.728 175.468 179.428 175.84 179.217C176.213 179.006 176.649 178.9 177.149 178.9C177.621 178.9 178.029 178.997 178.374 179.192C178.718 179.381 178.985 179.65 179.174 180C179.368 180.35 179.465 180.764 179.465 181.242V181.592H175.415C175.438 182.164 175.604 182.611 175.915 182.933C176.232 183.256 176.651 183.417 177.174 183.417C177.535 183.417 177.84 183.339 178.09 183.183C178.346 183.028 178.521 182.803 178.615 182.508H179.415C179.288 183.014 179.026 183.406 178.632 183.683C178.243 183.961 177.76 184.1 177.182 184.1ZM175.457 180.992H178.707C178.668 180.542 178.51 180.192 178.232 179.942C177.954 179.692 177.59 179.567 177.14 179.567C176.69 179.567 176.315 179.692 176.015 179.942C175.721 180.192 175.535 180.542 175.457 180.992ZM182.371 184.1C181.693 184.1 181.157 183.961 180.763 183.683C180.368 183.4 180.152 183.006 180.113 182.5H180.896C180.935 182.822 181.077 183.061 181.321 183.217C181.566 183.372 181.924 183.45 182.396 183.45C183.246 183.45 183.671 183.178 183.671 182.633C183.671 182.411 183.604 182.242 183.471 182.125C183.343 182.003 183.124 181.914 182.813 181.858L181.721 181.658C180.816 181.492 180.363 181.058 180.363 180.358C180.363 179.908 180.532 179.553 180.871 179.292C181.21 179.031 181.674 178.9 182.263 178.9C182.868 178.9 183.352 179.033 183.713 179.3C184.079 179.567 184.291 179.939 184.346 180.417H183.579C183.518 180.122 183.379 179.906 183.163 179.767C182.946 179.622 182.643 179.55 182.254 179.55C181.882 179.55 181.596 179.617 181.396 179.75C181.196 179.878 181.096 180.067 181.096 180.317C181.096 180.506 181.16 180.656 181.288 180.767C181.421 180.872 181.635 180.953 181.929 181.008L183.013 181.208C183.491 181.297 183.841 181.453 184.063 181.675C184.285 181.897 184.396 182.197 184.396 182.575C184.396 183.058 184.221 183.433 183.871 183.7C183.521 183.967 183.021 184.1 182.371 184.1ZM186.458 184C186.225 184 186.042 183.942 185.908 183.825C185.78 183.703 185.717 183.522 185.717 183.283V179.6H184.758V179H185.725V177.5H186.492V179H187.858V179.6H186.5V183.383H187.992V184H186.458ZM191.009 184V183.4L193.809 180.65C194.187 180.283 194.445 179.986 194.584 179.758C194.723 179.525 194.792 179.286 194.792 179.042C194.792 178.664 194.667 178.369 194.417 178.158C194.167 177.942 193.82 177.833 193.376 177.833C192.42 177.833 191.887 178.306 191.776 179.25H191.009C191.053 178.589 191.284 178.075 191.701 177.708C192.123 177.336 192.684 177.15 193.384 177.15C193.828 177.15 194.214 177.228 194.542 177.383C194.87 177.539 195.126 177.756 195.309 178.033C195.492 178.311 195.584 178.636 195.584 179.008C195.584 179.314 195.498 179.619 195.326 179.925C195.153 180.231 194.878 180.567 194.501 180.933L192.059 183.283L192.076 183.317H195.726V184H191.009Z" fill="#918B9C"/>
<line x1="205.25" y1="169" x2="205.25" y2="192" stroke="#312C3F" stroke-width="0.5"/>
<g opacity="0.4">
<rect x="213" y="173" width="50" height="15" rx="3" fill="#918B9C"/>
<path d="M229.07 182.5H228.495V178.45H231.27V178.94H229.07V180.215H231.14V180.705H229.07V182.5ZM230.888 182.5L232.623 178.45H233.258L234.988 182.5H234.413L233.893 181.29H231.968L231.453 182.5H230.888ZM232.153 180.8H233.718L232.953 178.99H232.928L232.153 180.8ZM235.473 182.5V178.45H236.043V182.5H235.473ZM236.993 182.5V178.45H237.568V182.01H239.773V182.5H236.993ZM243.139 182.5H240.314V178.45H243.139V178.94H240.889V180.16H243.019V180.64H240.889V182.01H243.139V182.5ZM243.822 182.5V178.45H245.287C245.727 178.45 246.105 178.532 246.422 178.695C246.742 178.855 246.987 179.087 247.157 179.39C247.33 179.693 247.417 180.055 247.417 180.475C247.417 180.892 247.33 181.252 247.157 181.555C246.984 181.858 246.737 182.092 246.417 182.255C246.1 182.418 245.724 182.5 245.287 182.5H243.822ZM244.397 182.01H245.287C245.777 182.01 246.157 181.875 246.427 181.605C246.7 181.335 246.837 180.958 246.837 180.475C246.837 179.988 246.702 179.612 246.432 179.345C246.162 179.075 245.78 178.94 245.287 178.94H244.397V182.01Z" fill="#110F17"/>
</g>
<line x1="271.25" y1="169" x2="271.25" y2="192" stroke="#312C3F" stroke-width="0.5"/>
<rect x="279" y="179" width="150" height="3" rx="1.5" fill="#312C3F"/>
<line x1="161" y1="191.75" x2="437" y2="191.75" stroke="#312C3F" stroke-width="0.5"/>
<path d="M172.483 207H171.683V200.933H169.2V200.25H174.967V200.933H172.483V207ZM177.182 207.1C176.671 207.1 176.226 206.994 175.849 206.783C175.471 206.567 175.179 206.261 174.974 205.867C174.768 205.472 174.665 205.011 174.665 204.483C174.665 203.956 174.768 203.5 174.974 203.117C175.179 202.728 175.468 202.428 175.84 202.217C176.213 202.006 176.649 201.9 177.149 201.9C177.621 201.9 178.029 201.997 178.374 202.192C178.718 202.381 178.985 202.65 179.174 203C179.368 203.35 179.465 203.764 179.465 204.242V204.592H175.415C175.438 205.164 175.604 205.611 175.915 205.933C176.232 206.256 176.651 206.417 177.174 206.417C177.535 206.417 177.84 206.339 178.09 206.183C178.346 206.028 178.521 205.803 178.615 205.508H179.415C179.288 206.014 179.026 206.406 178.632 206.683C178.243 206.961 177.76 207.1 177.182 207.1ZM175.457 203.992H178.707C178.668 203.542 178.51 203.192 178.232 202.942C177.954 202.692 177.59 202.567 177.14 202.567C176.69 202.567 176.315 202.692 176.015 202.942C175.721 203.192 175.535 203.542 175.457 203.992ZM182.371 207.1C181.693 207.1 181.157 206.961 180.763 206.683C180.368 206.4 180.152 206.006 180.113 205.5H180.896C180.935 205.822 181.077 206.061 181.321 206.217C181.566 206.372 181.924 206.45 182.396 206.45C183.246 206.45 183.671 206.178 183.671 205.633C183.671 205.411 183.604 205.242 183.471 205.125C183.343 205.003 183.124 204.914 182.813 204.858L181.721 204.658C180.816 204.492 180.363 204.058 180.363 203.358C180.363 202.908 180.532 202.553 180.871 202.292C181.21 202.031 181.674 201.9 182.263 201.9C182.868 201.9 183.352 202.033 183.713 202.3C184.079 202.567 184.291 202.939 184.346 203.417H183.579C183.518 203.122 183.379 202.906 183.163 202.767C182.946 202.622 182.643 202.55 182.254 202.55C181.882 202.55 181.596 202.617 181.396 202.75C181.196 202.878 181.096 203.067 181.096 203.317C181.096 203.506 181.16 203.656 181.288 203.767C181.421 203.872 181.635 203.953 181.929 204.008L183.013 204.208C183.491 204.297 183.841 204.453 184.063 204.675C184.285 204.897 184.396 205.197 184.396 205.575C184.396 206.058 184.221 206.433 183.871 206.7C183.521 206.967 183.021 207.1 182.371 207.1ZM186.458 207C186.225 207 186.042 206.942 185.908 206.825C185.78 206.703 185.717 206.522 185.717 206.283V202.6H184.758V202H185.725V200.5H186.492V202H187.858V202.6H186.5V206.383H187.992V207H186.458ZM193.267 207.1C192.562 207.1 192.006 206.939 191.601 206.617C191.195 206.294 190.964 205.839 190.909 205.25H191.667C191.701 205.622 191.853 205.911 192.126 206.117C192.403 206.317 192.778 206.417 193.251 206.417C193.762 206.417 194.164 206.3 194.459 206.067C194.759 205.828 194.909 205.508 194.909 205.108C194.909 204.714 194.767 204.4 194.484 204.167C194.201 203.928 193.828 203.808 193.367 203.808H192.301V203.175H193.434C193.828 203.175 194.148 203.067 194.392 202.85C194.637 202.633 194.759 202.353 194.759 202.008C194.759 201.653 194.628 201.369 194.367 201.158C194.106 200.942 193.753 200.833 193.309 200.833C192.887 200.833 192.542 200.933 192.276 201.133C192.014 201.333 191.845 201.622 191.767 202H191.026C191.064 201.622 191.184 201.294 191.384 201.017C191.589 200.739 191.859 200.525 192.192 200.375C192.531 200.225 192.92 200.15 193.359 200.15C193.792 200.15 194.17 200.222 194.492 200.367C194.82 200.511 195.073 200.714 195.251 200.975C195.434 201.236 195.526 201.539 195.526 201.883C195.526 202.25 195.426 202.567 195.226 202.833C195.026 203.1 194.734 203.303 194.351 203.442V203.475C194.784 203.581 195.112 203.778 195.334 204.067C195.562 204.356 195.676 204.719 195.676 205.158C195.676 205.553 195.576 205.897 195.376 206.192C195.181 206.481 194.903 206.706 194.542 206.867C194.187 207.022 193.762 207.1 193.267 207.1Z" fill="#918B9C"/>
<line x1="205.25" y1="192" x2="205.25" y2="215" stroke="#312C3F" stroke-width="0.5"/>
<rect x="213" y="196" width="51" height="15" rx="3" fill="#A36BFF"/>
<path d="M227.495 205.5V201.45H229.31C229.76 201.45 230.107 201.562 230.35 201.785C230.593 202.005 230.715 202.308 230.715 202.695C230.715 203.078 230.592 203.382 230.345 203.605C230.102 203.828 229.757 203.94 229.31 203.94H228.07V205.5H227.495ZM228.07 203.455H229.28C229.563 203.455 229.778 203.387 229.925 203.25C230.072 203.113 230.145 202.928 230.145 202.695C230.145 202.458 230.072 202.273 229.925 202.14C229.778 202.003 229.563 201.935 229.28 201.935H228.07V203.455ZM230.439 205.5L232.174 201.45H232.809L234.539 205.5H233.964L233.444 204.29H231.519L231.004 205.5H230.439ZM231.704 203.8H233.269L232.504 201.99H232.479L231.704 203.8ZM236.416 205.56C235.896 205.56 235.481 205.447 235.171 205.22C234.865 204.993 234.696 204.678 234.666 204.275H235.271C235.285 204.532 235.391 204.73 235.591 204.87C235.791 205.007 236.071 205.075 236.431 205.075C236.751 205.075 236.996 205.018 237.166 204.905C237.336 204.792 237.421 204.623 237.421 204.4C237.421 204.227 237.361 204.085 237.241 203.975C237.125 203.865 236.95 203.788 236.716 203.745L235.941 203.59C235.591 203.52 235.325 203.395 235.141 203.215C234.958 203.032 234.866 202.803 234.866 202.53C234.866 202.18 234.998 201.903 235.261 201.7C235.525 201.493 235.883 201.39 236.336 201.39C236.793 201.39 237.165 201.498 237.451 201.715C237.741 201.928 237.908 202.227 237.951 202.61H237.346C237.246 202.117 236.898 201.87 236.301 201.87C236.028 201.87 235.813 201.923 235.656 202.03C235.503 202.137 235.426 202.288 235.426 202.485C235.426 202.802 235.651 203.005 236.101 203.095L236.911 203.255C237.265 203.325 237.531 203.453 237.711 203.64C237.891 203.823 237.981 204.062 237.981 204.355C237.981 204.735 237.843 205.032 237.566 205.245C237.29 205.455 236.906 205.56 236.416 205.56ZM240.176 205.56C239.656 205.56 239.241 205.447 238.931 205.22C238.625 204.993 238.456 204.678 238.426 204.275H239.031C239.045 204.532 239.151 204.73 239.351 204.87C239.551 205.007 239.831 205.075 240.191 205.075C240.511 205.075 240.756 205.018 240.926 204.905C241.096 204.792 241.181 204.623 241.181 204.4C241.181 204.227 241.121 204.085 241.001 203.975C240.885 203.865 240.71 203.788 240.476 203.745L239.701 203.59C239.351 203.52 239.085 203.395 238.901 203.215C238.718 203.032 238.626 202.803 238.626 202.53C238.626 202.18 238.758 201.903 239.021 201.7C239.285 201.493 239.643 201.39 240.096 201.39C240.553 201.39 240.925 201.498 241.211 201.715C241.501 201.928 241.668 202.227 241.711 202.61H241.106C241.006 202.117 240.658 201.87 240.061 201.87C239.788 201.87 239.573 201.923 239.416 202.03C239.263 202.137 239.186 202.288 239.186 202.485C239.186 202.802 239.411 203.005 239.861 203.095L240.671 203.255C241.025 203.325 241.291 203.453 241.471 203.64C241.651 203.823 241.741 204.062 241.741 204.355C241.741 204.735 241.603 205.032 241.326 205.245C241.05 205.455 240.666 205.56 240.176 205.56ZM245.297 205.5H242.472V201.45H245.297V201.94H243.047V203.16H245.177V203.64H243.047V205.01H245.297V205.5ZM245.98 205.5V201.45H247.445C247.885 201.45 248.263 201.532 248.58 201.695C248.9 201.855 249.145 202.087 249.315 202.39C249.488 202.693 249.575 203.055 249.575 203.475C249.575 203.892 249.488 204.252 249.315 204.555C249.142 204.858 248.895 205.092 248.575 205.255C248.258 205.418 247.882 205.5 247.445 205.5H245.98ZM246.555 205.01H247.445C247.935 205.01 248.315 204.875 248.585 204.605C248.858 204.335 248.995 203.958 248.995 203.475C248.995 202.988 248.86 202.612 248.59 202.345C248.32 202.075 247.938 201.94 247.445 201.94H246.555V205.01Z" fill="#EBE3FA"/>
<line x1="272.25" y1="192" x2="272.25" y2="215" stroke="#312C3F" stroke-width="0.5"/>
<rect x="280" y="202" width="149" height="3" rx="1.5" fill="#312C3F"/>
<line x1="161" y1="214.75" x2="437" y2="214.75" stroke="#312C3F" stroke-width="0.5"/>
<path d="M172.483 230H171.683V223.933H169.2V223.25H174.967V223.933H172.483V230ZM177.182 230.1C176.671 230.1 176.226 229.994 175.849 229.783C175.471 229.567 175.179 229.261 174.974 228.867C174.768 228.472 174.665 228.011 174.665 227.483C174.665 226.956 174.768 226.5 174.974 226.117C175.179 225.728 175.468 225.428 175.84 225.217C176.213 225.006 176.649 224.9 177.149 224.9C177.621 224.9 178.029 224.997 178.374 225.192C178.718 225.381 178.985 225.65 179.174 226C179.368 226.35 179.465 226.764 179.465 227.242V227.592H175.415C175.438 228.164 175.604 228.611 175.915 228.933C176.232 229.256 176.651 229.417 177.174 229.417C177.535 229.417 177.84 229.339 178.09 229.183C178.346 229.028 178.521 228.803 178.615 228.508H179.415C179.288 229.014 179.026 229.406 178.632 229.683C178.243 229.961 177.76 230.1 177.182 230.1ZM175.457 226.992H178.707C178.668 226.542 178.51 226.192 178.232 225.942C177.954 225.692 177.59 225.567 177.14 225.567C176.69 225.567 176.315 225.692 176.015 225.942C175.721 226.192 175.535 226.542 175.457 226.992ZM182.371 230.1C181.693 230.1 181.157 229.961 180.763 229.683C180.368 229.4 180.152 229.006 180.113 228.5H180.896C180.935 228.822 181.077 229.061 181.321 229.217C181.566 229.372 181.924 229.45 182.396 229.45C183.246 229.45 183.671 229.178 183.671 228.633C183.671 228.411 183.604 228.242 183.471 228.125C183.343 228.003 183.124 227.914 182.813 227.858L181.721 227.658C180.816 227.492 180.363 227.058 180.363 226.358C180.363 225.908 180.532 225.553 180.871 225.292C181.21 225.031 181.674 224.9 182.263 224.9C182.868 224.9 183.352 225.033 183.713 225.3C184.079 225.567 184.291 225.939 184.346 226.417H183.579C183.518 226.122 183.379 225.906 183.163 225.767C182.946 225.622 182.643 225.55 182.254 225.55C181.882 225.55 181.596 225.617 181.396 225.75C181.196 225.878 181.096 226.067 181.096 226.317C181.096 226.506 181.16 226.656 181.288 226.767C181.421 226.872 181.635 226.953 181.929 227.008L183.013 227.208C183.491 227.297 183.841 227.453 184.063 227.675C184.285 227.897 184.396 228.197 184.396 228.575C184.396 229.058 184.221 229.433 183.871 229.7C183.521 229.967 183.021 230.1 182.371 230.1ZM186.458 230C186.225 230 186.042 229.942 185.908 229.825C185.78 229.703 185.717 229.522 185.717 229.283V225.6H184.758V225H185.725V223.5H186.492V225H187.858V225.6H186.5V229.383H187.992V230H186.458ZM194.242 230V228.333H190.659V227.75L194.251 223.25H195.009V227.667H196.076V228.333H195.009V230H194.242ZM191.492 227.667H194.276V224.217H194.242L191.492 227.667Z" fill="#918B9C"/>
<line x1="205.25" y1="215" x2="205.25" y2="238" stroke="#312C3F" stroke-width="0.5"/>
<rect x="213" y="219" width="51" height="15" rx="3" fill="#A36BFF"/>
<path d="M227.495 228.5V224.45H229.31C229.76 224.45 230.107 224.562 230.35 224.785C230.593 225.005 230.715 225.308 230.715 225.695C230.715 226.078 230.592 226.382 230.345 226.605C230.102 226.828 229.757 226.94 229.31 226.94H228.07V228.5H227.495ZM228.07 226.455H229.28C229.563 226.455 229.778 226.387 229.925 226.25C230.072 226.113 230.145 225.928 230.145 225.695C230.145 225.458 230.072 225.273 229.925 225.14C229.778 225.003 229.563 224.935 229.28 224.935H228.07V226.455ZM230.439 228.5L232.174 224.45H232.809L234.539 228.5H233.964L233.444 227.29H231.519L231.004 228.5H230.439ZM231.704 226.8H233.269L232.504 224.99H232.479L231.704 226.8ZM236.416 228.56C235.896 228.56 235.481 228.447 235.171 228.22C234.865 227.993 234.696 227.678 234.666 227.275H235.271C235.285 227.532 235.391 227.73 235.591 227.87C235.791 228.007 236.071 228.075 236.431 228.075C236.751 228.075 236.996 228.018 237.166 227.905C237.336 227.792 237.421 227.623 237.421 227.4C237.421 227.227 237.361 227.085 237.241 226.975C237.125 226.865 236.95 226.788 236.716 226.745L235.941 226.59C235.591 226.52 235.325 226.395 235.141 226.215C234.958 226.032 234.866 225.803 234.866 225.53C234.866 225.18 234.998 224.903 235.261 224.7C235.525 224.493 235.883 224.39 236.336 224.39C236.793 224.39 237.165 224.498 237.451 224.715C237.741 224.928 237.908 225.227 237.951 225.61H237.346C237.246 225.117 236.898 224.87 236.301 224.87C236.028 224.87 235.813 224.923 235.656 225.03C235.503 225.137 235.426 225.288 235.426 225.485C235.426 225.802 235.651 226.005 236.101 226.095L236.911 226.255C237.265 226.325 237.531 226.453 237.711 226.64C237.891 226.823 237.981 227.062 237.981 227.355C237.981 227.735 237.843 228.032 237.566 228.245C237.29 228.455 236.906 228.56 236.416 228.56ZM240.176 228.56C239.656 228.56 239.241 228.447 238.931 228.22C238.625 227.993 238.456 227.678 238.426 227.275H239.031C239.045 227.532 239.151 227.73 239.351 227.87C239.551 228.007 239.831 228.075 240.191 228.075C240.511 228.075 240.756 228.018 240.926 227.905C241.096 227.792 241.181 227.623 241.181 227.4C241.181 227.227 241.121 227.085 241.001 226.975C240.885 226.865 240.71 226.788 240.476 226.745L239.701 226.59C239.351 226.52 239.085 226.395 238.901 226.215C238.718 226.032 238.626 225.803 238.626 225.53C238.626 225.18 238.758 224.903 239.021 224.7C239.285 224.493 239.643 224.39 240.096 224.39C240.553 224.39 240.925 224.498 241.211 224.715C241.501 224.928 241.668 225.227 241.711 225.61H241.106C241.006 225.117 240.658 224.87 240.061 224.87C239.788 224.87 239.573 224.923 239.416 225.03C239.263 225.137 239.186 225.288 239.186 225.485C239.186 225.802 239.411 226.005 239.861 226.095L240.671 226.255C241.025 226.325 241.291 226.453 241.471 226.64C241.651 226.823 241.741 227.062 241.741 227.355C241.741 227.735 241.603 228.032 241.326 228.245C241.05 228.455 240.666 228.56 240.176 228.56ZM245.297 228.5H242.472V224.45H245.297V224.94H243.047V226.16H245.177V226.64H243.047V228.01H245.297V228.5ZM245.98 228.5V224.45H247.445C247.885 224.45 248.263 224.532 248.58 224.695C248.9 224.855 249.145 225.087 249.315 225.39C249.488 225.693 249.575 226.055 249.575 226.475C249.575 226.892 249.488 227.252 249.315 227.555C249.142 227.858 248.895 228.092 248.575 228.255C248.258 228.418 247.882 228.5 247.445 228.5H245.98ZM246.555 228.01H247.445C247.935 228.01 248.315 227.875 248.585 227.605C248.858 227.335 248.995 226.958 248.995 226.475C248.995 225.988 248.86 225.612 248.59 225.345C248.32 225.075 247.938 224.94 247.445 224.94H246.555V228.01Z" fill="#EBE3FA"/>
<line x1="272.25" y1="215" x2="272.25" y2="238" stroke="#312C3F" stroke-width="0.5"/>
<rect x="280" y="225" width="149" height="3" rx="1.5" fill="#312C3F"/>
<line x1="161" y1="237.75" x2="437" y2="237.75" stroke="#312C3F" stroke-width="0.5"/>
<path d="M169.526 246.324V245.727H174.799V246.324H172.494V253H171.83V246.324H169.526ZM177.477 253.114C176.968 253.114 176.528 252.995 176.156 252.759C175.784 252.519 175.497 252.189 175.293 251.768C175.092 251.344 174.991 250.856 174.991 250.305C174.991 249.755 175.092 249.268 175.293 248.842C175.497 248.413 175.777 248.078 176.135 247.837C176.494 247.593 176.91 247.471 177.381 247.471C177.677 247.471 177.962 247.525 178.237 247.634C178.511 247.741 178.758 247.905 178.975 248.128C179.196 248.348 179.37 248.626 179.497 248.962C179.625 249.296 179.689 249.692 179.689 250.148V250.461H175.428V249.903H179.043C179.043 249.553 178.972 249.238 178.83 248.959C178.69 248.677 178.495 248.455 178.244 248.291C177.995 248.128 177.708 248.046 177.381 248.046C177.035 248.046 176.731 248.138 176.468 248.323C176.206 248.508 176 248.752 175.85 249.055C175.704 249.358 175.629 249.689 175.627 250.049V250.383C175.627 250.816 175.701 251.195 175.85 251.519C176.002 251.841 176.216 252.091 176.493 252.268C176.77 252.446 177.098 252.535 177.477 252.535C177.735 252.535 177.961 252.495 178.155 252.414C178.352 252.334 178.516 252.226 178.649 252.091C178.784 251.954 178.885 251.803 178.954 251.64L179.554 251.835C179.471 252.065 179.335 252.277 179.146 252.471C178.959 252.665 178.725 252.821 178.443 252.94C178.163 253.056 177.841 253.114 177.477 253.114ZM184.647 248.742L184.068 248.906C184.011 248.742 183.931 248.594 183.827 248.462C183.722 248.329 183.586 248.224 183.418 248.146C183.253 248.067 183.047 248.028 182.8 248.028C182.431 248.028 182.128 248.116 181.891 248.291C181.655 248.466 181.536 248.692 181.536 248.969C181.536 249.204 181.617 249.394 181.778 249.541C181.941 249.686 182.192 249.8 182.53 249.886L183.354 250.088C183.811 250.199 184.153 250.376 184.381 250.617C184.61 250.859 184.725 251.162 184.725 251.526C184.725 251.834 184.64 252.107 184.469 252.347C184.299 252.586 184.061 252.774 183.756 252.911C183.453 253.046 183.101 253.114 182.701 253.114C182.168 253.114 181.729 252.994 181.383 252.755C181.038 252.513 180.816 252.165 180.719 251.711L181.327 251.562C181.405 251.886 181.557 252.131 181.785 252.297C182.014 252.463 182.316 252.545 182.69 252.545C183.109 252.545 183.444 252.452 183.695 252.265C183.946 252.076 184.072 251.839 184.072 251.555C184.072 251.335 183.998 251.15 183.851 251.001C183.705 250.849 183.482 250.738 183.184 250.667L182.293 250.454C181.819 250.34 181.469 250.16 181.241 249.914C181.014 249.668 180.9 249.362 180.9 248.998C180.9 248.697 180.982 248.433 181.146 248.206C181.309 247.976 181.534 247.796 181.82 247.666C182.107 247.536 182.433 247.471 182.8 247.471C183.3 247.471 183.699 247.585 183.997 247.812C184.298 248.037 184.514 248.347 184.647 248.742ZM188.158 247.545V248.096H185.555V247.545H188.158ZM186.368 246.239H187.003V251.576C187.003 251.803 187.043 251.982 187.121 252.112C187.199 252.24 187.301 252.331 187.426 252.386C187.552 252.438 187.685 252.464 187.827 252.464C187.91 252.464 187.981 252.459 188.04 252.45C188.1 252.438 188.152 252.426 188.197 252.414L188.332 252.986C188.27 253.009 188.194 253.031 188.104 253.05C188.014 253.071 187.903 253.082 187.77 253.082C187.538 253.082 187.315 253.031 187.099 252.929C186.886 252.827 186.711 252.676 186.574 252.474C186.436 252.273 186.368 252.023 186.368 251.725V246.239ZM194.308 253.099C193.903 253.099 193.541 253.018 193.221 252.854C192.904 252.689 192.651 252.461 192.461 252.173C192.274 251.884 192.175 251.554 192.163 251.182H192.806C192.827 251.568 192.979 251.885 193.26 252.134C193.542 252.38 193.891 252.503 194.308 252.503C194.632 252.503 194.921 252.426 195.174 252.272C195.428 252.116 195.625 251.903 195.767 251.633C195.912 251.361 195.984 251.054 195.984 250.713C195.982 250.358 195.905 250.045 195.753 249.776C195.602 249.503 195.396 249.29 195.135 249.136C194.877 248.982 194.587 248.906 194.265 248.906C194.021 248.903 193.782 248.943 193.548 249.026C193.314 249.109 193.118 249.216 192.962 249.346L192.298 249.261L192.735 245.727H196.328V246.324H193.292L193.001 248.756H193.037C193.198 248.621 193.393 248.511 193.623 248.426C193.855 248.341 194.1 248.298 194.358 248.298C194.786 248.298 195.171 248.401 195.512 248.607C195.855 248.813 196.126 249.097 196.325 249.46C196.526 249.819 196.627 250.234 196.627 250.702C196.627 251.162 196.526 251.572 196.325 251.935C196.126 252.295 195.851 252.579 195.501 252.787C195.153 252.995 194.755 253.099 194.308 253.099Z" fill="#918B9C"/>
<line x1="206.5" y1="238" x2="206.5" y2="261" stroke="#312C3F"/>
<g opacity="0.4">
<rect x="214" y="243.5" width="50" height="12" rx="3" fill="#918B9C"/>
<path d="M229.528 251.5V247.136H232.145V247.605H230.057V249.08H231.949V249.548H230.057V251.5H229.528ZM232.624 251.5H232.07L233.672 247.136H234.218L235.82 251.5H235.266L233.962 247.827H233.928L232.624 251.5ZM232.828 249.795H235.061V250.264H232.828V249.795ZM236.968 247.136V251.5H236.44V247.136H236.968ZM237.968 251.5V247.136H238.496V251.031H240.524V251.5H237.968ZM241.283 251.5V247.136H243.916V247.605H241.811V249.08H243.78V249.548H241.811V251.031H243.95V251.5H241.283ZM246.155 251.5H244.808V247.136H246.215C246.638 247.136 247 247.224 247.301 247.398C247.603 247.572 247.833 247.821 247.994 248.146C248.154 248.47 248.235 248.858 248.235 249.31C248.235 249.764 248.154 250.156 247.992 250.484C247.83 250.81 247.594 251.062 247.284 251.238C246.975 251.413 246.598 251.5 246.155 251.5ZM245.337 251.031H246.121C246.482 251.031 246.781 250.962 247.018 250.822C247.255 250.683 247.432 250.485 247.549 250.228C247.665 249.971 247.723 249.665 247.723 249.31C247.723 248.957 247.666 248.654 247.551 248.4C247.436 248.144 247.264 247.948 247.035 247.812C246.806 247.674 246.522 247.605 246.181 247.605H245.337V251.031Z" fill="#131018"/>
</g>
<line x1="272.5" y1="238" x2="272.5" y2="261" stroke="#312C3F"/>
<rect x="280" y="248" width="149" height="3" rx="1.5" fill="#918B9C"/>
</g>
</g>
</g>
<defs>
<filter id="filter0_ddddd_536_6750" x="-310.737" y="-182.074" width="592.035" height="510.641" filterUnits="userSpaceOnUse" color-interpolation-filters="sRGB">
<feFlood flood-opacity="0" result="BackgroundImageFix"/>
<feColorMatrix in="SourceAlpha" type="matrix" values="0 0 0 0 0 0 0 0 0 0 0 0 0 0 0 0 0 0 127 0" result="hardAlpha"/>
<feOffset dx="-9.53181" dy="-4.7659"/>
<feGaussianBlur stdDeviation="11.9148"/>
<feColorMatrix type="matrix" values="0 0 0 0 0 0 0 0 0 0 0 0 0 0 0 0 0 0 0.39 0"/>
<feBlend mode="normal" in2="BackgroundImageFix" result="effect1_dropShadow_536_6750"/>
<feColorMatrix in="SourceAlpha" type="matrix" values="0 0 0 0 0 0 0 0 0 0 0 0 0 0 0 0 0 0 127 0" result="hardAlpha"/>
<feOffset dx="-38.1272" dy="-20.0168"/>
<feGaussianBlur stdDeviation="21.4466"/>
<feColorMatrix type="matrix" values="0 0 0 0 0 0 0 0 0 0 0 0 0 0 0 0 0 0 0.34 0"/>
<feBlend mode="normal" in2="effect1_dropShadow_536_6750" result="effect2_dropShadow_536_6750"/>
<feColorMatrix in="SourceAlpha" type="matrix" values="0 0 0 0 0 0 0 0 0 0 0 0 0 0 0 0 0 0 127 0" result="hardAlpha"/>
<feOffset dx="-84.8331" dy="-45.7527"/>
<feGaussianBlur stdDeviation="29.072"/>
<feColorMatrix type="matrix" values="0 0 0 0 0 0 0 0 0 0 0 0 0 0 0 0 0 0 0.2 0"/>
<feBlend mode="normal" in2="effect2_dropShadow_536_6750" result="effect3_dropShadow_536_6750"/>
<feColorMatrix in="SourceAlpha" type="matrix" values="0 0 0 0 0 0 0 0 0 0 0 0 0 0 0 0 0 0 127 0" result="hardAlpha"/>
<feOffset dx="-150.603" dy="-81.0203"/>
<feGaussianBlur stdDeviation="34.3145"/>
<feColorMatrix type="matrix" values="0 0 0 0 0 0 0 0 0 0 0 0 0 0 0 0 0 0 0.06 0"/>
<feBlend mode="normal" in2="effect3_dropShadow_536_6750" result="effect4_dropShadow_536_6750"/>
<feColorMatrix in="SourceAlpha" type="matrix" values="0 0 0 0 0 0 0 0 0 0 0 0 0 0 0 0 0 0 127 0" result="hardAlpha"/>
<feOffset dx="-235.436" dy="-126.773"/>
<feGaussianBlur stdDeviation="37.6506"/>
<feColorMatrix type="matrix" values="0 0 0 0 0 0 0 0 0 0 0 0 0 0 0 0 0 0 0.01 0"/>
<feBlend mode="normal" in2="effect4_dropShadow_536_6750" result="effect5_dropShadow_536_6750"/>
<feBlend mode="normal" in="SourceGraphic" in2="effect5_dropShadow_536_6750" result="shape"/>
</filter>
<filter id="filter1_ddddd_536_6750" x="-200.143" y="-129.05" width="665.207" height="461.753" filterUnits="userSpaceOnUse" color-interpolation-filters="sRGB">
<feFlood flood-opacity="0" result="BackgroundImageFix"/>
<feColorMatrix in="SourceAlpha" type="matrix" values="0 0 0 0 0 0 0 0 0 0 0 0 0 0 0 0 0 0 127 0" result="hardAlpha"/>
<feOffset dx="-10.7099" dy="-5.35495"/>
<feGaussianBlur stdDeviation="13.3874"/>
<feColorMatrix type="matrix" values="0 0 0 0 0 0 0 0 0 0 0 0 0 0 0 0 0 0 0.39 0"/>
<feBlend mode="normal" in2="BackgroundImageFix" result="effect1_dropShadow_536_6750"/>
<feColorMatrix in="SourceAlpha" type="matrix" values="0 0 0 0 0 0 0 0 0 0 0 0 0 0 0 0 0 0 127 0" result="hardAlpha"/>
<feOffset dx="-42.8396" dy="-22.4908"/>
<feGaussianBlur stdDeviation="24.0973"/>
<feColorMatrix type="matrix" values="0 0 0 0 0 0 0 0 0 0 0 0 0 0 0 0 0 0 0.34 0"/>
<feBlend mode="normal" in2="effect1_dropShadow_536_6750" result="effect2_dropShadow_536_6750"/>
<feColorMatrix in="SourceAlpha" type="matrix" values="0 0 0 0 0 0 0 0 0 0 0 0 0 0 0 0 0 0 127 0" result="hardAlpha"/>
<feOffset dx="-95.318" dy="-51.4075"/>
<feGaussianBlur stdDeviation="32.6652"/>
<feColorMatrix type="matrix" values="0 0 0 0 0 0 0 0 0 0 0 0 0 0 0 0 0 0 0.2 0"/>
<feBlend mode="normal" in2="effect2_dropShadow_536_6750" result="effect3_dropShadow_536_6750"/>
<feColorMatrix in="SourceAlpha" type="matrix" values="0 0 0 0 0 0 0 0 0 0 0 0 0 0 0 0 0 0 127 0" result="hardAlpha"/>
<feOffset dx="-169.216" dy="-91.0341"/>
<feGaussianBlur stdDeviation="38.5556"/>
<feColorMatrix type="matrix" values="0 0 0 0 0 0 0 0 0 0 0 0 0 0 0 0 0 0 0.06 0"/>
<feBlend mode="normal" in2="effect3_dropShadow_536_6750" result="effect4_dropShadow_536_6750"/>
<feColorMatrix in="SourceAlpha" type="matrix" values="0 0 0 0 0 0 0 0 0 0 0 0 0 0 0 0 0 0 127 0" result="hardAlpha"/>
<feOffset dx="-264.534" dy="-142.442"/>
<feGaussianBlur stdDeviation="42.3041"/>
<feColorMatrix type="matrix" values="0 0 0 0 0 0 0 0 0 0 0 0 0 0 0 0 0 0 0.01 0"/>
<feBlend mode="normal" in2="effect4_dropShadow_536_6750" result="effect5_dropShadow_536_6750"/>
<feBlend mode="normal" in="SourceGraphic" in2="effect5_dropShadow_536_6750" result="shape"/>
</filter>
<radialGradient id="paint0_radial_536_6750" cx="0" cy="0" r="1" gradientUnits="userSpaceOnUse" gradientTransform="translate(202 21) rotate(90) scale(234 777.825)">
<stop stop-color="white"/>
<stop offset="0.659883" stop-color="#E8E8E8" stop-opacity="0.833025"/>
<stop offset="1" stop-color="#737373" stop-opacity="0"/>
</radialGradient>
<linearGradient id="paint1_linear_536_6750" x1="132.609" y1="140.026" x2="132.609" y2="176.516" gradientUnits="userSpaceOnUse">
<stop stop-color="#A36BFF"/>
<stop offset="1" stop-color="#131018" stop-opacity="0"/>
</linearGradient>
<linearGradient id="paint2_linear_536_6750" x1="132.609" y1="140.026" x2="132.609" y2="176.516" gradientUnits="userSpaceOnUse">
<stop stop-color="#A36BFF"/>
<stop offset="1" stop-color="#A36BFF" stop-opacity="0"/>
</linearGradient>
<clipPath id="clip0_536_6750">
<path d="M0 29.4157C0 24.2155 4.21555 20 9.41569 20H439.584C444.784 20 449 24.2155 449 29.4157V295.584C449 300.784 444.784 305 439.584 305H9.41568C4.21554 305 0 300.784 0 295.584V29.4157Z" fill="white"/>
</clipPath>
<clipPath id="clip1_536_6750">
<rect x="10.6797" y="108.431" width="243.86" height="60.52" rx="1.78" fill="white"/>
</clipPath>
</defs>
</svg>
