<svg width="449" height="295" viewBox="0 0 449 295" fill="none" xmlns="http://www.w3.org/2000/svg">
<g clip-path="url(#clip0_536_6995)">
<mask id="mask0_536_6995" style="mask-type:alpha" maskUnits="userSpaceOnUse" x="-69" y="0" width="542" height="295">
<rect x="-69" width="542" height="295" fill="url(#paint0_linear_536_6995)"/>
</mask>
<g mask="url(#mask0_536_6995)">
<g clip-path="url(#clip1_536_6995)">
<rect y="20.5" width="299" height="188" rx="8.75973" fill="#131018"/>
<rect x="-0.339943" y="20.1601" width="399.057" height="330.139" rx="4.57667" fill="#131018"/>
<rect x="-0.339943" y="20.1601" width="399.057" height="330.139" rx="4.57667" stroke="#4C4756" stroke-width="0.679886"/>
<g clip-path="url(#clip2_536_6995)">
<path d="M23.1545 54.1182H15.1943V56.7673H23.1545V54.1182Z" fill="#4C4756" fill-opacity="0.5"/>
<path d="M208.962 54.1182H32.541V56.7673H208.962V54.1182Z" fill="#4C4756" fill-opacity="0.5"/>
<path d="M228.978 54.1182H213.858V56.7673H228.978V54.1182Z" fill="#4C4756"/>
<path d="M289.083 116.558H238.055V119.193H289.083V116.558Z" fill="#4C4756" fill-opacity="0.5"/>
<path d="M307.171 54.1182H232.263V56.7673H307.171V54.1182Z" fill="#4C4756" fill-opacity="0.8"/>
<path d="M23.1545 66.6045H15.1943V69.2537H23.1545V66.6045Z" fill="#4C4756" fill-opacity="0.5"/>
<path d="M100.216 66.6045H40.2988V69.2537H100.216V66.6045Z" fill="#4C4756" fill-opacity="0.8"/>
<path d="M234.458 116.558H211.795V119.193H234.458V116.558Z" fill="#4C4756" fill-opacity="0.8"/>
<path d="M89.7676 104.072H32.541V106.721H89.7676V104.072Z" fill="#4C4756" fill-opacity="0.8"/>
<path d="M80.4439 79.0889H40.2988V81.738H80.4439V79.0889Z" fill="#4C4756"/>
<path d="M300.018 91.5742H223.964V94.2098H300.018V91.5742Z" fill="#4C4756" fill-opacity="0.8"/>
<path d="M234.141 79.0889H84.9004V81.738H234.141V79.0889Z" fill="#4C4756" fill-opacity="0.8"/>
<path d="M206.615 116.558H32.541V119.193H206.615V116.558Z" fill="#4C4756"/>
<path d="M227.293 66.6045H103.982V69.2537H227.293V66.6045Z" fill="#4C4756" fill-opacity="0.5"/>
<path d="M266.343 79.0889H240.524V81.738H266.343V79.0889Z" fill="#4C4756" fill-opacity="0.5"/>
<path d="M23.1545 79.0889H15.1943V81.738H23.1545V79.0889Z" fill="#4C4756" fill-opacity="0.5"/>
<path d="M23.1545 91.5742H15.1943V94.2098H23.1545V91.5742Z" fill="#4C4756" fill-opacity="0.8"/>
<path d="M79.5812 91.5742H32.541V94.2098H79.5812V91.5742Z" fill="#4C4756" fill-opacity="0.5"/>
<path d="M87.339 129.043H40.2988V131.692H87.339V129.043Z" fill="#4C4756" fill-opacity="0.5"/>
<path d="M278.802 141.527H213.135V144.177H278.802V141.527Z" fill="#4C4756"/>
<path d="M209.025 141.527H82.8398V144.177H209.025V141.527Z" fill="#4C4756" fill-opacity="0.5"/>
<path d="M75.655 141.527H40.2988V144.177H75.655V141.527Z" fill="#4C4756" fill-opacity="0.8"/>
<path d="M228.975 104.072H93.0117V106.721H228.975V104.072Z" fill="#4C4756" fill-opacity="0.5"/>
<path d="M313.386 104.072H232.263V106.721H313.386V104.072Z" fill="#4C4756"/>
<path d="M220.271 91.5742H84.3643V94.2098H220.271V91.5742Z" fill="#4C4756"/>
<path d="M23.1545 104.072H15.1943V106.721H23.1545V104.072Z" fill="#4C4756" fill-opacity="0.5"/>
<path d="M23.1545 116.558H15.1943V119.193H23.1545V116.558Z" fill="#4C4756" fill-opacity="0.5"/>
<path d="M23.1545 129.043H15.1943V131.692H23.1545V129.043Z" fill="#4C4756" fill-opacity="0.8"/>
<path d="M23.1545 141.528H15.1943V144.177H23.1545V141.528Z" fill="#4C4756" fill-opacity="0.5"/>
<path d="M227.293 165.356H103.982V168.006H227.293V165.356Z" fill="#4C4756" fill-opacity="0.5"/>
<path d="M208.967 152.872H132.913V155.508H208.967V152.872Z" fill="#4C4756" fill-opacity="0.8"/>
<path d="M23.1545 152.872H15.1943V155.508H23.1545V152.872Z" fill="#4C4756" fill-opacity="0.5"/>
<path d="M125.861 152.872H32.541V155.508H125.861V152.872Z" fill="#4C4756" fill-opacity="0.5"/>
<path d="M23.1545 165.357H15.1943V168.007H23.1545V165.357Z" fill="#4C4756" fill-opacity="0.5"/>
<path d="M100.216 165.356H40.2988V168.006H100.216V165.356Z" fill="#4C4756" fill-opacity="0.8"/>
<path d="M89.7676 202.812H32.541V205.447H89.7676V202.812Z" fill="#4C4756" fill-opacity="0.8"/>
<path d="M80.4439 177.842H40.2988V180.491H80.4439V177.842Z" fill="#4C4756"/>
<path d="M234.141 177.842H84.9004V180.491H234.141V177.842Z" fill="#4C4756" fill-opacity="0.8"/>
<path d="M253.405 190.326H227.635V192.975H253.405V190.326Z" fill="#4C4756" fill-opacity="0.5"/>
<path d="M23.1545 177.842H15.1943V180.491H23.1545V177.842Z" fill="#4C4756" fill-opacity="0.5"/>
<path d="M23.1545 190.326H15.1943V192.975H23.1545V190.326Z" fill="#4C4756" fill-opacity="0.8"/>
<path d="M79.5812 190.326H32.541V192.975H79.5812V190.326Z" fill="#4C4756" fill-opacity="0.5"/>
<path d="M228.975 202.812H93.0117V205.447H228.975V202.812Z" fill="#4C4756" fill-opacity="0.5"/>
<path d="M220.271 190.326H84.3643V192.975H220.271V190.326Z" fill="#4C4756"/>
<path d="M23.1545 202.812H15.1943V205.447H23.1545V202.812Z" fill="#4C4756" fill-opacity="0.5"/>
<path d="M21.4768 41.268C21.8436 41.6484 21.8436 42.219 21.4768 42.5722C21.2866 42.7488 21.0692 42.8303 20.8382 42.8303C20.5937 42.8303 20.3627 42.7488 20.1725 42.5722L16.0833 38.4286C16.0833 38.4286 16.029 38.3878 16.0154 38.3471C16.0018 38.3335 15.9746 38.3199 15.9746 38.3199C15.9475 38.2792 15.9475 38.252 15.9339 38.1976C15.9067 38.1841 15.8931 38.1569 15.8931 38.1433C15.8795 38.1161 15.8795 38.0754 15.866 38.0618C15.866 38.021 15.8388 38.0075 15.8388 37.9939V37.8988C15.8388 37.8988 15.8252 37.858 15.8252 37.8173C15.8252 37.8037 15.8388 37.7629 15.8388 37.7493V37.6542C15.8388 37.6542 15.866 37.6135 15.866 37.5999C15.8795 37.5591 15.8795 37.532 15.8931 37.4776C15.8931 37.464 15.9067 37.464 15.9067 37.4504C15.9339 37.4097 15.9475 37.3418 15.9746 37.3146C15.9746 37.3146 15.9746 37.2874 16.0018 37.2874C16.0154 37.2603 16.0426 37.2195 16.0833 37.1923L20.1725 32.9944C20.5394 32.6412 21.1371 32.6412 21.4768 32.9944C21.8436 33.3612 21.8436 33.9454 21.4768 34.2986L18.026 37.7765L21.4768 41.2544V41.268Z" fill="#4C4756"/>
<path d="M25.181 41.7301L28.7404 33.2391C28.9171 32.8316 29.379 32.6414 29.8001 32.818C30.1941 32.981 30.3843 33.4565 30.2077 33.8505L26.6483 42.355C26.5124 42.6539 26.2135 42.8305 25.9011 42.8305C25.8196 42.8305 25.6973 42.8169 25.6158 42.7761C25.1946 42.6131 25.0044 42.1376 25.181 41.7301Z" fill="#4C4756"/>
<path d="M37.2644 38.3064C37.2644 38.3064 37.2644 38.32 37.2509 38.32C37.2237 38.3472 37.1965 38.3879 37.1422 38.4287L33.0529 42.5723C32.8763 42.7489 32.6318 42.8304 32.4008 42.8304C32.1563 42.8304 31.9389 42.7489 31.7487 42.5723C31.3819 42.2055 31.3819 41.6349 31.7487 41.2681L35.1995 37.7902L31.7487 34.3123C31.3819 33.9455 31.3819 33.3613 31.7487 33.0081C32.102 32.6549 32.6997 32.6549 33.0529 33.0081L37.1422 37.1517C37.1422 37.1517 37.2101 37.2196 37.2509 37.2468C37.2644 37.2468 37.2644 37.2739 37.2644 37.2739C37.2916 37.3283 37.3188 37.3554 37.3324 37.4098C37.3324 37.4234 37.346 37.4234 37.346 37.4369C37.3595 37.4777 37.3595 37.5049 37.3867 37.5728C37.3867 37.5864 37.4003 37.5864 37.4003 37.6136V37.7087C37.4003 37.7087 37.4139 37.763 37.4139 37.7766C37.4139 37.7902 37.4003 37.8309 37.4003 37.8445V37.9668C37.4003 37.9668 37.3867 37.9804 37.3867 37.994C37.3595 38.0483 37.3595 38.0891 37.346 38.1298C37.346 38.1434 37.3324 38.1434 37.3324 38.1706C37.3188 38.1977 37.2916 38.2385 37.2644 38.3064Z" fill="#4C4756"/>
</g>
</g>
<rect x="0.286562" y="20.7866" width="298.427" height="187.427" rx="8.47317" stroke="#EADEFF" stroke-opacity="0.12" stroke-width="0.573125"/>
<g filter="url(#filter1_ddddd_536_6995)">
<rect x="232" y="55.5" width="187" height="216" rx="8.75973" fill="#131018"/>
<rect x="232.287" y="55.7866" width="186.427" height="215.427" rx="8.47317" stroke="#EADEFF" stroke-opacity="0.12" stroke-width="0.573125"/>
<path d="M242.86 72V65.5273H244.949C245.408 65.5273 245.792 65.6158 246.099 65.7928C246.409 65.9676 246.642 66.2057 246.798 66.507C246.956 66.8083 247.035 67.1476 247.035 67.5247C247.035 67.9019 246.957 68.2422 246.801 68.5456C246.645 68.8469 246.413 69.086 246.106 69.263C245.798 69.4379 245.415 69.5253 244.958 69.5253H243.315V68.9944H244.942C245.282 68.9944 245.563 68.9311 245.786 68.8047C246.01 68.6762 246.176 68.5013 246.286 68.2801C246.397 68.0588 246.453 67.8071 246.453 67.5247C246.453 67.2424 246.397 66.9906 246.286 66.7694C246.176 66.5481 246.009 66.3743 245.783 66.2479C245.56 66.1214 245.276 66.0582 244.933 66.0582H243.451V72H242.86ZM248.216 72V67.1455H248.763V67.8913H248.804C248.901 67.6469 249.07 67.4499 249.31 67.3003C249.552 67.1486 249.826 67.0728 250.131 67.0728C250.178 67.0728 250.229 67.0738 250.286 67.0759C250.343 67.078 250.391 67.0801 250.429 67.0822V67.6543C250.403 67.6501 250.359 67.6438 250.296 67.6353C250.233 67.6269 250.164 67.6227 250.09 67.6227C249.838 67.6227 249.612 67.6764 249.414 67.7839C249.218 67.8892 249.063 68.0357 248.949 68.2232C248.836 68.4107 248.779 68.6246 248.779 68.8648V72H248.216ZM251.306 72V67.1455H251.872V72H251.306ZM251.594 66.3111C251.478 66.3111 251.379 66.2721 251.296 66.1941C251.214 66.1141 251.173 66.0182 251.173 65.9065C251.173 65.7949 251.214 65.7 251.296 65.6221C251.379 65.542 251.478 65.502 251.594 65.502C251.709 65.502 251.808 65.542 251.891 65.6221C251.973 65.7 252.014 65.7949 252.014 65.9065C252.014 66.0182 251.973 66.1141 251.891 66.1941C251.808 66.2721 251.709 66.3111 251.594 66.3111ZM253.27 72V67.1455H253.817V67.8913H253.868C253.965 67.6406 254.126 67.4436 254.351 67.3003C254.579 67.1549 254.852 67.0822 255.17 67.0822C255.505 67.0822 255.78 67.1613 255.995 67.3193C256.212 67.4752 256.374 67.6901 256.482 67.964H256.523C256.632 67.6943 256.81 67.4805 257.057 67.3224C257.305 67.1623 257.607 67.0822 257.961 67.0822C258.412 67.0822 258.768 67.2245 259.029 67.5089C259.29 67.7913 259.421 68.2042 259.421 68.7478V72H258.858V68.7478C258.858 68.3644 258.76 68.0768 258.564 67.885C258.368 67.6933 258.11 67.5974 257.79 67.5974C257.419 67.5974 257.134 67.7112 256.933 67.9387C256.733 68.1663 256.633 68.455 256.633 68.8047V72H256.058V68.6973C256.058 68.3686 255.966 68.1031 255.783 67.9008C255.6 67.6985 255.342 67.5974 255.009 67.5974C254.785 67.5974 254.584 67.6522 254.405 67.7618C254.228 67.8713 254.088 68.0241 253.985 68.22C253.884 68.4139 253.833 68.6372 253.833 68.8901V72H253.27ZM262.177 72.1106C261.884 72.1106 261.617 72.0537 261.374 71.94C261.132 71.8241 260.939 71.6576 260.796 71.4406C260.653 71.2215 260.581 70.956 260.581 70.6441C260.581 70.4039 260.626 70.2017 260.717 70.0373C260.807 69.873 260.936 69.7381 261.102 69.6328C261.269 69.5274 261.466 69.4442 261.693 69.3831C261.921 69.322 262.172 69.2746 262.446 69.2409C262.717 69.2072 262.947 69.1777 263.135 69.1524C263.324 69.1271 263.469 69.0871 263.568 69.0323C263.667 68.9775 263.716 68.889 263.716 68.7668V68.653C263.716 68.3222 263.617 68.062 263.419 67.8724C263.223 67.6806 262.941 67.5848 262.572 67.5848C262.222 67.5848 261.937 67.6617 261.716 67.8155C261.496 67.9693 261.343 68.1505 261.254 68.3591L260.72 68.1663C260.83 67.9008 260.981 67.6891 261.175 67.531C261.369 67.3709 261.586 67.2561 261.826 67.1865C262.066 67.1149 262.31 67.0791 262.556 67.0791C262.742 67.0791 262.935 67.1033 263.135 67.1518C263.337 67.2002 263.524 67.2845 263.697 67.4046C263.87 67.5226 264.01 67.688 264.118 67.9008C264.225 68.1115 264.279 68.3791 264.279 68.7036V72H263.716V71.232H263.681C263.614 71.3753 263.514 71.5143 263.381 71.6492C263.248 71.784 263.082 71.8946 262.882 71.981C262.682 72.0674 262.447 72.1106 262.177 72.1106ZM262.253 71.5955C262.552 71.5955 262.811 71.5291 263.03 71.3963C263.25 71.2636 263.418 71.0877 263.536 70.8685C263.656 70.6473 263.716 70.4039 263.716 70.1385V69.4368C263.674 69.4769 263.603 69.5127 263.504 69.5443C263.408 69.5759 263.295 69.6043 263.166 69.6296C263.04 69.6528 262.913 69.6728 262.787 69.6897C262.661 69.7065 262.547 69.7213 262.446 69.7339C262.172 69.7676 261.938 69.8203 261.744 69.8919C261.55 69.9636 261.402 70.0626 261.298 70.189C261.195 70.3133 261.144 70.4735 261.144 70.6694C261.144 70.9644 261.249 71.193 261.46 71.3553C261.67 71.5154 261.935 71.5955 262.253 71.5955ZM265.686 72V67.1455H266.233V67.8913H266.274C266.371 67.6469 266.54 67.4499 266.78 67.3003C267.022 67.1486 267.296 67.0728 267.602 67.0728C267.648 67.0728 267.7 67.0738 267.756 67.0759C267.813 67.078 267.861 67.0801 267.899 67.0822V67.6543C267.873 67.6501 267.829 67.6438 267.766 67.6353C267.703 67.6269 267.634 67.6227 267.56 67.6227C267.308 67.6227 267.082 67.6764 266.884 67.7839C266.688 67.8892 266.533 68.0357 266.42 68.2232C266.306 68.4107 266.249 68.6246 266.249 68.8648V72H265.686ZM269.309 73.8205C269.198 73.8205 269.093 73.8099 268.996 73.7888C268.9 73.7678 268.823 73.7446 268.766 73.7193L268.917 73.2231C269.109 73.2821 269.28 73.3032 269.429 73.2863C269.579 73.2716 269.712 73.2042 269.828 73.0841C269.944 72.9661 270.047 72.7849 270.137 72.5404L270.314 72.0474L268.529 67.1455H269.139L270.58 71.2573H270.624L272.065 67.1455H272.675L270.621 72.768C270.535 73.0019 270.428 73.1968 270.302 73.3527C270.175 73.5107 270.029 73.6277 269.862 73.7035C269.698 73.7815 269.514 73.8205 269.309 73.8205Z" fill="#918B9C"/>
<rect x="242.5" y="78.5" width="166" height="23" rx="3" stroke="#EADEFF" stroke-opacity="0.12"/>
<path d="M262.134 90.0126C260.56 90.1092 259.075 90.7782 257.96 91.8934C256.845 93.0086 256.176 94.4932 256.079 96.0674H256.055C255.958 94.4931 255.289 93.0085 254.174 91.8932C253.059 90.7779 251.574 90.1091 250 90.0126V89.9884C251.574 89.8919 253.059 89.223 254.174 88.1078C255.289 86.9925 255.958 85.5079 256.055 83.9336H256.079C256.176 85.5078 256.845 86.9924 257.96 88.1076C259.075 89.2228 260.56 89.8917 262.134 89.9884V90.0126Z" fill="#918B9C"/>
<path d="M269.472 88.55C269.413 88.3351 269.327 88.1339 269.213 87.9463C269.099 87.7567 268.958 87.5913 268.789 87.4501C268.623 87.3069 268.43 87.1952 268.211 87.1151C267.994 87.0351 267.752 86.995 267.484 86.995C267.063 86.995 266.685 87.1046 266.352 87.3237C266.02 87.5429 265.756 87.8589 265.562 88.2719C265.371 88.6848 265.275 89.1821 265.275 89.7636C265.275 90.3431 265.372 90.8393 265.566 91.2522C265.759 91.6652 266.025 91.9823 266.362 92.2036C266.701 92.4227 267.089 92.5322 267.525 92.5322C267.923 92.5322 268.275 92.4438 268.581 92.2668C268.886 92.0898 269.124 91.8369 269.295 91.5082C269.468 91.1795 269.552 90.7887 269.548 90.3357L269.737 90.3957H267.664V89.8648H270.123V90.3957C270.123 90.9478 270.011 91.425 269.788 91.8275C269.565 92.2299 269.258 92.5407 268.868 92.7598C268.478 92.9789 268.031 93.0885 267.525 93.0885C266.96 93.0885 266.466 92.9526 266.043 92.6808C265.619 92.4069 265.289 92.0213 265.053 91.524C264.82 91.0247 264.703 90.4379 264.703 89.7636C264.703 89.2558 264.77 88.7976 264.905 88.3888C265.04 87.9801 265.23 87.6303 265.477 87.3395C265.726 87.0488 266.02 86.8265 266.359 86.6727C266.698 86.5167 267.073 86.4388 267.484 86.4388C267.838 86.4388 268.161 86.4946 268.454 86.6063C268.749 86.718 269.008 86.8718 269.232 87.0677C269.457 87.2616 269.642 87.486 269.785 87.7409C269.93 87.9937 270.028 88.2634 270.079 88.55H269.472ZM273.347 93.1011C272.894 93.1011 272.502 92.9958 272.171 92.7851C271.84 92.5723 271.584 92.2783 271.403 91.9033C271.224 91.5261 271.135 91.0921 271.135 90.6012C271.135 90.1123 271.224 89.6783 271.403 89.299C271.584 88.9177 271.834 88.6195 272.152 88.4046C272.473 88.1876 272.842 88.0791 273.262 88.0791C273.525 88.0791 273.779 88.1275 274.023 88.2245C274.268 88.3193 274.487 88.4657 274.681 88.6638C274.877 88.8597 275.032 89.1073 275.145 89.4065C275.259 89.7036 275.316 90.0555 275.316 90.4621V90.7402H271.523V90.244H274.741C274.741 89.9322 274.678 89.652 274.551 89.4033C274.427 89.1526 274.253 88.9545 274.03 88.8092C273.808 88.6638 273.552 88.5911 273.262 88.5911C272.954 88.5911 272.683 88.6733 272.449 88.8376C272.216 89.002 272.032 89.219 271.899 89.4887C271.769 89.7584 271.702 90.0533 271.7 90.3736V90.6707C271.7 91.0563 271.767 91.3934 271.899 91.6821C272.034 91.9686 272.225 92.1909 272.472 92.3489C272.718 92.507 273.01 92.586 273.347 92.586C273.577 92.586 273.778 92.5502 273.951 92.4785C274.126 92.4069 274.272 92.311 274.39 92.1909C274.51 92.0687 274.601 91.9349 274.662 91.7895L275.196 91.9634C275.122 92.1677 275.001 92.3563 274.832 92.5291C274.666 92.7019 274.457 92.8409 274.207 92.9463C273.958 93.0495 273.671 93.1011 273.347 93.1011ZM276.467 93V88.1455H277.013V88.8913H277.064C277.161 88.6406 277.322 88.4436 277.548 88.3003C277.775 88.1549 278.048 88.0822 278.366 88.0822C278.701 88.0822 278.976 88.1613 279.191 88.3193C279.408 88.4752 279.57 88.6901 279.678 88.964H279.719C279.828 88.6943 280.006 88.4805 280.253 88.3224C280.502 88.1623 280.803 88.0822 281.157 88.0822C281.608 88.0822 281.964 88.2245 282.225 88.5089C282.486 88.7913 282.617 89.2042 282.617 89.7478V93H282.054V89.7478C282.054 89.3644 281.956 89.0768 281.761 88.885C281.565 88.6933 281.306 88.5974 280.986 88.5974C280.615 88.5974 280.33 88.7112 280.13 88.9387C279.93 89.1663 279.829 89.455 279.829 89.8047V93H279.254V89.6973C279.254 89.3686 279.163 89.1031 278.979 88.9008C278.796 88.6985 278.538 88.5974 278.205 88.5974C277.982 88.5974 277.78 88.6522 277.601 88.7618C277.424 88.8713 277.284 89.0241 277.181 89.22C277.08 89.4139 277.029 89.6372 277.029 89.8901V93H276.467ZM284.024 93V88.1455H284.589V93H284.024ZM284.311 87.3111C284.195 87.3111 284.096 87.2721 284.014 87.1941C283.932 87.1141 283.891 87.0182 283.891 86.9065C283.891 86.7949 283.932 86.7 284.014 86.6221C284.096 86.542 284.195 86.502 284.311 86.502C284.427 86.502 284.526 86.542 284.608 86.6221C284.691 86.7 284.732 86.7949 284.732 86.9065C284.732 87.0182 284.691 87.1141 284.608 87.1941C284.526 87.2721 284.427 87.3111 284.311 87.3111ZM286.551 89.9659V93H285.988V88.1455H286.535V88.9071H286.586C286.699 88.6585 286.876 88.4594 287.117 88.3098C287.359 88.1581 287.658 88.0822 288.014 88.0822C288.341 88.0822 288.627 88.1507 288.874 88.2877C289.122 88.4225 289.315 88.6216 289.452 88.885C289.591 89.1484 289.661 89.4718 289.661 89.8553V93H289.098V89.8901C289.098 89.4918 288.987 89.1768 288.763 88.9451C288.542 88.7133 288.245 88.5974 287.872 88.5974C287.617 88.5974 287.39 88.6522 287.192 88.7618C286.994 88.8713 286.837 89.0293 286.722 89.2358C286.608 89.4402 286.551 89.6836 286.551 89.9659ZM291.06 93V88.1455H291.625V93H291.06ZM291.347 87.3111C291.231 87.3111 291.132 87.2721 291.05 87.1941C290.968 87.1141 290.927 87.0182 290.927 86.9065C290.927 86.7949 290.968 86.7 291.05 86.6221C291.132 86.542 291.231 86.502 291.347 86.502C291.463 86.502 291.562 86.542 291.644 86.6221C291.726 86.7 291.768 86.7949 291.768 86.9065C291.768 87.0182 291.726 87.1141 291.644 87.1941C291.562 87.2721 291.463 87.3111 291.347 87.3111ZM295.416 93V92.567L297.531 90.1903C297.807 89.8785 298.029 89.6119 298.197 89.3907C298.366 89.1695 298.488 88.9651 298.564 88.7776C298.642 88.59 298.681 88.3951 298.681 88.1929C298.681 87.9463 298.623 87.7314 298.507 87.5481C298.393 87.3627 298.236 87.2184 298.036 87.1151C297.836 87.0119 297.611 86.9603 297.36 86.9603C297.094 86.9603 296.862 87.0172 296.661 87.1309C296.463 87.2447 296.31 87.4006 296.2 87.5987C296.09 87.7967 296.036 88.0243 296.036 88.2814H295.47C295.47 87.9232 295.552 87.6061 295.716 87.33C295.883 87.0519 296.109 86.8338 296.396 86.6758C296.685 86.5178 297.011 86.4388 297.376 86.4388C297.736 86.4388 298.056 86.5167 298.336 86.6727C298.617 86.8265 298.837 87.0361 298.997 87.3016C299.157 87.5671 299.237 87.8642 299.237 88.1929C299.237 88.431 299.195 88.6617 299.111 88.885C299.029 89.1084 298.886 89.357 298.684 89.6309C298.482 89.9048 298.202 90.2398 297.843 90.6359L296.238 92.4279V92.469H299.439V93H295.416ZM301.23 93.0474C301.106 93.0474 300.998 93.0032 300.908 92.9147C300.819 92.8241 300.775 92.7166 300.775 92.5923C300.775 92.4659 300.819 92.3584 300.908 92.2699C300.998 92.1814 301.106 92.1372 301.23 92.1372C301.357 92.1372 301.464 92.1814 301.553 92.2699C301.641 92.3584 301.685 92.4659 301.685 92.5923C301.685 92.6745 301.664 92.7503 301.622 92.8199C301.582 92.8894 301.527 92.9452 301.458 92.9874C301.39 93.0274 301.314 93.0474 301.23 93.0474ZM304.801 93.0885C304.346 93.0885 303.957 92.9579 303.635 92.6966C303.315 92.4332 303.068 92.0529 302.895 91.5556C302.725 91.0584 302.639 90.4611 302.639 89.7636C302.639 89.0683 302.725 88.4731 302.895 87.9779C303.068 87.4807 303.316 87.1004 303.638 86.837C303.962 86.5715 304.35 86.4388 304.801 86.4388C305.252 86.4388 305.639 86.5715 305.961 86.837C306.285 87.1004 306.533 87.4807 306.704 87.9779C306.876 88.4731 306.963 89.0683 306.963 89.7636C306.963 90.4611 306.876 91.0584 306.704 91.5556C306.533 92.0529 306.287 92.4332 305.964 92.6966C305.644 92.9579 305.256 93.0885 304.801 93.0885ZM304.801 92.5575C305.3 92.5575 305.69 92.3142 305.97 91.8275C306.251 91.3386 306.391 90.6507 306.391 89.7636C306.391 89.1737 306.327 88.6701 306.198 88.2529C306.072 87.8336 305.889 87.5134 305.651 87.2921C305.415 87.0709 305.132 86.9603 304.801 86.9603C304.306 86.9603 303.917 87.2068 303.635 87.6998C303.352 88.1908 303.211 88.8787 303.211 89.7636C303.211 90.3536 303.275 90.8572 303.401 91.2744C303.529 91.6915 303.712 92.0097 303.948 92.2288C304.186 92.448 304.47 92.5575 304.801 92.5575ZM310.713 93V86.5273H314.459V87.0582H311.304V89.495H314.165V90.026H311.304V93H310.713ZM316.285 86.5273V93H315.722V86.5273H316.285ZM319.04 93.1106C318.747 93.1106 318.48 93.0537 318.238 92.94C317.995 92.8241 317.802 92.6576 317.659 92.4406C317.516 92.2215 317.444 91.956 317.444 91.6441C317.444 91.4039 317.49 91.2017 317.58 91.0373C317.671 90.873 317.799 90.7381 317.966 90.6328C318.132 90.5274 318.329 90.4442 318.557 90.3831C318.784 90.322 319.035 90.2746 319.309 90.2409C319.581 90.2072 319.81 90.1777 319.998 90.1524C320.188 90.1271 320.332 90.0871 320.431 90.0323C320.53 89.9775 320.579 89.889 320.579 89.7668V89.653C320.579 89.3222 320.48 89.062 320.282 88.8724C320.086 88.6806 319.804 88.5848 319.435 88.5848C319.086 88.5848 318.8 88.6617 318.579 88.8155C318.36 88.9693 318.206 89.1505 318.117 89.3591L317.583 89.1663C317.693 88.9008 317.845 88.6891 318.038 88.531C318.232 88.3709 318.449 88.2561 318.689 88.1865C318.93 88.1149 319.173 88.0791 319.42 88.0791C319.605 88.0791 319.798 88.1033 319.998 88.1518C320.2 88.2002 320.388 88.2845 320.561 88.4046C320.733 88.5226 320.873 88.688 320.981 88.9008C321.088 89.1115 321.142 89.3791 321.142 89.7036V93H320.579V92.232H320.545C320.477 92.3753 320.377 92.5143 320.244 92.6492C320.112 92.784 319.945 92.8946 319.745 92.981C319.545 93.0674 319.31 93.1106 319.04 93.1106ZM319.116 92.5955C319.415 92.5955 319.675 92.5291 319.894 92.3963C320.113 92.2636 320.281 92.0877 320.399 91.8685C320.519 91.6473 320.579 91.4039 320.579 91.1385V90.4368C320.537 90.4769 320.467 90.5127 320.368 90.5443C320.271 90.5759 320.158 90.6043 320.03 90.6296C319.903 90.6528 319.777 90.6728 319.65 90.6897C319.524 90.7065 319.41 90.7213 319.309 90.7339C319.035 90.7676 318.801 90.8203 318.607 90.8919C318.413 90.9636 318.265 91.0626 318.162 91.189C318.058 91.3133 318.007 91.4735 318.007 91.6694C318.007 91.9644 318.112 92.193 318.323 92.3553C318.534 92.5154 318.798 92.5955 319.116 92.5955ZM325.811 89.2105L325.296 89.3559C325.245 89.2105 325.174 89.0789 325.081 88.9609C324.988 88.8429 324.867 88.7491 324.718 88.6796C324.57 88.61 324.387 88.5753 324.168 88.5753C323.839 88.5753 323.569 88.6532 323.359 88.8092C323.148 88.9651 323.043 89.1663 323.043 89.4128C323.043 89.6214 323.114 89.791 323.258 89.9217C323.403 90.0502 323.626 90.1524 323.928 90.2282L324.661 90.4084C325.067 90.5074 325.372 90.6644 325.574 90.8793C325.779 91.0942 325.881 91.3639 325.881 91.6884C325.881 91.9623 325.805 92.2057 325.653 92.4185C325.501 92.6313 325.29 92.7988 325.018 92.921C324.748 93.0411 324.435 93.1011 324.079 93.1011C323.605 93.1011 323.214 92.9947 322.907 92.7819C322.599 92.567 322.402 92.2573 322.316 91.8527L322.856 91.72C322.926 92.0087 323.062 92.2267 323.264 92.3742C323.468 92.5217 323.737 92.5955 324.07 92.5955C324.443 92.5955 324.741 92.5122 324.964 92.3458C325.188 92.1772 325.299 91.9665 325.299 91.7137C325.299 91.5177 325.234 91.3534 325.103 91.2206C324.973 91.0858 324.775 90.9868 324.509 90.9235L323.716 90.7339C323.294 90.6328 322.983 90.4726 322.78 90.2535C322.578 90.0344 322.477 89.7626 322.477 89.4381C322.477 89.1705 322.55 88.9356 322.695 88.7333C322.84 88.5289 323.04 88.3688 323.295 88.2529C323.55 88.137 323.841 88.0791 324.168 88.0791C324.612 88.0791 324.967 88.1802 325.233 88.3825C325.5 88.5827 325.693 88.8587 325.811 89.2105ZM327.586 89.9659V93H327.024V86.5273H327.586V88.9071H327.637C327.75 88.6564 327.926 88.4562 328.164 88.3066C328.405 88.157 328.708 88.0822 329.075 88.0822C329.403 88.0822 329.692 88.1497 329.941 88.2845C330.189 88.4194 330.383 88.6185 330.522 88.8819C330.661 89.1452 330.731 89.4697 330.731 89.8553V93H330.165V89.8901C330.165 89.4897 330.053 89.1747 329.83 88.9451C329.609 88.7133 329.31 88.5974 328.932 88.5974C328.673 88.5974 328.443 88.6522 328.24 88.7618C328.038 88.8713 327.878 89.0293 327.76 89.2358C327.644 89.4402 327.586 89.6836 327.586 89.9659Z" fill="#918B9C"/>
<path d="M393 90.7813L396.3 87.4814L397.243 88.4243L393 92.6669L388.758 88.4243L389.701 87.4814L393 90.7813Z" fill="#918B9C"/>
<path d="M242.86 124V117.527H244.949C245.408 117.527 245.792 117.61 246.099 117.777C246.409 117.941 246.642 118.17 246.798 118.463C246.956 118.754 247.035 119.088 247.035 119.465C247.035 119.842 246.956 120.175 246.798 120.463C246.642 120.752 246.41 120.977 246.102 121.14C245.795 121.302 245.413 121.383 244.958 121.383H243.179V120.843H244.942C245.28 120.843 245.56 120.787 245.783 120.675C246.009 120.563 246.176 120.404 246.286 120.198C246.397 119.991 246.453 119.747 246.453 119.465C246.453 119.182 246.397 118.936 246.286 118.725C246.174 118.512 246.005 118.348 245.78 118.232C245.557 118.116 245.274 118.058 244.933 118.058H243.451V124H242.86ZM245.714 121.08L247.306 124H246.624L245.047 121.08H245.714ZM250.179 124.101C249.726 124.101 249.334 123.996 249.003 123.785C248.672 123.572 248.416 123.278 248.235 122.903C248.056 122.526 247.967 122.092 247.967 121.601C247.967 121.112 248.056 120.678 248.235 120.299C248.416 119.918 248.666 119.62 248.984 119.405C249.304 119.188 249.674 119.079 250.094 119.079C250.357 119.079 250.611 119.128 250.855 119.224C251.1 119.319 251.319 119.466 251.513 119.664C251.709 119.86 251.863 120.107 251.977 120.406C252.091 120.704 252.148 121.055 252.148 121.462V121.74H248.355V121.244H251.573C251.573 120.932 251.509 120.652 251.383 120.403C251.259 120.153 251.085 119.955 250.862 119.809C250.64 119.664 250.384 119.591 250.094 119.591C249.786 119.591 249.515 119.673 249.281 119.838C249.047 120.002 248.864 120.219 248.731 120.489C248.601 120.758 248.534 121.053 248.532 121.374V121.671C248.532 122.056 248.599 122.393 248.731 122.682C248.866 122.969 249.057 123.191 249.303 123.349C249.55 123.507 249.842 123.586 250.179 123.586C250.409 123.586 250.61 123.55 250.783 123.479C250.957 123.407 251.104 123.311 251.222 123.191C251.342 123.069 251.433 122.935 251.494 122.79L252.028 122.963C251.954 123.168 251.833 123.356 251.664 123.529C251.498 123.702 251.289 123.841 251.039 123.946C250.79 124.05 250.503 124.101 250.179 124.101ZM255.296 119.145V119.635H252.91V119.145H255.296ZM253.656 124V118.434C253.656 118.173 253.716 117.953 253.836 117.774C253.958 117.595 254.117 117.459 254.313 117.366C254.509 117.273 254.717 117.227 254.936 117.227C255.083 117.227 255.205 117.24 255.302 117.265C255.401 117.288 255.479 117.311 255.536 117.334L255.372 117.828C255.33 117.815 255.278 117.8 255.217 117.783C255.156 117.766 255.079 117.758 254.986 117.758C254.742 117.758 254.553 117.826 254.421 117.963C254.288 118.1 254.221 118.296 254.221 118.551L254.218 124H253.656ZM256.892 117.527V124H256.33V117.527H256.892ZM260.255 124.101C259.802 124.101 259.41 123.996 259.079 123.785C258.748 123.572 258.492 123.278 258.311 122.903C258.132 122.526 258.042 122.092 258.042 121.601C258.042 121.112 258.132 120.678 258.311 120.299C258.492 119.918 258.742 119.62 259.06 119.405C259.38 119.188 259.75 119.079 260.169 119.079C260.433 119.079 260.687 119.128 260.931 119.224C261.175 119.319 261.395 119.466 261.588 119.664C261.784 119.86 261.939 120.107 262.053 120.406C262.167 120.704 262.224 121.055 262.224 121.462V121.74H258.431V121.244H261.648C261.648 120.932 261.585 120.652 261.459 120.403C261.335 120.153 261.161 119.955 260.937 119.809C260.716 119.664 260.46 119.591 260.169 119.591C259.862 119.591 259.591 119.673 259.357 119.838C259.123 120.002 258.94 120.219 258.807 120.489C258.677 120.758 258.61 121.053 258.608 121.374V121.671C258.608 122.056 258.674 122.393 258.807 122.682C258.942 122.969 259.133 123.191 259.379 123.349C259.626 123.507 259.918 123.586 260.255 123.586C260.484 123.586 260.686 123.55 260.858 123.479C261.033 123.407 261.18 123.311 261.298 123.191C261.418 123.069 261.508 122.935 261.569 122.79L262.104 122.963C262.03 123.168 261.909 123.356 261.74 123.529C261.574 123.702 261.365 123.841 261.114 123.946C260.866 124.05 260.579 124.101 260.255 124.101ZM265.271 124.101C264.837 124.101 264.458 123.993 264.136 123.776C263.816 123.559 263.567 123.261 263.39 122.884C263.213 122.507 263.125 122.077 263.125 121.595C263.125 121.108 263.214 120.675 263.393 120.296C263.575 119.917 263.825 119.62 264.146 119.405C264.466 119.188 264.838 119.079 265.261 119.079C265.586 119.079 265.88 119.142 266.143 119.269C266.406 119.393 266.623 119.569 266.794 119.797C266.967 120.022 267.075 120.285 267.12 120.587H266.551C266.492 120.313 266.349 120.079 266.124 119.885C265.901 119.689 265.616 119.591 265.271 119.591C264.961 119.591 264.687 119.675 264.449 119.844C264.211 120.01 264.024 120.243 263.89 120.542C263.757 120.839 263.69 121.184 263.69 121.576C263.69 121.97 263.756 122.319 263.886 122.622C264.017 122.923 264.2 123.159 264.436 123.33C264.674 123.501 264.953 123.586 265.271 123.586C265.486 123.586 265.682 123.546 265.859 123.466C266.038 123.384 266.187 123.268 266.307 123.118C266.43 122.969 266.512 122.791 266.554 122.584H267.123C267.081 122.877 266.976 123.138 266.81 123.368C266.646 123.595 266.432 123.775 266.168 123.905C265.907 124.036 265.608 124.101 265.271 124.101ZM270.152 119.145V119.635H267.835V119.145H270.152ZM268.559 117.982H269.124V122.733C269.124 122.935 269.159 123.094 269.229 123.21C269.298 123.324 269.389 123.405 269.501 123.453C269.612 123.5 269.731 123.523 269.858 123.523C269.931 123.523 269.995 123.519 270.047 123.51C270.1 123.5 270.146 123.489 270.186 123.479L270.306 123.987C270.252 124.008 270.184 124.027 270.104 124.044C270.024 124.063 269.925 124.073 269.807 124.073C269.601 124.073 269.401 124.027 269.21 123.937C269.02 123.846 268.864 123.711 268.742 123.532C268.62 123.353 268.559 123.131 268.559 122.865V117.982ZM271.347 124V119.145H271.912V124H271.347ZM271.634 118.311C271.518 118.311 271.419 118.272 271.337 118.194C271.255 118.114 271.214 118.018 271.214 117.907C271.214 117.795 271.255 117.7 271.337 117.622C271.419 117.542 271.518 117.502 271.634 117.502C271.75 117.502 271.849 117.542 271.931 117.622C272.013 117.7 272.055 117.795 272.055 117.907C272.055 118.018 272.013 118.114 271.931 118.194C271.849 118.272 271.75 118.311 271.634 118.311ZM275.198 124.101C274.779 124.101 274.408 123.995 274.085 123.782C273.765 123.569 273.514 123.275 273.333 122.9C273.152 122.523 273.061 122.088 273.061 121.595C273.061 121.098 273.152 120.66 273.333 120.283C273.514 119.904 273.765 119.609 274.085 119.398C274.408 119.185 274.779 119.079 275.198 119.079C275.617 119.079 275.987 119.185 276.307 119.398C276.628 119.611 276.878 119.906 277.059 120.283C277.243 120.66 277.334 121.098 277.334 121.595C277.334 122.088 277.244 122.523 277.063 122.9C276.881 123.275 276.63 123.569 276.307 123.782C275.987 123.995 275.617 124.101 275.198 124.101ZM275.198 123.586C275.535 123.586 275.821 123.495 276.054 123.314C276.288 123.133 276.465 122.892 276.585 122.59C276.708 122.289 276.769 121.957 276.769 121.595C276.769 121.232 276.708 120.9 276.585 120.596C276.465 120.293 276.288 120.049 276.054 119.866C275.821 119.683 275.535 119.591 275.198 119.591C274.863 119.591 274.577 119.683 274.341 119.866C274.108 120.049 273.929 120.293 273.807 120.596C273.687 120.9 273.627 121.232 273.627 121.595C273.627 121.957 273.687 122.289 273.807 122.59C273.929 122.892 274.108 123.133 274.341 123.314C274.575 123.495 274.861 123.586 275.198 123.586ZM279.043 120.966V124H278.48V119.145H279.027V119.907H279.078C279.192 119.659 279.368 119.459 279.609 119.31C279.851 119.158 280.15 119.082 280.506 119.082C280.833 119.082 281.119 119.151 281.366 119.288C281.615 119.423 281.807 119.622 281.944 119.885C282.083 120.148 282.153 120.472 282.153 120.855V124H281.59V120.89C281.59 120.492 281.479 120.177 281.255 119.945C281.034 119.713 280.737 119.597 280.364 119.597C280.109 119.597 279.883 119.652 279.685 119.762C279.486 119.871 279.33 120.029 279.214 120.236C279.1 120.44 279.043 120.684 279.043 120.966Z" fill="#918B9C"/>
<rect x="242.5" y="130.5" width="166" height="23" rx="3" stroke="#EADEFF" stroke-opacity="0.12"/>
<path d="M262.134 142.013C260.56 142.109 259.075 142.778 257.96 143.893C256.845 145.009 256.176 146.493 256.079 148.067H256.055C255.958 146.493 255.289 145.008 254.174 143.893C253.059 142.778 251.574 142.109 250 142.013V141.988C251.574 141.892 253.059 141.223 254.174 140.108C255.289 138.993 255.958 137.508 256.055 135.934H256.079C256.176 137.508 256.845 138.992 257.96 140.108C259.075 141.223 260.56 141.892 262.134 141.988V142.013Z" fill="#918B9C"/>
<path d="M269.472 140.55C269.413 140.335 269.327 140.134 269.213 139.946C269.099 139.757 268.958 139.591 268.789 139.45C268.623 139.307 268.43 139.195 268.211 139.115C267.994 139.035 267.752 138.995 267.484 138.995C267.063 138.995 266.685 139.105 266.352 139.324C266.02 139.543 265.756 139.859 265.562 140.272C265.371 140.685 265.275 141.182 265.275 141.764C265.275 142.343 265.372 142.839 265.566 143.252C265.759 143.665 266.025 143.982 266.362 144.204C266.701 144.423 267.089 144.532 267.525 144.532C267.923 144.532 268.275 144.444 268.581 144.267C268.886 144.09 269.124 143.837 269.295 143.508C269.468 143.18 269.552 142.789 269.548 142.336L269.737 142.396H267.664V141.865H270.123V142.396C270.123 142.948 270.011 143.425 269.788 143.827C269.565 144.23 269.258 144.541 268.868 144.76C268.478 144.979 268.031 145.088 267.525 145.088C266.96 145.088 266.466 144.953 266.043 144.681C265.619 144.407 265.289 144.021 265.053 143.524C264.82 143.025 264.703 142.438 264.703 141.764C264.703 141.256 264.77 140.798 264.905 140.389C265.04 139.98 265.23 139.63 265.477 139.34C265.726 139.049 266.02 138.826 266.359 138.673C266.698 138.517 267.073 138.439 267.484 138.439C267.838 138.439 268.161 138.495 268.454 138.606C268.749 138.718 269.008 138.872 269.232 139.068C269.457 139.262 269.642 139.486 269.785 139.741C269.93 139.994 270.028 140.263 270.079 140.55H269.472ZM273.347 145.101C272.894 145.101 272.502 144.996 272.171 144.785C271.84 144.572 271.584 144.278 271.403 143.903C271.224 143.526 271.135 143.092 271.135 142.601C271.135 142.112 271.224 141.678 271.403 141.299C271.584 140.918 271.834 140.62 272.152 140.405C272.473 140.188 272.842 140.079 273.262 140.079C273.525 140.079 273.779 140.128 274.023 140.224C274.268 140.319 274.487 140.466 274.681 140.664C274.877 140.86 275.032 141.107 275.145 141.406C275.259 141.704 275.316 142.055 275.316 142.462V142.74H271.523V142.244H274.741C274.741 141.932 274.678 141.652 274.551 141.403C274.427 141.153 274.253 140.955 274.03 140.809C273.808 140.664 273.552 140.591 273.262 140.591C272.954 140.591 272.683 140.673 272.449 140.838C272.216 141.002 272.032 141.219 271.899 141.489C271.769 141.758 271.702 142.053 271.7 142.374V142.671C271.7 143.056 271.767 143.393 271.899 143.682C272.034 143.969 272.225 144.191 272.472 144.349C272.718 144.507 273.01 144.586 273.347 144.586C273.577 144.586 273.778 144.55 273.951 144.479C274.126 144.407 274.272 144.311 274.39 144.191C274.51 144.069 274.601 143.935 274.662 143.79L275.196 143.963C275.122 144.168 275.001 144.356 274.832 144.529C274.666 144.702 274.457 144.841 274.207 144.946C273.958 145.05 273.671 145.101 273.347 145.101ZM276.467 145V140.145H277.013V140.891H277.064C277.161 140.641 277.322 140.444 277.548 140.3C277.775 140.155 278.048 140.082 278.366 140.082C278.701 140.082 278.976 140.161 279.191 140.319C279.408 140.475 279.57 140.69 279.678 140.964H279.719C279.828 140.694 280.006 140.48 280.253 140.322C280.502 140.162 280.803 140.082 281.157 140.082C281.608 140.082 281.964 140.224 282.225 140.509C282.486 140.791 282.617 141.204 282.617 141.748V145H282.054V141.748C282.054 141.364 281.956 141.077 281.761 140.885C281.565 140.693 281.306 140.597 280.986 140.597C280.615 140.597 280.33 140.711 280.13 140.939C279.93 141.166 279.829 141.455 279.829 141.805V145H279.254V141.697C279.254 141.369 279.163 141.103 278.979 140.901C278.796 140.699 278.538 140.597 278.205 140.597C277.982 140.597 277.78 140.652 277.601 140.762C277.424 140.871 277.284 141.024 277.181 141.22C277.08 141.414 277.029 141.637 277.029 141.89V145H276.467ZM284.024 145V140.145H284.589V145H284.024ZM284.311 139.311C284.195 139.311 284.096 139.272 284.014 139.194C283.932 139.114 283.891 139.018 283.891 138.907C283.891 138.795 283.932 138.7 284.014 138.622C284.096 138.542 284.195 138.502 284.311 138.502C284.427 138.502 284.526 138.542 284.608 138.622C284.691 138.7 284.732 138.795 284.732 138.907C284.732 139.018 284.691 139.114 284.608 139.194C284.526 139.272 284.427 139.311 284.311 139.311ZM286.551 141.966V145H285.988V140.145H286.535V140.907H286.586C286.699 140.659 286.876 140.459 287.117 140.31C287.359 140.158 287.658 140.082 288.014 140.082C288.341 140.082 288.627 140.151 288.874 140.288C289.122 140.423 289.315 140.622 289.452 140.885C289.591 141.148 289.661 141.472 289.661 141.855V145H289.098V141.89C289.098 141.492 288.987 141.177 288.763 140.945C288.542 140.713 288.245 140.597 287.872 140.597C287.617 140.597 287.39 140.652 287.192 140.762C286.994 140.871 286.837 141.029 286.722 141.236C286.608 141.44 286.551 141.684 286.551 141.966ZM291.06 145V140.145H291.625V145H291.06ZM291.347 139.311C291.231 139.311 291.132 139.272 291.05 139.194C290.968 139.114 290.927 139.018 290.927 138.907C290.927 138.795 290.968 138.7 291.05 138.622C291.132 138.542 291.231 138.502 291.347 138.502C291.463 138.502 291.562 138.542 291.644 138.622C291.726 138.7 291.768 138.795 291.768 138.907C291.768 139.018 291.726 139.114 291.644 139.194C291.562 139.272 291.463 139.311 291.347 139.311ZM295.416 145V144.567L297.531 142.19C297.807 141.878 298.029 141.612 298.197 141.391C298.366 141.169 298.488 140.965 298.564 140.778C298.642 140.59 298.681 140.395 298.681 140.193C298.681 139.946 298.623 139.731 298.507 139.548C298.393 139.363 298.236 139.218 298.036 139.115C297.836 139.012 297.611 138.96 297.36 138.96C297.094 138.96 296.862 139.017 296.661 139.131C296.463 139.245 296.31 139.401 296.2 139.599C296.09 139.797 296.036 140.024 296.036 140.281H295.47C295.47 139.923 295.552 139.606 295.716 139.33C295.883 139.052 296.109 138.834 296.396 138.676C296.685 138.518 297.011 138.439 297.376 138.439C297.736 138.439 298.056 138.517 298.336 138.673C298.617 138.826 298.837 139.036 298.997 139.302C299.157 139.567 299.237 139.864 299.237 140.193C299.237 140.431 299.195 140.662 299.111 140.885C299.029 141.108 298.886 141.357 298.684 141.631C298.482 141.905 298.202 142.24 297.843 142.636L296.238 144.428V144.469H299.439V145H295.416ZM301.23 145.047C301.106 145.047 300.998 145.003 300.908 144.915C300.819 144.824 300.775 144.717 300.775 144.592C300.775 144.466 300.819 144.358 300.908 144.27C300.998 144.181 301.106 144.137 301.23 144.137C301.357 144.137 301.464 144.181 301.553 144.27C301.641 144.358 301.685 144.466 301.685 144.592C301.685 144.674 301.664 144.75 301.622 144.82C301.582 144.889 301.527 144.945 301.458 144.987C301.39 145.027 301.314 145.047 301.23 145.047ZM304.801 145.088C304.346 145.088 303.957 144.958 303.635 144.697C303.315 144.433 303.068 144.053 302.895 143.556C302.725 143.058 302.639 142.461 302.639 141.764C302.639 141.068 302.725 140.473 302.895 139.978C303.068 139.481 303.316 139.1 303.638 138.837C303.962 138.572 304.35 138.439 304.801 138.439C305.252 138.439 305.639 138.572 305.961 138.837C306.285 139.1 306.533 139.481 306.704 139.978C306.876 140.473 306.963 141.068 306.963 141.764C306.963 142.461 306.876 143.058 306.704 143.556C306.533 144.053 306.287 144.433 305.964 144.697C305.644 144.958 305.256 145.088 304.801 145.088ZM304.801 144.558C305.3 144.558 305.69 144.314 305.97 143.827C306.251 143.339 306.391 142.651 306.391 141.764C306.391 141.174 306.327 140.67 306.198 140.253C306.072 139.834 305.889 139.513 305.651 139.292C305.415 139.071 305.132 138.96 304.801 138.96C304.306 138.96 303.917 139.207 303.635 139.7C303.352 140.191 303.211 140.879 303.211 141.764C303.211 142.354 303.275 142.857 303.401 143.274C303.529 143.692 303.712 144.01 303.948 144.229C304.186 144.448 304.47 144.558 304.801 144.558ZM310.713 145V138.527H314.459V139.058H311.304V141.495H314.165V142.026H311.304V145H310.713ZM316.285 138.527V145H315.722V138.527H316.285ZM319.04 145.111C318.747 145.111 318.48 145.054 318.238 144.94C317.995 144.824 317.802 144.658 317.659 144.441C317.516 144.221 317.444 143.956 317.444 143.644C317.444 143.404 317.49 143.202 317.58 143.037C317.671 142.873 317.799 142.738 317.966 142.633C318.132 142.527 318.329 142.444 318.557 142.383C318.784 142.322 319.035 142.275 319.309 142.241C319.581 142.207 319.81 142.178 319.998 142.152C320.188 142.127 320.332 142.087 320.431 142.032C320.53 141.977 320.579 141.889 320.579 141.767V141.653C320.579 141.322 320.48 141.062 320.282 140.872C320.086 140.681 319.804 140.585 319.435 140.585C319.086 140.585 318.8 140.662 318.579 140.815C318.36 140.969 318.206 141.15 318.117 141.359L317.583 141.166C317.693 140.901 317.845 140.689 318.038 140.531C318.232 140.371 318.449 140.256 318.689 140.187C318.93 140.115 319.173 140.079 319.42 140.079C319.605 140.079 319.798 140.103 319.998 140.152C320.2 140.2 320.388 140.285 320.561 140.405C320.733 140.523 320.873 140.688 320.981 140.901C321.088 141.112 321.142 141.379 321.142 141.704V145H320.579V144.232H320.545C320.477 144.375 320.377 144.514 320.244 144.649C320.112 144.784 319.945 144.895 319.745 144.981C319.545 145.067 319.31 145.111 319.04 145.111ZM319.116 144.595C319.415 144.595 319.675 144.529 319.894 144.396C320.113 144.264 320.281 144.088 320.399 143.869C320.519 143.647 320.579 143.404 320.579 143.138V142.437C320.537 142.477 320.467 142.513 320.368 142.544C320.271 142.576 320.158 142.604 320.03 142.63C319.903 142.653 319.777 142.673 319.65 142.69C319.524 142.707 319.41 142.721 319.309 142.734C319.035 142.768 318.801 142.82 318.607 142.892C318.413 142.964 318.265 143.063 318.162 143.189C318.058 143.313 318.007 143.473 318.007 143.669C318.007 143.964 318.112 144.193 318.323 144.355C318.534 144.515 318.798 144.595 319.116 144.595ZM325.811 141.211L325.296 141.356C325.245 141.211 325.174 141.079 325.081 140.961C324.988 140.843 324.867 140.749 324.718 140.68C324.57 140.61 324.387 140.575 324.168 140.575C323.839 140.575 323.569 140.653 323.359 140.809C323.148 140.965 323.043 141.166 323.043 141.413C323.043 141.621 323.114 141.791 323.258 141.922C323.403 142.05 323.626 142.152 323.928 142.228L324.661 142.408C325.067 142.507 325.372 142.664 325.574 142.879C325.779 143.094 325.881 143.364 325.881 143.688C325.881 143.962 325.805 144.206 325.653 144.418C325.501 144.631 325.29 144.799 325.018 144.921C324.748 145.041 324.435 145.101 324.079 145.101C323.605 145.101 323.214 144.995 322.907 144.782C322.599 144.567 322.402 144.257 322.316 143.853L322.856 143.72C322.926 144.009 323.062 144.227 323.264 144.374C323.468 144.522 323.737 144.595 324.07 144.595C324.443 144.595 324.741 144.512 324.964 144.346C325.188 144.177 325.299 143.967 325.299 143.714C325.299 143.518 325.234 143.353 325.103 143.221C324.973 143.086 324.775 142.987 324.509 142.924L323.716 142.734C323.294 142.633 322.983 142.473 322.78 142.254C322.578 142.034 322.477 141.763 322.477 141.438C322.477 141.171 322.55 140.936 322.695 140.733C322.84 140.529 323.04 140.369 323.295 140.253C323.55 140.137 323.841 140.079 324.168 140.079C324.612 140.079 324.967 140.18 325.233 140.382C325.5 140.583 325.693 140.859 325.811 141.211ZM327.586 141.966V145H327.024V138.527H327.586V140.907H327.637C327.75 140.656 327.926 140.456 328.164 140.307C328.405 140.157 328.708 140.082 329.075 140.082C329.403 140.082 329.692 140.15 329.941 140.285C330.189 140.419 330.383 140.618 330.522 140.882C330.661 141.145 330.731 141.47 330.731 141.855V145H330.165V141.89C330.165 141.49 330.053 141.175 329.83 140.945C329.609 140.713 329.31 140.597 328.932 140.597C328.673 140.597 328.443 140.652 328.24 140.762C328.038 140.871 327.878 141.029 327.76 141.236C327.644 141.44 327.586 141.684 327.586 141.966Z" fill="#918B9C"/>
<path d="M393 142.781L396.3 139.481L397.243 140.424L393 144.667L388.758 140.424L389.701 139.481L393 142.781Z" fill="#918B9C"/>
<path d="M242.86 176V169.527H244.949C245.408 169.527 245.792 169.616 246.099 169.793C246.409 169.968 246.642 170.206 246.798 170.507C246.956 170.808 247.035 171.148 247.035 171.525C247.035 171.902 246.957 172.242 246.801 172.546C246.645 172.847 246.413 173.086 246.106 173.263C245.798 173.438 245.415 173.525 244.958 173.525H243.315V172.994H244.942C245.282 172.994 245.563 172.931 245.786 172.805C246.01 172.676 246.176 172.501 246.286 172.28C246.397 172.059 246.453 171.807 246.453 171.525C246.453 171.242 246.397 170.991 246.286 170.769C246.176 170.548 246.009 170.374 245.783 170.248C245.56 170.121 245.276 170.058 244.933 170.058H243.451V176H242.86ZM248.779 169.527V176H248.216V169.527H248.779ZM251.534 176.111C251.241 176.111 250.974 176.054 250.731 175.94C250.489 175.824 250.296 175.658 250.153 175.441C250.01 175.221 249.938 174.956 249.938 174.644C249.938 174.404 249.983 174.202 250.074 174.037C250.165 173.873 250.293 173.738 250.46 173.633C250.626 173.527 250.823 173.444 251.051 173.383C251.278 173.322 251.529 173.275 251.803 173.241C252.075 173.207 252.304 173.178 252.492 173.152C252.682 173.127 252.826 173.087 252.925 173.032C253.024 172.977 253.073 172.889 253.073 172.767V172.653C253.073 172.322 252.974 172.062 252.776 171.872C252.58 171.681 252.298 171.585 251.929 171.585C251.58 171.585 251.294 171.662 251.073 171.815C250.854 171.969 250.7 172.15 250.611 172.359L250.077 172.166C250.187 171.901 250.339 171.689 250.532 171.531C250.726 171.371 250.943 171.256 251.183 171.187C251.424 171.115 251.667 171.079 251.914 171.079C252.099 171.079 252.292 171.103 252.492 171.152C252.694 171.2 252.882 171.285 253.054 171.405C253.227 171.523 253.367 171.688 253.475 171.901C253.582 172.112 253.636 172.379 253.636 172.704V176H253.073V175.232H253.039C252.971 175.375 252.871 175.514 252.738 175.649C252.606 175.784 252.439 175.895 252.239 175.981C252.039 176.067 251.804 176.111 251.534 176.111ZM251.61 175.595C251.909 175.595 252.168 175.529 252.388 175.396C252.607 175.264 252.775 175.088 252.893 174.869C253.013 174.647 253.073 174.404 253.073 174.138V173.437C253.031 173.477 252.961 173.513 252.862 173.544C252.765 173.576 252.652 173.604 252.523 173.63C252.397 173.653 252.271 173.673 252.144 173.69C252.018 173.707 251.904 173.721 251.803 173.734C251.529 173.768 251.295 173.82 251.101 173.892C250.907 173.964 250.759 174.063 250.656 174.189C250.552 174.313 250.501 174.473 250.501 174.669C250.501 174.964 250.606 175.193 250.817 175.355C251.028 175.515 251.292 175.595 251.61 175.595ZM255.606 172.966V176H255.043V171.145H255.59V171.907H255.641C255.755 171.659 255.932 171.459 256.172 171.31C256.414 171.158 256.713 171.082 257.069 171.082C257.396 171.082 257.683 171.151 257.929 171.288C258.178 171.423 258.37 171.622 258.507 171.885C258.646 172.148 258.716 172.472 258.716 172.855V176H258.153V172.89C258.153 172.492 258.042 172.177 257.818 171.945C257.597 171.713 257.3 171.597 256.927 171.597C256.672 171.597 256.446 171.652 256.248 171.762C256.05 171.871 255.893 172.029 255.777 172.236C255.663 172.44 255.606 172.684 255.606 172.966ZM260.671 172.966V176H260.108V171.145H260.655V171.907H260.706C260.82 171.659 260.997 171.459 261.237 171.31C261.479 171.158 261.778 171.082 262.134 171.082C262.461 171.082 262.748 171.151 262.994 171.288C263.243 171.423 263.435 171.622 263.572 171.885C263.711 172.148 263.781 172.472 263.781 172.855V176H263.218V172.89C263.218 172.492 263.107 172.177 262.883 171.945C262.662 171.713 262.365 171.597 261.992 171.597C261.737 171.597 261.511 171.652 261.313 171.762C261.115 171.871 260.958 172.029 260.842 172.236C260.728 172.44 260.671 172.684 260.671 172.966ZM265.18 176V171.145H265.746V176H265.18ZM265.467 170.311C265.352 170.311 265.253 170.272 265.17 170.194C265.088 170.114 265.047 170.018 265.047 169.907C265.047 169.795 265.088 169.7 265.17 169.622C265.253 169.542 265.352 169.502 265.467 169.502C265.583 169.502 265.682 169.542 265.765 169.622C265.847 169.7 265.888 169.795 265.888 169.907C265.888 170.018 265.847 170.114 265.765 170.194C265.682 170.272 265.583 170.311 265.467 170.311ZM267.707 172.966V176H267.144V171.145H267.691V171.907H267.742C267.855 171.659 268.032 171.459 268.273 171.31C268.515 171.158 268.814 171.082 269.17 171.082C269.497 171.082 269.783 171.151 270.03 171.288C270.279 171.423 270.471 171.622 270.608 171.885C270.747 172.148 270.817 172.472 270.817 172.855V176H270.254V172.89C270.254 172.492 270.143 172.177 269.919 171.945C269.698 171.713 269.401 171.597 269.028 171.597C268.773 171.597 268.547 171.652 268.349 171.762C268.15 171.871 267.993 172.029 267.878 172.236C267.764 172.44 267.707 172.684 267.707 172.966ZM274.061 177.922C273.731 177.922 273.441 177.878 273.192 177.792C272.944 177.708 272.734 177.592 272.563 177.444C272.393 177.297 272.26 177.131 272.165 176.948L272.627 176.645C272.696 176.767 272.789 176.887 272.905 177.005C273.023 177.123 273.175 177.221 273.363 177.299C273.553 177.377 273.785 177.416 274.061 177.416C274.491 177.416 274.838 177.308 275.101 177.094C275.367 176.879 275.499 176.545 275.499 176.092V174.998H275.449C275.384 175.146 275.29 175.293 275.168 175.441C275.045 175.586 274.885 175.707 274.687 175.804C274.491 175.901 274.248 175.949 273.957 175.949C273.569 175.949 273.225 175.854 272.924 175.662C272.624 175.47 272.388 175.196 272.216 174.84C272.045 174.482 271.96 174.055 271.96 173.56C271.96 173.069 272.043 172.637 272.209 172.264C272.378 171.891 272.613 171.601 272.914 171.392C273.215 171.183 273.566 171.079 273.967 171.079C274.264 171.079 274.51 171.132 274.706 171.237C274.902 171.34 275.059 171.469 275.177 171.623C275.297 171.777 275.391 171.926 275.458 172.071H275.515V171.145H276.065V176.126C276.065 176.537 275.978 176.875 275.803 177.141C275.628 177.406 275.39 177.602 275.089 177.729C274.787 177.857 274.445 177.922 274.061 177.922ZM274.024 175.434C274.335 175.434 274.602 175.359 274.823 175.21C275.044 175.058 275.214 174.841 275.332 174.559C275.45 174.276 275.509 173.94 275.509 173.551C275.509 173.171 275.451 172.835 275.335 172.542C275.219 172.247 275.051 172.016 274.829 171.847C274.61 171.676 274.342 171.591 274.024 171.591C273.699 171.591 273.425 171.679 273.202 171.853C272.978 172.028 272.81 172.264 272.696 172.561C272.582 172.856 272.525 173.186 272.525 173.551C272.525 173.921 272.583 174.249 272.699 174.534C272.815 174.816 272.985 175.037 273.208 175.197C273.431 175.355 273.703 175.434 274.024 175.434Z" fill="#918B9C"/>
<rect x="242.5" y="182.5" width="166" height="23" rx="3" stroke="#EADEFF" stroke-opacity="0.12"/>
<path d="M262.134 194.013C260.56 194.109 259.075 194.778 257.96 195.893C256.845 197.009 256.176 198.493 256.079 200.067H256.055C255.958 198.493 255.289 197.008 254.174 195.893C253.059 194.778 251.574 194.109 250 194.013V193.988C251.574 193.892 253.059 193.223 254.174 192.108C255.289 190.993 255.958 189.508 256.055 187.934H256.079C256.176 189.508 256.845 190.992 257.96 192.108C259.075 193.223 260.56 193.892 262.134 193.988V194.013Z" fill="#918B9C"/>
<path d="M269.472 192.55C269.413 192.335 269.327 192.134 269.213 191.946C269.099 191.757 268.958 191.591 268.789 191.45C268.623 191.307 268.43 191.195 268.211 191.115C267.994 191.035 267.752 190.995 267.484 190.995C267.063 190.995 266.685 191.105 266.352 191.324C266.02 191.543 265.756 191.859 265.562 192.272C265.371 192.685 265.275 193.182 265.275 193.764C265.275 194.343 265.372 194.839 265.566 195.252C265.759 195.665 266.025 195.982 266.362 196.204C266.701 196.423 267.089 196.532 267.525 196.532C267.923 196.532 268.275 196.444 268.581 196.267C268.886 196.09 269.124 195.837 269.295 195.508C269.468 195.18 269.552 194.789 269.548 194.336L269.737 194.396H267.664V193.865H270.123V194.396C270.123 194.948 270.011 195.425 269.788 195.827C269.565 196.23 269.258 196.541 268.868 196.76C268.478 196.979 268.031 197.088 267.525 197.088C266.96 197.088 266.466 196.953 266.043 196.681C265.619 196.407 265.289 196.021 265.053 195.524C264.82 195.025 264.703 194.438 264.703 193.764C264.703 193.256 264.77 192.798 264.905 192.389C265.04 191.98 265.23 191.63 265.477 191.34C265.726 191.049 266.02 190.826 266.359 190.673C266.698 190.517 267.073 190.439 267.484 190.439C267.838 190.439 268.161 190.495 268.454 190.606C268.749 190.718 269.008 190.872 269.232 191.068C269.457 191.262 269.642 191.486 269.785 191.741C269.93 191.994 270.028 192.263 270.079 192.55H269.472ZM273.347 197.101C272.894 197.101 272.502 196.996 272.171 196.785C271.84 196.572 271.584 196.278 271.403 195.903C271.224 195.526 271.135 195.092 271.135 194.601C271.135 194.112 271.224 193.678 271.403 193.299C271.584 192.918 271.834 192.62 272.152 192.405C272.473 192.188 272.842 192.079 273.262 192.079C273.525 192.079 273.779 192.128 274.023 192.224C274.268 192.319 274.487 192.466 274.681 192.664C274.877 192.86 275.032 193.107 275.145 193.406C275.259 193.704 275.316 194.055 275.316 194.462V194.74H271.523V194.244H274.741C274.741 193.932 274.678 193.652 274.551 193.403C274.427 193.153 274.253 192.955 274.03 192.809C273.808 192.664 273.552 192.591 273.262 192.591C272.954 192.591 272.683 192.673 272.449 192.838C272.216 193.002 272.032 193.219 271.899 193.489C271.769 193.758 271.702 194.053 271.7 194.374V194.671C271.7 195.056 271.767 195.393 271.899 195.682C272.034 195.969 272.225 196.191 272.472 196.349C272.718 196.507 273.01 196.586 273.347 196.586C273.577 196.586 273.778 196.55 273.951 196.479C274.126 196.407 274.272 196.311 274.39 196.191C274.51 196.069 274.601 195.935 274.662 195.79L275.196 195.963C275.122 196.168 275.001 196.356 274.832 196.529C274.666 196.702 274.457 196.841 274.207 196.946C273.958 197.05 273.671 197.101 273.347 197.101ZM276.467 197V192.145H277.013V192.891H277.064C277.161 192.641 277.322 192.444 277.548 192.3C277.775 192.155 278.048 192.082 278.366 192.082C278.701 192.082 278.976 192.161 279.191 192.319C279.408 192.475 279.57 192.69 279.678 192.964H279.719C279.828 192.694 280.006 192.48 280.253 192.322C280.502 192.162 280.803 192.082 281.157 192.082C281.608 192.082 281.964 192.224 282.225 192.509C282.486 192.791 282.617 193.204 282.617 193.748V197H282.054V193.748C282.054 193.364 281.956 193.077 281.761 192.885C281.565 192.693 281.306 192.597 280.986 192.597C280.615 192.597 280.33 192.711 280.13 192.939C279.93 193.166 279.829 193.455 279.829 193.805V197H279.254V193.697C279.254 193.369 279.163 193.103 278.979 192.901C278.796 192.699 278.538 192.597 278.205 192.597C277.982 192.597 277.78 192.652 277.601 192.762C277.424 192.871 277.284 193.024 277.181 193.22C277.08 193.414 277.029 193.637 277.029 193.89V197H276.467ZM284.024 197V192.145H284.589V197H284.024ZM284.311 191.311C284.195 191.311 284.096 191.272 284.014 191.194C283.932 191.114 283.891 191.018 283.891 190.907C283.891 190.795 283.932 190.7 284.014 190.622C284.096 190.542 284.195 190.502 284.311 190.502C284.427 190.502 284.526 190.542 284.608 190.622C284.691 190.7 284.732 190.795 284.732 190.907C284.732 191.018 284.691 191.114 284.608 191.194C284.526 191.272 284.427 191.311 284.311 191.311ZM286.551 193.966V197H285.988V192.145H286.535V192.907H286.586C286.699 192.659 286.876 192.459 287.117 192.31C287.359 192.158 287.658 192.082 288.014 192.082C288.341 192.082 288.627 192.151 288.874 192.288C289.122 192.423 289.315 192.622 289.452 192.885C289.591 193.148 289.661 193.472 289.661 193.855V197H289.098V193.89C289.098 193.492 288.987 193.177 288.763 192.945C288.542 192.713 288.245 192.597 287.872 192.597C287.617 192.597 287.39 192.652 287.192 192.762C286.994 192.871 286.837 193.029 286.722 193.236C286.608 193.44 286.551 193.684 286.551 193.966ZM291.06 197V192.145H291.625V197H291.06ZM291.347 191.311C291.231 191.311 291.132 191.272 291.05 191.194C290.968 191.114 290.927 191.018 290.927 190.907C290.927 190.795 290.968 190.7 291.05 190.622C291.132 190.542 291.231 190.502 291.347 190.502C291.463 190.502 291.562 190.542 291.644 190.622C291.726 190.7 291.768 190.795 291.768 190.907C291.768 191.018 291.726 191.114 291.644 191.194C291.562 191.272 291.463 191.311 291.347 191.311ZM295.416 197V196.567L297.531 194.19C297.807 193.878 298.029 193.612 298.197 193.391C298.366 193.169 298.488 192.965 298.564 192.778C298.642 192.59 298.681 192.395 298.681 192.193C298.681 191.946 298.623 191.731 298.507 191.548C298.393 191.363 298.236 191.218 298.036 191.115C297.836 191.012 297.611 190.96 297.36 190.96C297.094 190.96 296.862 191.017 296.661 191.131C296.463 191.245 296.31 191.401 296.2 191.599C296.09 191.797 296.036 192.024 296.036 192.281H295.47C295.47 191.923 295.552 191.606 295.716 191.33C295.883 191.052 296.109 190.834 296.396 190.676C296.685 190.518 297.011 190.439 297.376 190.439C297.736 190.439 298.056 190.517 298.336 190.673C298.617 190.826 298.837 191.036 298.997 191.302C299.157 191.567 299.237 191.864 299.237 192.193C299.237 192.431 299.195 192.662 299.111 192.885C299.029 193.108 298.886 193.357 298.684 193.631C298.482 193.905 298.202 194.24 297.843 194.636L296.238 196.428V196.469H299.439V197H295.416ZM301.23 197.047C301.106 197.047 300.998 197.003 300.908 196.915C300.819 196.824 300.775 196.717 300.775 196.592C300.775 196.466 300.819 196.358 300.908 196.27C300.998 196.181 301.106 196.137 301.23 196.137C301.357 196.137 301.464 196.181 301.553 196.27C301.641 196.358 301.685 196.466 301.685 196.592C301.685 196.674 301.664 196.75 301.622 196.82C301.582 196.889 301.527 196.945 301.458 196.987C301.39 197.027 301.314 197.047 301.23 197.047ZM304.801 197.088C304.346 197.088 303.957 196.958 303.635 196.697C303.315 196.433 303.068 196.053 302.895 195.556C302.725 195.058 302.639 194.461 302.639 193.764C302.639 193.068 302.725 192.473 302.895 191.978C303.068 191.481 303.316 191.1 303.638 190.837C303.962 190.572 304.35 190.439 304.801 190.439C305.252 190.439 305.639 190.572 305.961 190.837C306.285 191.1 306.533 191.481 306.704 191.978C306.876 192.473 306.963 193.068 306.963 193.764C306.963 194.461 306.876 195.058 306.704 195.556C306.533 196.053 306.287 196.433 305.964 196.697C305.644 196.958 305.256 197.088 304.801 197.088ZM304.801 196.558C305.3 196.558 305.69 196.314 305.97 195.827C306.251 195.339 306.391 194.651 306.391 193.764C306.391 193.174 306.327 192.67 306.198 192.253C306.072 191.834 305.889 191.513 305.651 191.292C305.415 191.071 305.132 190.96 304.801 190.96C304.306 190.96 303.917 191.207 303.635 191.7C303.352 192.191 303.211 192.879 303.211 193.764C303.211 194.354 303.275 194.857 303.401 195.274C303.529 195.692 303.712 196.01 303.948 196.229C304.186 196.448 304.47 196.558 304.801 196.558ZM310.713 197V190.527H314.459V191.058H311.304V193.495H314.165V194.026H311.304V197H310.713ZM316.285 190.527V197H315.722V190.527H316.285ZM319.04 197.111C318.747 197.111 318.48 197.054 318.238 196.94C317.995 196.824 317.802 196.658 317.659 196.441C317.516 196.221 317.444 195.956 317.444 195.644C317.444 195.404 317.49 195.202 317.58 195.037C317.671 194.873 317.799 194.738 317.966 194.633C318.132 194.527 318.329 194.444 318.557 194.383C318.784 194.322 319.035 194.275 319.309 194.241C319.581 194.207 319.81 194.178 319.998 194.152C320.188 194.127 320.332 194.087 320.431 194.032C320.53 193.977 320.579 193.889 320.579 193.767V193.653C320.579 193.322 320.48 193.062 320.282 192.872C320.086 192.681 319.804 192.585 319.435 192.585C319.086 192.585 318.8 192.662 318.579 192.815C318.36 192.969 318.206 193.15 318.117 193.359L317.583 193.166C317.693 192.901 317.845 192.689 318.038 192.531C318.232 192.371 318.449 192.256 318.689 192.187C318.93 192.115 319.173 192.079 319.42 192.079C319.605 192.079 319.798 192.103 319.998 192.152C320.2 192.2 320.388 192.285 320.561 192.405C320.733 192.523 320.873 192.688 320.981 192.901C321.088 193.112 321.142 193.379 321.142 193.704V197H320.579V196.232H320.545C320.477 196.375 320.377 196.514 320.244 196.649C320.112 196.784 319.945 196.895 319.745 196.981C319.545 197.067 319.31 197.111 319.04 197.111ZM319.116 196.595C319.415 196.595 319.675 196.529 319.894 196.396C320.113 196.264 320.281 196.088 320.399 195.869C320.519 195.647 320.579 195.404 320.579 195.138V194.437C320.537 194.477 320.467 194.513 320.368 194.544C320.271 194.576 320.158 194.604 320.03 194.63C319.903 194.653 319.777 194.673 319.65 194.69C319.524 194.707 319.41 194.721 319.309 194.734C319.035 194.768 318.801 194.82 318.607 194.892C318.413 194.964 318.265 195.063 318.162 195.189C318.058 195.313 318.007 195.473 318.007 195.669C318.007 195.964 318.112 196.193 318.323 196.355C318.534 196.515 318.798 196.595 319.116 196.595ZM325.811 193.211L325.296 193.356C325.245 193.211 325.174 193.079 325.081 192.961C324.988 192.843 324.867 192.749 324.718 192.68C324.57 192.61 324.387 192.575 324.168 192.575C323.839 192.575 323.569 192.653 323.359 192.809C323.148 192.965 323.043 193.166 323.043 193.413C323.043 193.621 323.114 193.791 323.258 193.922C323.403 194.05 323.626 194.152 323.928 194.228L324.661 194.408C325.067 194.507 325.372 194.664 325.574 194.879C325.779 195.094 325.881 195.364 325.881 195.688C325.881 195.962 325.805 196.206 325.653 196.418C325.501 196.631 325.29 196.799 325.018 196.921C324.748 197.041 324.435 197.101 324.079 197.101C323.605 197.101 323.214 196.995 322.907 196.782C322.599 196.567 322.402 196.257 322.316 195.853L322.856 195.72C322.926 196.009 323.062 196.227 323.264 196.374C323.468 196.522 323.737 196.595 324.07 196.595C324.443 196.595 324.741 196.512 324.964 196.346C325.188 196.177 325.299 195.967 325.299 195.714C325.299 195.518 325.234 195.353 325.103 195.221C324.973 195.086 324.775 194.987 324.509 194.924L323.716 194.734C323.294 194.633 322.983 194.473 322.78 194.254C322.578 194.034 322.477 193.763 322.477 193.438C322.477 193.171 322.55 192.936 322.695 192.733C322.84 192.529 323.04 192.369 323.295 192.253C323.55 192.137 323.841 192.079 324.168 192.079C324.612 192.079 324.967 192.18 325.233 192.382C325.5 192.583 325.693 192.859 325.811 193.211ZM327.586 193.966V197H327.024V190.527H327.586V192.907H327.637C327.75 192.656 327.926 192.456 328.164 192.307C328.405 192.157 328.708 192.082 329.075 192.082C329.403 192.082 329.692 192.15 329.941 192.285C330.189 192.419 330.383 192.618 330.522 192.882C330.661 193.145 330.731 193.47 330.731 193.855V197H330.165V193.89C330.165 193.49 330.053 193.175 329.83 192.945C329.609 192.713 329.31 192.597 328.932 192.597C328.673 192.597 328.443 192.652 328.24 192.762C328.038 192.871 327.878 193.029 327.76 193.236C327.644 193.44 327.586 193.684 327.586 193.966Z" fill="#918B9C"/>
<path d="M393 194.781L396.3 191.481L397.243 192.424L393 196.667L388.758 192.424L389.701 191.481L393 194.781Z" fill="#918B9C"/>
<rect x="242" y="235.5" width="167" height="26" rx="3.5" fill="#918B9C"/>
<rect x="242.5" y="236" width="166" height="25" rx="3" stroke="#EADEFF" stroke-opacity="0.12"/>
<path d="M307.492 247.05H306.709C306.662 246.825 306.581 246.626 306.465 246.456C306.351 246.285 306.212 246.142 306.048 246.026C305.886 245.908 305.706 245.82 305.508 245.761C305.309 245.702 305.103 245.672 304.888 245.672C304.496 245.672 304.141 245.771 303.823 245.969C303.507 246.167 303.255 246.459 303.068 246.845C302.882 247.23 302.789 247.703 302.789 248.264C302.789 248.824 302.882 249.297 303.068 249.683C303.255 250.068 303.507 250.36 303.823 250.558C304.141 250.756 304.496 250.855 304.888 250.855C305.103 250.855 305.309 250.826 305.508 250.767C305.706 250.708 305.886 250.62 306.048 250.504C306.212 250.386 306.351 250.242 306.465 250.071C306.581 249.899 306.662 249.701 306.709 249.477H307.492C307.433 249.808 307.326 250.104 307.17 250.365C307.014 250.627 306.82 250.849 306.588 251.032C306.357 251.213 306.096 251.351 305.808 251.446C305.521 251.541 305.215 251.588 304.888 251.588C304.336 251.588 303.845 251.454 303.415 251.184C302.985 250.914 302.647 250.531 302.401 250.034C302.154 249.536 302.031 248.946 302.031 248.264C302.031 247.581 302.154 246.991 302.401 246.494C302.647 245.996 302.985 245.613 303.415 245.343C303.845 245.074 304.336 244.939 304.888 244.939C305.215 244.939 305.521 244.986 305.808 245.081C306.096 245.176 306.357 245.315 306.588 245.498C306.82 245.679 307.014 245.901 307.17 246.162C307.326 246.421 307.433 246.717 307.492 247.05ZM308.569 251.5V246.645H309.289V247.379H309.34C309.428 247.138 309.589 246.944 309.82 246.794C310.052 246.644 310.313 246.57 310.604 246.57C310.659 246.57 310.727 246.571 310.81 246.573C310.892 246.575 310.954 246.578 310.996 246.582V247.341C310.971 247.334 310.913 247.325 310.822 247.312C310.734 247.298 310.64 247.29 310.541 247.29C310.305 247.29 310.094 247.34 309.909 247.439C309.726 247.536 309.58 247.671 309.473 247.843C309.367 248.014 309.315 248.209 309.315 248.428V251.5H308.569ZM313.679 251.601C313.211 251.601 312.808 251.498 312.468 251.291C312.131 251.083 311.871 250.792 311.688 250.419C311.506 250.044 311.416 249.608 311.416 249.111C311.416 248.613 311.506 248.175 311.688 247.796C311.871 247.415 312.126 247.117 312.453 246.905C312.781 246.69 313.165 246.582 313.603 246.582C313.856 246.582 314.105 246.624 314.352 246.709C314.599 246.793 314.823 246.93 315.025 247.12C315.227 247.307 315.389 247.556 315.509 247.865C315.629 248.175 315.689 248.557 315.689 249.01V249.326H311.947V248.681H314.93C314.93 248.407 314.876 248.162 314.766 247.948C314.659 247.733 314.505 247.563 314.305 247.439C314.107 247.314 313.873 247.252 313.603 247.252C313.306 247.252 313.049 247.326 312.832 247.474C312.617 247.619 312.451 247.809 312.336 248.042C312.22 248.276 312.162 248.527 312.162 248.795V249.224C312.162 249.591 312.225 249.902 312.351 250.157C312.48 250.41 312.658 250.602 312.886 250.735C313.113 250.866 313.378 250.931 313.679 250.931C313.875 250.931 314.052 250.904 314.21 250.849C314.37 250.792 314.508 250.708 314.624 250.596C314.74 250.482 314.829 250.341 314.892 250.173L315.613 250.375C315.537 250.619 315.41 250.834 315.231 251.02C315.052 251.203 314.83 251.346 314.567 251.449C314.304 251.551 314.008 251.601 313.679 251.601ZM318.163 251.614C317.855 251.614 317.576 251.556 317.326 251.44C317.075 251.322 316.876 251.152 316.728 250.931C316.581 250.708 316.507 250.438 316.507 250.122C316.507 249.844 316.562 249.618 316.671 249.446C316.781 249.271 316.927 249.134 317.111 249.035C317.294 248.936 317.496 248.862 317.717 248.814C317.941 248.763 318.165 248.723 318.391 248.693C318.686 248.656 318.925 248.627 319.108 248.608C319.293 248.587 319.428 248.552 319.513 248.504C319.599 248.455 319.642 248.371 319.642 248.251V248.226C319.642 247.914 319.557 247.672 319.386 247.499C319.218 247.326 318.962 247.24 318.618 247.24C318.262 247.24 317.983 247.318 317.781 247.474C317.578 247.629 317.436 247.796 317.354 247.973L316.646 247.72C316.772 247.425 316.941 247.195 317.152 247.031C317.365 246.865 317.596 246.749 317.847 246.683C318.1 246.616 318.348 246.582 318.593 246.582C318.749 246.582 318.928 246.601 319.13 246.639C319.335 246.675 319.532 246.75 319.721 246.864C319.913 246.977 320.072 247.149 320.198 247.379C320.325 247.608 320.388 247.916 320.388 248.302V251.5H319.642V250.843H319.604C319.554 250.948 319.469 251.061 319.351 251.181C319.233 251.301 319.076 251.403 318.881 251.487C318.685 251.572 318.445 251.614 318.163 251.614ZM318.277 250.944C318.572 250.944 318.82 250.886 319.023 250.77C319.227 250.654 319.381 250.504 319.484 250.321C319.59 250.138 319.642 249.945 319.642 249.743V249.06C319.611 249.098 319.541 249.133 319.434 249.164C319.328 249.194 319.206 249.22 319.067 249.243C318.93 249.264 318.796 249.283 318.666 249.3C318.537 249.315 318.433 249.328 318.353 249.338C318.159 249.363 317.978 249.405 317.809 249.461C317.643 249.516 317.508 249.599 317.405 249.711C317.303 249.821 317.253 249.97 317.253 250.16C317.253 250.419 317.349 250.615 317.54 250.748C317.734 250.878 317.98 250.944 318.277 250.944ZM323.772 246.645V247.278H321.256V246.645H323.772ZM321.989 245.482H322.735V250.109C322.735 250.32 322.766 250.478 322.827 250.583C322.89 250.687 322.97 250.756 323.067 250.792C323.166 250.826 323.27 250.843 323.38 250.843C323.462 250.843 323.529 250.838 323.582 250.83C323.635 250.819 323.677 250.811 323.708 250.805L323.86 251.475C323.81 251.494 323.739 251.513 323.648 251.532C323.558 251.553 323.443 251.563 323.304 251.563C323.093 251.563 322.887 251.518 322.684 251.427C322.484 251.337 322.318 251.199 322.185 251.013C322.054 250.828 321.989 250.594 321.989 250.312V245.482ZM326.788 251.601C326.32 251.601 325.917 251.498 325.577 251.291C325.24 251.083 324.98 250.792 324.797 250.419C324.616 250.044 324.525 249.608 324.525 249.111C324.525 248.613 324.616 248.175 324.797 247.796C324.98 247.415 325.235 247.117 325.562 246.905C325.89 246.69 326.274 246.582 326.712 246.582C326.965 246.582 327.215 246.624 327.461 246.709C327.708 246.793 327.932 246.93 328.134 247.12C328.337 247.307 328.498 247.556 328.618 247.865C328.738 248.175 328.798 248.557 328.798 249.01V249.326H325.056V248.681H328.039C328.039 248.407 327.985 248.162 327.875 247.948C327.768 247.733 327.614 247.563 327.414 247.439C327.216 247.314 326.982 247.252 326.712 247.252C326.415 247.252 326.158 247.326 325.941 247.474C325.726 247.619 325.561 247.809 325.445 248.042C325.329 248.276 325.271 248.527 325.271 248.795V249.224C325.271 249.591 325.334 249.902 325.46 250.157C325.589 250.41 325.767 250.602 325.995 250.735C326.222 250.866 326.487 250.931 326.788 250.931C326.984 250.931 327.161 250.904 327.319 250.849C327.479 250.792 327.617 250.708 327.733 250.596C327.849 250.482 327.938 250.341 328.002 250.173L328.722 250.375C328.646 250.619 328.519 250.834 328.34 251.02C328.161 251.203 327.939 251.346 327.676 251.449C327.413 251.551 327.117 251.601 326.788 251.601ZM332.005 245.723V245.027H336.859V245.723H334.824V251.5H334.04V245.723H332.005ZM339.21 251.601C338.743 251.601 338.339 251.498 338 251.291C337.663 251.083 337.403 250.792 337.219 250.419C337.038 250.044 336.947 249.608 336.947 249.111C336.947 248.613 337.038 248.175 337.219 247.796C337.403 247.415 337.657 247.117 337.984 246.905C338.313 246.69 338.696 246.582 339.134 246.582C339.387 246.582 339.637 246.624 339.884 246.709C340.13 246.793 340.354 246.93 340.557 247.12C340.759 247.307 340.92 247.556 341.04 247.865C341.16 248.175 341.22 248.557 341.22 249.01V249.326H337.478V248.681H340.462C340.462 248.407 340.407 248.162 340.298 247.948C340.19 247.733 340.036 247.563 339.836 247.439C339.638 247.314 339.404 247.252 339.134 247.252C338.837 247.252 338.58 247.326 338.363 247.474C338.148 247.619 337.983 247.809 337.867 248.042C337.751 248.276 337.693 248.527 337.693 248.795V249.224C337.693 249.591 337.756 249.902 337.883 250.157C338.011 250.41 338.189 250.602 338.417 250.735C338.645 250.866 338.909 250.931 339.21 250.931C339.406 250.931 339.583 250.904 339.741 250.849C339.901 250.792 340.039 250.708 340.155 250.596C340.271 250.482 340.361 250.341 340.424 250.173L341.145 250.375C341.069 250.619 340.941 250.834 340.762 251.02C340.583 251.203 340.362 251.346 340.098 251.449C339.835 251.551 339.539 251.601 339.21 251.601ZM345.705 247.733L345.035 247.922C344.993 247.811 344.93 247.702 344.848 247.597C344.768 247.489 344.659 247.401 344.519 247.331C344.38 247.262 344.202 247.227 343.985 247.227C343.688 247.227 343.441 247.295 343.243 247.432C343.047 247.567 342.949 247.739 342.949 247.948C342.949 248.133 343.016 248.279 343.151 248.387C343.286 248.494 343.497 248.584 343.783 248.656L344.504 248.833C344.938 248.938 345.261 249.099 345.474 249.316C345.687 249.531 345.793 249.808 345.793 250.147C345.793 250.425 345.713 250.674 345.553 250.893C345.395 251.112 345.174 251.285 344.889 251.412C344.605 251.538 344.274 251.601 343.897 251.601C343.402 251.601 342.992 251.494 342.667 251.279C342.343 251.064 342.138 250.75 342.051 250.337L342.759 250.16C342.827 250.421 342.954 250.617 343.142 250.748C343.331 250.878 343.579 250.944 343.884 250.944C344.232 250.944 344.508 250.87 344.712 250.723C344.919 250.573 345.022 250.394 345.022 250.185C345.022 250.017 344.963 249.875 344.845 249.762C344.727 249.646 344.546 249.559 344.301 249.503L343.492 249.313C343.048 249.208 342.721 249.044 342.513 248.823C342.306 248.6 342.203 248.321 342.203 247.986C342.203 247.712 342.28 247.469 342.434 247.259C342.589 247.048 342.801 246.882 343.069 246.762C343.339 246.642 343.644 246.582 343.985 246.582C344.466 246.582 344.843 246.688 345.117 246.898C345.393 247.109 345.589 247.387 345.705 247.733ZM348.938 246.645V247.278H346.422V246.645H348.938ZM347.156 245.482H347.902V250.109C347.902 250.32 347.932 250.478 347.993 250.583C348.056 250.687 348.136 250.756 348.233 250.792C348.332 250.826 348.437 250.843 348.546 250.843C348.628 250.843 348.696 250.838 348.749 250.83C348.801 250.819 348.843 250.811 348.875 250.805L349.027 251.475C348.976 251.494 348.906 251.513 348.815 251.532C348.724 251.553 348.609 251.563 348.47 251.563C348.26 251.563 348.053 251.518 347.851 251.427C347.651 251.337 347.484 251.199 347.352 251.013C347.221 250.828 347.156 250.594 347.156 250.312V245.482Z" fill="#131018"/>
</g>
</g>
</g>
<defs>
<filter id="filter1_ddddd_536_6995" x="-78.7368" y="-146.574" width="512.035" height="440.951" filterUnits="userSpaceOnUse" color-interpolation-filters="sRGB">
<feFlood flood-opacity="0" result="BackgroundImageFix"/>
<feColorMatrix in="SourceAlpha" type="matrix" values="0 0 0 0 0 0 0 0 0 0 0 0 0 0 0 0 0 0 127 0" result="hardAlpha"/>
<feOffset dx="-9.53181" dy="-4.7659"/>
<feGaussianBlur stdDeviation="11.9148"/>
<feColorMatrix type="matrix" values="0 0 0 0 0 0 0 0 0 0 0 0 0 0 0 0 0 0 0.39 0"/>
<feBlend mode="normal" in2="BackgroundImageFix" result="effect1_dropShadow_536_6995"/>
<feColorMatrix in="SourceAlpha" type="matrix" values="0 0 0 0 0 0 0 0 0 0 0 0 0 0 0 0 0 0 127 0" result="hardAlpha"/>
<feOffset dx="-38.1272" dy="-20.0168"/>
<feGaussianBlur stdDeviation="21.4466"/>
<feColorMatrix type="matrix" values="0 0 0 0 0 0 0 0 0 0 0 0 0 0 0 0 0 0 0.34 0"/>
<feBlend mode="normal" in2="effect1_dropShadow_536_6995" result="effect2_dropShadow_536_6995"/>
<feColorMatrix in="SourceAlpha" type="matrix" values="0 0 0 0 0 0 0 0 0 0 0 0 0 0 0 0 0 0 127 0" result="hardAlpha"/>
<feOffset dx="-84.8331" dy="-45.7527"/>
<feGaussianBlur stdDeviation="29.072"/>
<feColorMatrix type="matrix" values="0 0 0 0 0 0 0 0 0 0 0 0 0 0 0 0 0 0 0.2 0"/>
<feBlend mode="normal" in2="effect2_dropShadow_536_6995" result="effect3_dropShadow_536_6995"/>
<feColorMatrix in="SourceAlpha" type="matrix" values="0 0 0 0 0 0 0 0 0 0 0 0 0 0 0 0 0 0 127 0" result="hardAlpha"/>
<feOffset dx="-150.603" dy="-81.0203"/>
<feGaussianBlur stdDeviation="34.3145"/>
<feColorMatrix type="matrix" values="0 0 0 0 0 0 0 0 0 0 0 0 0 0 0 0 0 0 0.06 0"/>
<feBlend mode="normal" in2="effect3_dropShadow_536_6995" result="effect4_dropShadow_536_6995"/>
<feColorMatrix in="SourceAlpha" type="matrix" values="0 0 0 0 0 0 0 0 0 0 0 0 0 0 0 0 0 0 127 0" result="hardAlpha"/>
<feOffset dx="-235.436" dy="-126.773"/>
<feGaussianBlur stdDeviation="37.6506"/>
<feColorMatrix type="matrix" values="0 0 0 0 0 0 0 0 0 0 0 0 0 0 0 0 0 0 0.01 0"/>
<feBlend mode="normal" in2="effect4_dropShadow_536_6995" result="effect5_dropShadow_536_6995"/>
<feBlend mode="normal" in="SourceGraphic" in2="effect5_dropShadow_536_6995" result="shape"/>
</filter>
<linearGradient id="paint0_linear_536_6995" x1="202" y1="0" x2="202" y2="255" gradientUnits="userSpaceOnUse">
<stop stop-color="#737373" stop-opacity="0"/>
<stop offset="0.0837693" stop-color="white"/>
<stop offset="0.699854" stop-color="#E8E8E8" stop-opacity="0.833025"/>
<stop offset="1" stop-color="#737373" stop-opacity="0"/>
</linearGradient>
<clipPath id="clip0_536_6995">
<rect width="449" height="295" fill="white"/>
</clipPath>
<clipPath id="clip1_536_6995">
<rect y="20.5" width="299" height="188" rx="8.75973" fill="white"/>
</clipPath>
<clipPath id="clip2_536_6995">
<rect width="297.522" height="300.239" fill="white" transform="translate(15.1943 32.2666)"/>
</clipPath>
</defs>
</svg>
