<svg width="46" height="46" viewBox="0 0 46 46" fill="none" xmlns="http://www.w3.org/2000/svg">
<path d="M23 46C35.7026 46 46 35.7026 46 23C46 10.2975 35.7026 0 23 0C10.2975 0 0 10.2975 0 23C0 35.7026 10.2975 46 23 46Z" fill="#0067D6"/>
<path d="M23 46C35.7026 46 46 35.7026 46 23C46 10.2975 35.7026 0 23 0C10.2975 0 0 10.2975 0 23C0 35.7026 10.2975 46 23 46Z" fill="url(#paint0_linear_581_3803)"/>
<path d="M22.9987 42.1667C33.5844 42.1667 42.1656 33.5855 42.1656 23.0002C42.1656 12.4147 33.5844 3.8335 22.9987 3.8335C12.4133 3.8335 3.83203 12.4147 3.83203 23.0002C3.83203 33.5855 12.4133 42.1667 22.9987 42.1667Z" fill="#0067D6"/>
<path d="M22.9987 42.1667C33.5844 42.1667 42.1656 33.5855 42.1656 23.0002C42.1656 12.4147 33.5844 3.8335 22.9987 3.8335C12.4133 3.8335 3.83203 12.4147 3.83203 23.0002C3.83203 33.5855 12.4133 42.1667 22.9987 42.1667Z" fill="url(#paint1_linear_581_3803)"/>
<path d="M8.83008 21.6036L11.3535 14.605H13.1278L15.6512 21.6036H14.0938L13.5812 20.1152H10.8902L10.3777 21.6036H8.83008ZM11.3141 18.883H13.1672L12.2406 16.1822L11.3141 18.883ZM16.2346 14.605H17.7329V21.6036H16.2346V14.605ZM24.81 19.0802C24.5243 20.7756 23.4402 21.7613 21.7643 21.7613C19.6943 21.7613 18.3933 20.194 18.3933 18.1142C18.3933 16.0343 19.6943 14.4473 21.7643 14.4473C23.3712 14.4473 24.4752 15.3936 24.7808 17.0102L23.223 17.0792C23.0457 16.2019 22.5038 15.709 21.7347 15.709C20.5028 15.709 19.931 16.744 19.931 18.1142C19.931 19.4745 20.5126 20.4996 21.7347 20.4996C22.5529 20.4996 23.085 19.9673 23.2429 19.0211L24.81 19.0802ZM28.2277 14.605C29.9036 14.605 30.9187 15.4725 30.9187 16.8919C30.9187 18.3113 29.9036 19.1886 28.2277 19.1886H26.9265V21.6036H25.4284V14.605H28.2277ZM26.9265 17.9269H28.1388C28.9275 17.9269 29.3808 17.572 29.3808 16.8919C29.3808 16.2117 28.9275 15.8667 28.1388 15.8667H26.9265V17.9269ZM30.346 21.6036L32.8693 14.605H34.6439L37.1672 21.6036H35.6099L35.0972 20.1152H32.4062L31.8936 21.6036H30.346ZM32.83 18.883H34.6832L33.7566 16.1822L32.83 18.883ZM11.6487 29.578C11.7768 30.3273 12.3092 30.82 13.1865 30.82C13.8567 30.82 14.3102 30.5538 14.3003 30.0411C14.2905 29.5289 13.8567 29.233 12.7626 28.9669C11.2446 28.6022 10.2688 27.9911 10.2688 26.8673C10.2688 25.5957 11.3333 24.7973 12.9302 24.7973C14.4876 24.7973 15.5522 25.7535 15.7197 27.1631L14.2215 27.2419C14.1426 26.5026 13.63 26.0393 12.8907 26.0393C12.2402 26.0393 11.7768 26.3745 11.8065 26.887C11.8262 27.4785 12.5162 27.6756 13.2653 27.8629C14.8326 28.2079 15.8282 28.8782 15.8282 29.992C15.8282 31.3229 14.6552 32.0718 13.147 32.0718C11.4418 32.0718 10.2392 31.1257 10.1406 29.647L11.6487 29.578ZM19.7386 32.1111C17.6095 32.1111 16.3379 30.7117 16.3379 28.4642C16.3379 26.1971 17.6095 24.7973 19.7386 24.7973C21.8678 24.7973 23.1492 26.1971 23.1492 28.4642C23.1492 30.7117 21.8678 32.1111 19.7386 32.1111ZM17.8855 28.4642C17.8855 29.9624 18.5755 30.8497 19.7386 30.8497C20.9217 30.8497 21.6015 29.9624 21.6015 28.4642C21.6015 26.956 20.9217 26.059 19.7386 26.059C18.5755 26.059 17.8855 26.956 17.8855 28.4642ZM29.9749 29.4303C29.6891 31.1257 28.6046 32.1111 26.9291 32.1111C24.8591 32.1111 23.5579 30.544 23.5579 28.4642C23.5579 26.3843 24.8591 24.7973 26.9291 24.7973C28.5356 24.7973 29.6396 25.7436 29.9452 27.3602L28.3879 27.4292C28.2105 26.5519 27.6682 26.059 26.8995 26.059C25.6672 26.059 25.0958 27.0941 25.0958 28.4642C25.0958 29.8244 25.677 30.8497 26.8995 30.8497C27.7178 30.8497 28.2499 30.3171 28.4078 29.371L29.9749 29.4303ZM30.5423 27.1827C30.6604 25.8027 31.7056 24.7973 33.2528 24.7973C34.7217 24.7973 35.7766 25.6943 35.7766 26.9265C35.7766 28.0009 34.919 28.6219 33.9627 29.1739C33.5783 29.3909 32.3558 30.1203 32.3164 30.6918H35.7961V31.9537H30.4928C30.4928 29.9031 31.6463 28.9669 33.0754 28.1586C33.7853 27.7249 34.2387 27.3602 34.2387 26.9067C34.2387 26.4139 33.8344 26.059 33.2528 26.059C32.6221 26.059 32.2081 26.4927 32.0798 27.2715L30.5423 27.1827Z" fill="white"/>
<defs>
<linearGradient id="paint0_linear_581_3803" x1="46" y1="46" x2="-0.575001" y2="-1.52749e-06" gradientUnits="userSpaceOnUse">
<stop stop-opacity="0"/>
<stop offset="1" stop-color="#01B0F7"/>
</linearGradient>
<linearGradient id="paint1_linear_581_3803" x1="42.1656" y1="42.1667" x2="3.35298" y2="3.83357" gradientUnits="userSpaceOnUse">
<stop stop-color="#01B0F7"/>
<stop offset="1" stop-opacity="0"/>
</linearGradient>
</defs>
</svg>
