<svg width="32" height="32" viewBox="0 0 32 32" fill="none" xmlns="http://www.w3.org/2000/svg">
<g filter="url(#filter0_iii_1728_4841)">
<path d="M21.0001 17C21.0014 17.2039 20.9394 17.4031 20.8228 17.5703C20.7062 17.7375 20.5406 17.8645 20.3488 17.9338L17.1251 19.125L15.9376 22.3512C15.8673 22.5423 15.74 22.7072 15.5731 22.8236C15.4061 22.9401 15.2074 23.0025 15.0038 23.0025C14.8003 23.0025 14.6016 22.9401 14.4346 22.8236C14.2677 22.7072 14.1404 22.5423 14.0701 22.3512L12.8751 19.125L9.64885 17.9375C9.45781 17.8672 9.29293 17.7399 9.17647 17.573C9.06 17.406 8.99756 17.2073 8.99756 17.0037C8.99756 16.8002 9.06 16.6015 9.17647 16.4345C9.29293 16.2676 9.45781 16.1403 9.64885 16.07L12.8751 14.875L14.0626 11.6488C14.1329 11.4577 14.2602 11.2928 14.4271 11.1764C14.5941 11.0599 14.7928 10.9975 14.9963 10.9975C15.1999 10.9975 15.3986 11.0599 15.5656 11.1764C15.7325 11.2928 15.8598 11.4577 15.9301 11.6488L17.1251 14.875L20.3513 16.0625C20.5432 16.1324 20.7087 16.2601 20.8249 16.428C20.9411 16.5959 21.0023 16.7958 21.0001 17ZM17.5001 11H18.5001V12C18.5001 12.1326 18.5528 12.2598 18.6465 12.3536C18.7403 12.4473 18.8675 12.5 19.0001 12.5C19.1327 12.5 19.2599 12.4473 19.3537 12.3536C19.4474 12.2598 19.5001 12.1326 19.5001 12V11H20.5001C20.6327 11 20.7599 10.9473 20.8537 10.8536C20.9474 10.7598 21.0001 10.6326 21.0001 10.5C21.0001 10.3674 20.9474 10.2402 20.8537 10.1464C20.7599 10.0527 20.6327 10 20.5001 10H19.5001V9C19.5001 8.86739 19.4474 8.74021 19.3537 8.64645C19.2599 8.55268 19.1327 8.5 19.0001 8.5C18.8675 8.5 18.7403 8.55268 18.6465 8.64645C18.5528 8.74021 18.5001 8.86739 18.5001 9V10H17.5001C17.3675 10 17.2403 10.0527 17.1465 10.1464C17.0528 10.2402 17.0001 10.3674 17.0001 10.5C17.0001 10.6326 17.0528 10.7598 17.1465 10.8536C17.2403 10.9473 17.3675 11 17.5001 11ZM23.0001 13H22.5001V12.5C22.5001 12.3674 22.4474 12.2402 22.3537 12.1464C22.2599 12.0527 22.1327 12 22.0001 12C21.8675 12 21.7403 12.0527 21.6465 12.1464C21.5528 12.2402 21.5001 12.3674 21.5001 12.5V13H21.0001C20.8675 13 20.7403 13.0527 20.6465 13.1464C20.5528 13.2402 20.5001 13.3674 20.5001 13.5C20.5001 13.6326 20.5528 13.7598 20.6465 13.8536C20.7403 13.9473 20.8675 14 21.0001 14H21.5001V14.5C21.5001 14.6326 21.5528 14.7598 21.6465 14.8536C21.7403 14.9473 21.8675 15 22.0001 15C22.1327 15 22.2599 14.9473 22.3537 14.8536C22.4474 14.7598 22.5001 14.6326 22.5001 14.5V14H23.0001C23.1327 14 23.2599 13.9473 23.3537 13.8536C23.4474 13.7598 23.5001 13.6326 23.5001 13.5C23.5001 13.3674 23.4474 13.2402 23.3537 13.1464C23.2599 13.0527 23.1327 13 23.0001 13Z" fill="#D6FAD9"/>
</g>
<defs>
<filter id="filter0_iii_1728_4841" x="0" y="-0.5" width="32" height="33.5" filterUnits="userSpaceOnUse" color-interpolation-filters="sRGB">
<feFlood flood-opacity="0" result="BackgroundImageFix"/>
<feBlend mode="normal" in="SourceGraphic" in2="BackgroundImageFix" result="shape"/>
<feColorMatrix in="SourceAlpha" type="matrix" values="0 0 0 0 0 0 0 0 0 0 0 0 0 0 0 0 0 0 127 0" result="hardAlpha"/>
<feOffset dy="0.5"/>
<feGaussianBlur stdDeviation="0.25"/>
<feComposite in2="hardAlpha" operator="arithmetic" k2="-1" k3="1"/>
<feColorMatrix type="matrix" values="0 0 0 0 1 0 0 0 0 1 0 0 0 0 1 0 0 0 0.25 0"/>
<feBlend mode="plus-lighter" in2="shape" result="effect1_innerShadow_1728_4841"/>
<feColorMatrix in="SourceAlpha" type="matrix" values="0 0 0 0 0 0 0 0 0 0 0 0 0 0 0 0 0 0 127 0" result="hardAlpha"/>
<feOffset dy="1"/>
<feGaussianBlur stdDeviation="1.5"/>
<feComposite in2="hardAlpha" operator="arithmetic" k2="-1" k3="1"/>
<feColorMatrix type="matrix" values="0 0 0 0 1 0 0 0 0 1 0 0 0 0 1 0 0 0 0.25 0"/>
<feBlend mode="plus-lighter" in2="effect1_innerShadow_1728_4841" result="effect2_innerShadow_1728_4841"/>
<feColorMatrix in="SourceAlpha" type="matrix" values="0 0 0 0 0 0 0 0 0 0 0 0 0 0 0 0 0 0 127 0" result="hardAlpha"/>
<feOffset dy="-0.5"/>
<feGaussianBlur stdDeviation="0.25"/>
<feComposite in2="hardAlpha" operator="arithmetic" k2="-1" k3="1"/>
<feColorMatrix type="matrix" values="0 0 0 0 0.00881422 0 0 0 0 0.197867 0 0 0 0 0.075238 0 0 0 1 0"/>
<feBlend mode="normal" in2="effect2_innerShadow_1728_4841" result="effect3_innerShadow_1728_4841"/>
</filter>
</defs>
</svg>
