<svg width="97" height="16" viewBox="0 0 97 16" fill="none" xmlns="http://www.w3.org/2000/svg">
<path d="M13.0969 8.46877C13.0969 7.19377 13.7781 6.10002 14.7469 5.64377C14.4781 5.29377 14.1156 4.96252 13.6281 4.61252C12.9969 4.16252 11.6031 4.11252 10.6906 4.34377C9.99688 4.51877 9.40312 4.86252 9.09062 4.87502C8.80312 4.88752 8.19063 4.50627 7.49063 4.34377C6.64688 4.14377 5.72188 4.25627 5.09063 4.61252C3.24688 5.64377 2.95312 6.69377 2.95312 8.86877C2.95312 11.375 3.85937 13.4938 5.89062 14.9875C6.33437 15.3125 7.13437 15.5063 7.75937 15.2563C8.29687 15.0375 8.57813 14.7688 9.09688 14.725C9.84688 14.6563 10.1969 14.9063 10.5594 15.1313C10.8906 15.3375 11.6469 15.5 12.0344 15.2563C13.4031 14.4063 14.4844 13.0188 15.0531 11.4188C13.9281 11.0563 13.0969 9.87502 13.0969 8.46877ZM11.4969 2.75002C12.0406 1.89377 12.0406 0.618773 12.0281 0.625023C11.8031 0.700023 11.0406 0.525023 9.89062 1.42502C9.49062 1.73752 8.99687 2.51252 8.82187 3.01877C8.69062 3.40627 8.55938 4.35002 8.55313 4.35002C8.54063 4.35002 9.43437 4.30002 9.89062 4.08127C10.3594 3.85627 11.1469 3.30627 11.4969 2.75002Z" fill="#FFA800"/>
<path d="M25.2933 13.5V2.7H27.1467V13.5H25.2933ZM30.9575 13.5V2.7H35.9308C37.1308 2.7 38.0597 3.00222 38.7175 3.60667C39.3842 4.20222 39.7175 5.02444 39.7175 6.07333C39.7175 7.11333 39.3842 7.93556 38.7175 8.54C38.0597 9.14444 37.1308 9.44667 35.9308 9.44667H32.8108V13.5H30.9575ZM32.8108 7.86H35.8242C36.4908 7.86 36.9975 7.7 37.3442 7.38C37.6908 7.06 37.8642 6.62444 37.8642 6.07333C37.8642 5.51333 37.6908 5.07778 37.3442 4.76667C36.9975 4.44667 36.4908 4.28667 35.8242 4.28667H32.8108V7.86ZM42.6281 13.5V2.7H44.4815V7.1H50.2948V2.7H52.1481V13.5H50.2948V8.7H44.4815V13.5H42.6281ZM60.7858 13.66C59.6925 13.66 58.7325 13.4333 57.9058 12.98C57.0881 12.5178 56.4525 11.8689 55.9992 11.0333C55.5458 10.1978 55.3192 9.22 55.3192 8.1C55.3192 6.97111 55.5458 5.99333 55.9992 5.16667C56.4525 4.33111 57.0881 3.68667 57.9058 3.23333C58.7236 2.77111 59.6836 2.54 60.7858 2.54C61.8969 2.54 62.8614 2.76667 63.6792 3.22C64.4969 3.67333 65.1281 4.31778 65.5725 5.15333C66.0258 5.98 66.2525 6.96222 66.2525 8.1C66.2525 9.22 66.0258 10.1978 65.5725 11.0333C65.1192 11.8689 64.4836 12.5178 63.6658 12.98C62.8481 13.4333 61.8881 13.66 60.7858 13.66ZM60.7858 12.0467C61.9147 12.0467 62.7947 11.6911 63.4258 10.98C64.0658 10.2689 64.3858 9.30889 64.3858 8.1C64.3858 6.88222 64.0703 5.92222 63.4392 5.22C62.8081 4.50889 61.9236 4.15333 60.7858 4.15333C59.6569 4.15333 58.7725 4.50889 58.1325 5.22C57.5014 5.92222 57.1858 6.88222 57.1858 8.1C57.1858 9.31778 57.5014 10.2822 58.1325 10.9933C58.7725 11.6956 59.6569 12.0467 60.7858 12.0467ZM79.4248 13.5H77.3981L71.2515 5.28667H71.1981V13.5H69.4381V2.7H71.4248L77.6115 11.0067H77.6648V2.7H79.4248V13.5ZM90.8669 13.5H83.1869V2.7H90.8669V4.3H85.0402V7.11333H90.4935V8.68667H85.0402V11.9H90.8669V13.5Z" fill="#FFA800"/>
</svg>
