<svg width="14" height="14" viewBox="0 0 14 14" fill="none" xmlns="http://www.w3.org/2000/svg">
<path d="M11.6953 6.86108L5.57032 13.4236C5.50541 13.4929 5.41973 13.5391 5.32621 13.5554C5.2327 13.5717 5.13641 13.5572 5.05189 13.514C4.96737 13.4708 4.8992 13.4012 4.85767 13.3159C4.81613 13.2305 4.80349 13.1339 4.82164 13.0408L5.62336 9.03053L2.47172 7.8471C2.40404 7.82178 2.34368 7.78009 2.29603 7.72575C2.24839 7.67141 2.21495 7.60612 2.1987 7.5357C2.18245 7.46529 2.1839 7.39194 2.20291 7.32222C2.22193 7.2525 2.25791 7.18858 2.30766 7.13616L8.43266 0.573658C8.49757 0.504388 8.58324 0.45811 8.67676 0.441805C8.77028 0.4255 8.86656 0.440054 8.95108 0.483271C9.0356 0.526488 9.10377 0.596023 9.14531 0.681382C9.18684 0.766742 9.19948 0.863295 9.18133 0.956471L8.37742 4.97108L11.5291 6.15288C11.5963 6.17837 11.6561 6.22001 11.7034 6.27413C11.7507 6.32826 11.7839 6.39319 11.8001 6.46319C11.8163 6.5332 11.815 6.60612 11.7964 6.67552C11.7777 6.74491 11.7423 6.80864 11.6931 6.86108H11.6953Z" fill="#EADEFF"/>
</svg>
