<svg width="111" height="139" viewBox="0 0 111 139" fill="none" xmlns="http://www.w3.org/2000/svg">
<g clip-path="url(#clip0_15_3794)">
<g clip-path="url(#clip1_15_3794)">
<g clip-path="url(#clip2_15_3794)">
<rect x="0.297763" y="0.797763" width="237.33" height="152.894" rx="2.72272" fill="#131018"/>
<rect x="0.297763" y="0.797763" width="237.33" height="152.894" rx="2.72272" stroke="#5A7BFF" stroke-width="0.404474"/>
<g clip-path="url(#clip3_15_3794)">
<path d="M14.2356 21H9.5V22.576H14.2356V21Z" fill="#5A7BFF" fill-opacity="0.5"/>
<path d="M124.775 21H19.8203V22.576H124.775V21Z" fill="#5A7BFF" fill-opacity="0.5"/>
<path d="M14.2356 28.428H9.5V30.004H14.2356V28.428Z" fill="#5A7BFF" fill-opacity="0.5"/>
<path d="M60.0793 28.428H24.4336V30.004H60.0793V28.428Z" fill="#5A7BFF" fill-opacity="0.8"/>
<path d="M53.8652 50.718H19.8203V52.294H53.8652V50.718Z" fill="#5A7BFF" fill-opacity="0.8"/>
<path d="M48.3165 35.855H24.4336V37.431H48.3165V35.855Z" fill="#5A7BFF"/>
<path d="M139.754 35.855H50.9688V37.431H139.754V35.855Z" fill="#5A7BFF" fill-opacity="0.8"/>
<path d="M123.38 58.1458H19.8203V59.7137H123.38V58.1458Z" fill="#5A7BFF"/>
<path d="M135.679 28.428H62.3203V30.004H135.679V28.428Z" fill="#5A7BFF" fill-opacity="0.5"/>
<path d="M14.2356 35.855H9.5V37.431H14.2356V35.855Z" fill="#5A7BFF" fill-opacity="0.5"/>
<path d="M14.2356 43.283H9.5V44.8509H14.2356V43.283Z" fill="#5A7BFF" fill-opacity="0.8"/>
<path d="M47.8052 43.283H19.8203V44.8509H47.8052V43.283Z" fill="#5A7BFF" fill-opacity="0.5"/>
<path d="M52.4184 65.5737H24.4336V67.1498H52.4184V65.5737Z" fill="#5A7BFF" fill-opacity="0.5"/>
<path d="M124.811 73.0007H49.7421V74.5768H124.811V73.0007Z" fill="#5A7BFF" fill-opacity="0.5"/>
<path d="M45.4675 73.0007H24.4336V74.5768H45.4675V73.0007Z" fill="#5A7BFF" fill-opacity="0.8"/>
<path d="M136.679 50.718H55.793V52.294H136.679V50.718Z" fill="#5A7BFF" fill-opacity="0.5"/>
<path d="M131.502 43.283H50.6484V44.8509H131.502V43.283Z" fill="#5A7BFF"/>
<path d="M14.2356 50.718H9.5V52.294H14.2356V50.718Z" fill="#5A7BFF" fill-opacity="0.5"/>
<path d="M14.2356 58.1458H9.5V59.7137H14.2356V58.1458Z" fill="#5A7BFF" fill-opacity="0.5"/>
<path d="M14.2356 65.5737H9.5V67.1498H14.2356V65.5737Z" fill="#5A7BFF" fill-opacity="0.8"/>
<path d="M14.2356 73.001H9.5V74.577H14.2356V73.001Z" fill="#5A7BFF" fill-opacity="0.5"/>
<path d="M103.016 124.315H79.1328V125.891H103.016V124.315Z" fill="#5A7BFF"/>
<path d="M123.38 116.887H19.8203V118.463H123.38V116.887Z" fill="#5A7BFF"/>
<path d="M135.679 87.177H62.3203V88.753H135.679V87.177Z" fill="#5A7BFF" fill-opacity="0.5"/>
<path d="M124.777 79.75H79.5312V81.3179H124.777V79.75Z" fill="#5A7BFF" fill-opacity="0.8"/>
<path d="M14.2356 79.75H9.5V81.3179H14.2356V79.75Z" fill="#5A7BFF" fill-opacity="0.5"/>
<path d="M75.3374 79.75H19.8203V81.3179H75.3374V79.75Z" fill="#5A7BFF" fill-opacity="0.5"/>
<path d="M14.2356 87.177H9.5V88.753H14.2356V87.177Z" fill="#5A7BFF" fill-opacity="0.5"/>
<path d="M60.0793 87.177H24.4336V88.753H60.0793V87.177Z" fill="#5A7BFF" fill-opacity="0.8"/>
<path d="M53.8652 109.46H19.8203V111.028H53.8652V109.46Z" fill="#5A7BFF" fill-opacity="0.8"/>
<path d="M48.3165 94.6047H24.4336V96.1808H48.3165V94.6047Z" fill="#5A7BFF"/>
<path d="M139.754 94.6047H50.9688V96.1808H139.754V94.6047Z" fill="#5A7BFF" fill-opacity="0.8"/>
<path d="M14.2356 94.6047H9.5V96.1808H14.2356V94.6047Z" fill="#5A7BFF" fill-opacity="0.5"/>
<path d="M14.2356 102.032H9.5V103.608H14.2356V102.032Z" fill="#5A7BFF" fill-opacity="0.8"/>
<path d="M47.8052 102.032H19.8203V103.608H47.8052V102.032Z" fill="#5A7BFF" fill-opacity="0.5"/>
<path d="M136.679 109.46H55.793V111.028H136.679V109.46Z" fill="#5A7BFF" fill-opacity="0.5"/>
<path d="M131.502 102.032H50.6484V103.608H131.502V102.032Z" fill="#5A7BFF"/>
<path d="M14.2356 109.46H9.5V111.028H14.2356V109.46Z" fill="#5A7BFF" fill-opacity="0.5"/>
<path d="M14.2356 124.315H9.5V125.891H14.2356V124.315Z" fill="#5A7BFF" fill-opacity="0.5"/>
<path d="M75.3374 124.315H19.8203V125.891H75.3374V124.315Z" fill="#5A7BFF" fill-opacity="0.5"/>
<path d="M14.2356 131.742H9.5V133.318H14.2356V131.742Z" fill="#5A7BFF" fill-opacity="0.5"/>
<path d="M60.0793 131.742H24.4336V133.318H60.0793V131.742Z" fill="#5A7BFF" fill-opacity="0.8"/>
<path d="M13.2372 13.355C13.4554 13.5813 13.4554 13.9208 13.2372 14.1309C13.124 14.236 12.9947 14.2845 12.8573 14.2845C12.7118 14.2845 12.5745 14.236 12.4613 14.1309L10.0286 11.6659C10.0286 11.6659 9.99623 11.6416 9.98815 11.6174C9.98007 11.6093 9.9639 11.6012 9.9639 11.6012C9.94774 11.577 9.94774 11.5608 9.93966 11.5285C9.92349 11.5204 9.91541 11.5042 9.91541 11.4961C9.90733 11.48 9.90733 11.4557 9.89925 11.4477C9.89925 11.4234 9.88308 11.4153 9.88308 11.4072V11.3507C9.88308 11.3507 9.875 11.3264 9.875 11.3022C9.875 11.2941 9.88308 11.2698 9.88308 11.2618V11.2052C9.88308 11.2052 9.89925 11.1809 9.89925 11.1729C9.90733 11.1486 9.90733 11.1324 9.91541 11.1001C9.91541 11.092 9.92349 11.092 9.92349 11.084C9.93966 11.0597 9.94774 11.0193 9.9639 11.0031C9.9639 11.0031 9.9639 10.987 9.98007 10.987C9.98815 10.9708 10.0043 10.9466 10.0286 10.9304L12.4613 8.43299C12.6795 8.22286 13.0351 8.22286 13.2372 8.43299C13.4554 8.65121 13.4554 8.99875 13.2372 9.20888L11.1843 11.2779L13.2372 13.347V13.355Z" fill="#5A7BFF"/>
<path d="M15.4415 13.6298L17.559 8.57841C17.6641 8.33594 17.9389 8.22279 18.1894 8.32786C18.4238 8.42484 18.537 8.70772 18.4319 8.9421L16.3144 14.0016C16.2336 14.1794 16.0557 14.2844 15.8699 14.2844C15.8214 14.2844 15.7486 14.2764 15.7001 14.2521C15.4496 14.1551 15.3364 13.8722 15.4415 13.6298Z" fill="#5A7BFF"/>
<path d="M22.6286 11.5931C22.6286 11.5931 22.6286 11.6012 22.6205 11.6012C22.6044 11.6174 22.5882 11.6416 22.5559 11.6658L20.1231 14.1309C20.0181 14.236 19.8726 14.2845 19.7352 14.2845C19.5897 14.2845 19.4604 14.236 19.3473 14.1309C19.129 13.9127 19.129 13.5732 19.3473 13.355L21.4001 11.286L19.3473 9.21694C19.129 8.99872 19.129 8.65119 19.3473 8.44105C19.5574 8.23091 19.913 8.23091 20.1231 8.44105L22.5559 10.9061C22.5559 10.9061 22.5963 10.9465 22.6205 10.9627C22.6286 10.9627 22.6286 10.9789 22.6286 10.9789C22.6448 11.0112 22.661 11.0274 22.669 11.0597C22.669 11.0678 22.6771 11.0678 22.6771 11.0758C22.6852 11.1001 22.6852 11.1163 22.7014 11.1567C22.7014 11.1647 22.7095 11.1647 22.7095 11.1809V11.2375C22.7095 11.2375 22.7175 11.2698 22.7175 11.2779C22.7175 11.286 22.7095 11.3102 22.7095 11.3183V11.391C22.7095 11.391 22.7014 11.3991 22.7014 11.4072C22.6852 11.4395 22.6852 11.4638 22.6771 11.488C22.6771 11.4961 22.669 11.4961 22.669 11.5123C22.661 11.5284 22.6448 11.5527 22.6286 11.5931Z" fill="#5A7BFF"/>
</g>
</g>
</g>
</g>
<defs>
<clipPath id="clip0_15_3794">
<rect width="111" height="139" fill="white"/>
</clipPath>
<clipPath id="clip1_15_3794">
<rect width="111" height="141" fill="white" transform="translate(-0.5)"/>
</clipPath>
<clipPath id="clip2_15_3794">
<rect width="112" height="141" fill="white" transform="translate(-0.5)"/>
</clipPath>
<clipPath id="clip3_15_3794">
<rect width="177" height="178.616" fill="white" transform="translate(9.5 8)"/>
</clipPath>
</defs>
</svg>
