<svg width="449" height="295" viewBox="0 0 449 295" fill="none" xmlns="http://www.w3.org/2000/svg">
<g clip-path="url(#clip0_510_9149)">
<g clip-path="url(#clip1_510_9149)">
<g opacity="0.5">
<rect x="125.113" y="109.53" width="198.773" height="105.521" rx="31.2883" fill="#0C0B13"/>
<rect x="125.113" y="109.53" width="198.773" height="105.521" rx="31.2883" stroke="#D9D9D9" stroke-width="1.22699"/>
<rect x="125.113" y="109.53" width="198.773" height="105.521" rx="31.2883" stroke="#2A2831" stroke-width="1.22699"/>
</g>
<rect x="27" y="224" width="98" height="40" rx="10" fill="#15121B"/>
<rect x="27" y="224" width="98" height="40" rx="10" fill="#2C263A"/>
<rect x="27.5" y="224.5" width="97" height="39" rx="9.5" stroke="#EADEFF" stroke-opacity="0.12"/>
<rect x="27.5" y="224.5" width="97" height="39" rx="9.5" stroke="#A36BFF" stroke-opacity="0.4"/>
<rect x="31" y="228" width="32" height="32" rx="6" fill="#EADEFF" fill-opacity="0.12"/>
<path d="M47.0795 248.136C46.4659 248.136 45.9375 247.991 45.4943 247.702C45.0511 247.412 44.7102 247.013 44.4716 246.504C44.233 245.996 44.1136 245.415 44.1136 244.761C44.1136 244.097 44.2358 243.51 44.4801 243.001C44.7273 242.49 45.071 242.091 45.5114 241.804C45.9545 241.514 46.4716 241.369 47.0625 241.369C47.5227 241.369 47.9375 241.455 48.3068 241.625C48.6761 241.795 48.9787 242.034 49.2145 242.341C49.4503 242.648 49.5966 243.006 49.6534 243.415H48.6477C48.571 243.116 48.4006 242.852 48.1364 242.622C47.875 242.389 47.5227 242.273 47.0795 242.273C46.6875 242.273 46.3438 242.375 46.0483 242.58C45.7557 242.781 45.527 243.067 45.3622 243.436C45.2003 243.803 45.1193 244.233 45.1193 244.727C45.1193 245.233 45.1989 245.673 45.358 246.048C45.5199 246.423 45.7472 246.714 46.0398 246.922C46.3352 247.129 46.6818 247.233 47.0795 247.233C47.3409 247.233 47.5781 247.188 47.7912 247.097C48.0043 247.006 48.1847 246.875 48.3324 246.705C48.4801 246.534 48.5852 246.33 48.6477 246.091H49.6534C49.5966 246.477 49.456 246.825 49.2315 247.135C49.0099 247.442 48.7159 247.686 48.3494 247.868C47.9858 248.047 47.5625 248.136 47.0795 248.136Z" fill="white"/>
<path d="M47.0795 248.136C46.4659 248.136 45.9375 247.991 45.4943 247.702C45.0511 247.412 44.7102 247.013 44.4716 246.504C44.233 245.996 44.1136 245.415 44.1136 244.761C44.1136 244.097 44.2358 243.51 44.4801 243.001C44.7273 242.49 45.071 242.091 45.5114 241.804C45.9545 241.514 46.4716 241.369 47.0625 241.369C47.5227 241.369 47.9375 241.455 48.3068 241.625C48.6761 241.795 48.9787 242.034 49.2145 242.341C49.4503 242.648 49.5966 243.006 49.6534 243.415H48.6477C48.571 243.116 48.4006 242.852 48.1364 242.622C47.875 242.389 47.5227 242.273 47.0795 242.273C46.6875 242.273 46.3438 242.375 46.0483 242.58C45.7557 242.781 45.527 243.067 45.3622 243.436C45.2003 243.803 45.1193 244.233 45.1193 244.727C45.1193 245.233 45.1989 245.673 45.358 246.048C45.5199 246.423 45.7472 246.714 46.0398 246.922C46.3352 247.129 46.6818 247.233 47.0795 247.233C47.3409 247.233 47.5781 247.188 47.7912 247.097C48.0043 247.006 48.1847 246.875 48.3324 246.705C48.4801 246.534 48.5852 246.33 48.6477 246.091H49.6534C49.5966 246.477 49.456 246.825 49.2315 247.135C49.0099 247.442 48.7159 247.686 48.3494 247.868C47.9858 248.047 47.5625 248.136 47.0795 248.136Z" fill="#E9DDED"/>
<g opacity="0.4">
<path d="M68.0568 248V239.273H71.0057C71.6903 239.273 72.25 239.396 72.6847 239.643C73.1222 239.888 73.446 240.219 73.6562 240.636C73.8665 241.054 73.9716 241.52 73.9716 242.034C73.9716 242.548 73.8665 243.016 73.6562 243.436C73.4489 243.857 73.1278 244.192 72.6932 244.442C72.2585 244.689 71.7017 244.812 71.0227 244.812H68.9091V243.875H70.9886C71.4574 243.875 71.8338 243.794 72.1179 243.632C72.402 243.47 72.608 243.251 72.7358 242.976C72.8665 242.697 72.9318 242.384 72.9318 242.034C72.9318 241.685 72.8665 241.372 72.7358 241.097C72.608 240.821 72.4006 240.605 72.1136 240.449C71.8267 240.29 71.446 240.21 70.9716 240.21H69.1136V248H68.0568ZM75.4176 248V241.455H76.3892V242.443H76.4574C76.5767 242.119 76.7926 241.857 77.1051 241.655C77.4176 241.453 77.7699 241.352 78.162 241.352C78.2358 241.352 78.3282 241.354 78.4389 241.357C78.5497 241.359 78.6336 241.364 78.6904 241.369V242.392C78.6563 242.384 78.5782 242.371 78.456 242.354C78.3367 242.334 78.2103 242.324 78.0767 242.324C77.7586 242.324 77.4745 242.391 77.2245 242.524C76.9773 242.655 76.7813 242.837 76.6364 243.07C76.4943 243.3 76.4233 243.562 76.4233 243.858V248H75.4176ZM82.2224 248.136C81.6314 248.136 81.113 247.996 80.667 247.714C80.2238 247.433 79.8772 247.04 79.6272 246.534C79.38 246.028 79.2564 245.437 79.2564 244.761C79.2564 244.08 79.38 243.484 79.6272 242.976C79.8772 242.467 80.2238 242.072 80.667 241.791C81.113 241.51 81.6314 241.369 82.2224 241.369C82.8133 241.369 83.3303 241.51 83.7735 241.791C84.2195 242.072 84.5661 242.467 84.8133 242.976C85.0633 243.484 85.1883 244.08 85.1883 244.761C85.1883 245.437 85.0633 246.028 84.8133 246.534C84.5661 247.04 84.2195 247.433 83.7735 247.714C83.3303 247.996 82.8133 248.136 82.2224 248.136ZM82.2224 247.233C82.6712 247.233 83.0405 247.118 83.3303 246.888C83.6201 246.658 83.8346 246.355 83.9738 245.98C84.113 245.605 84.1826 245.199 84.1826 244.761C84.1826 244.324 84.113 243.916 83.9738 243.538C83.8346 243.161 83.6201 242.855 83.3303 242.622C83.0405 242.389 82.6712 242.273 82.2224 242.273C81.7735 242.273 81.4042 242.389 81.1144 242.622C80.8246 242.855 80.6101 243.161 80.4709 243.538C80.3317 243.916 80.2621 244.324 80.2621 244.761C80.2621 245.199 80.3317 245.605 80.4709 245.98C80.6101 246.355 80.8246 246.658 81.1144 246.888C81.4042 247.118 81.7735 247.233 82.2224 247.233ZM86.6034 241.455H87.6091V248.477C87.6091 248.881 87.5395 249.23 87.4003 249.526C87.2639 249.821 87.0565 250.05 86.7781 250.212C86.5026 250.374 86.1546 250.455 85.7341 250.455C85.7 250.455 85.6659 250.455 85.6318 250.455C85.5977 250.455 85.5636 250.455 85.5296 250.455V249.517C85.5636 249.517 85.5949 249.517 85.6233 249.517C85.6517 249.517 85.683 249.517 85.7171 249.517C86.0239 249.517 86.2483 249.426 86.3904 249.244C86.5324 249.065 86.6034 248.81 86.6034 248.477V241.455ZM87.0977 240.364C86.9017 240.364 86.7327 240.297 86.5906 240.163C86.4514 240.03 86.3818 239.869 86.3818 239.682C86.3818 239.494 86.4514 239.334 86.5906 239.2C86.7327 239.067 86.9017 239 87.0977 239C87.2938 239 87.4614 239.067 87.6006 239.2C87.7426 239.334 87.8137 239.494 87.8137 239.682C87.8137 239.869 87.7426 240.03 87.6006 240.163C87.4614 240.297 87.2938 240.364 87.0977 240.364ZM92.0754 248.136C91.4447 248.136 90.9007 247.997 90.4433 247.719C89.9888 247.438 89.6379 247.045 89.3907 246.543C89.1464 246.037 89.0243 245.449 89.0243 244.778C89.0243 244.108 89.1464 243.517 89.3907 243.006C89.6379 242.491 89.9816 242.091 90.422 241.804C90.8652 241.514 91.3822 241.369 91.9731 241.369C92.314 241.369 92.6507 241.426 92.9831 241.54C93.3155 241.653 93.618 241.838 93.8907 242.094C94.1635 242.347 94.3808 242.682 94.5427 243.099C94.7047 243.517 94.7856 244.031 94.7856 244.642V245.068H89.7402V244.199H93.7629C93.7629 243.83 93.689 243.5 93.5413 243.21C93.3964 242.92 93.189 242.692 92.9191 242.524C92.6521 242.357 92.3368 242.273 91.9731 242.273C91.5726 242.273 91.226 242.372 90.9334 242.571C90.6436 242.767 90.4206 243.023 90.2643 243.338C90.1081 243.653 90.0299 243.991 90.0299 244.352V244.932C90.0299 245.426 90.1152 245.845 90.2856 246.189C90.4589 246.53 90.699 246.79 91.0058 246.969C91.3126 247.145 91.6691 247.233 92.0754 247.233C92.3396 247.233 92.5782 247.196 92.7913 247.122C93.0072 247.045 93.1933 246.932 93.3495 246.781C93.5058 246.628 93.6265 246.437 93.7118 246.21L94.6834 246.483C94.5811 246.812 94.4092 247.102 94.1677 247.352C93.9263 247.599 93.628 247.793 93.2728 247.932C92.9177 248.068 92.5186 248.136 92.0754 248.136ZM98.8545 248.136C98.2409 248.136 97.7125 247.991 97.2693 247.702C96.8261 247.412 96.4852 247.013 96.2466 246.504C96.008 245.996 95.8886 245.415 95.8886 244.761C95.8886 244.097 96.0108 243.51 96.2551 243.001C96.5023 242.49 96.846 242.091 97.2864 241.804C97.7295 241.514 98.2466 241.369 98.8375 241.369C99.2977 241.369 99.7125 241.455 100.082 241.625C100.451 241.795 100.754 242.034 100.989 242.341C101.225 242.648 101.372 243.006 101.428 243.415H100.423C100.346 243.116 100.176 242.852 99.9114 242.622C99.65 242.389 99.2977 242.273 98.8545 242.273C98.4625 242.273 98.1187 242.375 97.8233 242.58C97.5307 242.781 97.302 243.067 97.1372 243.436C96.9753 243.803 96.8943 244.233 96.8943 244.727C96.8943 245.233 96.9739 245.673 97.133 246.048C97.2949 246.423 97.5222 246.714 97.8148 246.922C98.1102 247.129 98.4568 247.233 98.8545 247.233C99.1159 247.233 99.3531 247.188 99.5662 247.097C99.7793 247.006 99.9597 246.875 100.107 246.705C100.255 246.534 100.36 246.33 100.423 246.091H101.428C101.372 246.477 101.231 246.825 101.007 247.135C100.785 247.442 100.491 247.686 100.124 247.868C99.7608 248.047 99.3375 248.136 98.8545 248.136ZM105.625 241.455V242.307H102.233V241.455H105.625ZM103.222 239.886H104.227V246.125C104.227 246.409 104.269 246.622 104.351 246.764C104.436 246.903 104.544 246.997 104.675 247.045C104.808 247.091 104.949 247.114 105.097 247.114C105.208 247.114 105.298 247.108 105.369 247.097C105.441 247.082 105.497 247.071 105.54 247.062L105.744 247.966C105.676 247.991 105.581 248.017 105.459 248.043C105.337 248.071 105.182 248.085 104.994 248.085C104.71 248.085 104.432 248.024 104.159 247.902C103.889 247.78 103.665 247.594 103.486 247.344C103.31 247.094 103.222 246.778 103.222 246.398V239.886ZM117.432 242H116.375C116.313 241.696 116.203 241.429 116.047 241.199C115.894 240.969 115.706 240.776 115.485 240.619C115.266 240.46 115.023 240.341 114.756 240.261C114.489 240.182 114.21 240.142 113.921 240.142C113.392 240.142 112.914 240.276 112.485 240.543C112.058 240.81 111.719 241.203 111.466 241.723C111.216 242.243 111.091 242.881 111.091 243.636C111.091 244.392 111.216 245.03 111.466 245.55C111.719 246.07 112.058 246.463 112.485 246.73C112.914 246.997 113.392 247.131 113.921 247.131C114.21 247.131 114.489 247.091 114.756 247.011C115.023 246.932 115.266 246.814 115.485 246.658C115.706 246.499 115.894 246.304 116.047 246.074C116.203 245.841 116.313 245.574 116.375 245.273H117.432C117.353 245.719 117.208 246.118 116.997 246.47C116.787 246.822 116.526 247.122 116.213 247.369C115.901 247.614 115.55 247.8 115.161 247.928C114.774 248.055 114.361 248.119 113.921 248.119C113.176 248.119 112.514 247.938 111.935 247.574C111.355 247.21 110.899 246.693 110.567 246.023C110.235 245.352 110.068 244.557 110.068 243.636C110.068 242.716 110.235 241.92 110.567 241.25C110.899 240.58 111.355 240.062 111.935 239.699C112.514 239.335 113.176 239.153 113.921 239.153C114.361 239.153 114.774 239.217 115.161 239.345C115.55 239.473 115.901 239.661 116.213 239.908C116.526 240.152 116.787 240.45 116.997 240.803C117.208 241.152 117.353 241.551 117.432 242Z" fill="white"/>
<path d="M68.0568 248V239.273H71.0057C71.6903 239.273 72.25 239.396 72.6847 239.643C73.1222 239.888 73.446 240.219 73.6562 240.636C73.8665 241.054 73.9716 241.52 73.9716 242.034C73.9716 242.548 73.8665 243.016 73.6562 243.436C73.4489 243.857 73.1278 244.192 72.6932 244.442C72.2585 244.689 71.7017 244.812 71.0227 244.812H68.9091V243.875H70.9886C71.4574 243.875 71.8338 243.794 72.1179 243.632C72.402 243.47 72.608 243.251 72.7358 242.976C72.8665 242.697 72.9318 242.384 72.9318 242.034C72.9318 241.685 72.8665 241.372 72.7358 241.097C72.608 240.821 72.4006 240.605 72.1136 240.449C71.8267 240.29 71.446 240.21 70.9716 240.21H69.1136V248H68.0568ZM75.4176 248V241.455H76.3892V242.443H76.4574C76.5767 242.119 76.7926 241.857 77.1051 241.655C77.4176 241.453 77.7699 241.352 78.162 241.352C78.2358 241.352 78.3282 241.354 78.4389 241.357C78.5497 241.359 78.6336 241.364 78.6904 241.369V242.392C78.6563 242.384 78.5782 242.371 78.456 242.354C78.3367 242.334 78.2103 242.324 78.0767 242.324C77.7586 242.324 77.4745 242.391 77.2245 242.524C76.9773 242.655 76.7813 242.837 76.6364 243.07C76.4943 243.3 76.4233 243.562 76.4233 243.858V248H75.4176ZM82.2224 248.136C81.6314 248.136 81.113 247.996 80.667 247.714C80.2238 247.433 79.8772 247.04 79.6272 246.534C79.38 246.028 79.2564 245.437 79.2564 244.761C79.2564 244.08 79.38 243.484 79.6272 242.976C79.8772 242.467 80.2238 242.072 80.667 241.791C81.113 241.51 81.6314 241.369 82.2224 241.369C82.8133 241.369 83.3303 241.51 83.7735 241.791C84.2195 242.072 84.5661 242.467 84.8133 242.976C85.0633 243.484 85.1883 244.08 85.1883 244.761C85.1883 245.437 85.0633 246.028 84.8133 246.534C84.5661 247.04 84.2195 247.433 83.7735 247.714C83.3303 247.996 82.8133 248.136 82.2224 248.136ZM82.2224 247.233C82.6712 247.233 83.0405 247.118 83.3303 246.888C83.6201 246.658 83.8346 246.355 83.9738 245.98C84.113 245.605 84.1826 245.199 84.1826 244.761C84.1826 244.324 84.113 243.916 83.9738 243.538C83.8346 243.161 83.6201 242.855 83.3303 242.622C83.0405 242.389 82.6712 242.273 82.2224 242.273C81.7735 242.273 81.4042 242.389 81.1144 242.622C80.8246 242.855 80.6101 243.161 80.4709 243.538C80.3317 243.916 80.2621 244.324 80.2621 244.761C80.2621 245.199 80.3317 245.605 80.4709 245.98C80.6101 246.355 80.8246 246.658 81.1144 246.888C81.4042 247.118 81.7735 247.233 82.2224 247.233ZM86.6034 241.455H87.6091V248.477C87.6091 248.881 87.5395 249.23 87.4003 249.526C87.2639 249.821 87.0565 250.05 86.7781 250.212C86.5026 250.374 86.1546 250.455 85.7341 250.455C85.7 250.455 85.6659 250.455 85.6318 250.455C85.5977 250.455 85.5636 250.455 85.5296 250.455V249.517C85.5636 249.517 85.5949 249.517 85.6233 249.517C85.6517 249.517 85.683 249.517 85.7171 249.517C86.0239 249.517 86.2483 249.426 86.3904 249.244C86.5324 249.065 86.6034 248.81 86.6034 248.477V241.455ZM87.0977 240.364C86.9017 240.364 86.7327 240.297 86.5906 240.163C86.4514 240.03 86.3818 239.869 86.3818 239.682C86.3818 239.494 86.4514 239.334 86.5906 239.2C86.7327 239.067 86.9017 239 87.0977 239C87.2938 239 87.4614 239.067 87.6006 239.2C87.7426 239.334 87.8137 239.494 87.8137 239.682C87.8137 239.869 87.7426 240.03 87.6006 240.163C87.4614 240.297 87.2938 240.364 87.0977 240.364ZM92.0754 248.136C91.4447 248.136 90.9007 247.997 90.4433 247.719C89.9888 247.438 89.6379 247.045 89.3907 246.543C89.1464 246.037 89.0243 245.449 89.0243 244.778C89.0243 244.108 89.1464 243.517 89.3907 243.006C89.6379 242.491 89.9816 242.091 90.422 241.804C90.8652 241.514 91.3822 241.369 91.9731 241.369C92.314 241.369 92.6507 241.426 92.9831 241.54C93.3155 241.653 93.618 241.838 93.8907 242.094C94.1635 242.347 94.3808 242.682 94.5427 243.099C94.7047 243.517 94.7856 244.031 94.7856 244.642V245.068H89.7402V244.199H93.7629C93.7629 243.83 93.689 243.5 93.5413 243.21C93.3964 242.92 93.189 242.692 92.9191 242.524C92.6521 242.357 92.3368 242.273 91.9731 242.273C91.5726 242.273 91.226 242.372 90.9334 242.571C90.6436 242.767 90.4206 243.023 90.2643 243.338C90.1081 243.653 90.0299 243.991 90.0299 244.352V244.932C90.0299 245.426 90.1152 245.845 90.2856 246.189C90.4589 246.53 90.699 246.79 91.0058 246.969C91.3126 247.145 91.6691 247.233 92.0754 247.233C92.3396 247.233 92.5782 247.196 92.7913 247.122C93.0072 247.045 93.1933 246.932 93.3495 246.781C93.5058 246.628 93.6265 246.437 93.7118 246.21L94.6834 246.483C94.5811 246.812 94.4092 247.102 94.1677 247.352C93.9263 247.599 93.628 247.793 93.2728 247.932C92.9177 248.068 92.5186 248.136 92.0754 248.136ZM98.8545 248.136C98.2409 248.136 97.7125 247.991 97.2693 247.702C96.8261 247.412 96.4852 247.013 96.2466 246.504C96.008 245.996 95.8886 245.415 95.8886 244.761C95.8886 244.097 96.0108 243.51 96.2551 243.001C96.5023 242.49 96.846 242.091 97.2864 241.804C97.7295 241.514 98.2466 241.369 98.8375 241.369C99.2977 241.369 99.7125 241.455 100.082 241.625C100.451 241.795 100.754 242.034 100.989 242.341C101.225 242.648 101.372 243.006 101.428 243.415H100.423C100.346 243.116 100.176 242.852 99.9114 242.622C99.65 242.389 99.2977 242.273 98.8545 242.273C98.4625 242.273 98.1187 242.375 97.8233 242.58C97.5307 242.781 97.302 243.067 97.1372 243.436C96.9753 243.803 96.8943 244.233 96.8943 244.727C96.8943 245.233 96.9739 245.673 97.133 246.048C97.2949 246.423 97.5222 246.714 97.8148 246.922C98.1102 247.129 98.4568 247.233 98.8545 247.233C99.1159 247.233 99.3531 247.188 99.5662 247.097C99.7793 247.006 99.9597 246.875 100.107 246.705C100.255 246.534 100.36 246.33 100.423 246.091H101.428C101.372 246.477 101.231 246.825 101.007 247.135C100.785 247.442 100.491 247.686 100.124 247.868C99.7608 248.047 99.3375 248.136 98.8545 248.136ZM105.625 241.455V242.307H102.233V241.455H105.625ZM103.222 239.886H104.227V246.125C104.227 246.409 104.269 246.622 104.351 246.764C104.436 246.903 104.544 246.997 104.675 247.045C104.808 247.091 104.949 247.114 105.097 247.114C105.208 247.114 105.298 247.108 105.369 247.097C105.441 247.082 105.497 247.071 105.54 247.062L105.744 247.966C105.676 247.991 105.581 248.017 105.459 248.043C105.337 248.071 105.182 248.085 104.994 248.085C104.71 248.085 104.432 248.024 104.159 247.902C103.889 247.78 103.665 247.594 103.486 247.344C103.31 247.094 103.222 246.778 103.222 246.398V239.886ZM117.432 242H116.375C116.313 241.696 116.203 241.429 116.047 241.199C115.894 240.969 115.706 240.776 115.485 240.619C115.266 240.46 115.023 240.341 114.756 240.261C114.489 240.182 114.21 240.142 113.921 240.142C113.392 240.142 112.914 240.276 112.485 240.543C112.058 240.81 111.719 241.203 111.466 241.723C111.216 242.243 111.091 242.881 111.091 243.636C111.091 244.392 111.216 245.03 111.466 245.55C111.719 246.07 112.058 246.463 112.485 246.73C112.914 246.997 113.392 247.131 113.921 247.131C114.21 247.131 114.489 247.091 114.756 247.011C115.023 246.932 115.266 246.814 115.485 246.658C115.706 246.499 115.894 246.304 116.047 246.074C116.203 245.841 116.313 245.574 116.375 245.273H117.432C117.353 245.719 117.208 246.118 116.997 246.47C116.787 246.822 116.526 247.122 116.213 247.369C115.901 247.614 115.55 247.8 115.161 247.928C114.774 248.055 114.361 248.119 113.921 248.119C113.176 248.119 112.514 247.938 111.935 247.574C111.355 247.21 110.899 246.693 110.567 246.023C110.235 245.352 110.068 244.557 110.068 243.636C110.068 242.716 110.235 241.92 110.567 241.25C110.899 240.58 111.355 240.062 111.935 239.699C112.514 239.335 113.176 239.153 113.921 239.153C114.361 239.153 114.774 239.217 115.161 239.345C115.55 239.473 115.901 239.661 116.213 239.908C116.526 240.152 116.787 240.45 116.997 240.803C117.208 241.152 117.353 241.551 117.432 242Z" fill="#E0D5F4"/>
</g>
<rect x="322" y="225" width="98" height="40" rx="10" fill="#15121B"/>
<rect x="322" y="225" width="98" height="40" rx="10" fill="#2C263A"/>
<rect x="322.5" y="225.5" width="97" height="39" rx="9.5" stroke="#EADEFF" stroke-opacity="0.12"/>
<rect x="322.5" y="225.5" width="97" height="39" rx="9.5" stroke="#A36BFF" stroke-opacity="0.4"/>
<rect x="326" y="229" width="32" height="32" rx="6" fill="#EADEFF" fill-opacity="0.12"/>
<path d="M341.25 249H338.557V240.273H341.369C342.216 240.273 342.94 240.447 343.543 240.797C344.145 241.143 344.607 241.642 344.928 242.293C345.249 242.94 345.409 243.716 345.409 244.619C345.409 245.528 345.247 246.311 344.923 246.967C344.599 247.621 344.128 248.124 343.509 248.476C342.889 248.825 342.136 249 341.25 249ZM339.614 248.062H341.182C341.903 248.062 342.501 247.923 342.976 247.645C343.45 247.366 343.804 246.97 344.037 246.456C344.27 245.942 344.386 245.33 344.386 244.619C344.386 243.915 344.271 243.308 344.041 242.8C343.811 242.288 343.467 241.896 343.01 241.624C342.553 241.348 341.983 241.21 341.301 241.21H339.614V248.062Z" fill="white"/>
<path d="M341.25 249H338.557V240.273H341.369C342.216 240.273 342.94 240.447 343.543 240.797C344.145 241.143 344.607 241.642 344.928 242.293C345.249 242.94 345.409 243.716 345.409 244.619C345.409 245.528 345.247 246.311 344.923 246.967C344.599 247.621 344.128 248.124 343.509 248.476C342.889 248.825 342.136 249 341.25 249ZM339.614 248.062H341.182C341.903 248.062 342.501 247.923 342.976 247.645C343.45 247.366 343.804 246.97 344.037 246.456C344.27 245.942 344.386 245.33 344.386 244.619C344.386 243.915 344.271 243.308 344.041 242.8C343.811 242.288 343.467 241.896 343.01 241.624C342.553 241.348 341.983 241.21 341.301 241.21H339.614V248.062Z" fill="#E9DDED"/>
<g opacity="0.4">
<path d="M363.057 249V240.273H366.006C366.69 240.273 367.25 240.396 367.685 240.643C368.122 240.888 368.446 241.219 368.656 241.636C368.866 242.054 368.972 242.52 368.972 243.034C368.972 243.548 368.866 244.016 368.656 244.436C368.449 244.857 368.128 245.192 367.693 245.442C367.259 245.689 366.702 245.812 366.023 245.812H363.909V244.875H365.989C366.457 244.875 366.834 244.794 367.118 244.632C367.402 244.47 367.608 244.251 367.736 243.976C367.866 243.697 367.932 243.384 367.932 243.034C367.932 242.685 367.866 242.372 367.736 242.097C367.608 241.821 367.401 241.605 367.114 241.449C366.827 241.29 366.446 241.21 365.972 241.21H364.114V249H363.057ZM370.418 249V242.455H371.389V243.443H371.457C371.577 243.119 371.793 242.857 372.105 242.655C372.418 242.453 372.77 242.352 373.162 242.352C373.236 242.352 373.328 242.354 373.439 242.357C373.55 242.359 373.634 242.364 373.69 242.369V243.392C373.656 243.384 373.578 243.371 373.456 243.354C373.337 243.334 373.21 243.324 373.077 243.324C372.759 243.324 372.474 243.391 372.224 243.524C371.977 243.655 371.781 243.837 371.636 244.07C371.494 244.3 371.423 244.562 371.423 244.858V249H370.418ZM377.222 249.136C376.631 249.136 376.113 248.996 375.667 248.714C375.224 248.433 374.877 248.04 374.627 247.534C374.38 247.028 374.256 246.437 374.256 245.761C374.256 245.08 374.38 244.484 374.627 243.976C374.877 243.467 375.224 243.072 375.667 242.791C376.113 242.51 376.631 242.369 377.222 242.369C377.813 242.369 378.33 242.51 378.773 242.791C379.22 243.072 379.566 243.467 379.813 243.976C380.063 244.484 380.188 245.08 380.188 245.761C380.188 246.437 380.063 247.028 379.813 247.534C379.566 248.04 379.22 248.433 378.773 248.714C378.33 248.996 377.813 249.136 377.222 249.136ZM377.222 248.233C377.671 248.233 378.041 248.118 378.33 247.888C378.62 247.658 378.835 247.355 378.974 246.98C379.113 246.605 379.183 246.199 379.183 245.761C379.183 245.324 379.113 244.916 378.974 244.538C378.835 244.161 378.62 243.855 378.33 243.622C378.041 243.389 377.671 243.273 377.222 243.273C376.773 243.273 376.404 243.389 376.114 243.622C375.825 243.855 375.61 244.161 375.471 244.538C375.332 244.916 375.262 245.324 375.262 245.761C375.262 246.199 375.332 246.605 375.471 246.98C375.61 247.355 375.825 247.658 376.114 247.888C376.404 248.118 376.773 248.233 377.222 248.233ZM381.603 242.455H382.609V249.477C382.609 249.881 382.54 250.23 382.4 250.526C382.264 250.821 382.057 251.05 381.778 251.212C381.503 251.374 381.155 251.455 380.734 251.455C380.7 251.455 380.666 251.455 380.632 251.455C380.598 251.455 380.564 251.455 380.53 251.455V250.517C380.564 250.517 380.595 250.517 380.623 250.517C380.652 250.517 380.683 250.517 380.717 250.517C381.024 250.517 381.248 250.426 381.39 250.244C381.532 250.065 381.603 249.81 381.603 249.477V242.455ZM382.098 241.364C381.902 241.364 381.733 241.297 381.591 241.163C381.451 241.03 381.382 240.869 381.382 240.682C381.382 240.494 381.451 240.334 381.591 240.2C381.733 240.067 381.902 240 382.098 240C382.294 240 382.461 240.067 382.601 240.2C382.743 240.334 382.814 240.494 382.814 240.682C382.814 240.869 382.743 241.03 382.601 241.163C382.461 241.297 382.294 241.364 382.098 241.364ZM387.075 249.136C386.445 249.136 385.901 248.997 385.443 248.719C384.989 248.438 384.638 248.045 384.391 247.543C384.146 247.037 384.024 246.449 384.024 245.778C384.024 245.108 384.146 244.517 384.391 244.006C384.638 243.491 384.982 243.091 385.422 242.804C385.865 242.514 386.382 242.369 386.973 242.369C387.314 242.369 387.651 242.426 387.983 242.54C388.315 242.653 388.618 242.838 388.891 243.094C389.163 243.347 389.381 243.682 389.543 244.099C389.705 244.517 389.786 245.031 389.786 245.642V246.068H384.74V245.199H388.763C388.763 244.83 388.689 244.5 388.541 244.21C388.396 243.92 388.189 243.692 387.919 243.524C387.652 243.357 387.337 243.273 386.973 243.273C386.573 243.273 386.226 243.372 385.933 243.571C385.644 243.767 385.421 244.023 385.264 244.338C385.108 244.653 385.03 244.991 385.03 245.352V245.932C385.03 246.426 385.115 246.845 385.286 247.189C385.459 247.53 385.699 247.79 386.006 247.969C386.313 248.145 386.669 248.233 387.075 248.233C387.34 248.233 387.578 248.196 387.791 248.122C388.007 248.045 388.193 247.932 388.35 247.781C388.506 247.628 388.627 247.437 388.712 247.21L389.683 247.483C389.581 247.812 389.409 248.102 389.168 248.352C388.926 248.599 388.628 248.793 388.273 248.932C387.918 249.068 387.519 249.136 387.075 249.136ZM393.855 249.136C393.241 249.136 392.712 248.991 392.269 248.702C391.826 248.412 391.485 248.013 391.247 247.504C391.008 246.996 390.889 246.415 390.889 245.761C390.889 245.097 391.011 244.51 391.255 244.001C391.502 243.49 391.846 243.091 392.286 242.804C392.73 242.514 393.247 242.369 393.837 242.369C394.298 242.369 394.712 242.455 395.082 242.625C395.451 242.795 395.754 243.034 395.989 243.341C396.225 243.648 396.372 244.006 396.428 244.415H395.423C395.346 244.116 395.176 243.852 394.911 243.622C394.65 243.389 394.298 243.273 393.855 243.273C393.462 243.273 393.119 243.375 392.823 243.58C392.531 243.781 392.302 244.067 392.137 244.436C391.975 244.803 391.894 245.233 391.894 245.727C391.894 246.233 391.974 246.673 392.133 247.048C392.295 247.423 392.522 247.714 392.815 247.922C393.11 248.129 393.457 248.233 393.855 248.233C394.116 248.233 394.353 248.188 394.566 248.097C394.779 248.006 394.96 247.875 395.107 247.705C395.255 247.534 395.36 247.33 395.423 247.091H396.428C396.372 247.477 396.231 247.825 396.007 248.135C395.785 248.442 395.491 248.686 395.124 248.868C394.761 249.047 394.337 249.136 393.855 249.136ZM400.625 242.455V243.307H397.233V242.455H400.625ZM398.222 240.886H399.227V247.125C399.227 247.409 399.269 247.622 399.351 247.764C399.436 247.903 399.544 247.997 399.675 248.045C399.808 248.091 399.949 248.114 400.097 248.114C400.208 248.114 400.298 248.108 400.369 248.097C400.441 248.082 400.497 248.071 400.54 248.062L400.744 248.966C400.676 248.991 400.581 249.017 400.459 249.043C400.337 249.071 400.182 249.085 399.994 249.085C399.71 249.085 399.432 249.024 399.159 248.902C398.889 248.78 398.665 248.594 398.486 248.344C398.31 248.094 398.222 247.778 398.222 247.398V240.886ZM408.103 249H405.409V240.273H408.222C409.068 240.273 409.793 240.447 410.395 240.797C410.997 241.143 411.459 241.642 411.78 242.293C412.101 242.94 412.262 243.716 412.262 244.619C412.262 245.528 412.1 246.311 411.776 246.967C411.452 247.621 410.98 248.124 410.361 248.476C409.742 248.825 408.989 249 408.103 249ZM406.466 248.062H408.034C408.756 248.062 409.354 247.923 409.828 247.645C410.303 247.366 410.656 246.97 410.889 246.456C411.122 245.942 411.239 245.33 411.239 244.619C411.239 243.915 411.124 243.308 410.894 242.8C410.664 242.288 410.32 241.896 409.862 241.624C409.405 241.348 408.835 241.21 408.154 241.21H406.466V248.062Z" fill="white"/>
<path d="M363.057 249V240.273H366.006C366.69 240.273 367.25 240.396 367.685 240.643C368.122 240.888 368.446 241.219 368.656 241.636C368.866 242.054 368.972 242.52 368.972 243.034C368.972 243.548 368.866 244.016 368.656 244.436C368.449 244.857 368.128 245.192 367.693 245.442C367.259 245.689 366.702 245.812 366.023 245.812H363.909V244.875H365.989C366.457 244.875 366.834 244.794 367.118 244.632C367.402 244.47 367.608 244.251 367.736 243.976C367.866 243.697 367.932 243.384 367.932 243.034C367.932 242.685 367.866 242.372 367.736 242.097C367.608 241.821 367.401 241.605 367.114 241.449C366.827 241.29 366.446 241.21 365.972 241.21H364.114V249H363.057ZM370.418 249V242.455H371.389V243.443H371.457C371.577 243.119 371.793 242.857 372.105 242.655C372.418 242.453 372.77 242.352 373.162 242.352C373.236 242.352 373.328 242.354 373.439 242.357C373.55 242.359 373.634 242.364 373.69 242.369V243.392C373.656 243.384 373.578 243.371 373.456 243.354C373.337 243.334 373.21 243.324 373.077 243.324C372.759 243.324 372.474 243.391 372.224 243.524C371.977 243.655 371.781 243.837 371.636 244.07C371.494 244.3 371.423 244.562 371.423 244.858V249H370.418ZM377.222 249.136C376.631 249.136 376.113 248.996 375.667 248.714C375.224 248.433 374.877 248.04 374.627 247.534C374.38 247.028 374.256 246.437 374.256 245.761C374.256 245.08 374.38 244.484 374.627 243.976C374.877 243.467 375.224 243.072 375.667 242.791C376.113 242.51 376.631 242.369 377.222 242.369C377.813 242.369 378.33 242.51 378.773 242.791C379.22 243.072 379.566 243.467 379.813 243.976C380.063 244.484 380.188 245.08 380.188 245.761C380.188 246.437 380.063 247.028 379.813 247.534C379.566 248.04 379.22 248.433 378.773 248.714C378.33 248.996 377.813 249.136 377.222 249.136ZM377.222 248.233C377.671 248.233 378.041 248.118 378.33 247.888C378.62 247.658 378.835 247.355 378.974 246.98C379.113 246.605 379.183 246.199 379.183 245.761C379.183 245.324 379.113 244.916 378.974 244.538C378.835 244.161 378.62 243.855 378.33 243.622C378.041 243.389 377.671 243.273 377.222 243.273C376.773 243.273 376.404 243.389 376.114 243.622C375.825 243.855 375.61 244.161 375.471 244.538C375.332 244.916 375.262 245.324 375.262 245.761C375.262 246.199 375.332 246.605 375.471 246.98C375.61 247.355 375.825 247.658 376.114 247.888C376.404 248.118 376.773 248.233 377.222 248.233ZM381.603 242.455H382.609V249.477C382.609 249.881 382.54 250.23 382.4 250.526C382.264 250.821 382.057 251.05 381.778 251.212C381.503 251.374 381.155 251.455 380.734 251.455C380.7 251.455 380.666 251.455 380.632 251.455C380.598 251.455 380.564 251.455 380.53 251.455V250.517C380.564 250.517 380.595 250.517 380.623 250.517C380.652 250.517 380.683 250.517 380.717 250.517C381.024 250.517 381.248 250.426 381.39 250.244C381.532 250.065 381.603 249.81 381.603 249.477V242.455ZM382.098 241.364C381.902 241.364 381.733 241.297 381.591 241.163C381.451 241.03 381.382 240.869 381.382 240.682C381.382 240.494 381.451 240.334 381.591 240.2C381.733 240.067 381.902 240 382.098 240C382.294 240 382.461 240.067 382.601 240.2C382.743 240.334 382.814 240.494 382.814 240.682C382.814 240.869 382.743 241.03 382.601 241.163C382.461 241.297 382.294 241.364 382.098 241.364ZM387.075 249.136C386.445 249.136 385.901 248.997 385.443 248.719C384.989 248.438 384.638 248.045 384.391 247.543C384.146 247.037 384.024 246.449 384.024 245.778C384.024 245.108 384.146 244.517 384.391 244.006C384.638 243.491 384.982 243.091 385.422 242.804C385.865 242.514 386.382 242.369 386.973 242.369C387.314 242.369 387.651 242.426 387.983 242.54C388.315 242.653 388.618 242.838 388.891 243.094C389.163 243.347 389.381 243.682 389.543 244.099C389.705 244.517 389.786 245.031 389.786 245.642V246.068H384.74V245.199H388.763C388.763 244.83 388.689 244.5 388.541 244.21C388.396 243.92 388.189 243.692 387.919 243.524C387.652 243.357 387.337 243.273 386.973 243.273C386.573 243.273 386.226 243.372 385.933 243.571C385.644 243.767 385.421 244.023 385.264 244.338C385.108 244.653 385.03 244.991 385.03 245.352V245.932C385.03 246.426 385.115 246.845 385.286 247.189C385.459 247.53 385.699 247.79 386.006 247.969C386.313 248.145 386.669 248.233 387.075 248.233C387.34 248.233 387.578 248.196 387.791 248.122C388.007 248.045 388.193 247.932 388.35 247.781C388.506 247.628 388.627 247.437 388.712 247.21L389.683 247.483C389.581 247.812 389.409 248.102 389.168 248.352C388.926 248.599 388.628 248.793 388.273 248.932C387.918 249.068 387.519 249.136 387.075 249.136ZM393.855 249.136C393.241 249.136 392.712 248.991 392.269 248.702C391.826 248.412 391.485 248.013 391.247 247.504C391.008 246.996 390.889 246.415 390.889 245.761C390.889 245.097 391.011 244.51 391.255 244.001C391.502 243.49 391.846 243.091 392.286 242.804C392.73 242.514 393.247 242.369 393.837 242.369C394.298 242.369 394.712 242.455 395.082 242.625C395.451 242.795 395.754 243.034 395.989 243.341C396.225 243.648 396.372 244.006 396.428 244.415H395.423C395.346 244.116 395.176 243.852 394.911 243.622C394.65 243.389 394.298 243.273 393.855 243.273C393.462 243.273 393.119 243.375 392.823 243.58C392.531 243.781 392.302 244.067 392.137 244.436C391.975 244.803 391.894 245.233 391.894 245.727C391.894 246.233 391.974 246.673 392.133 247.048C392.295 247.423 392.522 247.714 392.815 247.922C393.11 248.129 393.457 248.233 393.855 248.233C394.116 248.233 394.353 248.188 394.566 248.097C394.779 248.006 394.96 247.875 395.107 247.705C395.255 247.534 395.36 247.33 395.423 247.091H396.428C396.372 247.477 396.231 247.825 396.007 248.135C395.785 248.442 395.491 248.686 395.124 248.868C394.761 249.047 394.337 249.136 393.855 249.136ZM400.625 242.455V243.307H397.233V242.455H400.625ZM398.222 240.886H399.227V247.125C399.227 247.409 399.269 247.622 399.351 247.764C399.436 247.903 399.544 247.997 399.675 248.045C399.808 248.091 399.949 248.114 400.097 248.114C400.208 248.114 400.298 248.108 400.369 248.097C400.441 248.082 400.497 248.071 400.54 248.062L400.744 248.966C400.676 248.991 400.581 249.017 400.459 249.043C400.337 249.071 400.182 249.085 399.994 249.085C399.71 249.085 399.432 249.024 399.159 248.902C398.889 248.78 398.665 248.594 398.486 248.344C398.31 248.094 398.222 247.778 398.222 247.398V240.886ZM408.103 249H405.409V240.273H408.222C409.068 240.273 409.793 240.447 410.395 240.797C410.997 241.143 411.459 241.642 411.78 242.293C412.101 242.94 412.262 243.716 412.262 244.619C412.262 245.528 412.1 246.311 411.776 246.967C411.452 247.621 410.98 248.124 410.361 248.476C409.742 248.825 408.989 249 408.103 249ZM406.466 248.062H408.034C408.756 248.062 409.354 247.923 409.828 247.645C410.303 247.366 410.656 246.97 410.889 246.456C411.122 245.942 411.239 245.33 411.239 244.619C411.239 243.915 411.124 243.308 410.894 242.8C410.664 242.288 410.32 241.896 409.862 241.624C409.405 241.348 408.835 241.21 408.154 241.21H406.466V248.062Z" fill="#E0D5F4"/>
</g>
<path d="M253 149L261.927 134.313C266.009 127.599 273.297 123.5 281.154 123.5H349C361.15 123.5 371 113.65 371 101.5V101.5" stroke="#EADEFF"/>
<path d="M253 149L261.927 134.313C266.009 127.599 273.297 123.5 281.154 123.5H349C361.15 123.5 371 113.65 371 101.5V101.5" stroke="url(#paint0_linear_510_9149)"/>
<path d="M194 149L185.073 134.313C180.991 127.599 173.703 123.5 165.846 123.5H95C84.5066 123.5 76 114.993 76 104.5V104.5" stroke="#EADEFF"/>
<path d="M194 149L185.073 134.313C180.991 127.599 173.703 123.5 165.846 123.5H95C84.5066 123.5 76 114.993 76 104.5V104.5" stroke="url(#paint1_linear_510_9149)"/>
<g filter="url(#filter0_d_510_9149)">
<path d="M253 149L261.927 134.313C266.009 127.599 273.297 123.5 281.154 123.5H350.5C361.822 123.5 371 114.322 371 103V103" stroke="url(#paint2_linear_510_9149)" stroke-width="2"/>
</g>
<path d="M253 182L261.927 196.687C266.009 203.401 273.297 207.5 281.154 207.5H352C362.493 207.5 371 216.007 371 226.5V226.5" stroke="#EADEFF"/>
<path d="M253 182L261.927 196.687C266.009 203.401 273.297 207.5 281.154 207.5H352C362.493 207.5 371 216.007 371 226.5V226.5" stroke="url(#paint3_linear_510_9149)"/>
<g filter="url(#filter1_d_510_9149)">
<path d="M253 182L261.927 196.687C266.009 203.401 273.297 207.5 281.154 207.5H352C362.493 207.5 371 216.007 371 226.5V226.5" stroke="url(#paint4_linear_510_9149)" stroke-width="2"/>
</g>
<path d="M191 182L182.073 196.687C177.991 203.401 170.703 207.5 162.846 207.5H92C81.5066 207.5 73 216.007 73 226.5V226.5" stroke="#EADEFF"/>
<path d="M191 182L182.073 196.687C177.991 203.401 170.703 207.5 162.846 207.5H92C81.5066 207.5 73 216.007 73 226.5V226.5" stroke="url(#paint5_linear_510_9149)"/>
<g filter="url(#filter2_d_510_9149)">
<path d="M191 182L182.073 196.687C177.991 203.401 170.703 207.5 162.846 207.5H92C81.5066 207.5 73 216.007 73 226.5V226.5" stroke="url(#paint6_linear_510_9149)" stroke-width="2"/>
</g>
<g filter="url(#filter3_d_510_9149)">
<path d="M194 149L185.073 134.313C180.991 127.599 173.703 123.5 165.846 123.5H95C84.5066 123.5 76 114.993 76 104.5V104.5" stroke="url(#paint7_linear_510_9149)" stroke-width="2"/>
</g>
<rect x="322" y="64" width="98" height="40" rx="10" fill="#15121B"/>
<rect x="322" y="64" width="98" height="40" rx="10" fill="#2C263A"/>
<rect x="322.5" y="64.5" width="97" height="39" rx="9.5" stroke="#EADEFF" stroke-opacity="0.12"/>
<rect x="322.5" y="64.5" width="97" height="39" rx="9.5" stroke="#A36BFF" stroke-opacity="0.4"/>
<rect x="326" y="68" width="32" height="32" rx="6" fill="#EADEFF" fill-opacity="0.12"/>
<path d="M339.057 88V79.2727H342.108C342.716 79.2727 343.217 79.3778 343.612 79.5881C344.007 79.7955 344.301 80.0753 344.494 80.4276C344.688 80.777 344.784 81.1648 344.784 81.5909C344.784 81.9659 344.717 82.2756 344.584 82.5199C344.453 82.7642 344.28 82.9574 344.064 83.0994C343.851 83.2415 343.619 83.3466 343.369 83.4148V83.5C343.636 83.517 343.905 83.6108 344.175 83.7812C344.445 83.9517 344.67 84.196 344.852 84.5142C345.034 84.8324 345.125 85.2216 345.125 85.6818C345.125 86.1193 345.026 86.5128 344.827 86.8622C344.628 87.2116 344.314 87.4886 343.885 87.6932C343.456 87.8977 342.898 88 342.21 88H339.057ZM340.114 87.0625H342.21C342.901 87.0625 343.391 86.929 343.68 86.6619C343.973 86.392 344.119 86.0653 344.119 85.6818C344.119 85.3864 344.044 85.1136 343.893 84.8636C343.743 84.6108 343.528 84.4091 343.25 84.2585C342.972 84.1051 342.642 84.0284 342.261 84.0284H340.114V87.0625ZM340.114 83.108H342.074C342.392 83.108 342.679 83.0455 342.935 82.9205C343.193 82.7955 343.398 82.6193 343.548 82.392C343.702 82.1648 343.778 81.8977 343.778 81.5909C343.778 81.2074 343.645 80.8821 343.378 80.6151C343.111 80.3452 342.688 80.2102 342.108 80.2102H340.114V83.108Z" fill="white"/>
<path d="M339.057 88V79.2727H342.108C342.716 79.2727 343.217 79.3778 343.612 79.5881C344.007 79.7955 344.301 80.0753 344.494 80.4276C344.688 80.777 344.784 81.1648 344.784 81.5909C344.784 81.9659 344.717 82.2756 344.584 82.5199C344.453 82.7642 344.28 82.9574 344.064 83.0994C343.851 83.2415 343.619 83.3466 343.369 83.4148V83.5C343.636 83.517 343.905 83.6108 344.175 83.7812C344.445 83.9517 344.67 84.196 344.852 84.5142C345.034 84.8324 345.125 85.2216 345.125 85.6818C345.125 86.1193 345.026 86.5128 344.827 86.8622C344.628 87.2116 344.314 87.4886 343.885 87.6932C343.456 87.8977 342.898 88 342.21 88H339.057ZM340.114 87.0625H342.21C342.901 87.0625 343.391 86.929 343.68 86.6619C343.973 86.392 344.119 86.0653 344.119 85.6818C344.119 85.3864 344.044 85.1136 343.893 84.8636C343.743 84.6108 343.528 84.4091 343.25 84.2585C342.972 84.1051 342.642 84.0284 342.261 84.0284H340.114V87.0625ZM340.114 83.108H342.074C342.392 83.108 342.679 83.0455 342.935 82.9205C343.193 82.7955 343.398 82.6193 343.548 82.392C343.702 82.1648 343.778 81.8977 343.778 81.5909C343.778 81.2074 343.645 80.8821 343.378 80.6151C343.111 80.3452 342.688 80.2102 342.108 80.2102H340.114V83.108Z" fill="#E9DDED"/>
<g opacity="0.4">
<path d="M363.057 88V79.2727H366.006C366.69 79.2727 367.25 79.3963 367.685 79.6435C368.122 79.8878 368.446 80.2188 368.656 80.6364C368.866 81.054 368.972 81.5199 368.972 82.0341C368.972 82.5483 368.866 83.0156 368.656 83.4361C368.449 83.8565 368.128 84.1918 367.693 84.4418C367.259 84.6889 366.702 84.8125 366.023 84.8125H363.909V83.875H365.989C366.457 83.875 366.834 83.794 367.118 83.6321C367.402 83.4702 367.608 83.2514 367.736 82.9759C367.866 82.6974 367.932 82.3835 367.932 82.0341C367.932 81.6847 367.866 81.3722 367.736 81.0966C367.608 80.821 367.401 80.6051 367.114 80.4489C366.827 80.2898 366.446 80.2102 365.972 80.2102H364.114V88H363.057ZM370.418 88V81.4545H371.389V82.4432H371.457C371.577 82.1193 371.793 81.8565 372.105 81.6548C372.418 81.4531 372.77 81.3523 373.162 81.3523C373.236 81.3523 373.328 81.3537 373.439 81.3565C373.55 81.3594 373.634 81.3636 373.69 81.3693V82.392C373.656 82.3835 373.578 82.3707 373.456 82.3537C373.337 82.3338 373.21 82.3239 373.077 82.3239C372.759 82.3239 372.474 82.3906 372.224 82.5241C371.977 82.6548 371.781 82.8366 371.636 83.0696C371.494 83.2997 371.423 83.5625 371.423 83.858V88H370.418ZM377.222 88.1364C376.631 88.1364 376.113 87.9957 375.667 87.7145C375.224 87.4332 374.877 87.0398 374.627 86.5341C374.38 86.0284 374.256 85.4375 374.256 84.7614C374.256 84.0795 374.38 83.4844 374.627 82.9759C374.877 82.4673 375.224 82.0724 375.667 81.7912C376.113 81.5099 376.631 81.3693 377.222 81.3693C377.813 81.3693 378.33 81.5099 378.773 81.7912C379.22 82.0724 379.566 82.4673 379.813 82.9759C380.063 83.4844 380.188 84.0795 380.188 84.7614C380.188 85.4375 380.063 86.0284 379.813 86.5341C379.566 87.0398 379.22 87.4332 378.773 87.7145C378.33 87.9957 377.813 88.1364 377.222 88.1364ZM377.222 87.233C377.671 87.233 378.041 87.1179 378.33 86.8878C378.62 86.6577 378.835 86.3551 378.974 85.9801C379.113 85.6051 379.183 85.1989 379.183 84.7614C379.183 84.3239 379.113 83.9162 378.974 83.5384C378.835 83.1605 378.62 82.8551 378.33 82.6222C378.041 82.3892 377.671 82.2727 377.222 82.2727C376.773 82.2727 376.404 82.3892 376.114 82.6222C375.825 82.8551 375.61 83.1605 375.471 83.5384C375.332 83.9162 375.262 84.3239 375.262 84.7614C375.262 85.1989 375.332 85.6051 375.471 85.9801C375.61 86.3551 375.825 86.6577 376.114 86.8878C376.404 87.1179 376.773 87.233 377.222 87.233ZM381.603 81.4545H382.609V88.4773C382.609 88.8807 382.54 89.2301 382.4 89.5256C382.264 89.821 382.057 90.0497 381.778 90.2116C381.503 90.3736 381.155 90.4545 380.734 90.4545C380.7 90.4545 380.666 90.4545 380.632 90.4545C380.598 90.4545 380.564 90.4545 380.53 90.4545V89.517C380.564 89.517 380.595 89.517 380.623 89.517C380.652 89.517 380.683 89.517 380.717 89.517C381.024 89.517 381.248 89.4261 381.39 89.2443C381.532 89.0653 381.603 88.8097 381.603 88.4773V81.4545ZM382.098 80.3636C381.902 80.3636 381.733 80.2969 381.591 80.1634C381.451 80.0298 381.382 79.8693 381.382 79.6818C381.382 79.4943 381.451 79.3338 381.591 79.2003C381.733 79.0668 381.902 79 382.098 79C382.294 79 382.461 79.0668 382.601 79.2003C382.743 79.3338 382.814 79.4943 382.814 79.6818C382.814 79.8693 382.743 80.0298 382.601 80.1634C382.461 80.2969 382.294 80.3636 382.098 80.3636ZM387.075 88.1364C386.445 88.1364 385.901 87.9972 385.443 87.7188C384.989 87.4375 384.638 87.0455 384.391 86.5426C384.146 86.0369 384.024 85.4489 384.024 84.7784C384.024 84.108 384.146 83.517 384.391 83.0057C384.638 82.4915 384.982 82.0909 385.422 81.804C385.865 81.5142 386.382 81.3693 386.973 81.3693C387.314 81.3693 387.651 81.4261 387.983 81.5398C388.315 81.6534 388.618 81.8381 388.891 82.0938C389.163 82.3466 389.381 82.6818 389.543 83.0994C389.705 83.517 389.786 84.0312 389.786 84.642V85.0682H384.74V84.1989H388.763C388.763 83.8295 388.689 83.5 388.541 83.2102C388.396 82.9205 388.189 82.6918 387.919 82.5241C387.652 82.3565 387.337 82.2727 386.973 82.2727C386.573 82.2727 386.226 82.3722 385.933 82.571C385.644 82.767 385.421 83.0227 385.264 83.3381C385.108 83.6534 385.03 83.9915 385.03 84.3523V84.9318C385.03 85.4261 385.115 85.8452 385.286 86.1889C385.459 86.5298 385.699 86.7898 386.006 86.9688C386.313 87.1449 386.669 87.233 387.075 87.233C387.34 87.233 387.578 87.196 387.791 87.1222C388.007 87.0455 388.193 86.9318 388.35 86.7812C388.506 86.6278 388.627 86.4375 388.712 86.2102L389.683 86.483C389.581 86.8125 389.409 87.1023 389.168 87.3523C388.926 87.5994 388.628 87.7926 388.273 87.9318C387.918 88.0682 387.519 88.1364 387.075 88.1364ZM393.855 88.1364C393.241 88.1364 392.712 87.9915 392.269 87.7017C391.826 87.4119 391.485 87.0128 391.247 86.5043C391.008 85.9957 390.889 85.4148 390.889 84.7614C390.889 84.0966 391.011 83.5099 391.255 83.0014C391.502 82.4901 391.846 82.0909 392.286 81.804C392.73 81.5142 393.247 81.3693 393.837 81.3693C394.298 81.3693 394.712 81.4545 395.082 81.625C395.451 81.7955 395.754 82.0341 395.989 82.3409C396.225 82.6477 396.372 83.0057 396.428 83.4148H395.423C395.346 83.1165 395.176 82.8523 394.911 82.6222C394.65 82.3892 394.298 82.2727 393.855 82.2727C393.462 82.2727 393.119 82.375 392.823 82.5795C392.531 82.7812 392.302 83.0668 392.137 83.4361C391.975 83.8026 391.894 84.233 391.894 84.7273C391.894 85.233 391.974 85.6733 392.133 86.0483C392.295 86.4233 392.522 86.7145 392.815 86.9219C393.11 87.1293 393.457 87.233 393.855 87.233C394.116 87.233 394.353 87.1875 394.566 87.0966C394.779 87.0057 394.96 86.875 395.107 86.7045C395.255 86.5341 395.36 86.3295 395.423 86.0909H396.428C396.372 86.4773 396.231 86.8253 396.007 87.1349C395.785 87.4418 395.491 87.6861 395.124 87.8679C394.761 88.0469 394.337 88.1364 393.855 88.1364ZM400.625 81.4545V82.3068H397.233V81.4545H400.625ZM398.222 79.8864H399.227V86.125C399.227 86.4091 399.269 86.6222 399.351 86.7642C399.436 86.9034 399.544 86.9972 399.675 87.0455C399.808 87.0909 399.949 87.1136 400.097 87.1136C400.208 87.1136 400.298 87.108 400.369 87.0966C400.441 87.0824 400.497 87.071 400.54 87.0625L400.744 87.9659C400.676 87.9915 400.581 88.017 400.459 88.0426C400.337 88.071 400.182 88.0852 399.994 88.0852C399.71 88.0852 399.432 88.0241 399.159 87.902C398.889 87.7798 398.665 87.5938 398.486 87.3438C398.31 87.0938 398.222 86.7784 398.222 86.3977V79.8864ZM405.409 88V79.2727H408.46C409.068 79.2727 409.57 79.3778 409.965 79.5881C410.36 79.7955 410.654 80.0753 410.847 80.4276C411.04 80.777 411.137 81.1648 411.137 81.5909C411.137 81.9659 411.07 82.2756 410.936 82.5199C410.806 82.7642 410.632 82.9574 410.416 83.0994C410.203 83.2415 409.972 83.3466 409.722 83.4148V83.5C409.989 83.517 410.257 83.6108 410.527 83.7812C410.797 83.9517 411.023 84.196 411.205 84.5142C411.387 84.8324 411.478 85.2216 411.478 85.6818C411.478 86.1193 411.378 86.5128 411.179 86.8622C410.98 87.2116 410.666 87.4886 410.237 87.6932C409.808 87.8977 409.25 88 408.563 88H405.409ZM406.466 87.0625H408.563C409.253 87.0625 409.743 86.929 410.033 86.6619C410.326 86.392 410.472 86.0653 410.472 85.6818C410.472 85.3864 410.397 85.1136 410.246 84.8636C410.095 84.6108 409.881 84.4091 409.603 84.2585C409.324 84.1051 408.995 84.0284 408.614 84.0284H406.466V87.0625ZM406.466 83.108H408.426C408.745 83.108 409.031 83.0455 409.287 82.9205C409.546 82.7955 409.75 82.6193 409.901 82.392C410.054 82.1648 410.131 81.8977 410.131 81.5909C410.131 81.2074 409.997 80.8821 409.73 80.6151C409.463 80.3452 409.04 80.2102 408.46 80.2102H406.466V83.108Z" fill="white"/>
<path d="M363.057 88V79.2727H366.006C366.69 79.2727 367.25 79.3963 367.685 79.6435C368.122 79.8878 368.446 80.2188 368.656 80.6364C368.866 81.054 368.972 81.5199 368.972 82.0341C368.972 82.5483 368.866 83.0156 368.656 83.4361C368.449 83.8565 368.128 84.1918 367.693 84.4418C367.259 84.6889 366.702 84.8125 366.023 84.8125H363.909V83.875H365.989C366.457 83.875 366.834 83.794 367.118 83.6321C367.402 83.4702 367.608 83.2514 367.736 82.9759C367.866 82.6974 367.932 82.3835 367.932 82.0341C367.932 81.6847 367.866 81.3722 367.736 81.0966C367.608 80.821 367.401 80.6051 367.114 80.4489C366.827 80.2898 366.446 80.2102 365.972 80.2102H364.114V88H363.057ZM370.418 88V81.4545H371.389V82.4432H371.457C371.577 82.1193 371.793 81.8565 372.105 81.6548C372.418 81.4531 372.77 81.3523 373.162 81.3523C373.236 81.3523 373.328 81.3537 373.439 81.3565C373.55 81.3594 373.634 81.3636 373.69 81.3693V82.392C373.656 82.3835 373.578 82.3707 373.456 82.3537C373.337 82.3338 373.21 82.3239 373.077 82.3239C372.759 82.3239 372.474 82.3906 372.224 82.5241C371.977 82.6548 371.781 82.8366 371.636 83.0696C371.494 83.2997 371.423 83.5625 371.423 83.858V88H370.418ZM377.222 88.1364C376.631 88.1364 376.113 87.9957 375.667 87.7145C375.224 87.4332 374.877 87.0398 374.627 86.5341C374.38 86.0284 374.256 85.4375 374.256 84.7614C374.256 84.0795 374.38 83.4844 374.627 82.9759C374.877 82.4673 375.224 82.0724 375.667 81.7912C376.113 81.5099 376.631 81.3693 377.222 81.3693C377.813 81.3693 378.33 81.5099 378.773 81.7912C379.22 82.0724 379.566 82.4673 379.813 82.9759C380.063 83.4844 380.188 84.0795 380.188 84.7614C380.188 85.4375 380.063 86.0284 379.813 86.5341C379.566 87.0398 379.22 87.4332 378.773 87.7145C378.33 87.9957 377.813 88.1364 377.222 88.1364ZM377.222 87.233C377.671 87.233 378.041 87.1179 378.33 86.8878C378.62 86.6577 378.835 86.3551 378.974 85.9801C379.113 85.6051 379.183 85.1989 379.183 84.7614C379.183 84.3239 379.113 83.9162 378.974 83.5384C378.835 83.1605 378.62 82.8551 378.33 82.6222C378.041 82.3892 377.671 82.2727 377.222 82.2727C376.773 82.2727 376.404 82.3892 376.114 82.6222C375.825 82.8551 375.61 83.1605 375.471 83.5384C375.332 83.9162 375.262 84.3239 375.262 84.7614C375.262 85.1989 375.332 85.6051 375.471 85.9801C375.61 86.3551 375.825 86.6577 376.114 86.8878C376.404 87.1179 376.773 87.233 377.222 87.233ZM381.603 81.4545H382.609V88.4773C382.609 88.8807 382.54 89.2301 382.4 89.5256C382.264 89.821 382.057 90.0497 381.778 90.2116C381.503 90.3736 381.155 90.4545 380.734 90.4545C380.7 90.4545 380.666 90.4545 380.632 90.4545C380.598 90.4545 380.564 90.4545 380.53 90.4545V89.517C380.564 89.517 380.595 89.517 380.623 89.517C380.652 89.517 380.683 89.517 380.717 89.517C381.024 89.517 381.248 89.4261 381.39 89.2443C381.532 89.0653 381.603 88.8097 381.603 88.4773V81.4545ZM382.098 80.3636C381.902 80.3636 381.733 80.2969 381.591 80.1634C381.451 80.0298 381.382 79.8693 381.382 79.6818C381.382 79.4943 381.451 79.3338 381.591 79.2003C381.733 79.0668 381.902 79 382.098 79C382.294 79 382.461 79.0668 382.601 79.2003C382.743 79.3338 382.814 79.4943 382.814 79.6818C382.814 79.8693 382.743 80.0298 382.601 80.1634C382.461 80.2969 382.294 80.3636 382.098 80.3636ZM387.075 88.1364C386.445 88.1364 385.901 87.9972 385.443 87.7188C384.989 87.4375 384.638 87.0455 384.391 86.5426C384.146 86.0369 384.024 85.4489 384.024 84.7784C384.024 84.108 384.146 83.517 384.391 83.0057C384.638 82.4915 384.982 82.0909 385.422 81.804C385.865 81.5142 386.382 81.3693 386.973 81.3693C387.314 81.3693 387.651 81.4261 387.983 81.5398C388.315 81.6534 388.618 81.8381 388.891 82.0938C389.163 82.3466 389.381 82.6818 389.543 83.0994C389.705 83.517 389.786 84.0312 389.786 84.642V85.0682H384.74V84.1989H388.763C388.763 83.8295 388.689 83.5 388.541 83.2102C388.396 82.9205 388.189 82.6918 387.919 82.5241C387.652 82.3565 387.337 82.2727 386.973 82.2727C386.573 82.2727 386.226 82.3722 385.933 82.571C385.644 82.767 385.421 83.0227 385.264 83.3381C385.108 83.6534 385.03 83.9915 385.03 84.3523V84.9318C385.03 85.4261 385.115 85.8452 385.286 86.1889C385.459 86.5298 385.699 86.7898 386.006 86.9688C386.313 87.1449 386.669 87.233 387.075 87.233C387.34 87.233 387.578 87.196 387.791 87.1222C388.007 87.0455 388.193 86.9318 388.35 86.7812C388.506 86.6278 388.627 86.4375 388.712 86.2102L389.683 86.483C389.581 86.8125 389.409 87.1023 389.168 87.3523C388.926 87.5994 388.628 87.7926 388.273 87.9318C387.918 88.0682 387.519 88.1364 387.075 88.1364ZM393.855 88.1364C393.241 88.1364 392.712 87.9915 392.269 87.7017C391.826 87.4119 391.485 87.0128 391.247 86.5043C391.008 85.9957 390.889 85.4148 390.889 84.7614C390.889 84.0966 391.011 83.5099 391.255 83.0014C391.502 82.4901 391.846 82.0909 392.286 81.804C392.73 81.5142 393.247 81.3693 393.837 81.3693C394.298 81.3693 394.712 81.4545 395.082 81.625C395.451 81.7955 395.754 82.0341 395.989 82.3409C396.225 82.6477 396.372 83.0057 396.428 83.4148H395.423C395.346 83.1165 395.176 82.8523 394.911 82.6222C394.65 82.3892 394.298 82.2727 393.855 82.2727C393.462 82.2727 393.119 82.375 392.823 82.5795C392.531 82.7812 392.302 83.0668 392.137 83.4361C391.975 83.8026 391.894 84.233 391.894 84.7273C391.894 85.233 391.974 85.6733 392.133 86.0483C392.295 86.4233 392.522 86.7145 392.815 86.9219C393.11 87.1293 393.457 87.233 393.855 87.233C394.116 87.233 394.353 87.1875 394.566 87.0966C394.779 87.0057 394.96 86.875 395.107 86.7045C395.255 86.5341 395.36 86.3295 395.423 86.0909H396.428C396.372 86.4773 396.231 86.8253 396.007 87.1349C395.785 87.4418 395.491 87.6861 395.124 87.8679C394.761 88.0469 394.337 88.1364 393.855 88.1364ZM400.625 81.4545V82.3068H397.233V81.4545H400.625ZM398.222 79.8864H399.227V86.125C399.227 86.4091 399.269 86.6222 399.351 86.7642C399.436 86.9034 399.544 86.9972 399.675 87.0455C399.808 87.0909 399.949 87.1136 400.097 87.1136C400.208 87.1136 400.298 87.108 400.369 87.0966C400.441 87.0824 400.497 87.071 400.54 87.0625L400.744 87.9659C400.676 87.9915 400.581 88.017 400.459 88.0426C400.337 88.071 400.182 88.0852 399.994 88.0852C399.71 88.0852 399.432 88.0241 399.159 87.902C398.889 87.7798 398.665 87.5938 398.486 87.3438C398.31 87.0938 398.222 86.7784 398.222 86.3977V79.8864ZM405.409 88V79.2727H408.46C409.068 79.2727 409.57 79.3778 409.965 79.5881C410.36 79.7955 410.654 80.0753 410.847 80.4276C411.04 80.777 411.137 81.1648 411.137 81.5909C411.137 81.9659 411.07 82.2756 410.936 82.5199C410.806 82.7642 410.632 82.9574 410.416 83.0994C410.203 83.2415 409.972 83.3466 409.722 83.4148V83.5C409.989 83.517 410.257 83.6108 410.527 83.7812C410.797 83.9517 411.023 84.196 411.205 84.5142C411.387 84.8324 411.478 85.2216 411.478 85.6818C411.478 86.1193 411.378 86.5128 411.179 86.8622C410.98 87.2116 410.666 87.4886 410.237 87.6932C409.808 87.8977 409.25 88 408.563 88H405.409ZM406.466 87.0625H408.563C409.253 87.0625 409.743 86.929 410.033 86.6619C410.326 86.392 410.472 86.0653 410.472 85.6818C410.472 85.3864 410.397 85.1136 410.246 84.8636C410.095 84.6108 409.881 84.4091 409.603 84.2585C409.324 84.1051 408.995 84.0284 408.614 84.0284H406.466V87.0625ZM406.466 83.108H408.426C408.745 83.108 409.031 83.0455 409.287 82.9205C409.546 82.7955 409.75 82.6193 409.901 82.392C410.054 82.1648 410.131 81.8977 410.131 81.5909C410.131 81.2074 409.997 80.8821 409.73 80.6151C409.463 80.3452 409.04 80.2102 408.46 80.2102H406.466V83.108Z" fill="#E0D5F4"/>
</g>
<rect x="27" y="64" width="98" height="40" rx="10" fill="#15121B"/>
<rect x="27" y="64" width="98" height="40" rx="10" fill="#2C263A"/>
<rect x="27.5" y="64.5" width="97" height="39" rx="9.5" stroke="#EADEFF" stroke-opacity="0.12"/>
<rect x="27.5" y="64.5" width="97" height="39" rx="9.5" stroke="#A36BFF" stroke-opacity="0.4"/>
<rect x="31" y="68" width="32" height="32" rx="6" fill="#EADEFF" fill-opacity="0.12"/>
<path d="M43.9148 88H42.8068L46.0114 79.2727H47.1023L50.3068 88H49.1989L46.5909 80.6534H46.5227L43.9148 88ZM44.3239 84.5909H48.7898V85.5284H44.3239V84.5909Z" fill="white"/>
<path d="M43.9148 88H42.8068L46.0114 79.2727H47.1023L50.3068 88H49.1989L46.5909 80.6534H46.5227L43.9148 88ZM44.3239 84.5909H48.7898V85.5284H44.3239V84.5909Z" fill="#E9DDED"/>
<g opacity="0.4">
<path d="M68.0568 88V79.2727H71.0057C71.6903 79.2727 72.25 79.3963 72.6847 79.6435C73.1222 79.8878 73.446 80.2188 73.6562 80.6364C73.8665 81.054 73.9716 81.5199 73.9716 82.0341C73.9716 82.5483 73.8665 83.0156 73.6562 83.4361C73.4489 83.8565 73.1278 84.1918 72.6932 84.4418C72.2585 84.6889 71.7017 84.8125 71.0227 84.8125H68.9091V83.875H70.9886C71.4574 83.875 71.8338 83.794 72.1179 83.6321C72.402 83.4702 72.608 83.2514 72.7358 82.9759C72.8665 82.6974 72.9318 82.3835 72.9318 82.0341C72.9318 81.6847 72.8665 81.3722 72.7358 81.0966C72.608 80.821 72.4006 80.6051 72.1136 80.4489C71.8267 80.2898 71.446 80.2102 70.9716 80.2102H69.1136V88H68.0568ZM75.4176 88V81.4545H76.3892V82.4432H76.4574C76.5767 82.1193 76.7926 81.8565 77.1051 81.6548C77.4176 81.4531 77.7699 81.3523 78.162 81.3523C78.2358 81.3523 78.3282 81.3537 78.4389 81.3565C78.5497 81.3594 78.6336 81.3636 78.6904 81.3693V82.392C78.6563 82.3835 78.5782 82.3707 78.456 82.3537C78.3367 82.3338 78.2103 82.3239 78.0767 82.3239C77.7586 82.3239 77.4745 82.3906 77.2245 82.5241C76.9773 82.6548 76.7813 82.8366 76.6364 83.0696C76.4943 83.2997 76.4233 83.5625 76.4233 83.858V88H75.4176ZM82.2224 88.1364C81.6314 88.1364 81.113 87.9957 80.667 87.7145C80.2238 87.4332 79.8772 87.0398 79.6272 86.5341C79.38 86.0284 79.2564 85.4375 79.2564 84.7614C79.2564 84.0795 79.38 83.4844 79.6272 82.9759C79.8772 82.4673 80.2238 82.0724 80.667 81.7912C81.113 81.5099 81.6314 81.3693 82.2224 81.3693C82.8133 81.3693 83.3303 81.5099 83.7735 81.7912C84.2195 82.0724 84.5661 82.4673 84.8133 82.9759C85.0633 83.4844 85.1883 84.0795 85.1883 84.7614C85.1883 85.4375 85.0633 86.0284 84.8133 86.5341C84.5661 87.0398 84.2195 87.4332 83.7735 87.7145C83.3303 87.9957 82.8133 88.1364 82.2224 88.1364ZM82.2224 87.233C82.6712 87.233 83.0405 87.1179 83.3303 86.8878C83.6201 86.6577 83.8346 86.3551 83.9738 85.9801C84.113 85.6051 84.1826 85.1989 84.1826 84.7614C84.1826 84.3239 84.113 83.9162 83.9738 83.5384C83.8346 83.1605 83.6201 82.8551 83.3303 82.6222C83.0405 82.3892 82.6712 82.2727 82.2224 82.2727C81.7735 82.2727 81.4042 82.3892 81.1144 82.6222C80.8246 82.8551 80.6101 83.1605 80.4709 83.5384C80.3317 83.9162 80.2621 84.3239 80.2621 84.7614C80.2621 85.1989 80.3317 85.6051 80.4709 85.9801C80.6101 86.3551 80.8246 86.6577 81.1144 86.8878C81.4042 87.1179 81.7735 87.233 82.2224 87.233ZM86.6034 81.4545H87.6091V88.4773C87.6091 88.8807 87.5395 89.2301 87.4003 89.5256C87.2639 89.821 87.0565 90.0497 86.7781 90.2116C86.5026 90.3736 86.1546 90.4545 85.7341 90.4545C85.7 90.4545 85.6659 90.4545 85.6318 90.4545C85.5977 90.4545 85.5636 90.4545 85.5296 90.4545V89.517C85.5636 89.517 85.5949 89.517 85.6233 89.517C85.6517 89.517 85.683 89.517 85.7171 89.517C86.0239 89.517 86.2483 89.4261 86.3904 89.2443C86.5324 89.0653 86.6034 88.8097 86.6034 88.4773V81.4545ZM87.0977 80.3636C86.9017 80.3636 86.7327 80.2969 86.5906 80.1634C86.4514 80.0298 86.3818 79.8693 86.3818 79.6818C86.3818 79.4943 86.4514 79.3338 86.5906 79.2003C86.7327 79.0668 86.9017 79 87.0977 79C87.2938 79 87.4614 79.0668 87.6006 79.2003C87.7426 79.3338 87.8137 79.4943 87.8137 79.6818C87.8137 79.8693 87.7426 80.0298 87.6006 80.1634C87.4614 80.2969 87.2938 80.3636 87.0977 80.3636ZM92.0754 88.1364C91.4447 88.1364 90.9007 87.9972 90.4433 87.7188C89.9888 87.4375 89.6379 87.0455 89.3907 86.5426C89.1464 86.0369 89.0243 85.4489 89.0243 84.7784C89.0243 84.108 89.1464 83.517 89.3907 83.0057C89.6379 82.4915 89.9816 82.0909 90.422 81.804C90.8652 81.5142 91.3822 81.3693 91.9731 81.3693C92.314 81.3693 92.6507 81.4261 92.9831 81.5398C93.3155 81.6534 93.618 81.8381 93.8907 82.0938C94.1635 82.3466 94.3808 82.6818 94.5427 83.0994C94.7047 83.517 94.7856 84.0312 94.7856 84.642V85.0682H89.7402V84.1989H93.7629C93.7629 83.8295 93.689 83.5 93.5413 83.2102C93.3964 82.9205 93.189 82.6918 92.9191 82.5241C92.6521 82.3565 92.3368 82.2727 91.9731 82.2727C91.5726 82.2727 91.226 82.3722 90.9334 82.571C90.6436 82.767 90.4206 83.0227 90.2643 83.3381C90.1081 83.6534 90.0299 83.9915 90.0299 84.3523V84.9318C90.0299 85.4261 90.1152 85.8452 90.2856 86.1889C90.4589 86.5298 90.699 86.7898 91.0058 86.9688C91.3126 87.1449 91.6691 87.233 92.0754 87.233C92.3396 87.233 92.5782 87.196 92.7913 87.1222C93.0072 87.0455 93.1933 86.9318 93.3495 86.7812C93.5058 86.6278 93.6265 86.4375 93.7118 86.2102L94.6834 86.483C94.5811 86.8125 94.4092 87.1023 94.1677 87.3523C93.9263 87.5994 93.628 87.7926 93.2728 87.9318C92.9177 88.0682 92.5186 88.1364 92.0754 88.1364ZM98.8545 88.1364C98.2409 88.1364 97.7125 87.9915 97.2693 87.7017C96.8261 87.4119 96.4852 87.0128 96.2466 86.5043C96.008 85.9957 95.8886 85.4148 95.8886 84.7614C95.8886 84.0966 96.0108 83.5099 96.2551 83.0014C96.5023 82.4901 96.846 82.0909 97.2864 81.804C97.7295 81.5142 98.2466 81.3693 98.8375 81.3693C99.2977 81.3693 99.7125 81.4545 100.082 81.625C100.451 81.7955 100.754 82.0341 100.989 82.3409C101.225 82.6477 101.372 83.0057 101.428 83.4148H100.423C100.346 83.1165 100.176 82.8523 99.9114 82.6222C99.65 82.3892 99.2977 82.2727 98.8545 82.2727C98.4625 82.2727 98.1187 82.375 97.8233 82.5795C97.5307 82.7812 97.302 83.0668 97.1372 83.4361C96.9753 83.8026 96.8943 84.233 96.8943 84.7273C96.8943 85.233 96.9739 85.6733 97.133 86.0483C97.2949 86.4233 97.5222 86.7145 97.8148 86.9219C98.1102 87.1293 98.4568 87.233 98.8545 87.233C99.1159 87.233 99.3531 87.1875 99.5662 87.0966C99.7793 87.0057 99.9597 86.875 100.107 86.7045C100.255 86.5341 100.36 86.3295 100.423 86.0909H101.428C101.372 86.4773 101.231 86.8253 101.007 87.1349C100.785 87.4418 100.491 87.6861 100.124 87.8679C99.7608 88.0469 99.3375 88.1364 98.8545 88.1364ZM105.625 81.4545V82.3068H102.233V81.4545H105.625ZM103.222 79.8864H104.227V86.125C104.227 86.4091 104.269 86.6222 104.351 86.7642C104.436 86.9034 104.544 86.9972 104.675 87.0455C104.808 87.0909 104.949 87.1136 105.097 87.1136C105.208 87.1136 105.298 87.108 105.369 87.0966C105.441 87.0824 105.497 87.071 105.54 87.0625L105.744 87.9659C105.676 87.9915 105.581 88.017 105.459 88.0426C105.337 88.071 105.182 88.0852 104.994 88.0852C104.71 88.0852 104.432 88.0241 104.159 87.902C103.889 87.7798 103.665 87.5938 103.486 87.3438C103.31 87.0938 103.222 86.7784 103.222 86.3977V79.8864ZM110.767 88H109.659L112.864 79.2727H113.955L117.159 88H116.051L113.443 80.6534H113.375L110.767 88ZM111.176 84.5909H115.642V85.5284H111.176V84.5909Z" fill="white"/>
<path d="M68.0568 88V79.2727H71.0057C71.6903 79.2727 72.25 79.3963 72.6847 79.6435C73.1222 79.8878 73.446 80.2188 73.6562 80.6364C73.8665 81.054 73.9716 81.5199 73.9716 82.0341C73.9716 82.5483 73.8665 83.0156 73.6562 83.4361C73.4489 83.8565 73.1278 84.1918 72.6932 84.4418C72.2585 84.6889 71.7017 84.8125 71.0227 84.8125H68.9091V83.875H70.9886C71.4574 83.875 71.8338 83.794 72.1179 83.6321C72.402 83.4702 72.608 83.2514 72.7358 82.9759C72.8665 82.6974 72.9318 82.3835 72.9318 82.0341C72.9318 81.6847 72.8665 81.3722 72.7358 81.0966C72.608 80.821 72.4006 80.6051 72.1136 80.4489C71.8267 80.2898 71.446 80.2102 70.9716 80.2102H69.1136V88H68.0568ZM75.4176 88V81.4545H76.3892V82.4432H76.4574C76.5767 82.1193 76.7926 81.8565 77.1051 81.6548C77.4176 81.4531 77.7699 81.3523 78.162 81.3523C78.2358 81.3523 78.3282 81.3537 78.4389 81.3565C78.5497 81.3594 78.6336 81.3636 78.6904 81.3693V82.392C78.6563 82.3835 78.5782 82.3707 78.456 82.3537C78.3367 82.3338 78.2103 82.3239 78.0767 82.3239C77.7586 82.3239 77.4745 82.3906 77.2245 82.5241C76.9773 82.6548 76.7813 82.8366 76.6364 83.0696C76.4943 83.2997 76.4233 83.5625 76.4233 83.858V88H75.4176ZM82.2224 88.1364C81.6314 88.1364 81.113 87.9957 80.667 87.7145C80.2238 87.4332 79.8772 87.0398 79.6272 86.5341C79.38 86.0284 79.2564 85.4375 79.2564 84.7614C79.2564 84.0795 79.38 83.4844 79.6272 82.9759C79.8772 82.4673 80.2238 82.0724 80.667 81.7912C81.113 81.5099 81.6314 81.3693 82.2224 81.3693C82.8133 81.3693 83.3303 81.5099 83.7735 81.7912C84.2195 82.0724 84.5661 82.4673 84.8133 82.9759C85.0633 83.4844 85.1883 84.0795 85.1883 84.7614C85.1883 85.4375 85.0633 86.0284 84.8133 86.5341C84.5661 87.0398 84.2195 87.4332 83.7735 87.7145C83.3303 87.9957 82.8133 88.1364 82.2224 88.1364ZM82.2224 87.233C82.6712 87.233 83.0405 87.1179 83.3303 86.8878C83.6201 86.6577 83.8346 86.3551 83.9738 85.9801C84.113 85.6051 84.1826 85.1989 84.1826 84.7614C84.1826 84.3239 84.113 83.9162 83.9738 83.5384C83.8346 83.1605 83.6201 82.8551 83.3303 82.6222C83.0405 82.3892 82.6712 82.2727 82.2224 82.2727C81.7735 82.2727 81.4042 82.3892 81.1144 82.6222C80.8246 82.8551 80.6101 83.1605 80.4709 83.5384C80.3317 83.9162 80.2621 84.3239 80.2621 84.7614C80.2621 85.1989 80.3317 85.6051 80.4709 85.9801C80.6101 86.3551 80.8246 86.6577 81.1144 86.8878C81.4042 87.1179 81.7735 87.233 82.2224 87.233ZM86.6034 81.4545H87.6091V88.4773C87.6091 88.8807 87.5395 89.2301 87.4003 89.5256C87.2639 89.821 87.0565 90.0497 86.7781 90.2116C86.5026 90.3736 86.1546 90.4545 85.7341 90.4545C85.7 90.4545 85.6659 90.4545 85.6318 90.4545C85.5977 90.4545 85.5636 90.4545 85.5296 90.4545V89.517C85.5636 89.517 85.5949 89.517 85.6233 89.517C85.6517 89.517 85.683 89.517 85.7171 89.517C86.0239 89.517 86.2483 89.4261 86.3904 89.2443C86.5324 89.0653 86.6034 88.8097 86.6034 88.4773V81.4545ZM87.0977 80.3636C86.9017 80.3636 86.7327 80.2969 86.5906 80.1634C86.4514 80.0298 86.3818 79.8693 86.3818 79.6818C86.3818 79.4943 86.4514 79.3338 86.5906 79.2003C86.7327 79.0668 86.9017 79 87.0977 79C87.2938 79 87.4614 79.0668 87.6006 79.2003C87.7426 79.3338 87.8137 79.4943 87.8137 79.6818C87.8137 79.8693 87.7426 80.0298 87.6006 80.1634C87.4614 80.2969 87.2938 80.3636 87.0977 80.3636ZM92.0754 88.1364C91.4447 88.1364 90.9007 87.9972 90.4433 87.7188C89.9888 87.4375 89.6379 87.0455 89.3907 86.5426C89.1464 86.0369 89.0243 85.4489 89.0243 84.7784C89.0243 84.108 89.1464 83.517 89.3907 83.0057C89.6379 82.4915 89.9816 82.0909 90.422 81.804C90.8652 81.5142 91.3822 81.3693 91.9731 81.3693C92.314 81.3693 92.6507 81.4261 92.9831 81.5398C93.3155 81.6534 93.618 81.8381 93.8907 82.0938C94.1635 82.3466 94.3808 82.6818 94.5427 83.0994C94.7047 83.517 94.7856 84.0312 94.7856 84.642V85.0682H89.7402V84.1989H93.7629C93.7629 83.8295 93.689 83.5 93.5413 83.2102C93.3964 82.9205 93.189 82.6918 92.9191 82.5241C92.6521 82.3565 92.3368 82.2727 91.9731 82.2727C91.5726 82.2727 91.226 82.3722 90.9334 82.571C90.6436 82.767 90.4206 83.0227 90.2643 83.3381C90.1081 83.6534 90.0299 83.9915 90.0299 84.3523V84.9318C90.0299 85.4261 90.1152 85.8452 90.2856 86.1889C90.4589 86.5298 90.699 86.7898 91.0058 86.9688C91.3126 87.1449 91.6691 87.233 92.0754 87.233C92.3396 87.233 92.5782 87.196 92.7913 87.1222C93.0072 87.0455 93.1933 86.9318 93.3495 86.7812C93.5058 86.6278 93.6265 86.4375 93.7118 86.2102L94.6834 86.483C94.5811 86.8125 94.4092 87.1023 94.1677 87.3523C93.9263 87.5994 93.628 87.7926 93.2728 87.9318C92.9177 88.0682 92.5186 88.1364 92.0754 88.1364ZM98.8545 88.1364C98.2409 88.1364 97.7125 87.9915 97.2693 87.7017C96.8261 87.4119 96.4852 87.0128 96.2466 86.5043C96.008 85.9957 95.8886 85.4148 95.8886 84.7614C95.8886 84.0966 96.0108 83.5099 96.2551 83.0014C96.5023 82.4901 96.846 82.0909 97.2864 81.804C97.7295 81.5142 98.2466 81.3693 98.8375 81.3693C99.2977 81.3693 99.7125 81.4545 100.082 81.625C100.451 81.7955 100.754 82.0341 100.989 82.3409C101.225 82.6477 101.372 83.0057 101.428 83.4148H100.423C100.346 83.1165 100.176 82.8523 99.9114 82.6222C99.65 82.3892 99.2977 82.2727 98.8545 82.2727C98.4625 82.2727 98.1187 82.375 97.8233 82.5795C97.5307 82.7812 97.302 83.0668 97.1372 83.4361C96.9753 83.8026 96.8943 84.233 96.8943 84.7273C96.8943 85.233 96.9739 85.6733 97.133 86.0483C97.2949 86.4233 97.5222 86.7145 97.8148 86.9219C98.1102 87.1293 98.4568 87.233 98.8545 87.233C99.1159 87.233 99.3531 87.1875 99.5662 87.0966C99.7793 87.0057 99.9597 86.875 100.107 86.7045C100.255 86.5341 100.36 86.3295 100.423 86.0909H101.428C101.372 86.4773 101.231 86.8253 101.007 87.1349C100.785 87.4418 100.491 87.6861 100.124 87.8679C99.7608 88.0469 99.3375 88.1364 98.8545 88.1364ZM105.625 81.4545V82.3068H102.233V81.4545H105.625ZM103.222 79.8864H104.227V86.125C104.227 86.4091 104.269 86.6222 104.351 86.7642C104.436 86.9034 104.544 86.9972 104.675 87.0455C104.808 87.0909 104.949 87.1136 105.097 87.1136C105.208 87.1136 105.298 87.108 105.369 87.0966C105.441 87.0824 105.497 87.071 105.54 87.0625L105.744 87.9659C105.676 87.9915 105.581 88.017 105.459 88.0426C105.337 88.071 105.182 88.0852 104.994 88.0852C104.71 88.0852 104.432 88.0241 104.159 87.902C103.889 87.7798 103.665 87.5938 103.486 87.3438C103.31 87.0938 103.222 86.7784 103.222 86.3977V79.8864ZM110.767 88H109.659L112.864 79.2727H113.955L117.159 88H116.051L113.443 80.6534H113.375L110.767 88ZM111.176 84.5909H115.642V85.5284H111.176V84.5909Z" fill="#E0D5F4"/>
</g>
<circle cx="371" cy="103" r="3" fill="#131018"/>
<circle cx="371" cy="103" r="3" fill="url(#paint8_linear_510_9149)"/>
<circle cx="371" cy="103" r="3" stroke="#EADEFF"/>
<circle cx="371" cy="225" r="3" fill="#131018"/>
<circle cx="371" cy="225" r="3" fill="url(#paint9_linear_510_9149)"/>
<circle cx="371" cy="225" r="3" stroke="#EADEFF"/>
<circle cx="73" cy="224" r="3" fill="#131018"/>
<circle cx="73" cy="224" r="3" fill="url(#paint10_linear_510_9149)"/>
<circle cx="73" cy="224" r="3" stroke="#EADEFF"/>
<circle cx="76" cy="104" r="3" fill="#131018"/>
<circle cx="76" cy="104" r="3" fill="url(#paint11_linear_510_9149)"/>
<circle cx="76" cy="104" r="3" stroke="#EADEFF"/>
<g filter="url(#filter4_d_510_9149)">
<rect x="149.5" y="128.896" width="150" height="66.7883" rx="16.4234" fill="#0C0B13"/>
<rect x="150.047" y="129.444" width="148.905" height="65.6934" rx="15.8759" stroke="#D9D9D9" stroke-width="1.09489"/>
<rect x="150.047" y="129.444" width="148.905" height="65.6934" rx="15.8759" stroke="#2A2831" stroke-width="1.09489"/>
</g>
<g filter="url(#filter5_dddi_510_9149)">
<rect x="168" y="142.791" width="113" height="39" rx="6" fill="url(#paint12_linear_510_9149)" shape-rendering="crispEdges"/>
<rect x="168.5" y="143.291" width="112" height="38" rx="5.5" stroke="#C3D1FF" stroke-opacity="0.2" style="mix-blend-mode:plus-lighter" shape-rendering="crispEdges"/>
<rect x="168.5" y="143.291" width="112" height="38" rx="5.5" stroke="url(#paint13_linear_510_9149)" stroke-opacity="0.2" shape-rendering="crispEdges"/>
<rect x="168.5" y="143.291" width="112" height="38" rx="5.5" stroke="url(#paint14_linear_510_9149)" stroke-opacity="0.2" shape-rendering="crispEdges"/>
<path d="M183.938 170.291V154.291H189.344C190.594 154.291 191.62 154.505 192.422 154.932C193.224 155.354 193.818 155.934 194.203 156.674C194.589 157.413 194.781 158.255 194.781 159.197C194.781 160.14 194.589 160.976 194.203 161.705C193.818 162.434 193.227 163.007 192.43 163.424C191.633 163.835 190.615 164.041 189.375 164.041H185V162.291H189.313C190.167 162.291 190.854 162.166 191.375 161.916C191.901 161.666 192.281 161.312 192.516 160.854C192.755 160.39 192.875 159.838 192.875 159.197C192.875 158.557 192.755 157.997 192.516 157.518C192.276 157.038 191.893 156.669 191.367 156.408C190.841 156.143 190.146 156.01 189.281 156.01H185.875V170.291H183.938ZM191.469 163.104L195.406 170.291H193.156L189.281 163.104H191.469ZM205.102 165.385V158.291H206.946V170.291H205.102V168.26H204.977C204.696 168.869 204.259 169.387 203.665 169.814C203.071 170.236 202.321 170.447 201.415 170.447C200.665 170.447 199.998 170.283 199.415 169.955C198.831 169.622 198.373 169.122 198.04 168.455C197.706 167.783 197.54 166.937 197.54 165.916V158.291H199.384V165.791C199.384 166.666 199.628 167.364 200.118 167.885C200.613 168.406 201.243 168.666 202.009 168.666C202.467 168.666 202.933 168.549 203.407 168.314C203.886 168.08 204.287 167.721 204.61 167.236C204.938 166.752 205.102 166.135 205.102 165.385ZM211.947 163.072V170.291H210.103V158.291H211.884V160.166H212.04C212.322 159.557 212.749 159.067 213.322 158.697C213.895 158.322 214.634 158.135 215.54 158.135C216.353 158.135 217.064 158.301 217.673 158.635C218.283 158.963 218.757 159.463 219.095 160.135C219.434 160.801 219.603 161.645 219.603 162.666V170.291H217.759V162.791C217.759 161.848 217.514 161.114 217.025 160.588C216.535 160.057 215.863 159.791 215.009 159.791C214.421 159.791 213.895 159.919 213.431 160.174C212.973 160.429 212.611 160.801 212.345 161.291C212.08 161.781 211.947 162.374 211.947 163.072ZM233.938 158.291V159.854H227.72V158.291H233.938ZM229.532 155.416H231.376V166.854C231.376 167.374 231.451 167.765 231.602 168.025C231.759 168.281 231.957 168.452 232.196 168.541C232.441 168.624 232.699 168.666 232.97 168.666C233.173 168.666 233.339 168.656 233.47 168.635C233.6 168.609 233.704 168.588 233.782 168.572L234.157 170.229C234.032 170.275 233.858 170.322 233.634 170.369C233.41 170.421 233.126 170.447 232.782 170.447C232.261 170.447 231.751 170.335 231.251 170.111C230.756 169.887 230.345 169.546 230.016 169.088C229.694 168.63 229.532 168.051 229.532 167.354V155.416ZM241.394 170.541C240.238 170.541 239.24 170.286 238.402 169.775C237.569 169.26 236.925 168.541 236.472 167.619C236.024 166.692 235.8 165.614 235.8 164.385C235.8 163.156 236.024 162.072 236.472 161.135C236.925 160.192 237.556 159.458 238.363 158.932C239.175 158.4 240.123 158.135 241.207 158.135C241.832 158.135 242.449 158.239 243.058 158.447C243.668 158.656 244.222 158.994 244.722 159.463C245.222 159.926 245.621 160.541 245.918 161.307C246.214 162.072 246.363 163.015 246.363 164.135V164.916H237.113V163.322H244.488C244.488 162.645 244.352 162.041 244.082 161.51C243.816 160.979 243.436 160.559 242.941 160.252C242.451 159.945 241.873 159.791 241.207 159.791C240.472 159.791 239.837 159.973 239.3 160.338C238.769 160.697 238.36 161.166 238.074 161.744C237.787 162.322 237.644 162.942 237.644 163.604V164.666C237.644 165.572 237.8 166.34 238.113 166.971C238.431 167.596 238.871 168.072 239.433 168.4C239.996 168.723 240.649 168.885 241.394 168.885C241.879 168.885 242.316 168.817 242.707 168.682C243.102 168.541 243.444 168.333 243.73 168.057C244.017 167.775 244.238 167.426 244.394 167.01L246.175 167.51C245.988 168.114 245.673 168.645 245.23 169.104C244.787 169.557 244.24 169.911 243.589 170.166C242.938 170.416 242.207 170.541 241.394 170.541ZM257.448 160.979L255.791 161.447C255.687 161.171 255.534 160.903 255.33 160.643C255.132 160.377 254.862 160.158 254.518 159.986C254.174 159.814 253.734 159.729 253.198 159.729C252.463 159.729 251.851 159.898 251.362 160.236C250.877 160.57 250.635 160.994 250.635 161.51C250.635 161.968 250.802 162.33 251.135 162.596C251.468 162.861 251.989 163.083 252.698 163.26L254.479 163.697C255.552 163.958 256.351 164.356 256.877 164.893C257.403 165.424 257.666 166.109 257.666 166.947C257.666 167.635 257.468 168.249 257.073 168.791C256.682 169.333 256.135 169.76 255.432 170.072C254.729 170.385 253.911 170.541 252.979 170.541C251.755 170.541 250.742 170.275 249.94 169.744C249.138 169.213 248.63 168.437 248.416 167.416L250.166 166.979C250.333 167.624 250.648 168.109 251.112 168.432C251.58 168.755 252.192 168.916 252.948 168.916C253.807 168.916 254.489 168.734 254.994 168.369C255.505 167.999 255.76 167.557 255.76 167.041C255.76 166.624 255.614 166.275 255.323 165.994C255.031 165.708 254.583 165.494 253.979 165.354L251.979 164.885C250.88 164.624 250.073 164.221 249.557 163.674C249.047 163.122 248.791 162.432 248.791 161.604C248.791 160.926 248.981 160.327 249.362 159.807C249.747 159.286 250.27 158.877 250.932 158.58C251.599 158.283 252.354 158.135 253.198 158.135C254.385 158.135 255.317 158.395 255.994 158.916C256.677 159.437 257.161 160.124 257.448 160.979ZM265.44 158.291V159.854H259.222V158.291H265.44ZM261.034 155.416H262.878V166.854C262.878 167.374 262.953 167.765 263.105 168.025C263.261 168.281 263.459 168.452 263.698 168.541C263.943 168.624 264.201 168.666 264.472 168.666C264.675 168.666 264.842 168.656 264.972 168.635C265.102 168.609 265.206 168.588 265.284 168.572L265.659 170.229C265.534 170.275 265.36 170.322 265.136 170.369C264.912 170.421 264.628 170.447 264.284 170.447C263.763 170.447 263.253 170.335 262.753 170.111C262.258 169.887 261.847 169.546 261.519 169.088C261.196 168.63 261.034 168.051 261.034 167.354V155.416Z" fill="#EADEFF"/>
</g>
<path d="M255.339 190.168C255.339 190.746 254.894 191.325 254.182 191.291L252.192 191.225L242.173 190.869L236.536 201.488C236.002 202.477 234.512 202.144 234.446 201.032L233.178 180.016L233 176.97V176.903C233 176.024 233.979 175.48 234.723 175.98L254.838 189.256C255.183 189.49 255.339 189.835 255.339 190.168Z" fill="#E9DDED" stroke="white"/>
<path d="M255.339 190.168V193.882C255.339 194.472 254.894 195.039 254.182 195.016L242.173 194.594L236.536 205.202C236.002 206.191 234.512 205.869 234.446 204.746L233 180.695V176.97L233.178 180.016L234.446 201.032C234.512 202.144 236.002 202.478 236.536 201.488L242.173 190.869L252.192 191.225L254.182 191.291C254.894 191.325 255.339 190.747 255.339 190.168Z" fill="white" stroke="white"/>
<circle opacity="0.3" cx="234" cy="177" r="9.5" stroke="#E9DDED"/>
<circle opacity="0.1" cx="234" cy="177" r="15.5" stroke="#E9DDED"/>
<circle opacity="0.1" cx="234" cy="177" r="21.5" stroke="#E9DDED"/>
</g>
</g>
<defs>
<filter id="filter0_d_510_9149" x="248.146" y="103" width="127.854" height="54.5195" filterUnits="userSpaceOnUse" color-interpolation-filters="sRGB">
<feFlood flood-opacity="0" result="BackgroundImageFix"/>
<feColorMatrix in="SourceAlpha" type="matrix" values="0 0 0 0 0 0 0 0 0 0 0 0 0 0 0 0 0 0 127 0" result="hardAlpha"/>
<feOffset dy="4"/>
<feGaussianBlur stdDeviation="2"/>
<feComposite in2="hardAlpha" operator="out"/>
<feColorMatrix type="matrix" values="0 0 0 0 0 0 0 0 0 0 0 0 0 0 0 0 0 0 0.25 0"/>
<feBlend mode="normal" in2="BackgroundImageFix" result="effect1_dropShadow_510_9149"/>
<feBlend mode="normal" in="SourceGraphic" in2="effect1_dropShadow_510_9149" result="shape"/>
</filter>
<filter id="filter1_d_510_9149" x="248.146" y="181.48" width="127.854" height="53.0195" filterUnits="userSpaceOnUse" color-interpolation-filters="sRGB">
<feFlood flood-opacity="0" result="BackgroundImageFix"/>
<feColorMatrix in="SourceAlpha" type="matrix" values="0 0 0 0 0 0 0 0 0 0 0 0 0 0 0 0 0 0 127 0" result="hardAlpha"/>
<feOffset dy="4"/>
<feGaussianBlur stdDeviation="2"/>
<feComposite in2="hardAlpha" operator="out"/>
<feColorMatrix type="matrix" values="0 0 0 0 0 0 0 0 0 0 0 0 0 0 0 0 0 0 0.25 0"/>
<feBlend mode="normal" in2="BackgroundImageFix" result="effect1_dropShadow_510_9149"/>
<feBlend mode="normal" in="SourceGraphic" in2="effect1_dropShadow_510_9149" result="shape"/>
</filter>
<filter id="filter2_d_510_9149" x="68" y="181.48" width="127.854" height="53.0195" filterUnits="userSpaceOnUse" color-interpolation-filters="sRGB">
<feFlood flood-opacity="0" result="BackgroundImageFix"/>
<feColorMatrix in="SourceAlpha" type="matrix" values="0 0 0 0 0 0 0 0 0 0 0 0 0 0 0 0 0 0 127 0" result="hardAlpha"/>
<feOffset dy="4"/>
<feGaussianBlur stdDeviation="2"/>
<feComposite in2="hardAlpha" operator="out"/>
<feColorMatrix type="matrix" values="0 0 0 0 0 0 0 0 0 0 0 0 0 0 0 0 0 0 0.25 0"/>
<feBlend mode="normal" in2="BackgroundImageFix" result="effect1_dropShadow_510_9149"/>
<feBlend mode="normal" in="SourceGraphic" in2="effect1_dropShadow_510_9149" result="shape"/>
</filter>
<filter id="filter3_d_510_9149" x="71" y="104.5" width="127.854" height="53.0195" filterUnits="userSpaceOnUse" color-interpolation-filters="sRGB">
<feFlood flood-opacity="0" result="BackgroundImageFix"/>
<feColorMatrix in="SourceAlpha" type="matrix" values="0 0 0 0 0 0 0 0 0 0 0 0 0 0 0 0 0 0 127 0" result="hardAlpha"/>
<feOffset dy="4"/>
<feGaussianBlur stdDeviation="2"/>
<feComposite in2="hardAlpha" operator="out"/>
<feColorMatrix type="matrix" values="0 0 0 0 0 0 0 0 0 0 0 0 0 0 0 0 0 0 0.25 0"/>
<feBlend mode="normal" in2="BackgroundImageFix" result="effect1_dropShadow_510_9149"/>
<feBlend mode="normal" in="SourceGraphic" in2="effect1_dropShadow_510_9149" result="shape"/>
</filter>
<filter id="filter4_d_510_9149" x="122.3" y="101.696" width="204.4" height="121.188" filterUnits="userSpaceOnUse" color-interpolation-filters="sRGB">
<feFlood flood-opacity="0" result="BackgroundImageFix"/>
<feColorMatrix in="SourceAlpha" type="matrix" values="0 0 0 0 0 0 0 0 0 0 0 0 0 0 0 0 0 0 127 0" result="hardAlpha"/>
<feOffset/>
<feGaussianBlur stdDeviation="13.6"/>
<feComposite in2="hardAlpha" operator="out"/>
<feColorMatrix type="matrix" values="0 0 0 0 0 0 0 0 0 0 0 0 0 0 0 0 0 0 1 0"/>
<feBlend mode="normal" in2="BackgroundImageFix" result="effect1_dropShadow_510_9149"/>
<feBlend mode="normal" in="SourceGraphic" in2="effect1_dropShadow_510_9149" result="shape"/>
</filter>
<filter id="filter5_dddi_510_9149" x="-17" y="-42.209" width="483" height="409" filterUnits="userSpaceOnUse" color-interpolation-filters="sRGB">
<feFlood flood-opacity="0" result="BackgroundImageFix"/>
<feColorMatrix in="SourceAlpha" type="matrix" values="0 0 0 0 0 0 0 0 0 0 0 0 0 0 0 0 0 0 127 0" result="hardAlpha"/>
<feMorphology radius="2" operator="dilate" in="SourceAlpha" result="effect1_dropShadow_510_9149"/>
<feOffset/>
<feGaussianBlur stdDeviation="15"/>
<feComposite in2="hardAlpha" operator="out"/>
<feColorMatrix type="matrix" values="0 0 0 0 0.317647 0 0 0 0 0.25098 0 0 0 0 1 0 0 0 0.4 0"/>
<feBlend mode="normal" in2="BackgroundImageFix" result="effect1_dropShadow_510_9149"/>
<feColorMatrix in="SourceAlpha" type="matrix" values="0 0 0 0 0 0 0 0 0 0 0 0 0 0 0 0 0 0 127 0" result="hardAlpha"/>
<feMorphology radius="2" operator="dilate" in="SourceAlpha" result="effect2_dropShadow_510_9149"/>
<feOffset/>
<feGaussianBlur stdDeviation="91.5"/>
<feComposite in2="hardAlpha" operator="out"/>
<feColorMatrix type="matrix" values="0 0 0 0 0.317647 0 0 0 0 0.25098 0 0 0 0 1 0 0 0 0.4 0"/>
<feBlend mode="normal" in2="effect1_dropShadow_510_9149" result="effect2_dropShadow_510_9149"/>
<feColorMatrix in="SourceAlpha" type="matrix" values="0 0 0 0 0 0 0 0 0 0 0 0 0 0 0 0 0 0 127 0" result="hardAlpha"/>
<feOffset dy="0.75"/>
<feGaussianBlur stdDeviation="0.375"/>
<feComposite in2="hardAlpha" operator="out"/>
<feColorMatrix type="matrix" values="0 0 0 0 0.012376 0 0 0 0 0 0 0 0 0 0.139047 0 0 0 1 0"/>
<feBlend mode="normal" in2="effect2_dropShadow_510_9149" result="effect3_dropShadow_510_9149"/>
<feBlend mode="normal" in="SourceGraphic" in2="effect3_dropShadow_510_9149" result="shape"/>
<feColorMatrix in="SourceAlpha" type="matrix" values="0 0 0 0 0 0 0 0 0 0 0 0 0 0 0 0 0 0 127 0" result="hardAlpha"/>
<feMorphology radius="4" operator="erode" in="SourceAlpha" result="effect4_innerShadow_510_9149"/>
<feOffset/>
<feGaussianBlur stdDeviation="6"/>
<feComposite in2="hardAlpha" operator="arithmetic" k2="-1" k3="1"/>
<feColorMatrix type="matrix" values="0 0 0 0 1 0 0 0 0 1 0 0 0 0 1 0 0 0 0.25 0"/>
<feBlend mode="normal" in2="shape" result="effect4_innerShadow_510_9149"/>
</filter>
<linearGradient id="paint0_linear_510_9149" x1="323.21" y1="85.0917" x2="287.194" y2="98.6317" gradientUnits="userSpaceOnUse">
<stop stop-color="#A36BFF" stop-opacity="0"/>
<stop offset="0.000364903" stop-color="#A36BFF"/>
<stop offset="1" stop-color="#A36BFF" stop-opacity="0"/>
</linearGradient>
<linearGradient id="paint1_linear_510_9149" x1="123.79" y1="85.0917" x2="159.806" y2="98.6317" gradientUnits="userSpaceOnUse">
<stop stop-color="#A36BFF" stop-opacity="0"/>
<stop offset="0.000364903" stop-color="#A36BFF"/>
<stop offset="1" stop-color="#A36BFF" stop-opacity="0"/>
</linearGradient>
<linearGradient id="paint2_linear_510_9149" x1="323.21" y1="85.0917" x2="287.194" y2="98.6317" gradientUnits="userSpaceOnUse">
<stop stop-color="#A36BFF" stop-opacity="0"/>
<stop offset="0.000364903" stop-color="#A36BFF"/>
<stop offset="1" stop-color="#A36BFF" stop-opacity="0"/>
</linearGradient>
<linearGradient id="paint3_linear_510_9149" x1="323.21" y1="245.908" x2="287.194" y2="232.368" gradientUnits="userSpaceOnUse">
<stop stop-color="#A36BFF" stop-opacity="0"/>
<stop offset="0.000364903" stop-color="#A36BFF"/>
<stop offset="1" stop-color="#A36BFF" stop-opacity="0"/>
</linearGradient>
<linearGradient id="paint4_linear_510_9149" x1="323.21" y1="245.908" x2="287.194" y2="232.368" gradientUnits="userSpaceOnUse">
<stop stop-color="#A36BFF" stop-opacity="0"/>
<stop offset="0.000364903" stop-color="#A36BFF"/>
<stop offset="1" stop-color="#A36BFF" stop-opacity="0"/>
</linearGradient>
<linearGradient id="paint5_linear_510_9149" x1="120.79" y1="245.908" x2="156.806" y2="232.368" gradientUnits="userSpaceOnUse">
<stop stop-color="#A36BFF" stop-opacity="0"/>
<stop offset="0.000364903" stop-color="#A36BFF"/>
<stop offset="1" stop-color="#A36BFF" stop-opacity="0"/>
</linearGradient>
<linearGradient id="paint6_linear_510_9149" x1="120.79" y1="245.908" x2="156.806" y2="232.368" gradientUnits="userSpaceOnUse">
<stop stop-color="#A36BFF" stop-opacity="0"/>
<stop offset="0.000364903" stop-color="#A36BFF"/>
<stop offset="1" stop-color="#A36BFF" stop-opacity="0"/>
</linearGradient>
<linearGradient id="paint7_linear_510_9149" x1="123.79" y1="85.0917" x2="159.806" y2="98.6317" gradientUnits="userSpaceOnUse">
<stop stop-color="#A36BFF" stop-opacity="0"/>
<stop offset="0.000364903" stop-color="#A36BFF"/>
<stop offset="1" stop-color="#A36BFF" stop-opacity="0"/>
</linearGradient>
<linearGradient id="paint8_linear_510_9149" x1="367.485" y1="99.5" x2="372.766" y2="105.356" gradientUnits="userSpaceOnUse">
<stop stop-color="#A36BFF"/>
<stop offset="1" stop-color="#4E3EFF"/>
</linearGradient>
<linearGradient id="paint9_linear_510_9149" x1="367.485" y1="221.5" x2="372.766" y2="227.356" gradientUnits="userSpaceOnUse">
<stop stop-color="#A36BFF"/>
<stop offset="1" stop-color="#4E3EFF"/>
</linearGradient>
<linearGradient id="paint10_linear_510_9149" x1="69.4851" y1="220.5" x2="74.7664" y2="226.356" gradientUnits="userSpaceOnUse">
<stop stop-color="#A36BFF"/>
<stop offset="1" stop-color="#4E3EFF"/>
</linearGradient>
<linearGradient id="paint11_linear_510_9149" x1="72.4851" y1="100.5" x2="77.7664" y2="106.356" gradientUnits="userSpaceOnUse">
<stop stop-color="#A36BFF"/>
<stop offset="1" stop-color="#4E3EFF"/>
</linearGradient>
<linearGradient id="paint12_linear_510_9149" x1="158.302" y1="139.541" x2="177.89" y2="202.467" gradientUnits="userSpaceOnUse">
<stop stop-color="#A36BFF"/>
<stop offset="1" stop-color="#4E3EFF"/>
</linearGradient>
<linearGradient id="paint13_linear_510_9149" x1="179.806" y1="173.124" x2="167.369" y2="143.57" gradientUnits="userSpaceOnUse">
<stop stop-color="white" stop-opacity="0"/>
<stop offset="1" stop-color="white"/>
</linearGradient>
<linearGradient id="paint14_linear_510_9149" x1="256.966" y1="166.083" x2="280.761" y2="176.615" gradientUnits="userSpaceOnUse">
<stop stop-color="white" stop-opacity="0"/>
<stop offset="1" stop-color="white"/>
</linearGradient>
<clipPath id="clip0_510_9149">
<rect width="449" height="295" fill="white"/>
</clipPath>
<clipPath id="clip1_510_9149">
<path d="M0 29.4157C0 24.2155 4.21555 20 9.41569 20H439.584C444.784 20 449 24.2155 449 29.4157V295.584C449 300.784 444.784 305 439.584 305H9.41568C4.21554 305 0 300.784 0 295.584V29.4157Z" fill="white"/>
</clipPath>
</defs>
</svg>
