<svg width="373" height="220" viewBox="0 0 373 220" fill="none" xmlns="http://www.w3.org/2000/svg">
<g clip-path="url(#clip0_536_6882)">
<g filter="url(#filter0_ddddd_536_6882)">
<rect x="134.5" y="79.25" width="101" height="61.5" rx="6" fill="#131018"/>
<rect x="134.822" y="79.572" width="100.356" height="60.856" rx="5.67802" stroke="#EADEFF" stroke-opacity="0.12" stroke-width="0.64396"/>
<path d="M185 103.836L189.243 108.078L187.828 109.493L186 107.665V113.25H184V107.663L182.172 109.493L180.757 108.078L185 103.836ZM185 93.25C188.593 93.25 191.554 95.9576 191.954 99.4439C194.286 100.082 196 102.216 196 104.75C196 107.619 193.804 109.975 191.001 110.228L191.001 108.214C192.697 107.971 194 106.513 194 104.75C194 102.817 192.433 101.25 190.5 101.25C190.291 101.25 190.087 101.268 189.889 101.304C189.962 100.964 190 100.612 190 100.25C190 97.4886 187.761 95.25 185 95.25C182.239 95.25 180 97.4886 180 100.25C180 100.612 180.038 100.964 180.112 101.303C179.913 101.268 179.709 101.25 179.5 101.25C177.567 101.25 176 102.817 176 104.75C176 106.45 177.212 107.867 178.82 108.184L179 108.215L179 110.228C176.197 109.975 174 107.619 174 104.75C174 102.216 175.714 100.082 178.046 99.4441C178.446 95.9576 181.407 93.25 185 93.25Z" fill="#EADEFF"/>
<path d="M147.49 128.75V120.65H150.42C151.3 120.65 152.057 120.813 152.69 121.14C153.33 121.46 153.82 121.923 154.16 122.53C154.507 123.137 154.68 123.86 154.68 124.7C154.68 125.533 154.507 126.253 154.16 126.86C153.813 127.467 153.32 127.933 152.68 128.26C152.047 128.587 151.293 128.75 150.42 128.75H147.49ZM148.64 127.77H150.42C151.4 127.77 152.16 127.5 152.7 126.96C153.247 126.42 153.52 125.667 153.52 124.7C153.52 123.727 153.25 122.973 152.71 122.44C152.17 121.9 151.407 121.63 150.42 121.63H148.64V127.77ZM155.919 128.75V123.91H155.339V122.75H156.539V123.87H156.959C157.125 123.503 157.382 123.217 157.729 123.01C158.082 122.803 158.495 122.7 158.969 122.7H159.459V123.66H158.909C158.309 123.66 157.845 123.837 157.519 124.19C157.192 124.543 157.029 125.02 157.029 125.62V128.75H155.919ZM161.607 128.86C160.927 128.86 160.39 128.693 159.997 128.36C159.61 128.02 159.417 127.577 159.417 127.03C159.417 126.457 159.61 126.013 159.997 125.7C160.383 125.38 160.94 125.22 161.667 125.22H163.717V124.95C163.717 124.023 163.207 123.56 162.187 123.56C161.353 123.56 160.85 123.873 160.677 124.5H159.547C159.647 123.907 159.93 123.447 160.397 123.12C160.87 122.793 161.473 122.63 162.207 122.63C163.04 122.63 163.677 122.827 164.117 123.22C164.563 123.613 164.787 124.18 164.787 124.92V127.59H165.327V128.75H164.127V127.83H163.707C163.5 128.15 163.217 128.403 162.857 128.59C162.497 128.77 162.08 128.86 161.607 128.86ZM161.757 127.96C162.117 127.96 162.447 127.887 162.747 127.74C163.047 127.593 163.283 127.393 163.457 127.14C163.63 126.887 163.717 126.61 163.717 126.31V126.04H161.737C160.897 126.04 160.477 126.353 160.477 126.98C160.477 127.28 160.59 127.52 160.817 127.7C161.043 127.873 161.357 127.96 161.757 127.96ZM168.733 131.27C167.9 131.27 167.223 131.097 166.703 130.75C166.183 130.403 165.877 129.923 165.783 129.31H166.963C167.143 129.99 167.727 130.33 168.713 130.33C169.34 130.33 169.82 130.18 170.153 129.88C170.487 129.587 170.653 129.167 170.653 128.62V127.65H170.603C170.443 128.003 170.19 128.277 169.843 128.47C169.497 128.657 169.087 128.75 168.613 128.75C168.047 128.75 167.553 128.627 167.133 128.38C166.713 128.127 166.39 127.773 166.163 127.32C165.937 126.86 165.823 126.317 165.823 125.69C165.823 124.75 166.077 124.007 166.583 123.46C167.09 122.907 167.783 122.63 168.663 122.63C169.143 122.63 169.557 122.72 169.903 122.9C170.25 123.073 170.523 123.33 170.723 123.67H171.143V122.75H172.343V123.91H171.763V128.67C171.763 129.49 171.497 130.127 170.963 130.58C170.437 131.04 169.693 131.27 168.733 131.27ZM168.883 127.77C169.41 127.77 169.833 127.617 170.153 127.31C170.48 127.003 170.643 126.597 170.643 126.09V125.29C170.643 124.783 170.48 124.377 170.153 124.07C169.833 123.763 169.41 123.61 168.883 123.61C168.277 123.61 167.8 123.793 167.453 124.16C167.113 124.52 166.943 125.03 166.943 125.69C166.943 126.35 167.113 126.863 167.453 127.23C167.8 127.59 168.277 127.77 168.883 127.77ZM177.428 128.86C176.748 128.86 176.212 128.693 175.818 128.36C175.432 128.02 175.238 127.577 175.238 127.03C175.238 126.457 175.432 126.013 175.818 125.7C176.205 125.38 176.762 125.22 177.488 125.22H179.538V124.95C179.538 124.023 179.028 123.56 178.008 123.56C177.175 123.56 176.672 123.873 176.498 124.5H175.368C175.468 123.907 175.752 123.447 176.218 123.12C176.692 122.793 177.295 122.63 178.028 122.63C178.862 122.63 179.498 122.827 179.938 123.22C180.385 123.613 180.608 124.18 180.608 124.92V127.59H181.148V128.75H179.948V127.83H179.528C179.322 128.15 179.038 128.403 178.678 128.59C178.318 128.77 177.902 128.86 177.428 128.86ZM177.578 127.96C177.938 127.96 178.268 127.887 178.568 127.74C178.868 127.593 179.105 127.393 179.278 127.14C179.452 126.887 179.538 126.61 179.538 126.31V126.04H177.558C176.718 126.04 176.298 126.353 176.298 126.98C176.298 127.28 176.412 127.52 176.638 127.7C176.865 127.873 177.178 127.96 177.578 127.96ZM182.026 128.75V123.91H181.446V122.75H182.646V123.67H183.066C183.273 123.337 183.556 123.083 183.916 122.91C184.276 122.73 184.699 122.64 185.186 122.64C185.959 122.64 186.569 122.863 187.016 123.31C187.463 123.75 187.686 124.34 187.686 125.08V128.75H186.566V125.27C186.566 124.73 186.419 124.32 186.126 124.04C185.839 123.76 185.416 123.62 184.856 123.62C184.303 123.62 183.879 123.76 183.586 124.04C183.293 124.32 183.146 124.73 183.146 125.27V128.75H182.026ZM191.286 128.87C190.686 128.87 190.173 128.743 189.746 128.49C189.326 128.237 189.003 127.877 188.776 127.41C188.556 126.943 188.446 126.39 188.446 125.75C188.446 125.11 188.556 124.557 188.776 124.09C188.996 123.623 189.309 123.263 189.716 123.01C190.129 122.757 190.619 122.63 191.186 122.63C191.666 122.63 192.079 122.723 192.426 122.91C192.779 123.097 193.046 123.367 193.226 123.72H193.266V120.35H194.386V127.59H194.966V128.75H193.766V127.83H193.346C193.146 128.17 192.873 128.43 192.526 128.61C192.179 128.783 191.766 128.87 191.286 128.87ZM191.456 127.91C192.003 127.91 192.439 127.753 192.766 127.44C193.099 127.127 193.266 126.71 193.266 126.19V125.31C193.266 124.79 193.099 124.373 192.766 124.06C192.439 123.747 192.003 123.59 191.456 123.59C190.856 123.59 190.389 123.78 190.056 124.16C189.729 124.54 189.566 125.07 189.566 125.75C189.566 126.43 189.729 126.96 190.056 127.34C190.389 127.72 190.856 127.91 191.456 127.91ZM198.447 128.75V120.65H201.377C202.257 120.65 203.014 120.813 203.647 121.14C204.287 121.46 204.777 121.923 205.117 122.53C205.464 123.137 205.637 123.86 205.637 124.7C205.637 125.533 205.464 126.253 205.117 126.86C204.771 127.467 204.277 127.933 203.637 128.26C203.004 128.587 202.251 128.75 201.377 128.75H198.447ZM199.597 127.77H201.377C202.357 127.77 203.117 127.5 203.657 126.96C204.204 126.42 204.477 125.667 204.477 124.7C204.477 123.727 204.207 122.973 203.667 122.44C203.127 121.9 202.364 121.63 201.377 121.63H199.597V127.77ZM206.876 128.75V123.91H206.296V122.75H207.496V123.87H207.916C208.083 123.503 208.339 123.217 208.686 123.01C209.039 122.803 209.453 122.7 209.926 122.7H210.416V123.66H209.866C209.266 123.66 208.803 123.837 208.476 124.19C208.149 124.543 207.986 125.02 207.986 125.62V128.75H206.876ZM213.418 128.87C212.798 128.87 212.255 128.743 211.788 128.49C211.328 128.23 210.972 127.867 210.718 127.4C210.465 126.933 210.338 126.383 210.338 125.75C210.338 125.117 210.465 124.567 210.718 124.1C210.972 123.633 211.328 123.273 211.788 123.02C212.255 122.76 212.798 122.63 213.418 122.63C214.058 122.63 214.605 122.757 215.058 123.01C215.518 123.263 215.872 123.623 216.118 124.09C216.372 124.557 216.498 125.11 216.498 125.75C216.498 126.383 216.372 126.937 216.118 127.41C215.872 127.877 215.518 128.237 215.058 128.49C214.598 128.743 214.052 128.87 213.418 128.87ZM213.418 127.89C214.038 127.89 214.518 127.703 214.858 127.33C215.205 126.95 215.378 126.423 215.378 125.75C215.378 125.07 215.205 124.543 214.858 124.17C214.518 123.797 214.038 123.61 213.418 123.61C212.805 123.61 212.325 123.8 211.978 124.18C211.632 124.553 211.458 125.077 211.458 125.75C211.458 126.423 211.632 126.95 211.978 127.33C212.325 127.703 212.805 127.89 213.418 127.89ZM217.56 131.15V123.91H216.98V122.75H218.18V123.67H218.6C218.8 123.33 219.073 123.073 219.42 122.9C219.767 122.72 220.18 122.63 220.66 122.63C221.267 122.63 221.78 122.757 222.2 123.01C222.62 123.263 222.94 123.623 223.16 124.09C223.387 124.557 223.5 125.11 223.5 125.75C223.5 126.39 223.39 126.943 223.17 127.41C222.95 127.877 222.633 128.237 222.22 128.49C221.813 128.743 221.327 128.87 220.76 128.87C220.287 128.87 219.873 128.777 219.52 128.59C219.167 128.397 218.9 128.127 218.72 127.78H218.68V131.15H217.56ZM220.49 127.91C221.09 127.91 221.553 127.72 221.88 127.34C222.213 126.96 222.38 126.43 222.38 125.75C222.38 125.07 222.213 124.54 221.88 124.16C221.553 123.78 221.09 123.59 220.49 123.59C219.943 123.59 219.503 123.747 219.17 124.06C218.843 124.373 218.68 124.79 218.68 125.31V126.19C218.68 126.71 218.843 127.127 219.17 127.44C219.503 127.753 219.943 127.91 220.49 127.91Z" fill="#EADEFF"/>
</g>
<path opacity="0.4" d="M137.5 69.5703H232.5C239.503 69.5703 245.18 75.247 245.18 82.25V137.75C245.18 144.753 239.503 150.43 232.5 150.43H137.5C130.497 150.43 124.82 144.753 124.82 137.75V82.25C124.82 75.247 130.497 69.5703 137.5 69.5703Z" stroke="#EADEFF" stroke-opacity="0.12" stroke-width="0.64"/>
<path opacity="0.2" d="M134.5 59.5703H235.5C246.369 59.5703 255.18 68.381 255.18 79.25V140.75C255.18 151.619 246.369 160.43 235.5 160.43H134.5C123.631 160.43 114.82 151.619 114.82 140.75V79.25C114.82 68.381 123.631 59.5703 134.5 59.5703Z" stroke="#EADEFF" stroke-opacity="0.12" stroke-width="0.64"/>
<rect x="275.5" y="49.75" width="97" height="39" rx="9.5" stroke="#EADEFF" stroke-opacity="0.12"/>
<rect x="279.5" y="53.75" width="31" height="31" rx="5.5" fill="url(#paint0_linear_536_6882)"/>
<rect x="279.5" y="53.75" width="31" height="31" rx="5.5" fill="#2C263A"/>
<rect x="279.5" y="53.75" width="31" height="31" rx="5.5" stroke="#464055"/>
<path d="M295.277 64.8333H301.001C301.369 64.8333 301.667 65.1318 301.667 65.5V74.8333C301.667 75.2015 301.369 75.5 301.001 75.5H289.001C288.632 75.5 288.334 75.2015 288.334 74.8333V64.1667C288.334 63.7985 288.632 63.5 289.001 63.5H293.943L295.277 64.8333ZM289.667 64.8333V74.1667H300.334V66.1667H294.725L293.391 64.8333H289.667ZM295.667 70.1667V72.8333H294.334V70.1667H292.334L295.001 67.5L297.667 70.1667H295.667Z" fill="white"/>
<rect opacity="0.12" x="319" y="57.25" width="46.0859" height="7.09912" rx="2" fill="#D9D9D9"/>
<rect opacity="0.02" x="319" y="68.3496" width="14" height="7" rx="2" fill="#D9D9D9"/>
<rect x="266.52" y="138.722" width="100.959" height="40.5918" rx="9.88775" stroke="#EADEFF" stroke-opacity="0.12" stroke-width="1.04082"/>
<rect x="270.683" y="142.885" width="32.2653" height="32.2653" rx="5.72449" fill="url(#paint1_linear_536_6882)"/>
<rect x="270.683" y="142.885" width="32.2653" height="32.2653" rx="5.72449" fill="#2C263A"/>
<rect x="270.683" y="142.885" width="32.2653" height="32.2653" rx="5.72449" stroke="#464055" stroke-width="1.04082"/>
<path d="M287.103 154.42H293.061C293.444 154.42 293.755 154.731 293.755 155.114V164.828C293.755 165.211 293.444 165.522 293.061 165.522H280.571C280.188 165.522 279.877 165.211 279.877 164.828V153.726C279.877 153.343 280.188 153.032 280.571 153.032H285.715L287.103 154.42ZM281.265 154.42V164.134H292.367V155.808H286.528L285.141 154.42H281.265ZM287.51 159.971V162.747H286.122V159.971H284.04L286.816 157.195L289.591 159.971H287.51Z" fill="white"/>
<rect opacity="0.12" x="311.796" y="146.527" width="47.967" height="7.38888" rx="2.08163" fill="#D9D9D9"/>
<rect opacity="0.02" x="311.796" y="158.08" width="14.5714" height="7.28571" rx="2.08163" fill="#D9D9D9"/>
<rect x="18.5" y="133.5" width="97" height="39" rx="9.5" stroke="#EADEFF" stroke-opacity="0.12"/>
<rect x="22.5" y="137.5" width="31" height="31" rx="5.5" fill="url(#paint2_linear_536_6882)"/>
<rect x="22.5" y="137.5" width="31" height="31" rx="5.5" fill="#2C263A"/>
<rect x="22.5" y="137.5" width="31" height="31" rx="5.5" stroke="#464055"/>
<path d="M38.2768 148.583H44.0007C44.3689 148.583 44.6673 148.882 44.6673 149.25V158.583C44.6673 158.952 44.3689 159.25 44.0007 159.25H32.0007C31.6325 159.25 31.334 158.952 31.334 158.583V147.917C31.334 147.548 31.6325 147.25 32.0007 147.25H36.9435L38.2768 148.583ZM32.6673 148.583V157.917H43.334V149.917H37.7245L36.3912 148.583H32.6673ZM38.6673 153.917V156.583H37.334V153.917H35.334L38.0007 151.25L40.6673 153.917H38.6673Z" fill="white"/>
<rect opacity="0.12" x="62" y="141" width="46.0859" height="7.09912" rx="2" fill="#D9D9D9"/>
<rect opacity="0.02" x="62" y="152.1" width="14" height="7" rx="2" fill="#D9D9D9"/>
<rect x="0.542969" y="44" width="97" height="39" rx="9.5" stroke="#EADEFF" stroke-opacity="0.12"/>
<rect x="4.54297" y="48" width="31" height="31" rx="5.5" fill="url(#paint3_linear_536_6882)"/>
<rect x="4.54297" y="48" width="31" height="31" rx="5.5" fill="#2C263A"/>
<rect x="4.54297" y="48" width="31" height="31" rx="5.5" stroke="#464055"/>
<path d="M20.3198 59.0833H26.0436C26.4118 59.0833 26.7103 59.3818 26.7103 59.75V69.0833C26.7103 69.4515 26.4118 69.75 26.0436 69.75H14.0436C13.6754 69.75 13.377 69.4515 13.377 69.0833V58.4167C13.377 58.0485 13.6754 57.75 14.0436 57.75H18.9864L20.3198 59.0833ZM14.7103 59.0833V68.4167H25.377V60.4167H19.7675L18.4341 59.0833H14.7103ZM20.7103 64.4167V67.0833H19.377V64.4167H17.377L20.0436 61.75L22.7103 64.4167H20.7103Z" fill="white"/>
<rect opacity="0.12" x="44.043" y="51.5" width="46.0859" height="7.09912" rx="2" fill="#D9D9D9"/>
<rect opacity="0.02" x="44.043" y="62.5996" width="14" height="7" rx="2" fill="#D9D9D9"/>
<rect x="115" y="13.5" width="97" height="39" rx="9.5" stroke="#EADEFF" stroke-opacity="0.12"/>
<rect x="119" y="17.5" width="31" height="31" rx="5.5" fill="url(#paint4_linear_536_6882)"/>
<rect x="119" y="17.5" width="31" height="31" rx="5.5" fill="#2C263A"/>
<rect x="119" y="17.5" width="31" height="31" rx="5.5" stroke="#464055"/>
<path d="M134.777 28.5833H140.501C140.869 28.5833 141.167 28.8818 141.167 29.25V38.5833C141.167 38.9515 140.869 39.25 140.501 39.25H128.501C128.132 39.25 127.834 38.9515 127.834 38.5833V27.9167C127.834 27.5485 128.132 27.25 128.501 27.25H133.443L134.777 28.5833ZM129.167 28.5833V37.9167H139.834V29.9167H134.225L132.891 28.5833H129.167ZM135.167 33.9167V36.5833H133.834V33.9167H131.834L134.501 31.25L137.167 33.9167H135.167Z" fill="white"/>
<rect opacity="0.12" x="158.5" y="21" width="46.0859" height="7.09912" rx="2" fill="#D9D9D9"/>
<rect opacity="0.02" x="158.5" y="32.0996" width="14" height="7" rx="2" fill="#D9D9D9"/>
<path d="M86.1288 92.6272C86.1288 93.2054 85.684 93.7836 84.9724 93.7502L82.982 93.6835L72.9635 93.3277L67.326 103.947C66.7923 104.936 65.3023 104.603 65.2356 103.491L63.9679 82.4752L63.79 79.4285V79.3618C63.79 78.4834 64.7685 77.9385 65.5135 78.4389L85.6284 91.7154C85.9731 91.9489 86.1288 92.2936 86.1288 92.6272Z" fill="#E9DDED" stroke="white"/>
<path d="M86.1288 92.6274V96.3412C86.1288 96.9306 85.684 97.4977 84.9724 97.4754L72.9635 97.0529L67.326 107.661C66.7923 108.65 65.3023 108.328 65.2356 107.205L63.79 83.1537V79.4287L63.9679 82.4754L65.2356 103.491C65.3023 104.603 66.7923 104.936 67.326 103.947L72.9635 93.3279L82.982 93.6837L84.9724 93.7504C85.684 93.7838 86.1288 93.2056 86.1288 92.6274Z" fill="white" stroke="white"/>
</g>
<defs>
<filter id="filter0_ddddd_536_6882" x="-214.643" y="-147.8" width="466.207" height="314.253" filterUnits="userSpaceOnUse" color-interpolation-filters="sRGB">
<feFlood flood-opacity="0" result="BackgroundImageFix"/>
<feColorMatrix in="SourceAlpha" type="matrix" values="0 0 0 0 0 0 0 0 0 0 0 0 0 0 0 0 0 0 127 0" result="hardAlpha"/>
<feOffset dx="-10.7099" dy="-5.35495"/>
<feGaussianBlur stdDeviation="13.3874"/>
<feColorMatrix type="matrix" values="0 0 0 0 0 0 0 0 0 0 0 0 0 0 0 0 0 0 0.39 0"/>
<feBlend mode="normal" in2="BackgroundImageFix" result="effect1_dropShadow_536_6882"/>
<feColorMatrix in="SourceAlpha" type="matrix" values="0 0 0 0 0 0 0 0 0 0 0 0 0 0 0 0 0 0 127 0" result="hardAlpha"/>
<feOffset dx="-42.8396" dy="-22.4908"/>
<feGaussianBlur stdDeviation="24.0973"/>
<feColorMatrix type="matrix" values="0 0 0 0 0 0 0 0 0 0 0 0 0 0 0 0 0 0 0.34 0"/>
<feBlend mode="normal" in2="effect1_dropShadow_536_6882" result="effect2_dropShadow_536_6882"/>
<feColorMatrix in="SourceAlpha" type="matrix" values="0 0 0 0 0 0 0 0 0 0 0 0 0 0 0 0 0 0 127 0" result="hardAlpha"/>
<feOffset dx="-95.318" dy="-51.4075"/>
<feGaussianBlur stdDeviation="32.6652"/>
<feColorMatrix type="matrix" values="0 0 0 0 0 0 0 0 0 0 0 0 0 0 0 0 0 0 0.2 0"/>
<feBlend mode="normal" in2="effect2_dropShadow_536_6882" result="effect3_dropShadow_536_6882"/>
<feColorMatrix in="SourceAlpha" type="matrix" values="0 0 0 0 0 0 0 0 0 0 0 0 0 0 0 0 0 0 127 0" result="hardAlpha"/>
<feOffset dx="-169.216" dy="-91.0341"/>
<feGaussianBlur stdDeviation="38.5556"/>
<feColorMatrix type="matrix" values="0 0 0 0 0 0 0 0 0 0 0 0 0 0 0 0 0 0 0.06 0"/>
<feBlend mode="normal" in2="effect3_dropShadow_536_6882" result="effect4_dropShadow_536_6882"/>
<feColorMatrix in="SourceAlpha" type="matrix" values="0 0 0 0 0 0 0 0 0 0 0 0 0 0 0 0 0 0 127 0" result="hardAlpha"/>
<feOffset dx="-264.534" dy="-142.442"/>
<feGaussianBlur stdDeviation="42.3041"/>
<feColorMatrix type="matrix" values="0 0 0 0 0 0 0 0 0 0 0 0 0 0 0 0 0 0 0.01 0"/>
<feBlend mode="normal" in2="effect4_dropShadow_536_6882" result="effect5_dropShadow_536_6882"/>
<feBlend mode="normal" in="SourceGraphic" in2="effect5_dropShadow_536_6882" result="shape"/>
</filter>
<linearGradient id="paint0_linear_536_6882" x1="307.957" y1="85.2502" x2="307.957" y2="53.2502" gradientUnits="userSpaceOnUse">
<stop stop-color="#FFC548"/>
<stop offset="1" stop-color="#C49227"/>
</linearGradient>
<linearGradient id="paint1_linear_536_6882" x1="300.302" y1="175.671" x2="300.302" y2="142.365" gradientUnits="userSpaceOnUse">
<stop stop-color="#FFC548"/>
<stop offset="1" stop-color="#C49227"/>
</linearGradient>
<linearGradient id="paint2_linear_536_6882" x1="50.957" y1="169" x2="50.957" y2="137" gradientUnits="userSpaceOnUse">
<stop stop-color="#FFC548"/>
<stop offset="1" stop-color="#C49227"/>
</linearGradient>
<linearGradient id="paint3_linear_536_6882" x1="33" y1="79.5002" x2="33" y2="47.5002" gradientUnits="userSpaceOnUse">
<stop stop-color="#FFC548"/>
<stop offset="1" stop-color="#C49227"/>
</linearGradient>
<linearGradient id="paint4_linear_536_6882" x1="147.457" y1="49.0002" x2="147.457" y2="17.0002" gradientUnits="userSpaceOnUse">
<stop stop-color="#FFC548"/>
<stop offset="1" stop-color="#C49227"/>
</linearGradient>
<clipPath id="clip0_536_6882">
<path d="M0 7.2453C0 3.24383 3.24383 0 7.24529 0H365.755C369.756 0 373 3.24383 373 7.24529V212.755C373 216.756 369.756 220 365.755 220H7.24529C3.24383 220 0 216.756 0 212.755V7.2453Z" fill="white"/>
</clipPath>
</defs>
</svg>
