<svg width="449" height="336" viewBox="0 0 449 336" fill="none" xmlns="http://www.w3.org/2000/svg">
<g clip-path="url(#clip0_536_7114)">
<g filter="url(#filter0_dddi_536_7114)">
<circle cx="224.5" cy="168" r="38.958" fill="url(#paint0_linear_536_7114)"/>
<circle cx="224.5" cy="168" r="38.458" stroke="#C3D1FF" stroke-opacity="0.2" style="mix-blend-mode:plus-lighter"/>
<circle cx="224.5" cy="168" r="38.458" stroke="url(#paint1_linear_536_7114)" stroke-opacity="0.2"/>
<circle cx="224.5" cy="168" r="38.458" stroke="url(#paint2_linear_536_7114)" stroke-opacity="0.2"/>
</g>
<path d="M215.661 168L224.498 176.801L221.287 180L209.238 168L221.287 156L224.498 159.199L215.661 168Z" fill="#EADEFF"/>
<path d="M239.762 168L227.714 180L224.502 176.801L233.339 168L224.498 159.199L227.709 156L239.758 168H239.762Z" fill="#EADEFF"/>
<path d="M218.877 168L224.498 162.401L230.119 168L224.498 173.599L218.877 168Z" fill="#EADEFF"/>
<circle opacity="0.1" cx="224.5" cy="168" r="71.938" stroke="#6E6A9A"/>
<circle opacity="0.04" cx="224.5" cy="168" r="117.861" stroke="#6E6A9A"/>
<circle opacity="0.1" cx="224.5" cy="168" r="167.22" stroke="#6E6A9A" stroke-dasharray="3 3"/>
<g clip-path="url(#clip1_536_7114)">
<rect x="251.75" y="49.5312" width="72" height="32" rx="3" fill="#2C263A"/>
<g style="mix-blend-mode:plus-lighter" opacity="0.4" filter="url(#filter1_f_536_7114)">
<path d="M350.414 225.531C355.315 294.532 416.721 508.531 773.582 326.205C1057.05 181.375 1020.84 413.743 1330.41 508.531" stroke="url(#paint3_linear_536_7114)" stroke-width="182.625"/>
</g>
<g clip-path="url(#clip2_536_7114)">
<path d="M268.417 60.8646V68.1979H279.084V60.8646H268.417ZM267.084 60.2029C267.084 59.832 267.387 59.5312 267.745 59.5312H279.756C280.121 59.5312 280.417 59.8305 280.417 60.2029V69.5313H267.084V60.2029ZM266.417 70.1979H281.084V71.5313H266.417V70.1979Z" fill="#EADEFF"/>
</g>
<path d="M286.934 70.5312V62.4312H290.564C291.464 62.4312 292.158 62.6546 292.644 63.1012C293.131 63.5412 293.374 64.1479 293.374 64.9212C293.374 65.6879 293.128 66.2946 292.634 66.7413C292.148 67.1879 291.458 67.4112 290.564 67.4112H288.084V70.5312H286.934ZM288.084 66.4412H290.504C291.071 66.4412 291.501 66.3046 291.794 66.0312C292.088 65.7579 292.234 65.3879 292.234 64.9212C292.234 64.4479 292.088 64.0779 291.794 63.8112C291.501 63.5379 291.071 63.4012 290.504 63.4012H288.084V66.4412ZM294.189 70.5312V62.1313H295.309V70.5312H294.189ZM298.408 70.6413C297.728 70.6413 297.191 70.4746 296.798 70.1412C296.411 69.8012 296.218 69.3579 296.218 68.8113C296.218 68.2379 296.411 67.7946 296.798 67.4813C297.185 67.1612 297.741 67.0012 298.468 67.0012H300.518V66.7313C300.518 65.8046 300.008 65.3412 298.988 65.3412C298.155 65.3412 297.651 65.6546 297.478 66.2812H296.348C296.448 65.6879 296.731 65.2279 297.198 64.9013C297.671 64.5746 298.275 64.4113 299.008 64.4113C299.841 64.4113 300.478 64.6079 300.918 65.0012C301.365 65.3946 301.588 65.9612 301.588 66.7013V69.3712H302.128V70.5312H300.928V69.6112H300.508C300.301 69.9312 300.018 70.1846 299.658 70.3712C299.298 70.5513 298.881 70.6413 298.408 70.6413ZM298.558 69.7412C298.918 69.7412 299.248 69.6679 299.548 69.5212C299.848 69.3746 300.085 69.1746 300.258 68.9212C300.431 68.6679 300.518 68.3912 300.518 68.0913V67.8212H298.538C297.698 67.8212 297.278 68.1346 297.278 68.7612C297.278 69.0612 297.391 69.3013 297.618 69.4813C297.845 69.6546 298.158 69.7412 298.558 69.7412ZM303.126 70.5312V65.6912H302.546V64.5312H303.746V65.4512H304.166C304.372 65.1179 304.656 64.8646 305.016 64.6912C305.376 64.5113 305.799 64.4213 306.286 64.4213C307.059 64.4213 307.669 64.6446 308.116 65.0912C308.562 65.5312 308.786 66.1212 308.786 66.8612V70.5312H307.666V67.0512C307.666 66.5112 307.519 66.1012 307.226 65.8212C306.939 65.5412 306.516 65.4012 305.956 65.4012C305.402 65.4012 304.979 65.5412 304.686 65.8212C304.392 66.1012 304.246 66.5112 304.246 67.0512V70.5312H303.126Z" fill="#EADEFF"/>
</g>
<rect x="252.25" y="50.0312" width="71" height="31" rx="2.5" stroke="#464055"/>
<g clip-path="url(#clip3_536_7114)">
<rect x="125.25" y="49.5312" width="91" height="32" rx="3" fill="#2C263A"/>
<g style="mix-blend-mode:plus-lighter" opacity="0.4" filter="url(#filter2_f_536_7114)">
<path d="M223.914 225.531C228.815 294.532 290.221 508.531 647.082 326.205C930.55 181.375 894.341 413.743 1203.91 508.531" stroke="url(#paint4_linear_536_7114)" stroke-width="182.625"/>
</g>
<path d="M142.583 59.5312V70.1979H153.25V71.5313H141.25V59.5312H142.583ZM152.779 61.7265L153.721 62.6693L149.917 66.4741L147.917 64.4746L145.055 67.336L144.112 66.3932L147.917 62.5884L149.917 64.5879L152.779 61.7265Z" fill="#EADEFF"/>
<path d="M160.39 70.5312V62.4312H162.06L164.86 68.9612H164.9L167.71 62.4312H169.37V70.5312H168.22V63.7812H168.18L165.31 70.5312H164.38L161.5 63.7713H161.46V70.5312H160.39ZM173.547 70.6512C172.927 70.6512 172.384 70.5246 171.917 70.2713C171.457 70.0112 171.101 69.6479 170.847 69.1812C170.594 68.7146 170.467 68.1646 170.467 67.5312C170.467 66.8979 170.594 66.3479 170.847 65.8812C171.101 65.4146 171.457 65.0546 171.917 64.8012C172.384 64.5412 172.927 64.4113 173.547 64.4113C174.187 64.4113 174.734 64.5379 175.187 64.7912C175.647 65.0446 176.001 65.4046 176.247 65.8712C176.501 66.3379 176.627 66.8912 176.627 67.5312C176.627 68.1646 176.501 68.7179 176.247 69.1912C176.001 69.6579 175.647 70.0179 175.187 70.2713C174.727 70.5246 174.181 70.6512 173.547 70.6512ZM173.547 69.6713C174.167 69.6713 174.647 69.4846 174.987 69.1112C175.334 68.7312 175.507 68.2046 175.507 67.5312C175.507 66.8512 175.334 66.3246 174.987 65.9512C174.647 65.5779 174.167 65.3912 173.547 65.3912C172.934 65.3912 172.454 65.5812 172.107 65.9613C171.761 66.3346 171.587 66.8579 171.587 67.5312C171.587 68.2046 171.761 68.7312 172.107 69.1112C172.454 69.4846 172.934 69.6713 173.547 69.6713ZM177.809 70.5312V65.6912H177.229V64.5312H178.429V65.4512H178.849C179.056 65.1179 179.339 64.8646 179.699 64.6912C180.059 64.5113 180.482 64.4213 180.969 64.4213C181.742 64.4213 182.352 64.6446 182.799 65.0912C183.246 65.5312 183.469 66.1212 183.469 66.8612V70.5312H182.349V67.0512C182.349 66.5112 182.202 66.1012 181.909 65.8212C181.622 65.5412 181.199 65.4012 180.639 65.4012C180.086 65.4012 179.662 65.5412 179.369 65.8212C179.076 66.1012 178.929 66.5112 178.929 67.0512V70.5312H177.809ZM184.749 70.5312V64.5312H185.869V70.5312H184.749ZM185.309 63.7113C185.122 63.7113 184.962 63.6446 184.829 63.5112C184.696 63.3779 184.629 63.2179 184.629 63.0312C184.629 62.8446 184.696 62.6846 184.829 62.5512C184.962 62.4179 185.122 62.3512 185.309 62.3512C185.496 62.3512 185.656 62.4179 185.789 62.5512C185.922 62.6846 185.989 62.8446 185.989 63.0312C185.989 63.2179 185.922 63.3779 185.789 63.5112C185.656 63.6446 185.496 63.7113 185.309 63.7113ZM188.688 70.5312C188.368 70.5312 188.118 70.4513 187.938 70.2913C187.765 70.1246 187.678 69.8779 187.678 69.5512V65.3912H186.558V64.5312H187.688V62.7312H188.788V64.5312H190.358V65.3912H188.798V69.6512H190.518V70.5312H188.688ZM193.951 70.6512C193.331 70.6512 192.788 70.5246 192.321 70.2713C191.861 70.0112 191.504 69.6479 191.251 69.1812C190.998 68.7146 190.871 68.1646 190.871 67.5312C190.871 66.8979 190.998 66.3479 191.251 65.8812C191.504 65.4146 191.861 65.0546 192.321 64.8012C192.788 64.5412 193.331 64.4113 193.951 64.4113C194.591 64.4113 195.138 64.5379 195.591 64.7912C196.051 65.0446 196.404 65.4046 196.651 65.8712C196.904 66.3379 197.031 66.8912 197.031 67.5312C197.031 68.1646 196.904 68.7179 196.651 69.1912C196.404 69.6579 196.051 70.0179 195.591 70.2713C195.131 70.5246 194.584 70.6512 193.951 70.6512ZM193.951 69.6713C194.571 69.6713 195.051 69.4846 195.391 69.1112C195.738 68.7312 195.911 68.2046 195.911 67.5312C195.911 66.8512 195.738 66.3246 195.391 65.9512C195.051 65.5779 194.571 65.3912 193.951 65.3912C193.338 65.3912 192.858 65.5812 192.511 65.9613C192.164 66.3346 191.991 66.8579 191.991 67.5312C191.991 68.2046 192.164 68.7312 192.511 69.1112C192.858 69.4846 193.338 69.6713 193.951 69.6713ZM198.323 70.5312V65.6912H197.743V64.5312H198.943V65.6513H199.363C199.529 65.2846 199.786 64.9979 200.133 64.7912C200.486 64.5846 200.899 64.4813 201.373 64.4813H201.863V65.4412H201.313C200.713 65.4412 200.249 65.6179 199.923 65.9713C199.596 66.3246 199.433 66.8012 199.433 67.4012V70.5312H198.323Z" fill="#EADEFF"/>
</g>
<rect x="125.75" y="50.0312" width="90" height="31" rx="2.5" stroke="#464055"/>
<g clip-path="url(#clip4_536_7114)">
<rect x="334.25" y="113.478" width="77" height="32" rx="3" fill="#2C263A"/>
<g style="mix-blend-mode:plus-lighter" opacity="0.4" filter="url(#filter3_f_536_7114)">
<path d="M432.914 289.478C437.815 358.479 499.221 572.478 856.082 390.151C1139.55 245.322 1103.34 477.689 1412.91 572.478" stroke="url(#paint5_linear_536_7114)" stroke-width="182.625"/>
</g>
<g clip-path="url(#clip5_536_7114)">
<path d="M363.584 129.478L358.87 134.192L357.927 133.249L361.698 129.478L357.927 125.706L358.87 124.764L363.584 129.478ZM350.803 129.478L354.574 133.249L353.631 134.192L348.917 129.478L353.631 124.764L354.574 125.706L350.803 129.478Z" fill="#EADEFF"/>
</g>
<path d="M373.022 134.608C372.202 134.608 371.486 134.438 370.872 134.098C370.266 133.751 369.796 133.264 369.462 132.638C369.129 132.011 368.962 131.274 368.962 130.428C368.962 129.581 369.129 128.848 369.462 128.228C369.796 127.601 370.266 127.118 370.872 126.778C371.486 126.431 372.202 126.258 373.022 126.258C373.649 126.258 374.202 126.361 374.682 126.568C375.169 126.768 375.569 127.064 375.882 127.458C376.196 127.844 376.409 128.314 376.522 128.868H375.362C375.242 128.354 374.979 127.958 374.572 127.678C374.172 127.398 373.656 127.258 373.022 127.258C372.109 127.258 371.392 127.541 370.872 128.108C370.352 128.674 370.092 129.448 370.092 130.428C370.092 131.414 370.352 132.191 370.872 132.758C371.392 133.318 372.109 133.598 373.022 133.598C373.656 133.598 374.172 133.461 374.572 133.188C374.979 132.908 375.242 132.511 375.362 131.998H376.522C376.409 132.544 376.196 133.014 375.882 133.408C375.569 133.794 375.169 134.091 374.682 134.298C374.202 134.504 373.649 134.608 373.022 134.608ZM379.953 134.598C379.333 134.598 378.789 134.471 378.323 134.218C377.863 133.958 377.506 133.594 377.253 133.128C376.999 132.661 376.873 132.111 376.873 131.478C376.873 130.844 376.999 130.294 377.253 129.828C377.506 129.361 377.863 129.001 378.323 128.748C378.789 128.488 379.333 128.358 379.953 128.358C380.593 128.358 381.139 128.484 381.593 128.738C382.053 128.991 382.406 129.351 382.653 129.818C382.906 130.284 383.033 130.838 383.033 131.478C383.033 132.111 382.906 132.664 382.653 133.138C382.406 133.604 382.053 133.964 381.593 134.218C381.133 134.471 380.586 134.598 379.953 134.598ZM379.953 133.618C380.573 133.618 381.053 133.431 381.393 133.058C381.739 132.678 381.913 132.151 381.913 131.478C381.913 130.798 381.739 130.271 381.393 129.898C381.053 129.524 380.573 129.338 379.953 129.338C379.339 129.338 378.859 129.528 378.513 129.908C378.166 130.281 377.993 130.804 377.993 131.478C377.993 132.151 378.166 132.678 378.513 133.058C378.859 133.431 379.339 133.618 379.953 133.618ZM386.454 134.598C385.854 134.598 385.341 134.471 384.914 134.218C384.494 133.964 384.171 133.604 383.944 133.138C383.724 132.671 383.614 132.118 383.614 131.478C383.614 130.838 383.724 130.284 383.944 129.818C384.164 129.351 384.478 128.991 384.884 128.738C385.298 128.484 385.788 128.358 386.354 128.358C386.834 128.358 387.248 128.451 387.594 128.638C387.948 128.824 388.214 129.094 388.394 129.448H388.434V126.078H389.554V133.318H390.134V134.478H388.934V133.558H388.514C388.314 133.898 388.041 134.158 387.694 134.338C387.348 134.511 386.934 134.598 386.454 134.598ZM386.624 133.638C387.171 133.638 387.608 133.481 387.934 133.168C388.268 132.854 388.434 132.438 388.434 131.918V131.038C388.434 130.518 388.268 130.101 387.934 129.788C387.608 129.474 387.171 129.318 386.624 129.318C386.024 129.318 385.558 129.508 385.224 129.888C384.898 130.268 384.734 130.798 384.734 131.478C384.734 132.158 384.898 132.688 385.224 133.068C385.558 133.448 386.024 133.638 386.624 133.638ZM393.801 134.598C393.174 134.598 392.631 134.471 392.171 134.218C391.711 133.958 391.354 133.591 391.101 133.118C390.854 132.644 390.731 132.091 390.731 131.458C390.731 130.824 390.854 130.278 391.101 129.818C391.354 129.351 391.707 128.991 392.161 128.738C392.614 128.484 393.144 128.358 393.751 128.358C394.331 128.358 394.831 128.474 395.251 128.708C395.677 128.941 396.007 129.271 396.241 129.698C396.474 130.124 396.591 130.631 396.591 131.218V131.668H391.811C391.844 132.294 392.034 132.784 392.381 133.138C392.734 133.484 393.204 133.658 393.791 133.658C394.197 133.658 394.541 133.574 394.821 133.408C395.101 133.234 395.294 132.981 395.401 132.648H396.541C396.394 133.268 396.077 133.748 395.591 134.088C395.111 134.428 394.514 134.598 393.801 134.598ZM391.851 130.848H395.511C395.457 130.354 395.274 129.971 394.961 129.698C394.654 129.424 394.247 129.288 393.741 129.288C393.241 129.288 392.824 129.424 392.491 129.698C392.157 129.971 391.944 130.354 391.851 130.848Z" fill="#EADEFF"/>
</g>
<rect x="334.75" y="113.978" width="76" height="31" rx="2.5" stroke="#464055"/>
<g clip-path="url(#clip6_536_7114)">
<rect x="37.75" y="113.478" width="93" height="32" rx="3" fill="#2C263A"/>
<g style="mix-blend-mode:plus-lighter" opacity="0.4" filter="url(#filter4_f_536_7114)">
<path d="M136.414 289.478C141.315 358.479 202.721 572.478 559.582 390.151C843.05 245.322 806.841 477.689 1116.41 572.478" stroke="url(#paint6_linear_536_7114)" stroke-width="182.625"/>
</g>
<g clip-path="url(#clip7_536_7114)">
<path d="M57.5406 124.144L59.2783 122.406C59.5387 122.146 59.9608 122.146 60.2211 122.406L61.9589 124.144H64.4164C64.7846 124.144 65.0831 124.442 65.0831 124.811V127.268L66.8208 129.006C67.0811 129.266 67.0811 129.688 66.8208 129.949L65.0831 131.686V134.144C65.0831 134.512 64.7846 134.811 64.4164 134.811H61.9589L60.2211 136.548C59.9608 136.809 59.5387 136.809 59.2783 136.548L57.5406 134.811H55.0831C54.7149 134.811 54.4164 134.512 54.4164 134.144V131.686L52.6787 129.949C52.4183 129.688 52.4183 129.266 52.6787 129.006L54.4164 127.268V124.811C54.4164 124.442 54.7149 124.144 55.0831 124.144H57.5406ZM55.7497 125.477V127.82L54.0929 129.477L55.7497 131.134V133.477H58.0929L59.7497 135.134L61.4066 133.477H63.7497V131.134L65.4066 129.477L63.7497 127.82V125.477H61.4066L59.7497 123.82L58.0929 125.477H55.7497ZM59.7497 132.144C58.277 132.144 57.0831 130.95 57.0831 129.477C57.0831 128.005 58.277 126.811 59.7497 126.811C61.2225 126.811 62.4164 128.005 62.4164 129.477C62.4164 130.95 61.2225 132.144 59.7497 132.144ZM59.7497 130.811C60.4861 130.811 61.0831 130.214 61.0831 129.477C61.0831 128.741 60.4861 128.144 59.7497 128.144C59.0133 128.144 58.4164 128.741 58.4164 129.477C58.4164 130.214 59.0133 130.811 59.7497 130.811Z" fill="#EADEFF"/>
</g>
<path d="M76.8265 134.598C76.0065 134.598 75.2898 134.428 74.6765 134.088C74.0698 133.741 73.5998 133.254 73.2665 132.628C72.9332 132.001 72.7665 131.268 72.7665 130.428C72.7665 129.581 72.9332 128.848 73.2665 128.228C73.5998 127.601 74.0698 127.118 74.6765 126.778C75.2898 126.431 76.0065 126.258 76.8265 126.258C77.6532 126.258 78.3698 126.431 78.9765 126.778C79.5898 127.118 80.0598 127.601 80.3865 128.228C80.7198 128.848 80.8865 129.581 80.8865 130.428C80.8865 131.268 80.7198 132.001 80.3865 132.628C80.0532 133.254 79.5798 133.741 78.9665 134.088C78.3598 134.428 77.6465 134.598 76.8265 134.598ZM76.8265 133.598C77.7332 133.598 78.4432 133.314 78.9565 132.748C79.4698 132.181 79.7265 131.408 79.7265 130.428C79.7265 129.441 79.4698 128.668 78.9565 128.108C78.4432 127.541 77.7332 127.258 76.8265 127.258C75.9265 127.258 75.2165 127.541 74.6965 128.108C74.1832 128.668 73.9265 129.441 73.9265 130.428C73.9265 131.414 74.1832 132.191 74.6965 132.758C75.2165 133.318 75.9265 133.598 76.8265 133.598ZM82.1357 136.878V129.638H81.5557V128.478H82.7557V129.398H83.1757C83.3757 129.058 83.649 128.801 83.9957 128.628C84.3424 128.448 84.7557 128.358 85.2357 128.358C85.8424 128.358 86.3557 128.484 86.7757 128.738C87.1957 128.991 87.5157 129.351 87.7357 129.818C87.9624 130.284 88.0757 130.838 88.0757 131.478C88.0757 132.118 87.9657 132.671 87.7457 133.138C87.5257 133.604 87.209 133.964 86.7957 134.218C86.389 134.471 85.9024 134.598 85.3357 134.598C84.8624 134.598 84.449 134.504 84.0957 134.318C83.7424 134.124 83.4757 133.854 83.2957 133.508H83.2557V136.878H82.1357ZM85.0657 133.638C85.6657 133.638 86.129 133.448 86.4557 133.068C86.789 132.688 86.9557 132.158 86.9557 131.478C86.9557 130.798 86.789 130.268 86.4557 129.888C86.129 129.508 85.6657 129.318 85.0657 129.318C84.519 129.318 84.079 129.474 83.7457 129.788C83.419 130.101 83.2557 130.518 83.2557 131.038V131.918C83.2557 132.438 83.419 132.854 83.7457 133.168C84.079 133.481 84.519 133.638 85.0657 133.638ZM91.7223 134.598C91.0956 134.598 90.5523 134.471 90.0923 134.218C89.6323 133.958 89.2756 133.591 89.0223 133.118C88.7756 132.644 88.6523 132.091 88.6523 131.458C88.6523 130.824 88.7756 130.278 89.0223 129.818C89.2756 129.351 89.6289 128.991 90.0823 128.738C90.5356 128.484 91.0656 128.358 91.6723 128.358C92.2523 128.358 92.7523 128.474 93.1723 128.708C93.5989 128.941 93.9289 129.271 94.1623 129.698C94.3956 130.124 94.5123 130.631 94.5123 131.218V131.668H89.7323C89.7656 132.294 89.9556 132.784 90.3023 133.138C90.6556 133.484 91.1256 133.658 91.7123 133.658C92.1189 133.658 92.4623 133.574 92.7423 133.408C93.0223 133.234 93.2156 132.981 93.3223 132.648H94.4623C94.3156 133.268 93.9989 133.748 93.5123 134.088C93.0323 134.428 92.4356 134.598 91.7223 134.598ZM89.7723 130.848H93.4323C93.3789 130.354 93.1956 129.971 92.8823 129.698C92.5756 129.424 92.1689 129.288 91.6623 129.288C91.1623 129.288 90.7456 129.424 90.4123 129.698C90.0789 129.971 89.8656 130.354 89.7723 130.848ZM95.7991 134.478V129.638H95.2191V128.478H96.4191V129.598H96.8391C97.0058 129.231 97.2625 128.944 97.6091 128.738C97.9625 128.531 98.3758 128.428 98.8491 128.428H99.3391V129.388H98.7891C98.1891 129.388 97.7258 129.564 97.3991 129.918C97.0725 130.271 96.9091 130.748 96.9091 131.348V134.478H95.7991ZM101.607 134.588C100.927 134.588 100.39 134.421 99.997 134.088C99.6103 133.748 99.417 133.304 99.417 132.758C99.417 132.184 99.6103 131.741 99.997 131.428C100.384 131.108 100.94 130.948 101.667 130.948H103.717V130.678C103.717 129.751 103.207 129.288 102.187 129.288C101.354 129.288 100.85 129.601 100.677 130.228H99.547C99.647 129.634 99.9303 129.174 100.397 128.848C100.87 128.521 101.474 128.358 102.207 128.358C103.04 128.358 103.677 128.554 104.117 128.948C104.564 129.341 104.787 129.908 104.787 130.648V133.318H105.327V134.478H104.127V133.558H103.707C103.5 133.878 103.217 134.131 102.857 134.318C102.497 134.498 102.08 134.588 101.607 134.588ZM101.757 133.688C102.117 133.688 102.447 133.614 102.747 133.468C103.047 133.321 103.284 133.121 103.457 132.868C103.63 132.614 103.717 132.338 103.717 132.038V131.768H101.737C100.897 131.768 100.477 132.081 100.477 132.708C100.477 133.008 100.59 133.248 100.817 133.428C101.044 133.601 101.357 133.688 101.757 133.688ZM107.764 134.478C107.444 134.478 107.194 134.398 107.014 134.238C106.84 134.071 106.754 133.824 106.754 133.498V129.338H105.634V128.478H106.764V126.678H107.864V128.478H109.434V129.338H107.874V133.598H109.594V134.478H107.764ZM113.017 134.598C112.39 134.598 111.847 134.471 111.387 134.218C110.927 133.958 110.57 133.591 110.317 133.118C110.07 132.644 109.947 132.091 109.947 131.458C109.947 130.824 110.07 130.278 110.317 129.818C110.57 129.351 110.923 128.991 111.377 128.738C111.83 128.484 112.36 128.358 112.967 128.358C113.547 128.358 114.047 128.474 114.467 128.708C114.893 128.941 115.223 129.271 115.457 129.698C115.69 130.124 115.807 130.631 115.807 131.218V131.668H111.027C111.06 132.294 111.25 132.784 111.597 133.138C111.95 133.484 112.42 133.658 113.007 133.658C113.413 133.658 113.757 133.574 114.037 133.408C114.317 133.234 114.51 132.981 114.617 132.648H115.757C115.61 133.268 115.293 133.748 114.807 134.088C114.327 134.428 113.73 134.598 113.017 134.598ZM111.067 130.848H114.727C114.673 130.354 114.49 129.971 114.177 129.698C113.87 129.424 113.463 129.288 112.957 129.288C112.457 129.288 112.04 129.424 111.707 129.698C111.373 129.971 111.16 130.354 111.067 130.848Z" fill="#EADEFF"/>
</g>
<rect x="38.25" y="113.978" width="92" height="31" rx="2.5" stroke="#464055"/>
<g clip-path="url(#clip8_536_7114)">
<rect x="334.75" y="194.469" width="76" height="32" rx="3" fill="#2C263A"/>
<g style="mix-blend-mode:plus-lighter" opacity="0.4" filter="url(#filter5_f_536_7114)">
<path d="M433.414 370.469C438.315 439.47 499.721 653.469 856.582 471.142C1140.05 326.313 1103.84 558.68 1413.41 653.469" stroke="url(#paint7_linear_536_7114)" stroke-width="182.625"/>
</g>
<path d="M352.303 204.649C353.125 204.357 354.078 204.54 354.736 205.198C355.483 205.945 355.618 207.073 355.14 207.958L362.279 215.098L361.336 216.04L354.197 208.901C353.312 209.38 352.184 209.245 351.436 208.498C350.778 207.84 350.595 206.886 350.888 206.064L352.379 207.555C352.77 207.946 353.403 207.946 353.793 207.555C354.184 207.165 354.184 206.531 353.793 206.141L352.303 204.649ZM359.215 205.905L361.336 204.727L362.279 205.669L361.1 207.791L359.922 208.026L358.507 209.441L357.565 208.498L358.979 207.084L359.215 205.905ZM354.736 211.326L355.679 212.269L352.143 215.805C351.883 216.065 351.461 216.065 351.201 215.805C350.959 215.563 350.942 215.182 351.149 214.92L351.201 214.862L354.736 211.326Z" fill="#EADEFF"/>
<path d="M370.028 215.469V207.369H373.958C374.432 207.369 374.842 207.452 375.188 207.619C375.535 207.785 375.805 208.025 375.998 208.339C376.198 208.645 376.298 209.012 376.298 209.439C376.298 209.885 376.162 210.259 375.888 210.559C375.615 210.852 375.295 211.042 374.928 211.129V211.169C375.202 211.209 375.475 211.309 375.748 211.469C376.022 211.629 376.248 211.852 376.428 212.139C376.608 212.419 376.698 212.769 376.698 213.189C376.698 213.649 376.588 214.049 376.368 214.389C376.155 214.729 375.855 214.995 375.468 215.189C375.082 215.375 374.638 215.469 374.138 215.469H370.028ZM371.178 214.489H373.898C374.418 214.489 374.825 214.369 375.118 214.129C375.412 213.889 375.558 213.545 375.558 213.099C375.558 212.645 375.412 212.305 375.118 212.079C374.825 211.852 374.422 211.739 373.908 211.739H371.178V214.489ZM371.178 210.799H373.818C374.238 210.799 374.565 210.692 374.798 210.479C375.038 210.265 375.158 209.965 375.158 209.579C375.158 209.179 375.038 208.875 374.798 208.669C374.565 208.455 374.238 208.349 373.818 208.349H371.178V210.799ZM380.073 215.579C379.3 215.579 378.693 215.365 378.253 214.939C377.813 214.505 377.593 213.925 377.593 213.199V209.469H378.713V212.959C378.713 213.499 378.853 213.909 379.133 214.189C379.413 214.462 379.82 214.599 380.353 214.599C380.92 214.599 381.356 214.455 381.663 214.169C381.976 213.875 382.133 213.469 382.133 212.949V209.469H383.253V214.309H383.833V215.469H382.633V214.549H382.213C382 214.882 381.713 215.139 381.353 215.319C380.993 215.492 380.566 215.579 380.073 215.579ZM384.856 215.469V209.469H385.976V215.469H384.856ZM385.416 208.649C385.23 208.649 385.07 208.582 384.936 208.449C384.803 208.315 384.736 208.155 384.736 207.969C384.736 207.782 384.803 207.622 384.936 207.489C385.07 207.355 385.23 207.289 385.416 207.289C385.603 207.289 385.763 207.355 385.896 207.489C386.03 207.622 386.096 207.782 386.096 207.969C386.096 208.155 386.03 208.315 385.896 208.449C385.763 208.582 385.603 208.649 385.416 208.649ZM387.356 215.469V207.069H388.476V215.469H387.356ZM392.295 215.589C391.695 215.589 391.182 215.462 390.755 215.209C390.335 214.955 390.012 214.595 389.785 214.129C389.565 213.662 389.455 213.109 389.455 212.469C389.455 211.829 389.565 211.275 389.785 210.809C390.005 210.342 390.318 209.982 390.725 209.729C391.138 209.475 391.628 209.349 392.195 209.349C392.675 209.349 393.088 209.442 393.435 209.629C393.788 209.815 394.055 210.085 394.235 210.439H394.275V207.069H395.395V214.309H395.975V215.469H394.775V214.549H394.355C394.155 214.889 393.882 215.149 393.535 215.329C393.188 215.502 392.775 215.589 392.295 215.589ZM392.465 214.629C393.012 214.629 393.448 214.472 393.775 214.159C394.108 213.845 394.275 213.429 394.275 212.909V212.029C394.275 211.509 394.108 211.092 393.775 210.779C393.448 210.465 393.012 210.309 392.465 210.309C391.865 210.309 391.398 210.499 391.065 210.879C390.738 211.259 390.575 211.789 390.575 212.469C390.575 213.149 390.738 213.679 391.065 214.059C391.398 214.439 391.865 214.629 392.465 214.629Z" fill="#EADEFF"/>
</g>
<rect x="335.25" y="194.969" width="75" height="31" rx="2.5" stroke="#464055"/>
<g clip-path="url(#clip9_536_7114)">
<rect x="38.25" y="194.469" width="86" height="32" rx="3" fill="#2C263A"/>
<g style="mix-blend-mode:plus-lighter" opacity="0.4" filter="url(#filter6_f_536_7114)">
<path d="M136.914 370.469C141.815 439.47 203.221 653.469 560.082 471.142C843.55 326.313 807.341 558.68 1116.91 653.469" stroke="url(#paint8_linear_536_7114)" stroke-width="182.625"/>
</g>
<path d="M55.5831 211.135C55.5831 207.743 57.5181 204.844 60.2497 203.681C62.9813 204.844 64.9164 207.743 64.9164 211.135C64.9164 211.684 64.8657 212.22 64.7693 212.737L66.0629 213.959C66.173 214.063 66.1992 214.228 66.1267 214.361L64.4631 217.411C64.3749 217.572 64.1724 217.632 64.0108 217.544C63.9829 217.529 63.9572 217.509 63.9347 217.487L62.445 215.997C62.3199 215.872 62.1504 215.802 61.9736 215.802H58.5259C58.349 215.802 58.1795 215.872 58.0545 215.997L56.5647 217.487C56.4346 217.617 56.2235 217.617 56.0933 217.487C56.0708 217.464 56.0516 217.439 56.0364 217.411L54.3727 214.361C54.3002 214.228 54.3264 214.063 54.4365 213.959L55.7301 212.737C55.6337 212.22 55.5831 211.684 55.5831 211.135ZM56.5669 215.599L57.1116 215.054C57.4867 214.679 57.9954 214.469 58.5259 214.469H61.9736C62.504 214.469 63.0127 214.679 63.3878 215.054L63.9325 215.599L64.5871 214.399L63.8539 213.707C63.5245 213.395 63.3756 212.938 63.4585 212.493C63.5411 212.05 63.5831 211.596 63.5831 211.135C63.5831 208.556 62.253 206.268 60.2497 205.162C58.2464 206.268 56.9164 208.556 56.9164 211.135C56.9164 211.596 56.9584 212.05 57.0409 212.493C57.1239 212.938 56.975 213.395 56.6456 213.707L55.9124 214.399L56.5669 215.599ZM60.2497 211.135C59.5133 211.135 58.9164 210.538 58.9164 209.802C58.9164 209.066 59.5133 208.469 60.2497 208.469C60.9861 208.469 61.5831 209.066 61.5831 209.802C61.5831 210.538 60.9861 211.135 60.2497 211.135Z" fill="#EADEFF"/>
<path d="M73.5345 215.469V207.369H76.4645C77.3445 207.369 78.1012 207.532 78.7345 207.859C79.3745 208.179 79.8645 208.642 80.2045 209.249C80.5512 209.855 80.7245 210.579 80.7245 211.419C80.7245 212.252 80.5512 212.972 80.2045 213.579C79.8579 214.185 79.3645 214.652 78.7245 214.979C78.0912 215.305 77.3379 215.469 76.4645 215.469H73.5345ZM74.6845 214.489H76.4645C77.4445 214.489 78.2045 214.219 78.7445 213.679C79.2912 213.139 79.5645 212.385 79.5645 211.419C79.5645 210.445 79.2945 209.692 78.7545 209.159C78.2145 208.619 77.4512 208.349 76.4645 208.349H74.6845V214.489ZM84.4433 215.589C83.8166 215.589 83.2733 215.462 82.8133 215.209C82.3533 214.949 81.9966 214.582 81.7433 214.109C81.4966 213.635 81.3733 213.082 81.3733 212.449C81.3733 211.815 81.4966 211.269 81.7433 210.809C81.9966 210.342 82.3499 209.982 82.8033 209.729C83.2566 209.475 83.7866 209.349 84.3933 209.349C84.9733 209.349 85.4733 209.465 85.8933 209.699C86.3199 209.932 86.6499 210.262 86.8833 210.689C87.1166 211.115 87.2333 211.622 87.2333 212.209V212.659H82.4533C82.4866 213.285 82.6766 213.775 83.0233 214.129C83.3766 214.475 83.8466 214.649 84.4333 214.649C84.8399 214.649 85.1833 214.565 85.4633 214.399C85.7433 214.225 85.9366 213.972 86.0433 213.639H87.1833C87.0366 214.259 86.7199 214.739 86.2333 215.079C85.7533 215.419 85.1566 215.589 84.4433 215.589ZM82.4933 211.839H86.1533C86.0999 211.345 85.9166 210.962 85.6033 210.689C85.2966 210.415 84.8899 210.279 84.3833 210.279C83.8833 210.279 83.4666 210.415 83.1333 210.689C82.7999 210.962 82.5866 211.345 82.4933 211.839ZM88.4102 217.869V210.629H87.8302V209.469H89.0302V210.389H89.4502C89.6502 210.049 89.9235 209.792 90.2702 209.619C90.6168 209.439 91.0302 209.349 91.5102 209.349C92.1168 209.349 92.6302 209.475 93.0502 209.729C93.4702 209.982 93.7902 210.342 94.0102 210.809C94.2368 211.275 94.3502 211.829 94.3502 212.469C94.3502 213.109 94.2402 213.662 94.0202 214.129C93.8002 214.595 93.4835 214.955 93.0702 215.209C92.6635 215.462 92.1768 215.589 91.6102 215.589C91.1368 215.589 90.7235 215.495 90.3702 215.309C90.0168 215.115 89.7502 214.845 89.5702 214.499H89.5302V217.869H88.4102ZM91.3402 214.629C91.9402 214.629 92.4035 214.439 92.7302 214.059C93.0635 213.679 93.2302 213.149 93.2302 212.469C93.2302 211.789 93.0635 211.259 92.7302 210.879C92.4035 210.499 91.9402 210.309 91.3402 210.309C90.7935 210.309 90.3535 210.465 90.0202 210.779C89.6935 211.092 89.5302 211.509 89.5302 212.029V212.909C89.5302 213.429 89.6935 213.845 90.0202 214.159C90.3535 214.472 90.7935 214.629 91.3402 214.629ZM95.3267 215.469V207.069H96.4467V215.469H95.3267ZM100.506 215.589C99.8861 215.589 99.3428 215.462 98.8761 215.209C98.4161 214.949 98.0594 214.585 97.8061 214.119C97.5528 213.652 97.4261 213.102 97.4261 212.469C97.4261 211.835 97.5528 211.285 97.8061 210.819C98.0594 210.352 98.4161 209.992 98.8761 209.739C99.3428 209.479 99.8861 209.349 100.506 209.349C101.146 209.349 101.693 209.475 102.146 209.729C102.606 209.982 102.959 210.342 103.206 210.809C103.459 211.275 103.586 211.829 103.586 212.469C103.586 213.102 103.459 213.655 103.206 214.129C102.959 214.595 102.606 214.955 102.146 215.209C101.686 215.462 101.139 215.589 100.506 215.589ZM100.506 214.609C101.126 214.609 101.606 214.422 101.946 214.049C102.293 213.669 102.466 213.142 102.466 212.469C102.466 211.789 102.293 211.262 101.946 210.889C101.606 210.515 101.126 210.329 100.506 210.329C99.8928 210.329 99.4128 210.519 99.0661 210.899C98.7194 211.272 98.5461 211.795 98.5461 212.469C98.5461 213.142 98.7194 213.669 99.0661 214.049C99.4128 214.422 99.8928 214.609 100.506 214.609ZM104.188 217.869V216.979H105.638L106.258 215.489L103.568 209.469H104.728L106.788 214.159H106.838L108.798 209.469H109.898L107.338 215.469L106.738 216.879C106.605 217.185 106.472 217.425 106.338 217.599C106.212 217.779 105.985 217.869 105.658 217.869H104.188Z" fill="#EADEFF"/>
</g>
<rect x="38.75" y="194.969" width="85" height="31" rx="2.5" stroke="#464055"/>
<g clip-path="url(#clip10_536_7114)">
<rect x="251.75" y="254.469" width="71" height="32" rx="3" fill="#2C263A"/>
<g style="mix-blend-mode:plus-lighter" opacity="0.4" filter="url(#filter7_f_536_7114)">
<path d="M350.414 430.469C355.315 499.47 416.721 713.469 773.582 531.142C1057.05 386.313 1020.84 618.68 1330.41 713.469" stroke="url(#paint9_linear_536_7114)" stroke-width="182.625"/>
</g>
<path d="M269.573 270.278L273.515 274.203L272.082 275.629L266.709 270.278L272.082 264.926L273.515 266.352L269.573 270.278Z" fill="#EADEFF"/>
<path d="M280.322 270.278L274.949 275.629L273.517 274.203L277.458 270.278L273.515 266.352L274.947 264.926L280.32 270.278H280.322Z" fill="#EADEFF"/>
<path d="M271.008 270.278L273.515 267.781L276.021 270.278L273.515 272.774L271.008 270.278Z" fill="#EADEFF"/>
<path d="M290.283 275.469H289.143V268.349H286.253V267.369H293.173V268.349H290.283V275.469ZM295.591 275.589C294.964 275.589 294.421 275.462 293.961 275.209C293.501 274.949 293.144 274.582 292.891 274.109C292.644 273.635 292.521 273.082 292.521 272.449C292.521 271.815 292.644 271.269 292.891 270.809C293.144 270.342 293.498 269.982 293.951 269.729C294.404 269.475 294.934 269.349 295.541 269.349C296.121 269.349 296.621 269.465 297.041 269.699C297.468 269.932 297.798 270.262 298.031 270.689C298.264 271.115 298.381 271.622 298.381 272.209V272.659H293.601C293.634 273.285 293.824 273.775 294.171 274.129C294.524 274.475 294.994 274.649 295.581 274.649C295.988 274.649 296.331 274.565 296.611 274.399C296.891 274.225 297.084 273.972 297.191 273.639H298.331C298.184 274.259 297.868 274.739 297.381 275.079C296.901 275.419 296.304 275.589 295.591 275.589ZM293.641 271.839H297.301C297.248 271.345 297.064 270.962 296.751 270.689C296.444 270.415 296.038 270.279 295.531 270.279C295.031 270.279 294.614 270.415 294.281 270.689C293.948 270.962 293.734 271.345 293.641 271.839ZM301.628 275.589C300.795 275.589 300.138 275.415 299.658 275.069C299.178 274.722 298.915 274.239 298.868 273.619H299.978C300.025 273.985 300.185 274.255 300.458 274.429C300.731 274.602 301.135 274.689 301.668 274.689C302.601 274.689 303.068 274.395 303.068 273.809C303.068 273.569 302.995 273.385 302.848 273.259C302.708 273.125 302.468 273.029 302.128 272.969L300.818 272.729C299.705 272.522 299.148 271.992 299.148 271.139C299.148 270.585 299.358 270.149 299.778 269.829C300.198 269.509 300.771 269.349 301.498 269.349C302.251 269.349 302.848 269.512 303.288 269.839C303.735 270.165 303.988 270.625 304.048 271.219H302.958C302.891 270.885 302.735 270.639 302.488 270.479C302.248 270.319 301.908 270.239 301.468 270.239C301.061 270.239 300.745 270.309 300.518 270.449C300.298 270.589 300.188 270.792 300.188 271.059C300.188 271.265 300.258 271.429 300.398 271.549C300.545 271.662 300.778 271.749 301.098 271.809L302.408 272.059C302.995 272.165 303.425 272.355 303.698 272.629C303.971 272.902 304.108 273.269 304.108 273.729C304.108 274.315 303.895 274.772 303.468 275.099C303.041 275.425 302.428 275.589 301.628 275.589ZM306.415 275.469C306.095 275.469 305.845 275.389 305.665 275.229C305.491 275.062 305.405 274.815 305.405 274.489V270.329H304.285V269.469H305.415V267.669H306.515V269.469H308.085V270.329H306.525V274.589H308.245V275.469H306.415Z" fill="#EADEFF"/>
</g>
<rect x="252.25" y="254.969" width="70" height="31" rx="2.5" stroke="#464055"/>
<g clip-path="url(#clip11_536_7114)">
<rect x="123" y="254.469" width="91" height="32" rx="3" fill="#2C263A"/>
<g style="mix-blend-mode:plus-lighter" opacity="0.4" filter="url(#filter8_f_536_7114)">
<path d="M221.664 430.469C226.565 499.47 287.971 713.469 644.832 531.142C928.3 386.313 892.091 618.68 1201.66 713.469" stroke="url(#paint10_linear_536_7114)" stroke-width="182.625"/>
</g>
<path d="M145 263.136L151.334 266.802V274.136L145 277.802L138.667 274.136V266.802L145 263.136ZM140.663 267.188L145 269.699L149.338 267.188L145 264.676L140.663 267.188ZM140 268.345V273.367L144.334 275.876V270.853L140 268.345ZM145.667 275.876L150 273.367V268.345L145.667 270.853V275.876Z" fill="#EADEFF"/>
<path d="M158.381 275.469V267.369H162.271C163.091 267.369 163.737 267.562 164.211 267.949C164.684 268.335 164.921 268.882 164.921 269.589C164.921 269.955 164.837 270.285 164.671 270.579C164.511 270.865 164.261 271.102 163.921 271.289V271.329C164.241 271.329 164.487 271.415 164.661 271.589C164.834 271.755 164.921 271.995 164.921 272.309V275.469H163.781V272.149H159.531V275.469H158.381ZM159.531 271.199H162.161C162.674 271.199 163.074 271.075 163.361 270.829C163.647 270.575 163.791 270.222 163.791 269.769C163.791 269.309 163.647 268.955 163.361 268.709C163.074 268.462 162.674 268.339 162.161 268.339H159.531V271.199ZM168.926 275.589C168.299 275.589 167.756 275.462 167.296 275.209C166.836 274.949 166.479 274.582 166.226 274.109C165.979 273.635 165.856 273.082 165.856 272.449C165.856 271.815 165.979 271.269 166.226 270.809C166.479 270.342 166.833 269.982 167.286 269.729C167.739 269.475 168.269 269.349 168.876 269.349C169.456 269.349 169.956 269.465 170.376 269.699C170.803 269.932 171.133 270.262 171.366 270.689C171.599 271.115 171.716 271.622 171.716 272.209V272.659H166.936C166.969 273.285 167.159 273.775 167.506 274.129C167.859 274.475 168.329 274.649 168.916 274.649C169.323 274.649 169.666 274.565 169.946 274.399C170.226 274.225 170.419 273.972 170.526 273.639H171.666C171.519 274.259 171.203 274.739 170.716 275.079C170.236 275.419 169.639 275.589 168.926 275.589ZM166.976 271.839H170.636C170.583 271.345 170.399 270.962 170.086 270.689C169.779 270.415 169.373 270.279 168.866 270.279C168.366 270.279 167.949 270.415 167.616 270.689C167.283 270.962 167.069 271.345 166.976 271.839ZM172.693 275.469V267.069H173.813V275.469H172.693ZM177.862 275.589C177.236 275.589 176.692 275.462 176.232 275.209C175.772 274.949 175.416 274.582 175.162 274.109C174.916 273.635 174.792 273.082 174.792 272.449C174.792 271.815 174.916 271.269 175.162 270.809C175.416 270.342 175.769 269.982 176.222 269.729C176.676 269.475 177.206 269.349 177.812 269.349C178.392 269.349 178.892 269.465 179.312 269.699C179.739 269.932 180.069 270.262 180.302 270.689C180.536 271.115 180.652 271.622 180.652 272.209V272.659H175.872C175.906 273.285 176.096 273.775 176.442 274.129C176.796 274.475 177.266 274.649 177.852 274.649C178.259 274.649 178.602 274.565 178.882 274.399C179.162 274.225 179.356 273.972 179.462 273.639H180.602C180.456 274.259 180.139 274.739 179.652 275.079C179.172 275.419 178.576 275.589 177.862 275.589ZM175.912 271.839H179.572C179.519 271.345 179.336 270.962 179.022 270.689C178.716 270.415 178.309 270.279 177.802 270.279C177.302 270.279 176.886 270.415 176.552 270.689C176.219 270.962 176.006 271.345 175.912 271.839ZM183.349 275.579C182.669 275.579 182.132 275.412 181.739 275.079C181.352 274.739 181.159 274.295 181.159 273.749C181.159 273.175 181.352 272.732 181.739 272.419C182.126 272.099 182.682 271.939 183.409 271.939H185.459V271.669C185.459 270.742 184.949 270.279 183.929 270.279C183.096 270.279 182.592 270.592 182.419 271.219H181.289C181.389 270.625 181.672 270.165 182.139 269.839C182.612 269.512 183.216 269.349 183.949 269.349C184.782 269.349 185.419 269.545 185.859 269.939C186.306 270.332 186.529 270.899 186.529 271.639V274.309H187.069V275.469H185.869V274.549H185.449C185.242 274.869 184.959 275.122 184.599 275.309C184.239 275.489 183.822 275.579 183.349 275.579ZM183.499 274.679C183.859 274.679 184.189 274.605 184.489 274.459C184.789 274.312 185.026 274.112 185.199 273.859C185.372 273.605 185.459 273.329 185.459 273.029V272.759H183.479C182.639 272.759 182.219 273.072 182.219 273.699C182.219 273.999 182.332 274.239 182.559 274.419C182.786 274.592 183.099 274.679 183.499 274.679ZM190.336 275.589C189.503 275.589 188.846 275.415 188.366 275.069C187.886 274.722 187.623 274.239 187.576 273.619H188.686C188.733 273.985 188.893 274.255 189.166 274.429C189.439 274.602 189.843 274.689 190.376 274.689C191.309 274.689 191.776 274.395 191.776 273.809C191.776 273.569 191.703 273.385 191.556 273.259C191.416 273.125 191.176 273.029 190.836 272.969L189.526 272.729C188.413 272.522 187.856 271.992 187.856 271.139C187.856 270.585 188.066 270.149 188.486 269.829C188.906 269.509 189.479 269.349 190.206 269.349C190.959 269.349 191.556 269.512 191.996 269.839C192.443 270.165 192.696 270.625 192.756 271.219H191.666C191.599 270.885 191.443 270.639 191.196 270.479C190.956 270.319 190.616 270.239 190.176 270.239C189.769 270.239 189.453 270.309 189.226 270.449C189.006 270.589 188.896 270.792 188.896 271.059C188.896 271.265 188.966 271.429 189.106 271.549C189.253 271.662 189.486 271.749 189.806 271.809L191.116 272.059C191.703 272.165 192.133 272.355 192.406 272.629C192.679 272.902 192.816 273.269 192.816 273.729C192.816 274.315 192.603 274.772 192.176 275.099C191.749 275.425 191.136 275.589 190.336 275.589ZM196.353 275.589C195.726 275.589 195.183 275.462 194.723 275.209C194.263 274.949 193.906 274.582 193.653 274.109C193.406 273.635 193.283 273.082 193.283 272.449C193.283 271.815 193.406 271.269 193.653 270.809C193.906 270.342 194.259 269.982 194.713 269.729C195.166 269.475 195.696 269.349 196.303 269.349C196.883 269.349 197.383 269.465 197.803 269.699C198.229 269.932 198.559 270.262 198.793 270.689C199.026 271.115 199.143 271.622 199.143 272.209V272.659H194.363C194.396 273.285 194.586 273.775 194.933 274.129C195.286 274.475 195.756 274.649 196.343 274.649C196.749 274.649 197.093 274.565 197.373 274.399C197.653 274.225 197.846 273.972 197.953 273.639H199.093C198.946 274.259 198.629 274.739 198.143 275.079C197.663 275.419 197.066 275.589 196.353 275.589ZM194.403 271.839H198.063C198.009 271.345 197.826 270.962 197.513 270.689C197.206 270.415 196.799 270.279 196.293 270.279C195.793 270.279 195.376 270.415 195.043 270.689C194.709 270.962 194.496 271.345 194.403 271.839Z" fill="#EADEFF"/>
</g>
<rect x="123.5" y="254.969" width="90" height="31" rx="2.5" stroke="#464055"/>
</g>
<defs>
<filter id="filter0_dddi_536_7114" x="0.541992" y="-55.958" width="447.916" height="447.916" filterUnits="userSpaceOnUse" color-interpolation-filters="sRGB">
<feFlood flood-opacity="0" result="BackgroundImageFix"/>
<feColorMatrix in="SourceAlpha" type="matrix" values="0 0 0 0 0 0 0 0 0 0 0 0 0 0 0 0 0 0 127 0" result="hardAlpha"/>
<feMorphology radius="2" operator="dilate" in="SourceAlpha" result="effect1_dropShadow_536_7114"/>
<feOffset/>
<feGaussianBlur stdDeviation="15"/>
<feComposite in2="hardAlpha" operator="out"/>
<feColorMatrix type="matrix" values="0 0 0 0 0.317647 0 0 0 0 0.25098 0 0 0 0 1 0 0 0 0.4 0"/>
<feBlend mode="normal" in2="BackgroundImageFix" result="effect1_dropShadow_536_7114"/>
<feColorMatrix in="SourceAlpha" type="matrix" values="0 0 0 0 0 0 0 0 0 0 0 0 0 0 0 0 0 0 127 0" result="hardAlpha"/>
<feMorphology radius="2" operator="dilate" in="SourceAlpha" result="effect2_dropShadow_536_7114"/>
<feOffset/>
<feGaussianBlur stdDeviation="91.5"/>
<feComposite in2="hardAlpha" operator="out"/>
<feColorMatrix type="matrix" values="0 0 0 0 0.317647 0 0 0 0 0.25098 0 0 0 0 1 0 0 0 0.4 0"/>
<feBlend mode="normal" in2="effect1_dropShadow_536_7114" result="effect2_dropShadow_536_7114"/>
<feColorMatrix in="SourceAlpha" type="matrix" values="0 0 0 0 0 0 0 0 0 0 0 0 0 0 0 0 0 0 127 0" result="hardAlpha"/>
<feOffset dy="0.75"/>
<feGaussianBlur stdDeviation="0.375"/>
<feComposite in2="hardAlpha" operator="out"/>
<feColorMatrix type="matrix" values="0 0 0 0 0.012376 0 0 0 0 0 0 0 0 0 0.139047 0 0 0 1 0"/>
<feBlend mode="normal" in2="effect2_dropShadow_536_7114" result="effect3_dropShadow_536_7114"/>
<feBlend mode="normal" in="SourceGraphic" in2="effect3_dropShadow_536_7114" result="shape"/>
<feColorMatrix in="SourceAlpha" type="matrix" values="0 0 0 0 0 0 0 0 0 0 0 0 0 0 0 0 0 0 127 0" result="hardAlpha"/>
<feMorphology radius="4" operator="erode" in="SourceAlpha" result="effect4_innerShadow_536_7114"/>
<feOffset/>
<feGaussianBlur stdDeviation="6"/>
<feComposite in2="hardAlpha" operator="arithmetic" k2="-1" k3="1"/>
<feColorMatrix type="matrix" values="0 0 0 0 1 0 0 0 0 1 0 0 0 0 1 0 0 0 0.25 0"/>
<feBlend mode="normal" in2="shape" result="effect4_innerShadow_536_7114"/>
</filter>
<filter id="filter1_f_536_7114" x="34.331" y="-36.4492" width="1547.82" height="857.292" filterUnits="userSpaceOnUse" color-interpolation-filters="sRGB">
<feFlood flood-opacity="0" result="BackgroundImageFix"/>
<feBlend mode="normal" in="SourceGraphic" in2="BackgroundImageFix" result="shape"/>
<feGaussianBlur stdDeviation="112.5" result="effect1_foregroundBlur_536_7114"/>
</filter>
<filter id="filter2_f_536_7114" x="-92.169" y="-36.4492" width="1547.82" height="857.292" filterUnits="userSpaceOnUse" color-interpolation-filters="sRGB">
<feFlood flood-opacity="0" result="BackgroundImageFix"/>
<feBlend mode="normal" in="SourceGraphic" in2="BackgroundImageFix" result="shape"/>
<feGaussianBlur stdDeviation="112.5" result="effect1_foregroundBlur_536_7114"/>
</filter>
<filter id="filter3_f_536_7114" x="116.831" y="27.4971" width="1547.82" height="857.292" filterUnits="userSpaceOnUse" color-interpolation-filters="sRGB">
<feFlood flood-opacity="0" result="BackgroundImageFix"/>
<feBlend mode="normal" in="SourceGraphic" in2="BackgroundImageFix" result="shape"/>
<feGaussianBlur stdDeviation="112.5" result="effect1_foregroundBlur_536_7114"/>
</filter>
<filter id="filter4_f_536_7114" x="-179.669" y="27.4971" width="1547.82" height="857.292" filterUnits="userSpaceOnUse" color-interpolation-filters="sRGB">
<feFlood flood-opacity="0" result="BackgroundImageFix"/>
<feBlend mode="normal" in="SourceGraphic" in2="BackgroundImageFix" result="shape"/>
<feGaussianBlur stdDeviation="112.5" result="effect1_foregroundBlur_536_7114"/>
</filter>
<filter id="filter5_f_536_7114" x="117.331" y="108.488" width="1547.82" height="857.292" filterUnits="userSpaceOnUse" color-interpolation-filters="sRGB">
<feFlood flood-opacity="0" result="BackgroundImageFix"/>
<feBlend mode="normal" in="SourceGraphic" in2="BackgroundImageFix" result="shape"/>
<feGaussianBlur stdDeviation="112.5" result="effect1_foregroundBlur_536_7114"/>
</filter>
<filter id="filter6_f_536_7114" x="-179.169" y="108.488" width="1547.82" height="857.292" filterUnits="userSpaceOnUse" color-interpolation-filters="sRGB">
<feFlood flood-opacity="0" result="BackgroundImageFix"/>
<feBlend mode="normal" in="SourceGraphic" in2="BackgroundImageFix" result="shape"/>
<feGaussianBlur stdDeviation="112.5" result="effect1_foregroundBlur_536_7114"/>
</filter>
<filter id="filter7_f_536_7114" x="34.331" y="168.488" width="1547.82" height="857.292" filterUnits="userSpaceOnUse" color-interpolation-filters="sRGB">
<feFlood flood-opacity="0" result="BackgroundImageFix"/>
<feBlend mode="normal" in="SourceGraphic" in2="BackgroundImageFix" result="shape"/>
<feGaussianBlur stdDeviation="112.5" result="effect1_foregroundBlur_536_7114"/>
</filter>
<filter id="filter8_f_536_7114" x="-94.419" y="168.488" width="1547.82" height="857.292" filterUnits="userSpaceOnUse" color-interpolation-filters="sRGB">
<feFlood flood-opacity="0" result="BackgroundImageFix"/>
<feBlend mode="normal" in="SourceGraphic" in2="BackgroundImageFix" result="shape"/>
<feGaussianBlur stdDeviation="112.5" result="effect1_foregroundBlur_536_7114"/>
</filter>
<linearGradient id="paint0_linear_536_7114" x1="178.855" y1="122.549" x2="247.438" y2="198.59" gradientUnits="userSpaceOnUse">
<stop stop-color="#A36BFF"/>
<stop offset="1" stop-color="#4E3EFF"/>
</linearGradient>
<linearGradient id="paint1_linear_536_7114" x1="193.682" y1="189.643" x2="159.604" y2="161.695" gradientUnits="userSpaceOnUse">
<stop stop-color="white" stop-opacity="0"/>
<stop offset="1" stop-color="white"/>
</linearGradient>
<linearGradient id="paint2_linear_536_7114" x1="246.886" y1="175.575" x2="266.06" y2="178.504" gradientUnits="userSpaceOnUse">
<stop stop-color="white" stop-opacity="0"/>
<stop offset="1" stop-color="white"/>
</linearGradient>
<linearGradient id="paint3_linear_536_7114" x1="296.927" y1="325.364" x2="1252.97" y2="601.721" gradientUnits="userSpaceOnUse">
<stop stop-color="#073810"/>
<stop offset="0.444204" stop-color="#41D975"/>
<stop offset="1" stop-color="#073810"/>
</linearGradient>
<linearGradient id="paint4_linear_536_7114" x1="170.427" y1="325.364" x2="1126.47" y2="601.721" gradientUnits="userSpaceOnUse">
<stop stop-color="#073810"/>
<stop offset="0.444204" stop-color="#41D975"/>
<stop offset="1" stop-color="#073810"/>
</linearGradient>
<linearGradient id="paint5_linear_536_7114" x1="379.427" y1="389.31" x2="1335.47" y2="665.667" gradientUnits="userSpaceOnUse">
<stop stop-color="#073810"/>
<stop offset="0.444204" stop-color="#41D975"/>
<stop offset="1" stop-color="#073810"/>
</linearGradient>
<linearGradient id="paint6_linear_536_7114" x1="82.9271" y1="389.31" x2="1038.97" y2="665.667" gradientUnits="userSpaceOnUse">
<stop stop-color="#073810"/>
<stop offset="0.444204" stop-color="#41D975"/>
<stop offset="1" stop-color="#073810"/>
</linearGradient>
<linearGradient id="paint7_linear_536_7114" x1="379.927" y1="470.302" x2="1335.97" y2="746.658" gradientUnits="userSpaceOnUse">
<stop stop-color="#073810"/>
<stop offset="0.444204" stop-color="#41D975"/>
<stop offset="1" stop-color="#073810"/>
</linearGradient>
<linearGradient id="paint8_linear_536_7114" x1="83.4271" y1="470.302" x2="1039.47" y2="746.658" gradientUnits="userSpaceOnUse">
<stop stop-color="#073810"/>
<stop offset="0.444204" stop-color="#41D975"/>
<stop offset="1" stop-color="#073810"/>
</linearGradient>
<linearGradient id="paint9_linear_536_7114" x1="296.927" y1="530.302" x2="1252.97" y2="806.658" gradientUnits="userSpaceOnUse">
<stop stop-color="#073810"/>
<stop offset="0.444204" stop-color="#41D975"/>
<stop offset="1" stop-color="#073810"/>
</linearGradient>
<linearGradient id="paint10_linear_536_7114" x1="168.177" y1="530.302" x2="1124.22" y2="806.658" gradientUnits="userSpaceOnUse">
<stop stop-color="#073810"/>
<stop offset="0.444204" stop-color="#41D975"/>
<stop offset="1" stop-color="#073810"/>
</linearGradient>
<clipPath id="clip0_536_7114">
<rect width="449" height="336" fill="white"/>
</clipPath>
<clipPath id="clip1_536_7114">
<rect x="251.75" y="49.5312" width="72" height="32" rx="3" fill="white"/>
</clipPath>
<clipPath id="clip2_536_7114">
<rect width="16" height="16" fill="white" transform="translate(265.75 57.5312)"/>
</clipPath>
<clipPath id="clip3_536_7114">
<rect x="125.25" y="49.5312" width="91" height="32" rx="3" fill="white"/>
</clipPath>
<clipPath id="clip4_536_7114">
<rect x="334.25" y="113.478" width="77" height="32" rx="3" fill="white"/>
</clipPath>
<clipPath id="clip5_536_7114">
<rect width="16" height="16" fill="white" transform="translate(348.25 121.478)"/>
</clipPath>
<clipPath id="clip6_536_7114">
<rect x="37.75" y="113.478" width="93" height="32" rx="3" fill="white"/>
</clipPath>
<clipPath id="clip7_536_7114">
<rect width="16" height="16" fill="white" transform="translate(51.75 121.478)"/>
</clipPath>
<clipPath id="clip8_536_7114">
<rect x="334.75" y="194.469" width="76" height="32" rx="3" fill="white"/>
</clipPath>
<clipPath id="clip9_536_7114">
<rect x="38.25" y="194.469" width="86" height="32" rx="3" fill="white"/>
</clipPath>
<clipPath id="clip10_536_7114">
<rect x="251.75" y="254.469" width="71" height="32" rx="3" fill="white"/>
</clipPath>
<clipPath id="clip11_536_7114">
<rect x="123" y="254.469" width="91" height="32" rx="3" fill="white"/>
</clipPath>
</defs>
</svg>
