<svg width="110" height="16" viewBox="0 0 110 16" fill="none" xmlns="http://www.w3.org/2000/svg">
<path d="M2.67886 11.0224C2.67886 11.6226 3.16998 12.1137 3.77024 12.1137H4.13403V13.9327C4.13403 14.4349 4.54112 14.8422 5.04352 14.8422C5.54592 14.8422 5.953 14.4349 5.953 13.9327V12.1137H7.04439V13.9327C7.04439 14.4349 7.45147 14.8422 7.95387 14.8422C8.45627 14.8422 8.86336 14.4349 8.86336 13.9327V12.1137H9.22715C9.82741 12.1137 10.3185 11.6226 10.3185 11.0224V5.56545H2.67886V11.0224Z" fill="#61EB91"/>
<path d="M11.5918 5.38356C11.0894 5.38356 10.6823 5.79083 10.6823 6.29304V9.93098C10.6823 10.4332 11.0894 10.8405 11.5918 10.8405C12.0942 10.8405 12.5013 10.4332 12.5013 9.93098V6.29304C12.5013 5.79083 12.0942 5.38356 11.5918 5.38356Z" fill="#61EB91"/>
<path d="M1.40558 5.38356C0.903179 5.38356 0.496094 5.79083 0.496094 6.29304V9.93098C0.496094 10.4332 0.903179 10.8405 1.40558 10.8405C1.90798 10.8405 2.31506 10.4332 2.31506 9.93098V6.29304C2.31506 5.79083 1.90798 5.38356 1.40558 5.38356Z" fill="#61EB91"/>
<path d="M8.56613 1.99263L9.05708 1.09388C9.10528 1.00566 9.07272 0.89525 8.98468 0.847047C8.89664 0.798845 8.78587 0.831222 8.73785 0.919443L8.25127 1.81001C7.72595 1.53789 7.13115 1.38182 6.49869 1.38182C5.86624 1.38182 5.27144 1.53789 4.74612 1.81001L4.25954 0.919443C4.21116 0.831404 4.10075 0.798481 4.01271 0.847047C3.92467 0.89525 3.89211 1.00566 3.94031 1.09388L4.43125 1.99263C3.37789 2.67275 2.67886 3.85453 2.67886 5.20166H10.3185C10.3185 3.85453 9.6195 2.67275 8.56613 1.99263ZM4.86162 3.92838C4.66081 3.92838 4.49783 3.7654 4.49783 3.56459C4.49783 3.36377 4.66081 3.20079 4.86162 3.20079C5.06244 3.20079 5.22542 3.36377 5.22542 3.56459C5.22542 3.7654 5.06244 3.92838 4.86162 3.92838ZM8.13577 3.92838C7.93495 3.92838 7.77197 3.7654 7.77197 3.56459C7.77197 3.36377 7.93495 3.20079 8.13577 3.20079C8.33658 3.20079 8.49956 3.36377 8.49956 3.56459C8.49956 3.7654 8.33658 3.92838 8.13577 3.92838Z" fill="#61EB91"/>
<path d="M24.412 13.5L29.012 2.7H30.9854L35.5587 13.5H33.6787L32.412 10.54H27.5054L26.2387 13.5H24.412ZM28.1054 8.96667H31.8787L30.0254 4.55333H29.9587L28.1054 8.96667ZM48.1512 13.5H46.1245L39.9779 5.28667H39.9245V13.5H38.1645V2.7H40.1512L46.3379 11.0067H46.3912V2.7H48.1512V13.5ZM51.9133 13.5V2.7H55.9666C57.1399 2.7 58.1533 2.91778 59.0066 3.35333C59.8599 3.78 60.5133 4.39778 60.9666 5.20667C61.4288 6.01556 61.6599 6.98 61.6599 8.1C61.6599 9.21111 61.4288 10.1711 60.9666 10.98C60.5044 11.7889 59.8466 12.4111 58.9933 12.8467C58.1399 13.2822 57.1311 13.5 55.9666 13.5H51.9133ZM53.7666 11.9267H55.9666C57.1933 11.9267 58.1355 11.5844 58.7933 10.9C59.4599 10.2156 59.7933 9.28222 59.7933 8.1C59.7933 6.90889 59.4644 5.97556 58.8066 5.3C58.1488 4.61556 57.2022 4.27333 55.9666 4.27333H53.7666V11.9267ZM64.8652 13.5V2.7H70.2252C71.3452 2.7 72.2252 2.95778 72.8652 3.47333C73.5052 3.98889 73.8252 4.71333 73.8252 5.64667C73.8252 6.18 73.7052 6.64667 73.4652 7.04667C73.2252 7.43778 72.8696 7.74 72.3985 7.95333V8.00667C72.8518 8.00667 73.2029 8.13111 73.4518 8.38C73.7007 8.62 73.8252 8.97111 73.8252 9.43333V13.5H71.9852V9.22H66.7185V13.5H64.8652ZM66.7185 7.64667H70.0785C70.6918 7.64667 71.1629 7.5 71.4918 7.20667C71.8296 6.91333 71.9985 6.5 71.9985 5.96667C71.9985 5.42444 71.8296 5.01111 71.4918 4.72667C71.1629 4.43333 70.6918 4.28667 70.0785 4.28667H66.7185V7.64667ZM82.2885 13.66C81.1952 13.66 80.2352 13.4333 79.4085 12.98C78.5907 12.5178 77.9552 11.8689 77.5018 11.0333C77.0485 10.1978 76.8218 9.22 76.8218 8.1C76.8218 6.97111 77.0485 5.99333 77.5018 5.16667C77.9552 4.33111 78.5907 3.68667 79.4085 3.23333C80.2263 2.77111 81.1863 2.54 82.2885 2.54C83.3907 2.54 84.3507 2.76667 85.1685 3.22C85.9952 3.67333 86.6307 4.31778 87.0752 5.15333C87.5285 5.98 87.7552 6.96222 87.7552 8.1C87.7552 9.22 87.5285 10.1978 87.0752 11.0333C86.6218 11.8689 85.9863 12.5178 85.1685 12.98C84.3507 13.4333 83.3907 13.66 82.2885 13.66ZM82.2885 12.0467C83.4174 12.0467 84.2974 11.6911 84.9285 10.98C85.5685 10.2689 85.8885 9.30889 85.8885 8.1C85.8885 6.88222 85.5729 5.92222 84.9418 5.22C84.3107 4.50889 83.4263 4.15333 82.2885 4.15333C81.1596 4.15333 80.2752 4.50889 79.6352 5.22C79.004 5.92222 78.6885 6.88222 78.6885 8.1C78.6885 9.31778 79.004 10.2822 79.6352 10.9933C80.2752 11.6956 81.1596 12.0467 82.2885 12.0467ZM90.9941 13.5V2.7H92.8474V13.5H90.9941ZM96.6583 13.5V2.7H100.712C101.885 2.7 102.898 2.91778 103.752 3.35333C104.605 3.78 105.258 4.39778 105.712 5.20667C106.174 6.01556 106.405 6.98 106.405 8.1C106.405 9.21111 106.174 10.1711 105.712 10.98C105.249 11.7889 104.592 12.4111 103.738 12.8467C102.885 13.2822 101.876 13.5 100.712 13.5H96.6583ZM98.5116 11.9267H100.712C101.938 11.9267 102.881 11.5844 103.538 10.9C104.205 10.2156 104.538 9.28222 104.538 8.1C104.538 6.90889 104.209 5.97556 103.552 5.3C102.894 4.61556 101.947 4.27333 100.712 4.27333H98.5116V11.9267Z" fill="#61EB91"/>
</svg>
