<svg width="46" height="46" viewBox="0 0 46 46" fill="none" xmlns="http://www.w3.org/2000/svg">
<mask id="mask0_581_3783" style="mask-type:luminance" maskUnits="userSpaceOnUse" x="0" y="0" width="46" height="46">
<path d="M46 0H0V46H46V0Z" fill="white"/>
</mask>
<g mask="url(#mask0_581_3783)">
<path d="M3.29102 0H42.7194V26.2857C42.7194 37.1737 33.8932 46 23.0053 46C12.1174 46 3.29102 37.1737 3.29102 26.2857V0Z" fill="#5352B9"/>
<path fill-rule="evenodd" clip-rule="evenodd" d="M23.0078 46C33.8957 46 42.7224 37.1737 42.7224 26.2857V0H23.0078V46Z" fill="#9595E2"/>
<path d="M23.0149 37.7436C23.3785 38.0634 23.6837 38.3106 23.9619 38.5866C24.3489 38.9719 24.3737 39.2824 24.0694 39.7437C23.9256 39.9604 23.7597 40.1625 23.6076 40.3735C23.5319 40.4801 23.4585 40.5889 23.3948 40.703C23.2471 40.9706 23.1666 41.2789 23.0892 41.5784L23.0852 41.593C23.0658 41.669 23.1555 41.8044 23.2347 41.861C23.2759 41.8898 23.4196 41.827 23.4846 41.769L23.8026 41.4828C24.1454 41.1754 24.49 40.868 24.8036 40.5323C25.7284 39.538 25.6581 38.4774 24.6404 37.5883C24.1207 37.1336 24.1388 37.0346 24.6293 36.5308C24.8381 36.3158 25.0468 36.1 25.2516 35.8797C25.5599 35.5462 25.8585 35.203 26.1292 34.8411C26.6409 34.1582 26.6352 33.389 26.1363 32.6999C25.7382 32.151 25.2693 31.6441 24.7859 31.1638C24.3462 30.7277 24.3157 30.6666 24.8036 30.2659C25.0287 30.0815 25.2569 29.9006 25.4852 29.7197C25.7851 29.4817 26.0854 29.2433 26.3782 28.9972C27.2354 28.2793 27.4136 27.3729 26.905 26.379C26.4914 25.5733 25.8129 25.0521 25.0026 24.6659C24.8978 24.6165 24.812 24.5287 24.7262 24.4409L24.6085 24.3249C24.6501 24.2837 24.689 24.2389 24.7275 24.1943C24.812 24.0979 24.896 24.0016 25.0013 23.9407C25.4078 23.7044 25.8182 23.4749 26.2291 23.2455C26.9355 22.8513 27.6419 22.4571 28.3248 22.0274C29.1846 21.4862 29.573 20.6204 29.688 19.6354C29.7818 18.8343 29.6451 18.0909 29.0603 17.4604L29.117 17.3502H30.4496L30.4802 17.2279L30.3377 17.0619C30.2201 16.931 30.1024 16.8001 30.0237 16.6505C29.952 16.5157 29.9228 16.2761 30.0003 16.1703C30.079 16.0601 30.3072 16.0185 30.4718 16.0146C30.6005 16.0116 30.7305 16.1144 30.8601 16.1664L31.5567 16.4446C32.1999 16.7019 32.8425 16.959 33.4909 17.2005C33.6626 17.2646 33.8505 17.2886 34.0372 17.3127C34.123 17.3237 34.2084 17.3348 34.2929 17.3496L34.3539 17.2359C34.1173 17.0021 33.8806 16.7683 33.6568 16.5207C33.4675 16.3101 33.2879 16.0896 33.1247 15.8504L33.4233 15.9511L34.2791 16.2156C34.9245 16.4175 35.5702 16.6194 36.2271 16.7834C36.668 16.8936 37.1448 16.8637 37.6066 16.8974L37.6424 16.7445C37.0909 16.3168 36.3429 16.0974 35.9918 15.3321L36.8848 15.5466C37.5208 15.7009 38.1308 15.8487 38.746 15.975C39.7907 16.1902 40.9965 16.1466 41.4348 15.9106L40.8262 15.6896C40.3865 15.5322 39.9513 15.3766 39.5298 15.1905C36.9374 14.047 34.3924 12.8218 32.0061 11.2874C30.4094 10.2612 28.9303 10.7091 28.0568 12.374C27.7401 12.9785 27.4371 13.5903 27.1372 14.2032C26.7002 15.096 26.0257 15.7495 25.08 16.0853C24.5532 16.2724 23.9933 16.3812 23.4404 16.4775C23.3174 16.4987 23.1016 16.5292 23.0149 16.3008V17.5332C23.0742 17.4583 23.2444 17.3711 23.3479 17.3669C23.7615 17.3505 24.1746 17.3526 24.5895 17.355L25.0747 17.3569L25.1756 17.5023L23.0865 19.448L23.0149 19.4242V20.44C23.052 20.4425 23.0865 20.4339 23.1034 20.4471C23.9535 21.1664 24.6267 21.0708 25.2348 20.1397C25.3565 19.953 25.4741 19.7619 25.582 19.5673C25.7408 19.2825 25.9443 19.0762 26.1889 18.9408C26.4335 18.8056 26.7197 18.7411 27.043 18.7397C27.7524 18.7365 28.239 19.2745 28.0373 19.9479C27.928 20.3104 27.6874 20.6996 27.3889 20.9285C26.7696 21.4041 26.0894 21.8108 25.402 22.1903C24.8615 22.4884 24.3047 22.7573 23.75 23.0253L23.0149 23.3832L23.0078 25.0885C23.677 25.4678 24.3573 25.7967 24.9734 26.2163C25.9385 26.8733 25.962 27.7449 25.0482 28.486C24.6103 28.8419 24.1485 29.1709 23.6713 29.5109L23.0078 29.9877L23.0105 31.465L23.1418 31.3739C23.3895 31.6216 23.6425 31.8649 23.8924 32.1099C24.2463 32.4562 24.5979 32.8061 24.9252 33.1763C25.3277 33.6314 25.3264 34.1122 24.892 34.5696C24.7164 34.754 24.5342 34.9323 24.3489 35.1056C23.8995 35.5267 23.4351 35.9195 23.0105 36.3065L23.0149 37.7436Z" fill="#5352B9"/>
<path d="M23.0156 16.0326C23.1386 15.8095 23.5866 15.7209 23.6985 15.6933C25.2842 15.3026 26.4205 14.4148 27.03 12.8878C27.2666 12.2976 27.5608 11.7152 27.9217 11.1916C28.8329 9.8695 30.1408 9.46187 31.6212 10.1207C32.6694 10.587 33.6978 11.1447 34.6297 11.8039C36.782 13.3254 39.1072 14.4526 41.6912 15.0217C42.3936 15.1765 43.1481 15.1986 43.87 15.1474C44.6772 15.0898 45.3809 14.7069 46.0085 14.0882C45.8082 14.0758 45.6158 14.0681 45.4278 14.0606C45.0368 14.0448 44.6675 14.03 44.3052 13.9764C41.9358 13.6263 39.6809 12.8979 37.6144 11.7109C36.8055 11.2461 36.0301 10.7251 35.26 10.1939C34.7801 9.86291 34.3033 9.52795 33.8221 9.20015C32.5544 8.33677 31.1912 7.81051 29.618 7.92078C28.4388 8.00371 27.5334 8.5186 27.0013 9.56382C26.7438 10.0688 26.5766 10.6196 26.3873 11.1562C26.2962 11.4155 26.2144 11.6787 26.133 11.9418C25.9822 12.4217 25.8318 12.9013 25.6257 13.3563C25.2121 14.2688 24.4337 14.8185 23.4566 15.0776C23.346 15.1068 23.2076 15.1459 23.1081 15.1131C23.0709 15.1008 23.0391 15.0781 23.0156 15.0413V16.0326Z" fill="#5352B9"/>
<path d="M23.0156 11.3608V4.92773C23.0846 5.73406 23.231 6.53048 23.4898 7.31133L23.6583 7.78318C23.7733 8.13256 24.0037 8.28927 24.3881 8.2799C24.9052 8.26751 25.4222 8.27003 25.9393 8.27278L26.5824 8.27481C26.5214 8.47429 26.4232 8.57695 26.3099 8.65918C25.8535 8.98852 25.3948 9.31375 24.9344 9.63659C24.4284 9.99211 24.4062 10.0489 24.6053 10.6405L25.3103 12.7208C25.0781 12.5826 24.9481 12.5159 24.8304 12.4326C24.5018 12.2021 24.1767 11.9678 23.8503 11.7355L23.3858 11.4072C23.3403 11.3753 23.2934 11.3478 23.2478 11.3289C23.1523 11.2898 23.0652 11.2879 23.0156 11.3608Z" fill="#5352B9"/>
<path d="M22.9959 37.7436C22.6323 38.0634 22.3271 38.3106 22.0489 38.5866C21.6619 38.9719 21.6371 39.2824 21.9414 39.7437C22.0852 39.9604 22.2511 40.1625 22.4032 40.3735C22.4788 40.4801 22.5523 40.5889 22.616 40.703C22.7637 40.9706 22.8442 41.2789 22.9216 41.5784L22.9256 41.593C22.945 41.669 22.8552 41.8044 22.7761 41.861C22.7349 41.8898 22.5912 41.827 22.5262 41.769L22.2082 41.4828C21.8654 41.1754 21.5208 40.868 21.2072 40.5323C20.2823 39.538 20.3527 38.4774 21.3704 37.5883C21.8901 37.1336 21.872 37.0346 21.3815 36.5308C21.1727 36.3158 20.9639 36.1 20.7592 35.8797C20.4509 35.5462 20.1523 35.203 19.8814 34.8411C19.3699 34.1582 19.3754 33.389 19.8745 32.6999C20.2727 32.151 20.7415 31.6441 21.2249 31.1638C21.6646 30.7277 21.6951 30.6666 21.2072 30.2659C20.9816 30.0815 20.7538 29.9006 20.5256 29.7197C20.2256 29.4817 19.9256 29.2433 19.6325 28.9972C18.7754 28.2793 18.5971 27.3729 19.1058 26.379C19.5191 25.5733 20.198 25.0521 21.0082 24.6659C21.113 24.6165 21.1988 24.5287 21.2846 24.4409L21.4023 24.3249C21.3607 24.2837 21.3218 24.2389 21.2833 24.1943C21.1988 24.0979 21.1148 24.0016 21.0095 23.9407C20.603 23.7044 20.1924 23.4749 19.7818 23.2455C19.0754 22.8513 18.3689 22.4571 17.686 22.0274C16.8261 21.4862 16.4376 20.6204 16.323 19.6354C16.2289 18.8343 16.3658 18.0909 16.9505 17.4604L16.8938 17.3502H15.5612L15.5307 17.2279L15.6732 17.0619C15.7906 16.931 15.9081 16.8001 15.9869 16.6505C16.0589 16.5157 16.0879 16.2761 16.0105 16.1703C15.9317 16.0601 15.7036 16.0185 15.539 16.0146C15.4105 16.0116 15.2805 16.1144 15.1506 16.1664L14.4539 16.4446C13.811 16.7019 13.1682 16.959 12.5198 17.2005C12.3483 17.2646 12.1603 17.2886 11.9737 17.3127C11.888 17.3237 11.8023 17.3348 11.7179 17.3496L11.6571 17.2359C11.8935 17.0021 12.1299 16.7683 12.3538 16.5207C12.5432 16.3101 12.723 16.0896 12.8861 15.8504L12.5875 15.9511L11.7318 16.2156C11.0861 16.4175 10.4406 16.6194 9.7839 16.7834C9.34288 16.8936 8.86594 16.8637 8.40417 16.8974L8.36825 16.7445C8.91986 16.3168 9.66775 16.0974 10.0189 15.3321L9.12584 15.5466C8.48989 15.7009 7.88021 15.8487 7.26505 15.975C6.21988 16.1902 5.01441 16.1466 4.57617 15.9106L5.18443 15.6896C5.62404 15.5322 6.05954 15.3766 6.48119 15.1905C9.07329 14.047 11.6184 12.8218 14.0046 11.2874C15.6012 10.2612 17.0805 10.7091 17.9543 12.374C18.2708 12.9785 18.5735 13.5903 18.8735 14.2032C19.3104 15.096 19.985 15.7495 20.9308 16.0853C21.4576 16.2724 22.0175 16.3812 22.5704 16.4775C22.6934 16.4987 22.9092 16.5292 22.9959 16.3008V17.5332C22.9366 17.4583 22.7663 17.3711 22.6628 17.3669C22.2493 17.3505 21.8362 17.3526 21.4213 17.355L20.9361 17.3569L20.8352 17.5023L22.9242 19.448L22.9959 19.4242V20.44C22.9587 20.4425 22.9242 20.4339 22.9074 20.4471C22.0573 21.1664 21.3841 21.0708 20.776 20.1397C20.6543 19.953 20.5367 19.7619 20.4287 19.5673C20.2699 19.2825 20.0667 19.0762 19.8219 18.9408C19.5772 18.8056 19.2911 18.7411 18.9676 18.7397C18.2584 18.7365 17.7717 19.2745 17.9735 19.9479C18.0828 20.3104 18.3234 20.6996 18.6219 20.9285C19.2413 21.4041 19.9214 21.8108 20.6088 22.1903C21.1493 22.4884 21.7061 22.7573 22.2608 23.0253L22.9959 23.3832L23.003 25.0885C22.3338 25.4678 21.6535 25.7967 21.0374 26.2163C20.0722 26.8733 20.0486 27.7449 20.9626 28.486C21.4005 28.8419 21.8623 29.1709 22.3395 29.5109L23.003 29.9877L23.0003 31.465L22.869 31.3739C22.6213 31.6216 22.3683 31.8649 22.1184 32.1099C21.7645 32.4562 21.4129 32.8061 21.0856 33.1763C20.6831 33.6314 20.6844 34.1122 21.1187 34.5696C21.2943 34.754 21.4766 34.9323 21.6619 35.1056C22.1113 35.5267 22.5757 35.9195 23.0003 36.3065L22.9959 37.7436Z" fill="#9595E2"/>
<path d="M22.9929 16.0326C22.87 15.8095 22.4223 15.7209 22.31 15.6933C20.7243 15.3026 19.5881 14.4148 18.9784 12.8878C18.742 12.2976 18.4476 11.7152 18.0868 11.1916C17.1757 9.8695 15.8679 9.46187 14.3873 10.1207C13.3393 10.587 12.3109 11.1447 11.379 11.8039C9.22654 13.3254 6.90124 14.4526 4.31741 15.0217C3.61516 15.1765 2.86032 15.1986 2.13865 15.1474C1.3313 15.0898 0.627635 14.7069 0 14.0882C0.200454 14.0758 0.392636 14.0681 0.580617 14.0606C0.971882 14.0448 1.34099 14.03 1.70319 13.9764C4.07273 13.6263 6.32752 12.8979 8.39429 11.7109C9.20305 11.2461 9.97859 10.7251 10.7487 10.1939C11.2283 9.86291 11.7053 9.52795 12.1864 9.20015C13.4541 8.33677 14.8172 7.81051 16.3905 7.92078C17.5697 8.00371 18.4752 8.5186 19.0074 9.56382C19.2646 10.0688 19.4319 10.6196 19.6213 11.1562C19.7125 11.4155 19.794 11.6787 19.8757 11.9418C20.0263 12.4217 20.177 12.9013 20.3829 13.3563C20.7964 14.2688 21.5749 14.8185 22.5519 15.0776C22.6625 15.1068 22.801 15.1459 22.9005 15.1131C22.9376 15.1008 22.9695 15.0781 22.9929 15.0413V16.0326Z" fill="#9595E2"/>
<path d="M22.9963 11.3608V4.92773C22.9273 5.73406 22.7809 6.53048 22.5221 7.31133L22.3536 7.78318C22.2386 8.13256 22.0082 8.28927 21.6238 8.2799C21.1067 8.26751 20.5897 8.27003 20.0725 8.27278L19.4297 8.27481C19.4905 8.47429 19.5886 8.57695 19.702 8.65918C20.1582 8.98852 20.6171 9.31375 21.0775 9.63659C21.5835 9.99211 21.6057 10.0489 21.4066 10.6405L20.7016 12.7208C20.9338 12.5826 21.0638 12.5159 21.181 12.4326C21.5101 12.2021 21.8352 11.9678 22.1612 11.7355L22.6261 11.4072C22.6716 11.3753 22.7185 11.3478 22.7641 11.3289C22.8596 11.2898 22.9467 11.2879 22.9963 11.3608Z" fill="#9595E2"/>
</g>
</svg>
