<svg xmlns="http://www.w3.org/2000/svg" width="100%" viewBox="0 0 88 25" fill="none"><path d="M6.42281 12.5L15.2597 21.3015L12.0483 24.5L0 12.5L12.0483 0.5L15.2597 3.69855L6.42281 12.5Z" fill="currentColor"/><path d="M30.5237 12.5L18.4755 24.5L15.264 21.3015L24.1009 12.5L15.2597 3.69855L18.4711 0.5L30.5193 12.5H30.5237Z" fill="currentColor"/><path d="M9.6386 12.5L15.2597 6.90145L20.8807 12.5L15.2597 18.0985L9.6386 12.5Z" fill="currentColor"/><path d="M36.1424 19.4526V5.31441H43.1873C44.6594 5.31441 45.816 5.65187 46.6572 6.32678C47.4984 7.00169 47.919 7.95005 47.919 9.17187C47.919 9.87005 47.7613 10.481 47.4459 11.0046C47.1304 11.5166 46.6631 11.9122 46.0439 12.1915V12.2613C46.6397 12.2613 47.1012 12.4242 47.4283 12.7501C47.7555 13.0642 47.919 13.5239 47.919 14.129V19.4526H45.5006V13.8497H38.5783V19.4526H36.1424ZM38.5783 11.7901H42.9946C43.8007 11.7901 44.4199 11.5981 44.8522 11.2141C45.2962 10.8301 45.5181 10.289 45.5181 9.59078C45.5181 8.88096 45.2962 8.33987 44.8522 7.9675C44.4199 7.5835 43.8007 7.39151 42.9946 7.39151H38.5783V11.7901Z" fill="currentColor"/><path d="M55.4853 19.6621C54.3754 19.6621 53.4057 19.441 52.5762 18.9988C51.7584 18.545 51.1275 17.905 50.6835 17.0788C50.2396 16.2526 50.0176 15.2868 50.0176 14.1813C50.0176 13.0759 50.2337 12.1217 50.666 11.3188C51.11 10.5042 51.735 9.87587 52.5412 9.43369C53.3473 8.9915 54.2995 8.77041 55.3977 8.77041C56.4492 8.77041 57.3546 8.97987 58.114 9.39878C58.8734 9.80605 59.4576 10.3937 59.8665 11.1617C60.2871 11.9181 60.4974 12.8199 60.4974 13.8671V14.7399H52.2958C52.3893 15.694 52.7106 16.433 53.2597 16.9566C53.8088 17.4686 54.5448 17.7246 55.4678 17.7246C56.1454 17.7246 56.7004 17.5966 57.1326 17.3406C57.5649 17.0846 57.8628 16.7006 58.0264 16.1886H60.4448C60.1878 17.2824 59.6212 18.1377 58.7449 18.7544C57.8804 19.3595 56.7938 19.6621 55.4853 19.6621ZM52.3659 13.0817H58.2192C58.1257 12.3137 57.8336 11.726 57.3429 11.3188C56.8523 10.8999 56.2038 10.6904 55.3977 10.6904C54.5916 10.6904 53.9256 10.8999 53.3999 11.3188C52.8741 11.726 52.5295 12.3137 52.3659 13.0817Z" fill="currentColor"/><path d="M65.4528 19.4526L60.9665 8.97987H63.4725L66.7321 16.8344H66.8022L70.0092 8.97987H72.4452L67.9588 19.4526H65.4528Z" fill="currentColor"/><path d="M73.8962 23.6417V21.7391H76.3321L77.296 19.4351L72.6694 8.97987H75.1579L78.4701 16.6599H78.5577L81.7472 8.97987H84.1306L79.6443 19.4526L78.6804 21.7217C78.4234 22.3268 78.143 22.7981 77.8392 23.1355C77.5471 23.473 77.0623 23.6417 76.3847 23.6417H73.8962Z" fill="currentColor"/><path d="M85.6166 19.4526V4.79078H88V19.4526H85.6166Z" fill="currentColor"/></svg>
