<svg width="24" height="24" viewBox="0 0 24 24" fill="none" xmlns="http://www.w3.org/2000/svg">
<path d="M1 21.9996C1 17.5813 4.58172 13.9996 9 13.9996C13.4183 13.9996 17 17.5813 17 21.9996H15C15 18.6859 12.3137 15.9996 9 15.9996C5.68629 15.9996 3 18.6859 3 21.9996H1ZM9 12.9996C5.685 12.9996 3 10.3146 3 6.99965C3 3.68465 5.685 0.999654 9 0.999654C12.315 0.999654 15 3.68465 15 6.99965C15 10.3146 12.315 12.9996 9 12.9996ZM9 10.9996C11.21 10.9996 13 9.20965 13 6.99965C13 4.78965 11.21 2.99965 9 2.99965C6.79 2.99965 5 4.78965 5 6.99965C5 9.20965 6.79 10.9996 9 10.9996ZM21.5476 0.783203C22.4773 2.65614 23 4.76686 23 6.99965C23 9.23244 22.4773 11.3431 21.5476 13.2161L19.9027 12.0197C20.6071 10.4924 21 8.79194 21 6.99965C21 5.20735 20.6071 3.50683 19.9027 1.97953L21.5476 0.783203ZM18.2463 3.18414C18.732 4.35989 19 5.64847 19 6.99965C19 8.35082 18.732 9.6394 18.2463 10.8151L16.5694 9.59558C16.8485 8.78157 17 7.9083 17 6.99965C17 6.09099 16.8485 5.21772 16.5694 4.40371L18.2463 3.18414Z" fill="#A36BFF"/>
</svg>
