<svg width="106" height="16" viewBox="0 0 106 16" fill="none" xmlns="http://www.w3.org/2000/svg">
<path d="M8.66667 14.6666C4.98477 14.6666 2 11.6818 2 7.99992C2 4.31802 4.98477 1.33325 8.66667 1.33325C12.3485 1.33325 15.3333 4.31802 15.3333 7.99992C15.3333 11.6818 12.3485 14.6666 8.66667 14.6666ZM7.14001 13.1115C6.49829 11.7505 6.10488 10.2494 6.01821 8.66658H3.37459C3.63867 10.7843 5.14426 12.5164 7.14001 13.1115ZM7.3538 8.66658C7.45407 10.2925 7.91853 11.8197 8.66667 13.1679C9.4148 11.8197 9.87927 10.2925 9.97953 8.66658H7.3538ZM13.9587 8.66658H11.3151C11.2285 10.2494 10.8351 11.7505 10.1933 13.1115C12.1891 12.5164 13.6947 10.7843 13.9587 8.66658ZM3.37459 7.33325H6.01821C6.10488 5.75043 6.49829 4.2493 7.14001 2.88829C5.14426 3.48347 3.63867 5.21559 3.37459 7.33325ZM7.3538 7.33325H9.97953C9.87927 5.7074 9.4148 4.18009 8.66667 2.83191C7.91853 4.18009 7.45407 5.7074 7.3538 7.33325ZM10.1933 2.88829C10.8351 4.2493 11.2285 5.75043 11.3151 7.33325H13.9587C13.6947 5.21559 12.1891 3.48347 10.1933 2.88829Z" fill="#B385FF"/>
<path d="M28.228 13.5L25.0813 2.7H27.0146L29.2413 10.82H29.308L31.7213 2.7H33.4146L35.9746 10.82H36.028L38.228 2.7H40.1746L37.028 13.5H35.1346L32.588 5.22H32.5346L30.1213 13.5H28.228ZM50.7898 13.5H43.1098V2.7H50.7898V4.3H44.9632V7.11333H50.4165V8.68667H44.9632V11.9H50.7898V13.5ZM53.9836 13.5V2.7H59.3569C59.9969 2.7 60.5525 2.81556 61.0236 3.04667C61.5036 3.26889 61.8769 3.58889 62.1436 4.00667C62.4103 4.41556 62.5436 4.9 62.5436 5.46C62.5436 6.02889 62.3791 6.50889 62.0503 6.9C61.7214 7.28222 61.3125 7.54889 60.8236 7.7V7.75333C61.2147 7.82444 61.5791 7.97556 61.9169 8.20667C62.2636 8.43778 62.5436 8.74 62.7569 9.11333C62.9703 9.48667 63.0769 9.93111 63.0769 10.4467C63.0769 11.06 62.9303 11.5978 62.6369 12.06C62.3436 12.5133 61.9347 12.8689 61.4103 13.1267C60.8858 13.3756 60.2814 13.5 59.5969 13.5H53.9836ZM55.8369 11.9H59.2369C59.868 11.9 60.3569 11.7578 60.7036 11.4733C61.0503 11.1889 61.2236 10.7844 61.2236 10.26C61.2236 9.72667 61.0503 9.32667 60.7036 9.06C60.3569 8.78444 59.8725 8.64667 59.2503 8.64667H55.8369V11.9ZM55.8369 7.15333H59.1169C59.6147 7.15333 60.0014 7.03333 60.2769 6.79333C60.5525 6.54444 60.6903 6.18889 60.6903 5.72667C60.6903 5.26444 60.5525 4.91333 60.2769 4.67333C60.0014 4.42444 59.6147 4.3 59.1169 4.3H55.8369V7.15333ZM70.1805 13.5L74.7805 2.7H76.7538L81.3271 13.5H79.4471L78.1805 10.54H73.2738L72.0071 13.5H70.1805ZM73.8738 8.96667H77.6471L75.7938 4.55333H75.7271L73.8738 8.96667ZM83.933 13.5V2.7H88.9063C90.1063 2.7 91.0352 3.00222 91.693 3.60667C92.3596 4.20222 92.693 5.02444 92.693 6.07333C92.693 7.11333 92.3596 7.93556 91.693 8.54C91.0352 9.14444 90.1063 9.44667 88.9063 9.44667H85.7863V13.5H83.933ZM85.7863 7.86H88.7996C89.4663 7.86 89.973 7.7 90.3196 7.38C90.6663 7.06 90.8396 6.62444 90.8396 6.07333C90.8396 5.51333 90.6663 5.07778 90.3196 4.76667C89.973 4.44667 89.4663 4.28667 88.7996 4.28667H85.7863V7.86ZM95.6036 13.5V2.7H100.577C101.777 2.7 102.706 3.00222 103.364 3.60667C104.03 4.20222 104.364 5.02444 104.364 6.07333C104.364 7.11333 104.03 7.93556 103.364 8.54C102.706 9.14444 101.777 9.44667 100.577 9.44667H97.4569V13.5H95.6036ZM97.4569 7.86H100.47C101.137 7.86 101.644 7.7 101.99 7.38C102.337 7.06 102.51 6.62444 102.51 6.07333C102.51 5.51333 102.337 5.07778 101.99 4.76667C101.644 4.44667 101.137 4.28667 100.47 4.28667H97.4569V7.86Z" fill="#B385FF"/>
</svg>
